G04 DipTrace 3.3.1.3*
G04 TopMask.gbr*
%MOIN*%
G04 #@! TF.FileFunction,Soldermask,Top*
G04 #@! TF.Part,Single*
%ADD58C,0.03937*%
%ADD70R,0.051339X0.031654*%
%ADD72R,0.111181X0.14622*%
%ADD74R,0.071024X0.032047*%
%ADD76C,0.067031*%
%ADD78R,0.067031X0.067031*%
%ADD80C,0.068031*%
%ADD82C,0.128031*%
%ADD84R,0.128031X0.128031*%
%ADD86R,0.06315X0.039528*%
%ADD88R,0.06315X0.055276*%
%ADD90R,0.086772X0.055276*%
%ADD92R,0.059213X0.035591*%
%ADD94R,0.067087X0.059213*%
%ADD96R,0.039528X0.043465*%
%ADD98C,0.208031*%
%ADD100R,0.145827X0.100551*%
%ADD102R,0.084803X0.084803*%
%ADD104C,0.084803*%
%ADD106C,0.074961*%
%ADD108R,0.074961X0.074961*%
%ADD110C,0.067087*%
%ADD112R,0.067087X0.067087*%
%ADD114R,0.106457X0.074961*%
%ADD116R,0.078898X0.071024*%
%ADD118R,0.059213X0.067087*%
%ADD120R,0.071024X0.078898*%
%ADD122R,0.185197X0.090709*%
%FSLAX26Y26*%
G04*
G70*
G90*
G75*
G01*
G04 TopMask*
%LPD*%
D122*
X1181102Y1889764D3*
X826772D3*
X1943701Y1893701D3*
X1589370D3*
X2793701D3*
X2439370D3*
D120*
X2468701Y3406201D3*
X2358465D3*
D122*
X3643701Y1893701D3*
X3289370D3*
D118*
X4018701Y3201701D3*
X4093504D3*
D116*
X4180701Y3194701D3*
Y3084465D3*
X4147467Y3427722D3*
Y3537958D3*
D118*
X3803701Y3025701D3*
X3728898D3*
D114*
X818701Y3493701D3*
X976181D3*
X4018701Y3318701D3*
X4176181D3*
X4331201Y1881201D3*
X4173720D3*
D112*
X2543701Y3543701D3*
D110*
X2443701D3*
X2543701Y3643701D3*
X2443701D3*
D112*
X3281201Y3168701D3*
D110*
X3181201D3*
X3281201Y3268701D3*
X3181201D3*
D112*
X443701Y2343701D3*
D110*
X543701D3*
X643701D3*
X743701D3*
X843701D3*
X943701D3*
X1043701D3*
X1143701D3*
X1243701D3*
X1343701D3*
X1443701D3*
X1543701D3*
X1643701D3*
X1743701D3*
X1843701D3*
X1943701D3*
X2043701D3*
X2143701D3*
X2243701D3*
D112*
X2043701Y3643701D3*
D110*
Y3543701D3*
X1943701Y3643701D3*
Y3543701D3*
X1843701Y3643701D3*
Y3543701D3*
X1743701Y3643701D3*
Y3543701D3*
X1643701Y3643701D3*
Y3543701D3*
X1543701Y3643701D3*
Y3543701D3*
D108*
X2843701D3*
D106*
X2943701D3*
X3043701D3*
D112*
X2043701Y2993701D3*
D110*
Y2893701D3*
D112*
X1943701Y2993701D3*
D110*
Y2893701D3*
D112*
X1843701Y2993701D3*
D110*
Y2893701D3*
D112*
X1743701Y2993701D3*
D110*
Y2893701D3*
D112*
X4193701Y2168701D3*
D110*
X4093701D3*
D112*
X2993701Y1143701D3*
D110*
Y1243701D3*
D104*
X4251969Y1574803D3*
D102*
X4015748Y1496063D3*
D104*
X4488189D3*
X4015748Y1015748D3*
X4488189D3*
D100*
X3791255Y3233992D3*
Y3472181D3*
D98*
X531496Y944882D3*
X4744094Y3562992D3*
X531496D3*
X4744094Y944882D3*
D96*
X4218701Y2056201D3*
X4143898D3*
X4181299Y1977461D3*
D94*
X2499950Y3106201D3*
Y3031398D3*
X2043701Y3143701D3*
Y3218504D3*
X1943701Y3143701D3*
Y3218504D3*
X1843701Y3143701D3*
Y3218504D3*
X1743701Y3143701D3*
Y3218504D3*
D118*
X4318701Y2168701D3*
X4393504D3*
D94*
X3881701Y2843701D3*
Y2918504D3*
D118*
X3725701Y2843701D3*
X3800504D3*
D94*
X4180701Y2934701D3*
Y3009504D3*
D118*
X3803701Y2934701D3*
X3728898D3*
D92*
X943701Y2793701D3*
Y2837008D3*
Y2880315D3*
Y2923622D3*
Y2966929D3*
Y3010236D3*
Y3053543D3*
Y3096850D3*
Y3140157D3*
D90*
X528346Y2605512D3*
D88*
X910236D3*
D86*
Y3183465D3*
D90*
X528346D3*
D58*
X512598Y3072835D3*
Y2757874D3*
D84*
X4706201Y2406201D3*
D82*
Y2603051D3*
D84*
X4168701Y568701D3*
D82*
X4365551D3*
D84*
X618701D3*
D82*
X815551D3*
X1012402D3*
X1209252D3*
D84*
X1468701D3*
D82*
X1665551D3*
X1862402D3*
X2059252D3*
D84*
X2318701D3*
D82*
X2515551D3*
X2712402D3*
X2909252D3*
D84*
X3168701D3*
D82*
X3365551D3*
X3562402D3*
X3759252D3*
D80*
X443701Y3343701D3*
X543701D3*
X643701D3*
X743701D3*
X843701D3*
X943701D3*
X1043701D3*
X1143701D3*
X1243701D3*
X1343701D3*
X1443701D3*
X1543701D3*
X1643701D3*
X1743701D3*
X1843701D3*
X1943701D3*
X2043701D3*
X2143701D3*
X2243701D3*
X443701Y2443701D3*
X543701D3*
X643701D3*
X743701D3*
X843701D3*
X943701D3*
X1043701D3*
X1143701D3*
X1243701D3*
X1343701D3*
X1443701D3*
X1543701D3*
X1643701D3*
X1743701D3*
X1843701D3*
X1943701D3*
X2043701D3*
X2143701D3*
X2243701D3*
D78*
X768701Y1593701D3*
D76*
Y1493701D3*
Y1393701D3*
Y1293701D3*
Y1193701D3*
Y1093701D3*
Y993701D3*
Y893701D3*
X1268701D3*
Y993701D3*
Y1093701D3*
Y1193701D3*
Y1293701D3*
Y1393701D3*
Y1493701D3*
Y1593701D3*
X868701D3*
X968701D3*
D78*
X1543701D3*
D76*
Y1493701D3*
Y1393701D3*
Y1293701D3*
Y1193701D3*
Y1093701D3*
Y993701D3*
Y893701D3*
X2043701D3*
Y993701D3*
Y1093701D3*
Y1193701D3*
Y1293701D3*
Y1393701D3*
Y1493701D3*
Y1593701D3*
X1643701D3*
X1743701D3*
D78*
X2343701D3*
D76*
Y1493701D3*
Y1393701D3*
Y1293701D3*
Y1193701D3*
Y1093701D3*
Y993701D3*
Y893701D3*
X2843701D3*
Y993701D3*
Y1093701D3*
Y1193701D3*
Y1293701D3*
Y1393701D3*
Y1493701D3*
Y1593701D3*
X2443701D3*
X2543701D3*
D78*
X3193701D3*
D76*
Y1493701D3*
Y1393701D3*
Y1293701D3*
Y1193701D3*
Y1093701D3*
Y993701D3*
Y893701D3*
X3693701D3*
Y993701D3*
Y1093701D3*
Y1193701D3*
Y1293701D3*
Y1393701D3*
Y1493701D3*
Y1593701D3*
X3293701D3*
X3393701D3*
D74*
X3878745Y3127753D3*
Y3077753D3*
Y3027753D3*
Y2977753D3*
X4091344D3*
Y3027753D3*
Y3077753D3*
Y3127753D3*
D72*
X3985045Y3052753D3*
D70*
X2593701Y3193701D3*
Y3156299D3*
Y3118898D3*
X2700000D3*
Y3156299D3*
Y3193701D3*
D94*
X2381201Y3187451D3*
Y3112648D3*
X2831201Y3124950D3*
Y3050147D3*
M02*
