G04 DipTrace 3.3.1.3*
G04 TopSilk.gbr*
%MOIN*%
G04 #@! TF.FileFunction,Legend,Top*
G04 #@! TF.Part,Single*
%ADD10C,0.009843*%
%ADD22C,0.008*%
%ADD23C,0.01*%
%ADD24C,0.0151*%
%ADD25C,0.031465*%
%ADD30C,0.019695*%
%ADD50C,0.019705*%
%ADD53C,0.015395*%
%ADD124C,0.006176*%
%ADD125C,0.00772*%
%ADD126C,0.004632*%
%ADD128C,0.010807*%
%FSLAX26Y26*%
G04*
G70*
G90*
G75*
G01*
G04 TopSilk*
%LPD*%
X801171Y1687008D2*
D10*
Y1830721D1*
Y1687008D2*
X1141754D1*
X801171Y1948806D2*
Y2092520D1*
X1141754D1*
X1206703Y1751971D2*
Y1830721D1*
Y1948806D2*
Y2027557D1*
Y1751971D2*
X1141754Y1687008D1*
X1206703Y2027557D2*
X1141754Y2092520D1*
D25*
X1240134Y1818901D3*
X1563770Y1690945D2*
D10*
Y1834658D1*
Y1690945D2*
X1904352D1*
X1563770Y1952743D2*
Y2096457D1*
X1904352D1*
X1969301Y1755908D2*
Y1834658D1*
Y1952743D2*
Y2031494D1*
Y1755908D2*
X1904352Y1690945D1*
X1969301Y2031494D2*
X1904352Y2096457D1*
D25*
X2002732Y1822838D3*
X2413770Y1690945D2*
D10*
Y1834658D1*
Y1690945D2*
X2754352D1*
X2413770Y1952743D2*
Y2096457D1*
X2754352D1*
X2819301Y1755908D2*
Y1834658D1*
Y1952743D2*
Y2031494D1*
Y1755908D2*
X2754352Y1690945D1*
X2819301Y2031494D2*
X2754352Y2096457D1*
D25*
X2852732Y1822838D3*
X2417913Y3437665D2*
D10*
Y3374736D1*
X2425362Y3437665D2*
Y3374736D1*
Y3437665D2*
X2401803D1*
X2425362Y3374736D2*
X2401803D1*
X3263770Y1690945D2*
Y1834658D1*
Y1690945D2*
X3604352D1*
X3263770Y1952743D2*
Y2096457D1*
X3604352D1*
X3669301Y1755908D2*
Y1834658D1*
Y1952743D2*
Y2031494D1*
Y1755908D2*
X3604352Y1690945D1*
X3669301Y2031494D2*
X3604352Y2096457D1*
D25*
X3702732Y1822838D3*
X3977341Y3176130D2*
D10*
Y3227272D1*
X4149236Y3143913D2*
X4212165D1*
X4149236Y3151362D2*
X4212165D1*
X4149236D2*
Y3127803D1*
X4212165Y3151362D2*
Y3127803D1*
X4178932Y3478509D2*
X4116003D1*
X4178932Y3471060D2*
X4116003D1*
X4178932D2*
Y3494619D1*
X4116003Y3471060D2*
Y3494619D1*
X3845060Y3051272D2*
Y3000130D1*
X779322Y3533067D2*
Y3552756D1*
X1015546D1*
Y3533067D1*
X779322Y3454335D2*
Y3434646D1*
X1015546D1*
Y3454335D1*
X877768Y3533067D2*
Y3454335D1*
D30*
X749808Y3493701D3*
X3979322Y3358067D2*
D10*
Y3377756D1*
X4215546D1*
Y3358067D1*
X3979322Y3279335D2*
Y3259646D1*
X4215546D1*
Y3279335D1*
X4077768Y3358067D2*
Y3279335D1*
D30*
X3949808Y3318701D3*
X4370580Y1841835D2*
D10*
Y1822146D1*
X4134355D1*
Y1841835D1*
X4370580Y1920567D2*
Y1940256D1*
X4134355D1*
Y1920567D1*
X4272134Y1841835D2*
Y1920567D1*
D30*
X4400094Y1881201D3*
X2393701Y3493701D2*
D10*
Y3693701D1*
X2593701Y3493701D2*
X2393701D1*
X2593701Y3693701D2*
X2393701D1*
X2593701Y3493701D2*
Y3693701D1*
X3131201Y3118701D2*
Y3318701D1*
X3331201Y3118701D2*
X3131201D1*
X3331201Y3318701D2*
X3131201D1*
X3331201Y3118701D2*
Y3318701D1*
X1919401Y2393701D2*
X1927001D1*
X467801D2*
X2293701D1*
X393701D2*
X467801D1*
X393701Y2293701D2*
Y2393701D1*
Y2293701D2*
X2293701D1*
Y2393701D1*
X2093701Y3693701D2*
X1493701D1*
Y3493701D1*
X2093701D2*
X1493701D1*
X2093701Y3693701D2*
Y3493701D1*
X2793720Y3593706D2*
X3093682D1*
Y3493701D1*
X2793720D1*
Y3593706D1*
X1993701Y2843701D2*
X2093701D1*
X1993701Y3043701D2*
Y2843701D1*
Y3043701D2*
X2093701D1*
Y2843701D1*
X1893701D2*
X1993701D1*
X1893701Y3043701D2*
Y2843701D1*
Y3043701D2*
X1993701D1*
Y2843701D1*
X1793701D2*
X1893701D1*
X1793701Y3043701D2*
Y2843701D1*
Y3043701D2*
X1893701D1*
Y2843701D1*
X1693701D2*
X1793701D1*
X1693701Y3043701D2*
Y2843701D1*
Y3043701D2*
X1793701D1*
Y2843701D1*
X4043701Y2218701D2*
Y2118701D1*
X4243701Y2218701D2*
X4043701D1*
X4243701D2*
Y2118701D1*
X4043701D1*
X3043701Y1293701D2*
X2943701D1*
X3043701Y1093701D2*
Y1293701D1*
Y1093701D2*
X2943701D1*
Y1293701D1*
X3964956Y803150D2*
G02X3940945Y827181I3J24014D01*
G01*
Y1637386D1*
G02X3964956Y1661417I24014J18D01*
G01*
X4538981D1*
G02X4562992Y1637386I-3J-24014D01*
G01*
Y827181D1*
G02X4538981Y803150I-24014J-18D01*
G01*
X3964956D1*
X3712518Y3194611D2*
X3653459D1*
Y3509578D1*
X3712518D1*
X3869991D2*
X3929050D1*
Y3194611D1*
X3869991D1*
X4232482Y2001086D2*
X4134060D1*
Y2032575D1*
X4232482D1*
Y2001086D1*
X394291Y3183447D2*
X419311Y3158472D1*
X394291Y3233465D2*
X994291D1*
Y2558465D1*
X394291D1*
Y3233465D1*
X419311Y3158472D2*
Y2633457D1*
X394291Y2608482D1*
X419311Y2908452D2*
X594271D1*
X569311Y2958470D1*
X594271Y2908452D2*
X569311Y2858435D1*
X4509350Y2307776D2*
X4863681D1*
Y2701476D1*
X4509350D1*
Y2307776D1*
X4814465Y2347146D2*
X4863681D1*
Y2465256D1*
X4814465D1*
Y2347146D1*
Y2543996D2*
X4863681D1*
Y2662106D1*
X4814465D1*
Y2543996D1*
X4070276Y765551D2*
X4463976D1*
Y411220D1*
X4070276D1*
Y765551D1*
X4109646Y460437D2*
X4227756D1*
Y411220D1*
X4109646D1*
Y460437D1*
X4306496D2*
X4424606D1*
Y411220D1*
X4306496D1*
Y460437D1*
X520276Y765551D2*
X1307677D1*
Y411220D1*
X520276D1*
Y765551D1*
X559646Y460437D2*
X677756D1*
Y411220D1*
X559646D1*
Y460437D1*
X756496D2*
X874606D1*
Y411220D1*
X756496D1*
Y460437D1*
X953346D2*
X1071457D1*
Y411220D1*
X953346D1*
Y460437D1*
X1150197D2*
X1268307D1*
Y411220D1*
X1150197D1*
Y460437D1*
X1370276Y765551D2*
X2157677D1*
Y411220D1*
X1370276D1*
Y765551D1*
X1409646Y460437D2*
X1527756D1*
Y411220D1*
X1409646D1*
Y460437D1*
X1606496D2*
X1724606D1*
Y411220D1*
X1606496D1*
Y460437D1*
X1803346D2*
X1921457D1*
Y411220D1*
X1803346D1*
Y460437D1*
X2000197D2*
X2118307D1*
Y411220D1*
X2000197D1*
Y460437D1*
X2220276Y765551D2*
X3007677D1*
Y411220D1*
X2220276D1*
Y765551D1*
X2259646Y460437D2*
X2377756D1*
Y411220D1*
X2259646D1*
Y460437D1*
X2456496D2*
X2574606D1*
Y411220D1*
X2456496D1*
Y460437D1*
X2653346D2*
X2771457D1*
Y411220D1*
X2653346D1*
Y460437D1*
X2850197D2*
X2968307D1*
Y411220D1*
X2850197D1*
Y460437D1*
X3070276Y765551D2*
X3857677D1*
Y411220D1*
X3070276D1*
Y765551D1*
X3109646Y460437D2*
X3227756D1*
Y411220D1*
X3109646D1*
Y460437D1*
X3306496D2*
X3424606D1*
Y411220D1*
X3306496D1*
Y460437D1*
X3503346D2*
X3621457D1*
Y411220D1*
X3503346D1*
Y460437D1*
X3700197D2*
X3818307D1*
Y411220D1*
X3700197D1*
Y460437D1*
X2293717Y3393701D2*
X393701D1*
Y2393701D1*
X2293717D1*
Y3393701D1*
Y3293701D2*
X393701D1*
X2293717Y2493701D2*
X393701D1*
X2294146Y3209801D2*
D3*
X543601Y3043701D2*
X393701D1*
Y2743701D1*
X543601D1*
Y3043701D1*
X718701Y1643701D2*
X818721D1*
Y843701D1*
X718701D1*
Y1643701D1*
X1218681D2*
X1318701D1*
Y843701D1*
X1218681D1*
Y1643701D1*
X818721D2*
X1218681D1*
Y843701D1*
X818721D1*
Y1643701D1*
X1493701D2*
X1593721D1*
Y843701D1*
X1493701D1*
Y1643701D1*
X1993681D2*
X2093701D1*
Y843701D1*
X1993681D1*
Y1643701D1*
X1593721D2*
X1993681D1*
Y843701D1*
X1593721D1*
Y1643701D1*
X2293701D2*
X2393721D1*
Y843701D1*
X2293701D1*
Y1643701D1*
X2793681D2*
X2893701D1*
Y843701D1*
X2793681D1*
Y1643701D1*
X2393721D2*
X2793681D1*
Y843701D1*
X2393721D1*
Y1643701D1*
X3143701D2*
X3243721D1*
Y843701D1*
X3143701D1*
Y1643701D1*
X3643681D2*
X3743701D1*
Y843701D1*
X3643681D1*
Y1643701D1*
X3243721D2*
X3643681D1*
Y843701D1*
X3243721D1*
Y1643701D1*
X4046060Y3147438D2*
X3918104D1*
Y2960430D1*
X4046060D1*
Y3147438D1*
D50*
X3927956Y3137592D3*
G36*
X4006706Y3147438D2*
X3957486D1*
Y3127746D1*
X4006706D1*
Y3147438D1*
G37*
D53*
X2577075Y3220615D3*
X2631141Y3215352D2*
D10*
Y3097244D1*
X2662632Y3215352D2*
Y3097244D1*
X2631141D2*
X2662632D1*
X2631141Y3215352D2*
X2662632D1*
X2355630Y3228810D2*
X2406772D1*
X2805630Y3166310D2*
X2856772D1*
X1693701Y2843701D2*
D22*
X1793701D1*
Y2531201D1*
X1693701D1*
Y2843701D1*
X1793701D2*
X1893701D1*
Y2531201D1*
X1793701D1*
Y2843701D1*
X1893701D2*
X1993701D1*
Y2531201D1*
X1893701D1*
Y2843701D1*
X1993701D2*
X2093701D1*
Y2531201D1*
X1993701D1*
Y2843701D1*
X2598425Y3690945D2*
D23*
X2687008D1*
Y3494094D1*
X2598425D1*
Y3690945D1*
X2194882D2*
X2391732D1*
Y3494094D1*
X2194882D1*
Y3690945D1*
X3779528Y2706693D2*
D24*
X4507874D1*
Y2303150D1*
X3779528D1*
Y2706693D1*
X2342520Y2643701D2*
X3706201D1*
Y2193701D1*
X2342520D1*
Y2643701D1*
X2093701Y3506201D2*
D10*
Y3487451D1*
X1318701D1*
X1318898Y3605020D1*
X1486220D1*
X1692913Y3041339D2*
X1250000D1*
Y2844488D1*
X1692913D1*
Y2854331D1*
X1223847Y2092335D2*
D124*
X1221946Y2096138D1*
X1218099Y2099984D1*
X1214297Y2101886D1*
X1206647D1*
X1202801Y2099984D1*
X1198998Y2096138D1*
X1197053Y2092335D1*
X1195151Y2086587D1*
Y2076992D1*
X1197053Y2071288D1*
X1198998Y2067442D1*
X1202801Y2063639D1*
X1206647Y2061694D1*
X1214297D1*
X1218099Y2063639D1*
X1221946Y2067442D1*
X1223847Y2071288D1*
X1236199Y2094192D2*
X1240045Y2096138D1*
X1245794Y2101841D1*
Y2061694D1*
X2007373Y2096272D2*
X2005472Y2100075D1*
X2001625Y2103921D1*
X1997823Y2105823D1*
X1990173D1*
X1986327Y2103921D1*
X1982524Y2100075D1*
X1980579Y2096272D1*
X1978677Y2090524D1*
Y2080929D1*
X1980579Y2075225D1*
X1982524Y2071379D1*
X1986327Y2067576D1*
X1990173Y2065631D1*
X1997823D1*
X2001625Y2067576D1*
X2005472Y2071379D1*
X2007373Y2075225D1*
X2021670Y2096228D2*
Y2098129D1*
X2023572Y2101976D1*
X2025473Y2103877D1*
X2029320Y2105778D1*
X2036969D1*
X2040771Y2103877D1*
X2042673Y2101976D1*
X2044618Y2098129D1*
Y2094326D1*
X2042673Y2090480D1*
X2038870Y2084776D1*
X2019725Y2065631D1*
X2046519D1*
X2847531Y2096272D2*
X2845630Y2100075D1*
X2841783Y2103921D1*
X2837980Y2105823D1*
X2830331D1*
X2826484Y2103921D1*
X2822682Y2100075D1*
X2820736Y2096272D1*
X2818835Y2090524D1*
Y2080929D1*
X2820736Y2075225D1*
X2822682Y2071379D1*
X2826484Y2067576D1*
X2830331Y2065631D1*
X2837980D1*
X2841783Y2067576D1*
X2845630Y2071379D1*
X2847531Y2075225D1*
X2863729Y2105778D2*
X2884731D1*
X2873280Y2090480D1*
X2879028D1*
X2882830Y2088578D1*
X2884731Y2086677D1*
X2886677Y2080929D1*
Y2077127D1*
X2884731Y2071379D1*
X2880929Y2067532D1*
X2875181Y2065631D1*
X2869433D1*
X2863729Y2067532D1*
X2861828Y2069477D1*
X2859882Y2073280D1*
X2544907Y3415662D2*
X2543006Y3419464D1*
X2539159Y3423311D1*
X2535356Y3425212D1*
X2527707D1*
X2523860Y3423311D1*
X2520058Y3419464D1*
X2518112Y3415662D1*
X2516211Y3409914D1*
Y3400319D1*
X2518112Y3394615D1*
X2520058Y3390768D1*
X2523860Y3386966D1*
X2527707Y3385020D1*
X2535356D1*
X2539159Y3386966D1*
X2543006Y3390768D1*
X2544907Y3394615D1*
X2576404Y3385020D2*
Y3425168D1*
X2557258Y3398418D1*
X2585954D1*
X3687688Y2096272D2*
X3685787Y2100075D1*
X3681940Y2103921D1*
X3678138Y2105823D1*
X3670488D1*
X3666642Y2103921D1*
X3662839Y2100075D1*
X3660894Y2096272D1*
X3658992Y2090524D1*
Y2080929D1*
X3660894Y2075225D1*
X3662839Y2071379D1*
X3666642Y2067576D1*
X3670488Y2065631D1*
X3678138D1*
X3681940Y2067576D1*
X3685787Y2071379D1*
X3687688Y2075225D1*
X3722988Y2105778D2*
X3703886D1*
X3701985Y2088578D1*
X3703886Y2090480D1*
X3709635Y2092425D1*
X3715338D1*
X3721086Y2090480D1*
X3724933Y2086677D1*
X3726834Y2080929D1*
Y2077127D1*
X3724933Y2071379D1*
X3721086Y2067532D1*
X3715338Y2065631D1*
X3709635D1*
X3703886Y2067532D1*
X3701985Y2069477D1*
X3700040Y2073280D1*
X3925833Y3208701D2*
X3923932Y3212504D1*
X3920085Y3216350D1*
X3916283Y3218252D1*
X3908633D1*
X3904787Y3216350D1*
X3900984Y3212504D1*
X3899039Y3208701D1*
X3897137Y3202953D1*
Y3193358D1*
X3899039Y3187654D1*
X3900984Y3183808D1*
X3904787Y3180005D1*
X3908633Y3178060D1*
X3916283D1*
X3920085Y3180005D1*
X3923932Y3183808D1*
X3925833Y3187654D1*
X3963078Y3204854D2*
X3961132Y3199106D1*
X3957330Y3195260D1*
X3951582Y3193358D1*
X3949681D1*
X3943933Y3195260D1*
X3940130Y3199106D1*
X3938185Y3204854D1*
Y3206756D1*
X3940130Y3212504D1*
X3943933Y3216306D1*
X3949681Y3218207D1*
X3951582D1*
X3957330Y3216306D1*
X3961132Y3212504D1*
X3963078Y3204854D1*
Y3195260D1*
X3961132Y3185709D1*
X3957330Y3179961D1*
X3951582Y3178060D1*
X3947779D1*
X3942031Y3179961D1*
X3940130Y3183808D1*
X4257240Y3121885D2*
X4253437Y3119983D1*
X4249591Y3116137D1*
X4247689Y3112334D1*
Y3104685D1*
X4249591Y3100838D1*
X4253437Y3097035D1*
X4257240Y3095090D1*
X4262988Y3093189D1*
X4272583D1*
X4278286Y3095090D1*
X4282133Y3097035D1*
X4285936Y3100838D1*
X4287881Y3104685D1*
Y3112334D1*
X4285936Y3116137D1*
X4282133Y3119983D1*
X4278287Y3121885D1*
X4255383Y3134236D2*
X4253437Y3138083D1*
X4247734Y3143831D1*
X4287881D1*
X4247734Y3167678D2*
X4249635Y3161930D1*
X4255383Y3158083D1*
X4264933Y3156182D1*
X4270681D1*
X4280232Y3158083D1*
X4285980Y3161930D1*
X4287881Y3167678D1*
Y3171481D1*
X4285980Y3177229D1*
X4280232Y3181031D1*
X4270681Y3182977D1*
X4264933D1*
X4255383Y3181031D1*
X4249635Y3177229D1*
X4247734Y3171481D1*
Y3167678D1*
X4255383Y3181031D2*
X4280232Y3158083D1*
X4206757Y3475242D2*
X4202954Y3473341D1*
X4199108Y3469494D1*
X4197206Y3465691D1*
Y3458042D1*
X4199108Y3454195D1*
X4202954Y3450393D1*
X4206757Y3448447D1*
X4212505Y3446546D1*
X4222100D1*
X4227804Y3448447D1*
X4231650Y3450393D1*
X4235453Y3454195D1*
X4237398Y3458042D1*
Y3465691D1*
X4235453Y3469494D1*
X4231650Y3473340D1*
X4227804Y3475242D1*
X4204900Y3487593D2*
X4202954Y3491440D1*
X4197251Y3497188D1*
X4237398D1*
X4204900Y3509539D2*
X4202954Y3513386D1*
X4197251Y3519134D1*
X4237398D1*
X3607486Y3034269D2*
X3605584Y3038072D1*
X3601738Y3041919D1*
X3597935Y3043820D1*
X3590286D1*
X3586439Y3041919D1*
X3582636Y3038072D1*
X3580691Y3034269D1*
X3578790Y3028521D1*
Y3018927D1*
X3580691Y3013223D1*
X3582636Y3009376D1*
X3586439Y3005573D1*
X3590286Y3003628D1*
X3597935D1*
X3601738Y3005573D1*
X3605584Y3009376D1*
X3607486Y3013223D1*
X3619837Y3036126D2*
X3623684Y3038072D1*
X3629432Y3043776D1*
Y3003628D1*
X3643729Y3034225D2*
Y3036126D1*
X3645630Y3039973D1*
X3647531Y3041874D1*
X3651378Y3043776D1*
X3659027D1*
X3662830Y3041874D1*
X3664731Y3039973D1*
X3666677Y3036126D1*
Y3032324D1*
X3664731Y3028477D1*
X3660929Y3022773D1*
X3641783Y3003628D1*
X3668578D1*
X858307Y3611334D2*
Y3571142D1*
X871704D1*
X877452Y3573088D1*
X881299Y3576890D1*
X883200Y3580737D1*
X885101Y3586441D1*
Y3596036D1*
X883200Y3601784D1*
X881299Y3605586D1*
X877452Y3609433D1*
X871704Y3611334D1*
X858307D1*
X897453Y3603641D2*
X901300Y3605586D1*
X907048Y3611290D1*
Y3571142D1*
X3966548Y3439844D2*
Y3399652D1*
X3979945D1*
X3985693Y3401597D1*
X3989540Y3405400D1*
X3991441Y3409246D1*
X3993343Y3414950D1*
Y3424545D1*
X3991441Y3430293D1*
X3989540Y3434096D1*
X3985693Y3437942D1*
X3979945Y3439844D1*
X3966548D1*
X4007640Y3430249D2*
Y3432150D1*
X4009541Y3435997D1*
X4011442Y3437898D1*
X4015289Y3439799D1*
X4022938D1*
X4026741Y3437898D1*
X4028642Y3435997D1*
X4030587Y3432150D1*
Y3428347D1*
X4028642Y3424501D1*
X4024839Y3418797D1*
X4005694Y3399652D1*
X4032489D1*
X4434254Y1898834D2*
Y1858642D1*
X4447651D1*
X4453399Y1860588D1*
X4457246Y1864390D1*
X4459147Y1868237D1*
X4461049Y1873941D1*
Y1883536D1*
X4459147Y1889284D1*
X4457246Y1893086D1*
X4453399Y1896933D1*
X4447651Y1898834D1*
X4434254D1*
X4477247Y1898790D2*
X4498249D1*
X4486797Y1883492D1*
X4492545D1*
X4496348Y1881590D1*
X4498249Y1879689D1*
X4500195Y1873941D1*
Y1870138D1*
X4498249Y1864390D1*
X4494447Y1860544D1*
X4488699Y1858642D1*
X4482951D1*
X4477247Y1860544D1*
X4475346Y1862489D1*
X4473400Y1866292D1*
X3221200Y3389779D2*
Y3359182D1*
X3219299Y3353434D1*
X3217354Y3351533D1*
X3213551Y3349587D1*
X3209704D1*
X3205902Y3351533D1*
X3204001Y3353434D1*
X3202055Y3359182D1*
Y3362985D1*
X3237399Y3389735D2*
X3258401D1*
X3246949Y3374436D1*
X3252697D1*
X3256500Y3372535D1*
X3258401Y3370634D1*
X3260347Y3364886D1*
Y3361083D1*
X3258401Y3355335D1*
X3254598Y3351489D1*
X3248850Y3349587D1*
X3243102D1*
X3237399Y3351489D1*
X3235497Y3353434D1*
X3233552Y3357237D1*
X1420084Y3667825D2*
Y3637228D1*
X1418182Y3631480D1*
X1416237Y3629579D1*
X1412434Y3627633D1*
X1408588D1*
X1404785Y3629579D1*
X1402884Y3631480D1*
X1400938Y3637228D1*
Y3641031D1*
X1440084Y3627633D2*
X1459230Y3667781D1*
X1432435D1*
X4114127Y2277279D2*
Y2246682D1*
X4112226Y2240934D1*
X4110281Y2239033D1*
X4106478Y2237087D1*
X4102631D1*
X4098829Y2239033D1*
X4096928Y2240934D1*
X4094982Y2246682D1*
Y2250485D1*
X4126479Y2256233D2*
X4143723D1*
X4149427Y2258134D1*
X4151372Y2260079D1*
X4153273Y2263882D1*
Y2269630D1*
X4151372Y2273432D1*
X4149427Y2275378D1*
X4143723Y2277279D1*
X4126479D1*
Y2237087D1*
X4188573Y2277235D2*
X4169472D1*
X4167570Y2260035D1*
X4169472Y2261936D1*
X4175220Y2263882D1*
X4180923D1*
X4186672Y2261936D1*
X4190518Y2258134D1*
X4192420Y2252386D1*
Y2248583D1*
X4190518Y2242835D1*
X4186672Y2238989D1*
X4180923Y2237087D1*
X4175220D1*
X4169472Y2238989D1*
X4167570Y2240934D1*
X4165625Y2244737D1*
X4590098Y1632496D2*
Y1592304D1*
X4616893Y1632496D2*
X4590098Y1605701D1*
X4599649Y1615296D2*
X4616893Y1592304D1*
X4629244Y1624802D2*
X4633091Y1626748D1*
X4638839Y1632452D1*
Y1592304D1*
X3581308Y3377019D2*
Y3336827D1*
X3604255D1*
X3616607Y3369326D2*
X3620454Y3371271D1*
X3626202Y3376975D1*
Y3336827D1*
X4264139Y2036039D2*
X4260337Y2034182D1*
X4256490Y2030335D1*
X4254589Y2026489D1*
X4252643Y2020740D1*
Y2011190D1*
X4254589Y2005442D1*
X4256490Y2001639D1*
X4260337Y1997793D1*
X4264139Y1995891D1*
X4271789D1*
X4275635Y1997793D1*
X4279438Y2001639D1*
X4281339Y2005442D1*
X4283285Y2011190D1*
Y2020740D1*
X4281339Y2026489D1*
X4279438Y2030335D1*
X4275635Y2034182D1*
X4271789Y2036039D1*
X4264139D1*
X4269887Y2003541D2*
X4281339Y1992045D1*
X4295636Y2028346D2*
X4299483Y2030291D1*
X4305231Y2035995D1*
Y1995847D1*
X2499739Y2938179D2*
X2499740Y2955379D1*
X2497794Y2961127D1*
X2495893Y2963072D1*
X2492090Y2964974D1*
X2488243D1*
X2484441Y2963072D1*
X2482495Y2961127D1*
X2480594Y2955379D1*
Y2938179D1*
X2520786D1*
X2499740Y2951576D2*
X2520786Y2964973D1*
X2488288Y2977325D2*
X2486342Y2981172D1*
X2480638Y2986920D1*
X2520786D1*
X2099740Y3148132D2*
Y3165332D1*
X2097795Y3171080D1*
X2095893Y3173025D1*
X2092091Y3174927D1*
X2088244D1*
X2084442Y3173025D1*
X2082496Y3171080D1*
X2080595Y3165332D1*
Y3148132D1*
X2120787D1*
X2099740Y3161529D2*
X2120787Y3174927D1*
X2090190Y3189224D2*
X2088288D1*
X2084442Y3191125D1*
X2082540Y3193026D1*
X2080639Y3196873D1*
Y3204522D1*
X2082540Y3208325D1*
X2084442Y3210226D1*
X2088288Y3212172D1*
X2092091D1*
X2095938Y3210226D1*
X2101641Y3206423D1*
X2120787Y3187278D1*
Y3214073D1*
X1906203Y3270535D2*
X1923403D1*
X1929151Y3272481D1*
X1931096Y3274382D1*
X1932998Y3278185D1*
Y3282032D1*
X1931096Y3285834D1*
X1929151Y3287780D1*
X1923403Y3289681D1*
X1906203D1*
Y3249489D1*
X1919600Y3270535D2*
X1932998Y3249489D1*
X1949196Y3289637D2*
X1970198D1*
X1958746Y3274338D1*
X1964494D1*
X1968297Y3272437D1*
X1970198Y3270535D1*
X1972144Y3264787D1*
Y3260985D1*
X1970198Y3255237D1*
X1966396Y3251390D1*
X1960648Y3249489D1*
X1954900D1*
X1949196Y3251390D1*
X1947294Y3253336D1*
X1945349Y3257138D1*
X1805252Y3270535D2*
X1822452D1*
X1828200Y3272481D1*
X1830146Y3274382D1*
X1832047Y3278185D1*
Y3282032D1*
X1830146Y3285834D1*
X1828200Y3287780D1*
X1822452Y3289681D1*
X1805252D1*
Y3249489D1*
X1818650Y3270535D2*
X1832047Y3249489D1*
X1863544D2*
Y3289637D1*
X1844398Y3262886D1*
X1873094D1*
X1674740Y3148132D2*
Y3165332D1*
X1672795Y3171080D1*
X1670893Y3173025D1*
X1667091Y3174927D1*
X1663244D1*
X1659442Y3173025D1*
X1657496Y3171080D1*
X1655595Y3165332D1*
Y3148132D1*
X1695787D1*
X1674740Y3161529D2*
X1695787Y3174927D1*
X1655639Y3210226D2*
Y3191125D1*
X1672839Y3189224D1*
X1670938Y3191125D1*
X1668992Y3196873D1*
Y3202577D1*
X1670938Y3208325D1*
X1674740Y3212171D1*
X1680488Y3214073D1*
X1684291D1*
X1690039Y3212171D1*
X1693886Y3208325D1*
X1695787Y3202577D1*
Y3196873D1*
X1693886Y3191125D1*
X1691940Y3189224D1*
X1688138Y3187278D1*
X4324105Y2237661D2*
X4341305D1*
X4347053Y2239607D1*
X4348998Y2241508D1*
X4350899Y2245311D1*
Y2249158D1*
X4348998Y2252960D1*
X4347053Y2254906D1*
X4341305Y2256807D1*
X4324105D1*
Y2216615D1*
X4337502Y2237661D2*
X4350899Y2216615D1*
X4386199Y2251059D2*
X4384297Y2254861D1*
X4378549Y2256763D1*
X4374747D1*
X4368999Y2254861D1*
X4365152Y2249113D1*
X4363251Y2239563D1*
Y2230012D1*
X4365152Y2222363D1*
X4368999Y2218516D1*
X4374747Y2216615D1*
X4376648D1*
X4382352Y2218516D1*
X4386199Y2222363D1*
X4388100Y2228111D1*
Y2230012D1*
X4386199Y2235760D1*
X4382352Y2239563D1*
X4376648Y2241464D1*
X4374747D1*
X4368999Y2239563D1*
X4365152Y2235760D1*
X4363251Y2230012D1*
X3943240Y2812159D2*
Y2829359D1*
X3941295Y2835107D1*
X3939393Y2837052D1*
X3935591Y2838954D1*
X3931744D1*
X3927942Y2837052D1*
X3925996Y2835107D1*
X3924095Y2829359D1*
Y2812159D1*
X3964287D1*
X3943240Y2825556D2*
X3964287Y2838954D1*
X3931788Y2851305D2*
X3929843Y2855152D1*
X3924139Y2860900D1*
X3964287D1*
X3924139Y2877098D2*
Y2898100D1*
X3939438Y2886649D1*
Y2892397D1*
X3941339Y2896199D1*
X3943240Y2898100D1*
X3948988Y2900046D1*
X3952791D1*
X3958539Y2898100D1*
X3962386Y2894298D1*
X3964287Y2888550D1*
Y2882802D1*
X3962386Y2877098D1*
X3960440Y2875197D1*
X3956638Y2873251D1*
X3599458Y2845161D2*
X3616657D1*
X3622406Y2847107D1*
X3624351Y2849008D1*
X3626252Y2852811D1*
Y2856658D1*
X3624351Y2860460D1*
X3622406Y2862406D1*
X3616657Y2864307D1*
X3599458D1*
Y2824115D1*
X3612855Y2845161D2*
X3626252Y2824115D1*
X3638604Y2856613D2*
X3642450Y2858559D1*
X3648198Y2864263D1*
Y2824115D1*
X3679695D2*
Y2864263D1*
X3660550Y2837512D1*
X3689246D1*
X4245489Y2923659D2*
X4245490Y2940859D1*
X4243544Y2946607D1*
X4241643Y2948552D1*
X4237840Y2950454D1*
X4233993D1*
X4230191Y2948552D1*
X4228245Y2946607D1*
X4226344Y2940859D1*
Y2923659D1*
X4266536D1*
X4245490Y2937056D2*
X4266536Y2950454D1*
X4234038Y2962805D2*
X4232092Y2966652D1*
X4226388Y2972400D1*
X4266536D1*
X4226388Y3007699D2*
Y2988598D1*
X4243588Y2986697D1*
X4241687Y2988598D1*
X4239742Y2994346D1*
Y3000050D1*
X4241687Y3005798D1*
X4245490Y3009645D1*
X4251238Y3011546D1*
X4255040D1*
X4260788Y3009645D1*
X4264635Y3005798D1*
X4266536Y3000050D1*
Y2994346D1*
X4264635Y2988598D1*
X4262689Y2986697D1*
X4258887Y2984751D1*
X3593828Y2940161D2*
X3611028D1*
X3616776Y2942107D1*
X3618722Y2944008D1*
X3620623Y2947811D1*
Y2951658D1*
X3618722Y2955460D1*
X3616776Y2957406D1*
X3611028Y2959307D1*
X3593828D1*
Y2919115D1*
X3607226Y2940161D2*
X3620623Y2919115D1*
X3632975Y2951613D2*
X3636821Y2953559D1*
X3642569Y2959263D1*
Y2919115D1*
X3677869Y2953559D2*
X3675967Y2957361D1*
X3670219Y2959263D1*
X3666417D1*
X3660669Y2957361D1*
X3656822Y2951613D1*
X3654921Y2942063D1*
Y2932512D1*
X3656822Y2924863D1*
X3660669Y2921016D1*
X3666417Y2919115D1*
X3668318D1*
X3674022Y2921016D1*
X3677869Y2924863D1*
X3679770Y2930611D1*
Y2932512D1*
X3677869Y2938260D1*
X3674022Y2942063D1*
X3668318Y2943964D1*
X3666417D1*
X3660669Y2942063D1*
X3656822Y2938260D1*
X3654921Y2932512D1*
X714643Y2948795D2*
X710840Y2952642D1*
X705092Y2954543D1*
X697443D1*
X691695Y2952642D1*
X687848Y2948795D1*
Y2944992D1*
X689793Y2941146D1*
X691695Y2939244D1*
X695497Y2937343D1*
X706993Y2933496D1*
X710840Y2931595D1*
X712741Y2929650D1*
X714643Y2925847D1*
Y2920099D1*
X710840Y2916297D1*
X705092Y2914351D1*
X697443D1*
X691695Y2916297D1*
X687848Y2920099D1*
X726994Y2954543D2*
Y2914351D1*
X740391D1*
X746139Y2916297D1*
X749986Y2920099D1*
X751887Y2923946D1*
X753789Y2929650D1*
Y2939244D1*
X751887Y2944992D1*
X749986Y2948795D1*
X746139Y2952642D1*
X740391Y2954543D1*
X726994D1*
X766140Y2946850D2*
X769987Y2948795D1*
X775735Y2954499D1*
Y2914351D1*
X874830Y824130D2*
Y783938D1*
X861433Y824130D2*
X888228D1*
X900579D2*
Y783938D1*
X917823D1*
X923571Y785883D1*
X925472Y787784D1*
X927374Y791587D1*
Y797335D1*
X925472Y801182D1*
X923571Y803083D1*
X917823Y804984D1*
X923571Y806930D1*
X925472Y808831D1*
X927374Y812634D1*
Y816480D1*
X925472Y820283D1*
X923571Y822228D1*
X917823Y824130D1*
X900579D1*
Y804984D2*
X917823D1*
X943572Y824085D2*
X964574D1*
X953122Y808787D1*
X958870D1*
X962673Y806886D1*
X964574Y804984D1*
X966520Y799236D1*
Y795434D1*
X964574Y789686D1*
X960772Y785839D1*
X955024Y783938D1*
X949276D1*
X943572Y785839D1*
X941671Y787784D1*
X939725Y791587D1*
X1723880Y824130D2*
Y783938D1*
X1710482Y824130D2*
X1737277D1*
X1749628D2*
Y783938D1*
X1766873D1*
X1772621Y785883D1*
X1774522Y787784D1*
X1776423Y791587D1*
Y797335D1*
X1774522Y801182D1*
X1772621Y803083D1*
X1766873Y804984D1*
X1772621Y806930D1*
X1774522Y808831D1*
X1776423Y812634D1*
Y816480D1*
X1774522Y820283D1*
X1772621Y822228D1*
X1766873Y824130D1*
X1749628D1*
Y804984D2*
X1766873D1*
X1807920Y783938D2*
Y824085D1*
X1788774Y797335D1*
X1817470D1*
X2574830Y824130D2*
Y783938D1*
X2561433Y824130D2*
X2588228D1*
X2600579D2*
Y783938D1*
X2617823D1*
X2623571Y785883D1*
X2625472Y787784D1*
X2627374Y791587D1*
Y797335D1*
X2625472Y801182D1*
X2623571Y803083D1*
X2617823Y804984D1*
X2623571Y806930D1*
X2625472Y808831D1*
X2627374Y812634D1*
Y816480D1*
X2625472Y820283D1*
X2623571Y822228D1*
X2617823Y824130D1*
X2600579D1*
Y804984D2*
X2617823D1*
X2662673Y824085D2*
X2643572D1*
X2641671Y806886D1*
X2643572Y808787D1*
X2649320Y810732D1*
X2655024D1*
X2660772Y808787D1*
X2664619Y804984D1*
X2666520Y799236D1*
Y795434D1*
X2664619Y789686D1*
X2660772Y785839D1*
X2655024Y783938D1*
X2649320D1*
X2643572Y785839D1*
X2641671Y787784D1*
X2639725Y791587D1*
X3425803Y824130D2*
Y783938D1*
X3412406Y824130D2*
X3439200D1*
X3451552D2*
Y783938D1*
X3468796D1*
X3474544Y785883D1*
X3476445Y787784D1*
X3478346Y791587D1*
Y797335D1*
X3476445Y801182D1*
X3474544Y803083D1*
X3468796Y804984D1*
X3474544Y806930D1*
X3476445Y808831D1*
X3478346Y812634D1*
Y816480D1*
X3476445Y820283D1*
X3474544Y822228D1*
X3468796Y824130D1*
X3451552D1*
Y804984D2*
X3468796D1*
X3513646Y818382D2*
X3511744Y822184D1*
X3505996Y824085D1*
X3502194D1*
X3496446Y822184D1*
X3492599Y816436D1*
X3490698Y806886D1*
Y797335D1*
X3492599Y789686D1*
X3496446Y785839D1*
X3502194Y783938D1*
X3504095D1*
X3509799Y785839D1*
X3513646Y789686D1*
X3515547Y795434D1*
Y797335D1*
X3513646Y803083D1*
X3509799Y806886D1*
X3504095Y808787D1*
X3502194D1*
X3496446Y806886D1*
X3492599Y803083D1*
X3490698Y797335D1*
X2316574Y2927279D2*
Y2898583D1*
X2318476Y2892835D1*
X2322322Y2889033D1*
X2328071Y2887087D1*
X2331873D1*
X2337621Y2889033D1*
X2341468Y2892835D1*
X2343369Y2898583D1*
Y2927279D1*
X2355721Y2919586D2*
X2359567Y2921531D1*
X2365315Y2927235D1*
Y2887087D1*
X985730Y1314779D2*
Y1286083D1*
X987632Y1280335D1*
X991478Y1276533D1*
X997226Y1274587D1*
X1001029D1*
X1006777Y1276533D1*
X1010624Y1280335D1*
X1012525Y1286083D1*
Y1314779D1*
X1026822Y1305184D2*
Y1307086D1*
X1028723Y1310932D1*
X1030625Y1312834D1*
X1034471Y1314735D1*
X1042121D1*
X1045923Y1312834D1*
X1047824Y1310932D1*
X1049770Y1307086D1*
Y1303283D1*
X1047824Y1299436D1*
X1044022Y1293733D1*
X1024876Y1274587D1*
X1051671D1*
X1773230Y1314779D2*
Y1286083D1*
X1775132Y1280335D1*
X1778978Y1276533D1*
X1784726Y1274587D1*
X1788529D1*
X1794277Y1276533D1*
X1798124Y1280335D1*
X1800025Y1286083D1*
Y1314779D1*
X1816223Y1314735D2*
X1837226D1*
X1825774Y1299436D1*
X1831522D1*
X1835324Y1297535D1*
X1837226Y1295634D1*
X1839171Y1289886D1*
Y1286083D1*
X1837226Y1280335D1*
X1833423Y1276489D1*
X1827675Y1274587D1*
X1821927D1*
X1816223Y1276489D1*
X1814322Y1278434D1*
X1812376Y1282237D1*
X2572280Y1314779D2*
Y1286083D1*
X2574181Y1280335D1*
X2578028Y1276533D1*
X2583776Y1274587D1*
X2587578D1*
X2593326Y1276533D1*
X2597173Y1280335D1*
X2599074Y1286083D1*
Y1314779D1*
X2630571Y1274587D2*
Y1314735D1*
X2611426Y1287985D1*
X2640122D1*
X3423230Y1302279D2*
Y1273583D1*
X3425132Y1267835D1*
X3428978Y1264033D1*
X3434726Y1262087D1*
X3438529D1*
X3444277Y1264033D1*
X3448124Y1267835D1*
X3450025Y1273583D1*
Y1302279D1*
X3485324Y1302235D2*
X3466223D1*
X3464322Y1285035D1*
X3466223Y1286936D1*
X3471971Y1288882D1*
X3477675D1*
X3483423Y1286936D1*
X3487270Y1283134D1*
X3489171Y1277386D1*
Y1273583D1*
X3487270Y1267835D1*
X3483423Y1263989D1*
X3477675Y1262087D1*
X3471971D1*
X3466223Y1263989D1*
X3464322Y1265934D1*
X3462376Y1269737D1*
X3997561Y2935790D2*
Y2907094D1*
X3999463Y2901346D1*
X4003309Y2897543D1*
X4009057Y2895598D1*
X4012860D1*
X4018608Y2897543D1*
X4022455Y2901346D1*
X4024356Y2907094D1*
Y2935790D1*
X4059655Y2930042D2*
X4057754Y2933844D1*
X4052006Y2935746D1*
X4048204D1*
X4042456Y2933844D1*
X4038609Y2928096D1*
X4036707Y2918546D1*
Y2908995D1*
X4038609Y2901346D1*
X4042456Y2897499D1*
X4048204Y2895598D1*
X4050105D1*
X4055809Y2897499D1*
X4059655Y2901346D1*
X4061557Y2907094D1*
Y2908995D1*
X4059655Y2914743D1*
X4055809Y2918546D1*
X4050105Y2920447D1*
X4048204D1*
X4042456Y2918546D1*
X4038609Y2914743D1*
X4036707Y2908995D1*
X2612567Y3274393D2*
Y3245697D1*
X2614469Y3239949D1*
X2618316Y3236147D1*
X2624064Y3234201D1*
X2627866D1*
X2633614Y3236147D1*
X2637461Y3239949D1*
X2639362Y3245697D1*
Y3274393D1*
X2661264Y3274349D2*
X2655560Y3272448D1*
X2653615Y3268645D1*
Y3264799D1*
X2655560Y3260996D1*
X2659363Y3259051D1*
X2667012Y3257149D1*
X2672760Y3255248D1*
X2676563Y3251401D1*
X2678464Y3247599D1*
Y3241851D1*
X2676563Y3238048D1*
X2674661Y3236103D1*
X2668913Y3234201D1*
X2661264D1*
X2655560Y3236103D1*
X2653615Y3238048D1*
X2651714Y3241851D1*
Y3247599D1*
X2653615Y3251401D1*
X2657462Y3255248D1*
X2663165Y3257149D1*
X2670815Y3259051D1*
X2674661Y3260996D1*
X2676563Y3264799D1*
Y3268645D1*
X2674661Y3272448D1*
X2668913Y3274349D1*
X2661264D1*
X2371395Y3028682D2*
X2367593Y3026780D1*
X2363746Y3022933D1*
X2361845Y3019131D1*
Y3011482D1*
X2363746Y3007635D1*
X2367593Y3003832D1*
X2371395Y3001887D1*
X2377143Y2999986D1*
X2386738D1*
X2392442Y3001887D1*
X2396289Y3003832D1*
X2400091Y3007635D1*
X2402037Y3011482D1*
Y3019131D1*
X2400091Y3022933D1*
X2396289Y3026780D1*
X2392442Y3028681D1*
X2367593Y3063981D2*
X2363790Y3062079D1*
X2361889Y3056331D1*
Y3052529D1*
X2363790Y3046781D1*
X2369538Y3042934D1*
X2379089Y3041033D1*
X2388639D1*
X2396289Y3042934D1*
X2400136Y3046781D1*
X2402037Y3052529D1*
Y3054430D1*
X2400136Y3060134D1*
X2396289Y3063981D1*
X2390541Y3065882D1*
X2388639D1*
X2382891Y3063981D1*
X2379089Y3060134D1*
X2377188Y3054430D1*
Y3052529D1*
X2379089Y3046781D1*
X2382891Y3042934D1*
X2388639Y3041033D1*
X2890145Y3083958D2*
X2886343Y3082057D1*
X2882496Y3078210D1*
X2880595Y3074408D1*
Y3066758D1*
X2882496Y3062911D1*
X2886343Y3059109D1*
X2890145Y3057163D1*
X2895893Y3055262D1*
X2905488D1*
X2911192Y3057163D1*
X2915039Y3059109D1*
X2918841Y3062911D1*
X2920787Y3066758D1*
Y3074407D1*
X2918841Y3078210D1*
X2915039Y3082057D1*
X2911192Y3083958D1*
X2920787Y3103959D2*
X2880639Y3123104D1*
Y3096309D1*
X3393526Y3296906D2*
D125*
X3369650D1*
X3367273Y3275406D1*
X3369650Y3277783D1*
X3376835Y3280215D1*
X3383965D1*
X3391150Y3277783D1*
X3395958Y3273030D1*
X3398335Y3265845D1*
Y3261091D1*
X3395958Y3253906D1*
X3391150Y3249098D1*
X3383965Y3246721D1*
X3376835D1*
X3369650Y3249098D1*
X3367273Y3251530D1*
X3364841Y3256283D1*
X3413774Y3280215D2*
X3428144Y3246721D1*
X3442459Y3280215D1*
X3364841Y3196961D2*
X3383965Y3146721D1*
X3403088Y3196961D1*
X3456774Y3146721D2*
Y3196961D1*
X3437650Y3146721D1*
X3418527Y3196961D1*
Y3146721D1*
X3484151Y3180215D2*
X3479398Y3177838D1*
X3474590Y3173030D1*
X3472213Y3165845D1*
Y3161091D1*
X3474590Y3153906D1*
X3479398Y3149153D1*
X3484151Y3146721D1*
X3491336D1*
X3496145Y3149153D1*
X3500898Y3153906D1*
X3503330Y3161091D1*
Y3165845D1*
X3500898Y3173030D1*
X3496145Y3177838D1*
X3491336Y3180215D1*
X3484151D1*
X3525954Y3196961D2*
Y3156283D1*
X3528331Y3149153D1*
X3533139Y3146721D1*
X3537892D1*
X3518769Y3180215D2*
X3535516D1*
X3799586Y2412119D2*
X3818709Y2361879D1*
X3837832Y2412119D1*
X3891518Y2361879D2*
Y2412119D1*
X3872395Y2361879D1*
X3853271Y2412119D1*
Y2361879D1*
X3918895Y2395372D2*
X3914142Y2392995D1*
X3909334Y2388187D1*
X3906957Y2381002D1*
Y2376249D1*
X3909334Y2369064D1*
X3914142Y2364311D1*
X3918895Y2361879D1*
X3926080D1*
X3930889Y2364311D1*
X3935642Y2369064D1*
X3938074Y2376249D1*
Y2381002D1*
X3935642Y2388187D1*
X3930889Y2392995D1*
X3926080Y2395372D1*
X3918895D1*
X3960698Y2412119D2*
Y2371440D1*
X3963075Y2364311D1*
X3967883Y2361879D1*
X3972636D1*
X3953513Y2395372D2*
X3970260D1*
X4053423Y2425218D2*
X4048615Y2420464D1*
X4043862Y2413279D1*
X4039053Y2403718D1*
X4036677Y2391724D1*
Y2382163D1*
X4039053Y2370224D1*
X4043862Y2360663D1*
X4048615Y2353478D1*
X4053423Y2348725D1*
X4068862Y2402502D2*
X4073671Y2404934D1*
X4080856Y2412063D1*
Y2361879D1*
X4098727Y2400125D2*
Y2402502D1*
X4101104Y2407310D1*
X4103480Y2409687D1*
X4108289Y2412063D1*
X4117850D1*
X4122603Y2409687D1*
X4124980Y2407310D1*
X4127412Y2402502D1*
Y2397749D1*
X4124980Y2392940D1*
X4120227Y2385810D1*
X4096295Y2361879D1*
X4129789D1*
X4145228Y2386971D2*
X4172863D1*
X4190734Y2400125D2*
Y2402502D1*
X4193110Y2407310D1*
X4195487Y2409687D1*
X4200295Y2412063D1*
X4209857D1*
X4214610Y2409687D1*
X4216987Y2407310D1*
X4219419Y2402502D1*
Y2397749D1*
X4216987Y2392940D1*
X4212233Y2385810D1*
X4188302Y2361879D1*
X4221795D1*
X4261166D2*
Y2412063D1*
X4237234Y2378625D1*
X4273104D1*
X4288544Y2412119D2*
X4307667Y2361879D1*
X4326790Y2412119D1*
X4342229D2*
Y2361879D1*
X4358976D1*
X4366161Y2364311D1*
X4370969Y2369064D1*
X4373346Y2373872D1*
X4375723Y2381002D1*
Y2392995D1*
X4373346Y2400181D1*
X4370969Y2404934D1*
X4366161Y2409742D1*
X4358976Y2412119D1*
X4342229D1*
X4427032Y2400181D2*
X4424655Y2404934D1*
X4419847Y2409742D1*
X4415094Y2412119D1*
X4405532D1*
X4400724Y2409742D1*
X4395970Y2404934D1*
X4393538Y2400181D1*
X4391162Y2392995D1*
Y2381002D1*
X4393538Y2373872D1*
X4395970Y2369064D1*
X4400724Y2364311D1*
X4405532Y2361879D1*
X4415094D1*
X4419847Y2364311D1*
X4424655Y2369064D1*
X4427032Y2373872D1*
X4442471Y2425218D2*
X4447280Y2420464D1*
X4452033Y2413279D1*
X4456841Y2403718D1*
X4459218Y2391724D1*
Y2382163D1*
X4456841Y2370224D1*
X4452033Y2360663D1*
X4447280Y2353478D1*
X4442471Y2348725D1*
X4325711Y2610023D2*
X4323335Y2614776D1*
X4318526Y2619585D1*
X4313773Y2621961D1*
X4304212D1*
X4299403Y2619585D1*
X4294650Y2614776D1*
X4292218Y2610023D1*
X4289841Y2602838D1*
Y2590845D1*
X4292218Y2583715D1*
X4294650Y2578906D1*
X4299403Y2574153D1*
X4304212Y2571721D1*
X4313773D1*
X4318526Y2574153D1*
X4323335Y2578906D1*
X4325711Y2583715D1*
Y2590845D1*
X4313773D1*
X4341151Y2605215D2*
Y2571721D1*
Y2595653D2*
X4348336Y2602838D1*
X4353144Y2605215D1*
X4360274D1*
X4365082Y2602838D1*
X4367459Y2595653D1*
Y2571721D1*
X4411583Y2621961D2*
Y2571721D1*
Y2598030D2*
X4406830Y2602838D1*
X4402021Y2605215D1*
X4394836D1*
X4390083Y2602838D1*
X4385275Y2598030D1*
X4382898Y2590845D1*
Y2586091D1*
X4385275Y2578906D1*
X4390083Y2574153D1*
X4394836Y2571721D1*
X4402021D1*
X4406830Y2574153D1*
X4411583Y2578906D1*
X2910790Y3423488D2*
Y3399612D1*
X2932289Y3397235D1*
X2929913Y3399612D1*
X2927481Y3406797D1*
Y3413927D1*
X2929913Y3421112D1*
X2934666Y3425920D1*
X2941851Y3428297D1*
X2946604D1*
X2953789Y3425920D1*
X2958598Y3421112D1*
X2960974Y3413927D1*
Y3406797D1*
X2958598Y3399612D1*
X2956166Y3397235D1*
X2951413Y3394804D1*
X2927481Y3443736D2*
X2960974Y3458106D1*
X2927481Y3472421D1*
X3034518Y3381328D2*
X3029765Y3378952D1*
X3024956Y3374143D1*
X3022579Y3369390D1*
Y3359828D1*
X3024956Y3355020D1*
X3029764Y3350267D1*
X3034518Y3347835D1*
X3041703Y3345458D1*
X3053696D1*
X3060826Y3347835D1*
X3065634Y3350267D1*
X3070388Y3355020D1*
X3072819Y3359828D1*
Y3369390D1*
X3070388Y3374143D1*
X3065634Y3378952D1*
X3060826Y3381328D1*
X3053696D1*
Y3369390D1*
X3039326Y3396767D2*
X3072819D1*
X3048888D2*
X3041703Y3403953D1*
X3039326Y3408761D1*
Y3415891D1*
X3041703Y3420699D1*
X3048888Y3423076D1*
X3072819D1*
X3022579Y3467200D2*
X3072819D1*
X3046511D2*
X3041703Y3462447D1*
X3039326Y3457638D1*
Y3450453D1*
X3041703Y3445700D1*
X3046511Y3440892D1*
X3053696Y3438515D1*
X3058449D1*
X3065634Y3440892D1*
X3070388Y3445700D1*
X3072819Y3450453D1*
Y3457638D1*
X3070388Y3462447D1*
X3065634Y3467200D1*
X2842264Y3439583D2*
Y3461138D1*
X2839888Y3468268D1*
X2837456Y3470700D1*
X2832703Y3473076D1*
X2825518D1*
X2820765Y3470700D1*
X2818333Y3468268D1*
X2815956Y3461138D1*
Y3439583D1*
X2866196D1*
X2010734Y2632304D2*
X2060974Y2665797D1*
X2010734D2*
X2060974Y2632304D1*
X2010734Y2681236D2*
X2060974D1*
Y2709921D1*
X2010734Y2725360D2*
X2013111Y2727737D1*
X2010734Y2730169D1*
X2008302Y2727737D1*
X2010734Y2725360D1*
X2027481Y2727737D2*
X2060974D1*
X2027481Y2745608D2*
X2060974D1*
X2037043D2*
X2029858Y2752793D1*
X2027481Y2757601D1*
Y2764731D1*
X2029858Y2769540D1*
X2037043Y2771916D1*
X2060974D1*
X2037043D2*
X2029858Y2779101D1*
X2027481Y2783910D1*
Y2791039D1*
X2029858Y2795848D1*
X2037043Y2798280D1*
X2060974D1*
X1910734Y2619804D2*
X1934666Y2638927D1*
X1960974D1*
X1910734Y2658050D2*
X1934666Y2638927D1*
X1910734Y2673489D2*
X1960974D1*
Y2702174D1*
X1910734Y2717613D2*
X1913111Y2719990D1*
X1910734Y2722422D1*
X1908302Y2719990D1*
X1910734Y2717613D1*
X1927481Y2719990D2*
X1960974D1*
X1927481Y2737861D2*
X1960974D1*
X1937043D2*
X1929858Y2745046D1*
X1927481Y2749854D1*
Y2756984D1*
X1929858Y2761793D1*
X1937043Y2764169D1*
X1960974D1*
X1937043D2*
X1929858Y2771354D1*
X1927481Y2776163D1*
Y2783293D1*
X1929858Y2788101D1*
X1937043Y2790533D1*
X1960974D1*
X1810734Y2557304D2*
Y2590797D1*
X1860974Y2557304D1*
Y2590797D1*
X1810734Y2606236D2*
X1860974D1*
Y2634921D1*
X1810734Y2650360D2*
X1813111Y2652737D1*
X1810734Y2655169D1*
X1808302Y2652737D1*
X1810734Y2650360D1*
X1827481Y2652737D2*
X1860974D1*
X1827481Y2670608D2*
X1860974D1*
X1837043D2*
X1829858Y2677793D1*
X1827481Y2682601D1*
Y2689731D1*
X1829858Y2694540D1*
X1837043Y2696916D1*
X1860974D1*
X1837043D2*
X1829858Y2704101D1*
X1827481Y2708910D1*
Y2716039D1*
X1829858Y2720848D1*
X1837043Y2723280D1*
X1860974D1*
X1760974Y2595605D2*
X1710734Y2576427D1*
X1760974Y2557304D1*
X1744228Y2564489D2*
Y2588420D1*
X1710734Y2611044D2*
X1760974D1*
Y2639729D1*
X1710734Y2655169D2*
X1713111Y2657545D1*
X1710734Y2659977D1*
X1708302Y2657545D1*
X1710734Y2655169D1*
X1727481Y2657545D2*
X1760974D1*
X1727481Y2675416D2*
X1760974D1*
X1737043D2*
X1729858Y2682601D1*
X1727481Y2687410D1*
Y2694540D1*
X1729858Y2699348D1*
X1737043Y2701725D1*
X1760974D1*
X1737043D2*
X1729858Y2708910D1*
X1727481Y2713718D1*
Y2720848D1*
X1729858Y2725656D1*
X1737043Y2728088D1*
X1760974D1*
X2413773Y2484221D2*
Y2534406D1*
X2389841Y2500968D1*
X2425711D1*
X2528053Y2484221D2*
X2508875Y2534461D1*
X2489752Y2484221D1*
X2496937Y2500968D2*
X2520868D1*
X2543493Y2517715D2*
X2569801Y2484221D1*
Y2517715D2*
X2543493Y2484221D1*
X2585240Y2534461D2*
X2587617Y2532085D1*
X2590049Y2534461D1*
X2587617Y2536893D1*
X2585240Y2534461D1*
X2587617Y2517715D2*
Y2484221D1*
X2631796Y2510530D2*
X2629420Y2515338D1*
X2622235Y2517715D1*
X2615049D1*
X2607864Y2515338D1*
X2605488Y2510530D1*
X2607864Y2505776D1*
X2612673Y2503345D1*
X2624611Y2500968D1*
X2629420Y2498591D1*
X2631796Y2493783D1*
Y2491406D1*
X2629420Y2486653D1*
X2622235Y2484221D1*
X2615049D1*
X2607864Y2486653D1*
X2605488Y2491406D1*
X2712583Y2547560D2*
X2707775Y2542807D1*
X2703021Y2535622D1*
X2698213Y2526060D1*
X2695836Y2514067D1*
Y2504505D1*
X2698213Y2492567D1*
X2703021Y2483005D1*
X2707775Y2475820D1*
X2712583Y2471067D1*
X2761516Y2527276D2*
X2756762Y2532085D1*
X2749577Y2534461D1*
X2740016D1*
X2732831Y2532085D1*
X2728022Y2527276D1*
Y2522523D1*
X2730454Y2517715D1*
X2732831Y2515338D1*
X2737584Y2512961D1*
X2751954Y2508153D1*
X2756762Y2505776D1*
X2759139Y2503345D1*
X2761516Y2498591D1*
Y2491406D1*
X2756762Y2486653D1*
X2749577Y2484221D1*
X2740016D1*
X2732831Y2486653D1*
X2728022Y2491406D1*
X2776955Y2508153D2*
X2798510D1*
X2805640Y2510530D1*
X2808072Y2512961D1*
X2810448Y2517715D1*
Y2524900D1*
X2808072Y2529653D1*
X2805640Y2532085D1*
X2798510Y2534461D1*
X2776955D1*
Y2484221D1*
X2825887Y2534461D2*
Y2484221D1*
X2841327Y2547560D2*
X2846135Y2542807D1*
X2850888Y2535622D1*
X2855697Y2526060D1*
X2858073Y2514067D1*
Y2504505D1*
X2855697Y2492567D1*
X2850888Y2483005D1*
X2846135Y2475820D1*
X2841327Y2471067D1*
X2957984Y2522523D2*
X2955607Y2527276D1*
X2950798Y2532085D1*
X2946045Y2534461D1*
X2936484D1*
X2931675Y2532085D1*
X2926922Y2527276D1*
X2924490Y2522523D1*
X2922114Y2515338D1*
Y2503345D1*
X2924490Y2496215D1*
X2926922Y2491406D1*
X2931675Y2486653D1*
X2936484Y2484221D1*
X2946045D1*
X2950798Y2486653D1*
X2955607Y2491406D1*
X2957984Y2496215D1*
X3006916Y2534461D2*
Y2484221D1*
X2973423Y2534461D1*
Y2484221D1*
X3058225Y2522523D2*
X3055849Y2527276D1*
X3051040Y2532085D1*
X3046287Y2534461D1*
X3036725D1*
X3031917Y2532085D1*
X3027164Y2527276D1*
X3024732Y2522523D1*
X3022355Y2515338D1*
Y2503345D1*
X3024732Y2496215D1*
X3027164Y2491406D1*
X3031917Y2486653D1*
X3036725Y2484221D1*
X3046287D1*
X3051040Y2486653D1*
X3055849Y2491406D1*
X3058225Y2496215D1*
X3158135Y2522523D2*
X3155759Y2527276D1*
X3150950Y2532085D1*
X3146197Y2534461D1*
X3136636D1*
X3131827Y2532085D1*
X3127074Y2527276D1*
X3124642Y2522523D1*
X3122265Y2515338D1*
Y2503345D1*
X3124642Y2496215D1*
X3127074Y2491406D1*
X3131827Y2486653D1*
X3136636Y2484221D1*
X3146197D1*
X3150950Y2486653D1*
X3155759Y2491406D1*
X3158135Y2496215D1*
X3185513Y2517715D2*
X3180760Y2515338D1*
X3175951Y2510530D1*
X3173575Y2503345D1*
Y2498591D1*
X3175951Y2491406D1*
X3180760Y2486653D1*
X3185513Y2484221D1*
X3192698D1*
X3197506Y2486653D1*
X3202260Y2491406D1*
X3204691Y2498591D1*
Y2503345D1*
X3202260Y2510530D1*
X3197506Y2515338D1*
X3192698Y2517715D1*
X3185513D1*
X3220131D2*
Y2484221D1*
Y2508153D2*
X3227316Y2515338D1*
X3232124Y2517715D1*
X3239254D1*
X3244062Y2515338D1*
X3246439Y2508153D1*
Y2484221D1*
X3269063Y2534461D2*
Y2493783D1*
X3271440Y2486653D1*
X3276248Y2484221D1*
X3281001D1*
X3261878Y2517715D2*
X3278625D1*
X3296441D2*
Y2484221D1*
Y2503345D2*
X3298873Y2510530D1*
X3303626Y2515338D1*
X3308434Y2517715D1*
X3315619D1*
X3342997D2*
X3338244Y2515338D1*
X3333435Y2510530D1*
X3331058Y2503345D1*
Y2498591D1*
X3333435Y2491406D1*
X3338244Y2486653D1*
X3342997Y2484221D1*
X3350182D1*
X3354990Y2486653D1*
X3359743Y2491406D1*
X3362175Y2498591D1*
Y2503345D1*
X3359743Y2510530D1*
X3354990Y2515338D1*
X3350182Y2517715D1*
X3342997D1*
X3377614Y2534461D2*
Y2484221D1*
X3393054Y2534461D2*
Y2484221D1*
X3408493Y2503345D2*
X3437178D1*
Y2508153D1*
X3434801Y2512961D1*
X3432425Y2515338D1*
X3427616Y2517715D1*
X3420431D1*
X3415678Y2515338D1*
X3410870Y2510530D1*
X3408493Y2503345D1*
Y2498591D1*
X3410870Y2491406D1*
X3415678Y2486653D1*
X3420431Y2484221D1*
X3427616D1*
X3432425Y2486653D1*
X3437178Y2491406D1*
X3452617Y2517715D2*
Y2484221D1*
Y2503345D2*
X3455049Y2510530D1*
X3459802Y2515338D1*
X3464611Y2517715D1*
X3471796D1*
X3535836Y2534461D2*
X3554959Y2484221D1*
X3574082Y2534461D1*
X3589522Y2524844D2*
X3594330Y2527276D1*
X3601515Y2534406D1*
Y2484221D1*
X3619331Y2489030D2*
X3616954Y2486598D1*
X3619331Y2484221D1*
X3621763Y2486598D1*
X3619331Y2489030D1*
X3642010Y2534406D2*
X3668264D1*
X3653949Y2515283D1*
X3661134D1*
X3665887Y2512906D1*
X3668264Y2510530D1*
X3670695Y2503345D1*
Y2498591D1*
X3668264Y2491406D1*
X3663510Y2486598D1*
X3656325Y2484221D1*
X3649140D1*
X3642010Y2486598D1*
X3639634Y2489030D1*
X3637202Y2493783D1*
X2416150Y2447468D2*
X2408965D1*
X2404212Y2445091D1*
X2401780Y2442715D1*
X2399403Y2437906D1*
Y2428345D1*
X2401780Y2425968D1*
X2406588D1*
X2416150Y2428345D1*
X2418526Y2423591D1*
X2420903D1*
X2425711Y2428345D1*
X2428088Y2440283D1*
X2425711Y2447468D1*
X2423335Y2452276D1*
X2418526Y2457029D1*
X2413773Y2459406D1*
X2404212D1*
X2399403Y2457029D1*
X2394650Y2452276D1*
X2392218Y2447468D1*
X2389841Y2440283D1*
Y2428345D1*
X2392218Y2421159D1*
X2394650Y2416406D1*
X2399403Y2411598D1*
X2404212Y2409221D1*
X2413773D1*
X2418526Y2411598D1*
X2423335Y2416406D1*
X2416150Y2449844D2*
Y2428345D1*
X2443527Y2459461D2*
Y2409221D1*
Y2435530D2*
X2448336Y2440338D1*
X2453089Y2442715D1*
X2460274D1*
X2465027Y2440338D1*
X2469836Y2435530D1*
X2472212Y2428345D1*
Y2423591D1*
X2469836Y2416406D1*
X2465027Y2411653D1*
X2460274Y2409221D1*
X2453089D1*
X2448336Y2411653D1*
X2443527Y2416406D1*
X2487651Y2442715D2*
Y2418783D1*
X2490028Y2411653D1*
X2494836Y2409221D1*
X2502021D1*
X2506775Y2411653D1*
X2513960Y2418783D1*
Y2442715D2*
Y2409221D1*
X2529399Y2459461D2*
X2531775Y2457085D1*
X2534207Y2459461D1*
X2531775Y2461893D1*
X2529399Y2459461D1*
X2531775Y2442715D2*
Y2409221D1*
X2549647Y2459461D2*
Y2409221D1*
X2593771Y2459461D2*
Y2409221D1*
Y2435530D2*
X2589018Y2440338D1*
X2584209Y2442715D1*
X2577024D1*
X2572271Y2440338D1*
X2567462Y2435530D1*
X2565086Y2428345D1*
Y2423591D1*
X2567462Y2416406D1*
X2572271Y2411653D1*
X2577024Y2409221D1*
X2584209D1*
X2589018Y2411653D1*
X2593771Y2416406D1*
X2609210Y2459461D2*
Y2409221D1*
X2636587Y2442715D2*
X2631834Y2440338D1*
X2627026Y2435530D1*
X2624649Y2428345D1*
Y2423591D1*
X2627026Y2416406D1*
X2631834Y2411653D1*
X2636587Y2409221D1*
X2643772D1*
X2648581Y2411653D1*
X2653334Y2416406D1*
X2655766Y2423591D1*
Y2428345D1*
X2653334Y2435530D1*
X2648581Y2440338D1*
X2643772Y2442715D1*
X2636587D1*
X2699890Y2440338D2*
Y2402036D1*
X2697513Y2394906D1*
X2695137Y2392475D1*
X2690328Y2390098D1*
X2683143D1*
X2678390Y2392475D1*
X2699890Y2433153D2*
X2695137Y2437906D1*
X2690328Y2440338D1*
X2683143D1*
X2678390Y2437906D1*
X2673582Y2433153D1*
X2671205Y2425968D1*
Y2421159D1*
X2673582Y2414030D1*
X2678390Y2409221D1*
X2683143Y2406845D1*
X2690328D1*
X2695137Y2409221D1*
X2699890Y2414030D1*
X2780677Y2472560D2*
X2775869Y2467807D1*
X2771115Y2460622D1*
X2766307Y2451060D1*
X2763930Y2439067D1*
Y2429505D1*
X2766307Y2417567D1*
X2771115Y2408005D1*
X2775869Y2400820D1*
X2780677Y2396067D1*
X2796116Y2459461D2*
Y2409221D1*
Y2435530D2*
X2800925Y2440338D1*
X2805678Y2442715D1*
X2812863D1*
X2817616Y2440338D1*
X2822425Y2435530D1*
X2824801Y2428345D1*
Y2423591D1*
X2822425Y2416406D1*
X2817616Y2411653D1*
X2812863Y2409221D1*
X2805678D1*
X2800925Y2411653D1*
X2796116Y2416406D1*
X2868925Y2459461D2*
Y2409221D1*
Y2435530D2*
X2864172Y2440338D1*
X2859364Y2442715D1*
X2852179D1*
X2847425Y2440338D1*
X2842617Y2435530D1*
X2840240Y2428345D1*
Y2423591D1*
X2842617Y2416406D1*
X2847425Y2411653D1*
X2852179Y2409221D1*
X2859364D1*
X2864172Y2411653D1*
X2868925Y2416406D1*
X2884364Y2442715D2*
Y2409221D1*
Y2428345D2*
X2886796Y2435530D1*
X2891550Y2440338D1*
X2896358Y2442715D1*
X2903543D1*
X2918982Y2459461D2*
X2921359Y2457085D1*
X2923791Y2459461D1*
X2921359Y2461893D1*
X2918982Y2459461D1*
X2921359Y2442715D2*
Y2409221D1*
X2939230Y2442715D2*
Y2409221D1*
Y2433153D2*
X2946415Y2440338D1*
X2951223Y2442715D1*
X2958353D1*
X2963162Y2440338D1*
X2965538Y2433153D1*
Y2409221D1*
X3009662Y2440338D2*
Y2402036D1*
X3007286Y2394906D1*
X3004909Y2392475D1*
X3000101Y2390098D1*
X2992916D1*
X2988163Y2392475D1*
X3009662Y2433153D2*
X3004909Y2437906D1*
X3000101Y2440338D1*
X2992916D1*
X2988163Y2437906D1*
X2983354Y2433153D1*
X2980978Y2425968D1*
Y2421159D1*
X2983354Y2414030D1*
X2988163Y2409221D1*
X2992916Y2406845D1*
X3000101D1*
X3004909Y2409221D1*
X3009662Y2414030D1*
X3051410Y2447468D2*
X3044225D1*
X3039472Y2445091D1*
X3037040Y2442715D1*
X3034663Y2437906D1*
Y2428345D1*
X3037040Y2425968D1*
X3041848D1*
X3051410Y2428345D1*
X3053787Y2423591D1*
X3056163D1*
X3060972Y2428345D1*
X3063348Y2440283D1*
X3060972Y2447468D1*
X3058595Y2452276D1*
X3053787Y2457029D1*
X3049033Y2459406D1*
X3039472D1*
X3034663Y2457029D1*
X3029910Y2452276D1*
X3027478Y2447468D1*
X3025102Y2440283D1*
Y2428345D1*
X3027478Y2421159D1*
X3029910Y2416406D1*
X3034663Y2411598D1*
X3039472Y2409221D1*
X3049033D1*
X3053787Y2411598D1*
X3058595Y2416406D1*
X3051410Y2449844D2*
Y2428345D1*
X3078787Y2459461D2*
Y2409221D1*
Y2435530D2*
X3083596Y2440338D1*
X3088349Y2442715D1*
X3095534D1*
X3100287Y2440338D1*
X3105096Y2435530D1*
X3107472Y2428345D1*
Y2423591D1*
X3105096Y2416406D1*
X3100287Y2411653D1*
X3095534Y2409221D1*
X3088349D1*
X3083596Y2411653D1*
X3078787Y2416406D1*
X3122912Y2442715D2*
Y2418783D1*
X3125288Y2411653D1*
X3130097Y2409221D1*
X3137282D1*
X3142035Y2411653D1*
X3149220Y2418783D1*
Y2442715D2*
Y2409221D1*
X3164659Y2459461D2*
X3167036Y2457085D1*
X3169468Y2459461D1*
X3167036Y2461893D1*
X3164659Y2459461D1*
X3167036Y2442715D2*
Y2409221D1*
X3184907Y2459461D2*
Y2409221D1*
X3229031Y2459461D2*
Y2409221D1*
Y2435530D2*
X3224278Y2440338D1*
X3219469Y2442715D1*
X3212284D1*
X3207531Y2440338D1*
X3202723Y2435530D1*
X3200346Y2428345D1*
Y2423591D1*
X3202723Y2416406D1*
X3207531Y2411653D1*
X3212284Y2409221D1*
X3219469D1*
X3224278Y2411653D1*
X3229031Y2416406D1*
X3244470Y2459461D2*
Y2409221D1*
X3271848Y2442715D2*
X3267094Y2440338D1*
X3262286Y2435530D1*
X3259909Y2428345D1*
Y2423591D1*
X3262286Y2416406D1*
X3267094Y2411653D1*
X3271848Y2409221D1*
X3279033D1*
X3283841Y2411653D1*
X3288594Y2416406D1*
X3291026Y2423591D1*
Y2428345D1*
X3288594Y2435530D1*
X3283841Y2440338D1*
X3279033Y2442715D1*
X3271848D1*
X3335150Y2440338D2*
Y2402036D1*
X3332774Y2394906D1*
X3330397Y2392475D1*
X3325589Y2390098D1*
X3318404D1*
X3313650Y2392475D1*
X3335150Y2433153D2*
X3330397Y2437906D1*
X3325589Y2440338D1*
X3318404D1*
X3313650Y2437906D1*
X3308842Y2433153D1*
X3306465Y2425968D1*
Y2421159D1*
X3308842Y2414030D1*
X3313650Y2409221D1*
X3318404Y2406845D1*
X3325589D1*
X3330397Y2409221D1*
X3335150Y2414030D1*
X3352966D2*
X3350590Y2411598D1*
X3352966Y2409221D1*
X3355398Y2411598D1*
X3352966Y2414030D1*
X3370837Y2442715D2*
Y2409221D1*
Y2433153D2*
X3378022Y2440338D1*
X3382831Y2442715D1*
X3389960D1*
X3394769Y2440338D1*
X3397146Y2433153D1*
Y2409221D1*
X3412585Y2428345D2*
X3441270D1*
Y2433153D1*
X3438893Y2437961D1*
X3436516Y2440338D1*
X3431708Y2442715D1*
X3424523D1*
X3419770Y2440338D1*
X3414961Y2435530D1*
X3412585Y2428345D1*
Y2423591D1*
X3414961Y2416406D1*
X3419770Y2411653D1*
X3424523Y2409221D1*
X3431708D1*
X3436516Y2411653D1*
X3441270Y2416406D1*
X3463894Y2459461D2*
Y2418783D1*
X3466271Y2411653D1*
X3471079Y2409221D1*
X3475832D1*
X3456709Y2442715D2*
X3473456D1*
X3491271Y2472560D2*
X3496080Y2467807D1*
X3500833Y2460622D1*
X3505641Y2451060D1*
X3508018Y2439067D1*
Y2429505D1*
X3505641Y2417567D1*
X3500833Y2408005D1*
X3496080Y2400820D1*
X3491271Y2396067D1*
X2425711Y2360023D2*
X2423335Y2364776D1*
X2418526Y2369585D1*
X2413773Y2371961D1*
X2404212D1*
X2399403Y2369585D1*
X2394650Y2364776D1*
X2392218Y2360023D1*
X2389841Y2352838D1*
Y2340845D1*
X2392218Y2333715D1*
X2394650Y2328906D1*
X2399403Y2324153D1*
X2404212Y2321721D1*
X2413773D1*
X2418526Y2324153D1*
X2423335Y2328906D1*
X2425711Y2333715D1*
X2453089Y2355215D2*
X2448336Y2352838D1*
X2443527Y2348030D1*
X2441151Y2340845D1*
Y2336091D1*
X2443527Y2328906D1*
X2448336Y2324153D1*
X2453089Y2321721D1*
X2460274D1*
X2465082Y2324153D1*
X2469836Y2328906D1*
X2472267Y2336091D1*
Y2340845D1*
X2469836Y2348030D1*
X2465082Y2352838D1*
X2460274Y2355215D1*
X2453089D1*
X2487707D2*
Y2304975D1*
Y2348030D2*
X2492515Y2352783D1*
X2497268Y2355215D1*
X2504453D1*
X2509262Y2352783D1*
X2514015Y2348030D1*
X2516447Y2340845D1*
Y2336036D1*
X2514015Y2328906D1*
X2509262Y2324098D1*
X2504453Y2321721D1*
X2497268D1*
X2492515Y2324098D1*
X2487707Y2328906D1*
X2534318Y2355215D2*
X2548633Y2321721D1*
X2543879Y2312160D1*
X2539071Y2307351D1*
X2534318Y2304975D1*
X2531886D1*
X2563003Y2355215D2*
X2548633Y2321721D1*
X2578442Y2355215D2*
Y2321721D1*
Y2340845D2*
X2580874Y2348030D1*
X2585627Y2352838D1*
X2590435Y2355215D1*
X2597621D1*
X2613060Y2371961D2*
X2615436Y2369585D1*
X2617868Y2371961D1*
X2615436Y2374393D1*
X2613060Y2371961D1*
X2615436Y2355215D2*
Y2321721D1*
X2661992Y2352838D2*
Y2314536D1*
X2659616Y2307406D1*
X2657239Y2304975D1*
X2652431Y2302598D1*
X2645246D1*
X2640493Y2304975D1*
X2661992Y2345653D2*
X2657239Y2350406D1*
X2652431Y2352838D1*
X2645246D1*
X2640493Y2350406D1*
X2635684Y2345653D1*
X2633307Y2338468D1*
Y2333659D1*
X2635684Y2326530D1*
X2640493Y2321721D1*
X2645246Y2319345D1*
X2652431D1*
X2657239Y2321721D1*
X2661992Y2326530D1*
X2677432Y2371961D2*
Y2321721D1*
Y2345653D2*
X2684617Y2352838D1*
X2689425Y2355215D1*
X2696610D1*
X2701363Y2352838D1*
X2703740Y2345653D1*
Y2321721D1*
X2726364Y2371961D2*
Y2331283D1*
X2728741Y2324153D1*
X2733549Y2321721D1*
X2738302D1*
X2719179Y2355215D2*
X2735926D1*
X2831028Y2364776D2*
X2828651Y2369529D1*
X2821466Y2371906D1*
X2816713D1*
X2809528Y2369529D1*
X2804719Y2362344D1*
X2802343Y2350406D1*
Y2338468D1*
X2804719Y2328906D1*
X2809528Y2324098D1*
X2816713Y2321721D1*
X2819089D1*
X2826219Y2324098D1*
X2831028Y2328906D1*
X2833404Y2336091D1*
Y2338468D1*
X2831028Y2345653D1*
X2826219Y2350406D1*
X2819089Y2352783D1*
X2816713D1*
X2809528Y2350406D1*
X2804719Y2345653D1*
X2802343Y2338468D1*
X2848843Y2321721D2*
X2882337Y2371906D1*
X2900208Y2359968D2*
Y2362344D1*
X2902584Y2367153D1*
X2904961Y2369529D1*
X2909769Y2371906D1*
X2919331D1*
X2924084Y2369529D1*
X2926461Y2367153D1*
X2928893Y2362344D1*
Y2357591D1*
X2926461Y2352783D1*
X2921708Y2345653D1*
X2897776Y2321721D1*
X2931269D1*
X2961079Y2371906D2*
X2953894Y2369529D1*
X2949085Y2362344D1*
X2946709Y2350406D1*
Y2343221D1*
X2949085Y2331283D1*
X2953894Y2324098D1*
X2961079Y2321721D1*
X2965832D1*
X2973017Y2324098D1*
X2977770Y2331283D1*
X2980202Y2343221D1*
Y2350406D1*
X2977770Y2362344D1*
X2973017Y2369529D1*
X2965832Y2371906D1*
X2961079D1*
X2977770Y2362344D2*
X2949085Y2331283D1*
X2995641Y2362344D2*
X3000450Y2364776D1*
X3007635Y2371906D1*
Y2321721D1*
X3054191Y2355215D2*
X3051759Y2348030D1*
X3047006Y2343221D1*
X3039821Y2340845D1*
X3037444D1*
X3030259Y2343221D1*
X3025506Y2348030D1*
X3023074Y2355215D1*
Y2357591D1*
X3025506Y2364776D1*
X3030259Y2369529D1*
X3037444Y2371906D1*
X3039821D1*
X3047006Y2369529D1*
X3051759Y2364776D1*
X3054191Y2355215D1*
Y2343221D1*
X3051759Y2331283D1*
X3047006Y2324098D1*
X3039821Y2321721D1*
X3035067D1*
X3027882Y2324098D1*
X3025506Y2328906D1*
X2404212Y2284461D2*
X2399403Y2282085D1*
X2394650Y2277276D1*
X2392218Y2272523D1*
X2389841Y2265338D1*
Y2253345D1*
X2392218Y2246215D1*
X2394650Y2241406D1*
X2399403Y2236653D1*
X2404212Y2234221D1*
X2413773D1*
X2418526Y2236653D1*
X2423335Y2241406D1*
X2425711Y2246215D1*
X2428088Y2253345D1*
Y2265338D1*
X2425711Y2272523D1*
X2423335Y2277276D1*
X2418526Y2282085D1*
X2413773Y2284461D1*
X2404212D1*
X2443527Y2267715D2*
Y2217475D1*
Y2260530D2*
X2448336Y2265283D1*
X2453089Y2267715D1*
X2460274D1*
X2465082Y2265283D1*
X2469836Y2260530D1*
X2472267Y2253345D1*
Y2248536D1*
X2469836Y2241406D1*
X2465082Y2236598D1*
X2460274Y2234221D1*
X2453089D1*
X2448336Y2236598D1*
X2443527Y2241406D1*
X2487707Y2253345D2*
X2516391D1*
Y2258153D1*
X2514015Y2262961D1*
X2511638Y2265338D1*
X2506830Y2267715D1*
X2499645D1*
X2494892Y2265338D1*
X2490083Y2260530D1*
X2487707Y2253345D1*
Y2248591D1*
X2490083Y2241406D1*
X2494892Y2236653D1*
X2499645Y2234221D1*
X2506830D1*
X2511638Y2236653D1*
X2516391Y2241406D1*
X2531831Y2267715D2*
Y2234221D1*
Y2258153D2*
X2539016Y2265338D1*
X2543824Y2267715D1*
X2550954D1*
X2555762Y2265338D1*
X2558139Y2258153D1*
Y2234221D1*
X2655673Y2277276D2*
X2650919Y2282085D1*
X2643734Y2284461D1*
X2634173D1*
X2626988Y2282085D1*
X2622179Y2277276D1*
Y2272523D1*
X2624611Y2267715D1*
X2626988Y2265338D1*
X2631741Y2262961D1*
X2646111Y2258153D1*
X2650919Y2255776D1*
X2653296Y2253345D1*
X2655673Y2248591D1*
Y2241406D1*
X2650919Y2236653D1*
X2643734Y2234221D1*
X2634173D1*
X2626988Y2236653D1*
X2622179Y2241406D1*
X2683050Y2267715D2*
X2678297Y2265338D1*
X2673488Y2260530D1*
X2671112Y2253345D1*
Y2248591D1*
X2673488Y2241406D1*
X2678297Y2236653D1*
X2683050Y2234221D1*
X2690235D1*
X2695044Y2236653D1*
X2699797Y2241406D1*
X2702229Y2248591D1*
Y2253345D1*
X2699797Y2260530D1*
X2695044Y2265338D1*
X2690235Y2267715D1*
X2683050D1*
X2717668D2*
Y2243783D1*
X2720044Y2236653D1*
X2724853Y2234221D1*
X2732038D1*
X2736791Y2236653D1*
X2743976Y2243783D1*
Y2267715D2*
Y2234221D1*
X2759415Y2267715D2*
Y2234221D1*
Y2253345D2*
X2761847Y2260530D1*
X2766600Y2265338D1*
X2771409Y2267715D1*
X2778594D1*
X2822773Y2260530D2*
X2817965Y2265338D1*
X2813156Y2267715D1*
X2806027D1*
X2801218Y2265338D1*
X2796465Y2260530D1*
X2794033Y2253345D1*
Y2248591D1*
X2796465Y2241406D1*
X2801218Y2236653D1*
X2806027Y2234221D1*
X2813156D1*
X2817965Y2236653D1*
X2822773Y2241406D1*
X2838213Y2253345D2*
X2866897D1*
Y2258153D1*
X2864521Y2262961D1*
X2862144Y2265338D1*
X2857336Y2267715D1*
X2850151D1*
X2845398Y2265338D1*
X2840589Y2260530D1*
X2838213Y2253345D1*
Y2248591D1*
X2840589Y2241406D1*
X2845398Y2236653D1*
X2850151Y2234221D1*
X2857336D1*
X2862144Y2236653D1*
X2866897Y2241406D1*
X2966808Y2272523D2*
X2964431Y2277276D1*
X2959623Y2282085D1*
X2954869Y2284461D1*
X2945308D1*
X2940499Y2282085D1*
X2935746Y2277276D1*
X2933314Y2272523D1*
X2930938Y2265338D1*
Y2253345D1*
X2933314Y2246215D1*
X2935746Y2241406D1*
X2940499Y2236653D1*
X2945308Y2234221D1*
X2954869D1*
X2959623Y2236653D1*
X2964431Y2241406D1*
X2966808Y2246215D1*
X3018117Y2272523D2*
X3015740Y2277276D1*
X3010932Y2282085D1*
X3006179Y2284461D1*
X2996617D1*
X2991808Y2282085D1*
X2987055Y2277276D1*
X2984623Y2272523D1*
X2982247Y2265338D1*
Y2253345D1*
X2984623Y2246215D1*
X2987055Y2241406D1*
X2991808Y2236653D1*
X2996617Y2234221D1*
X3006179D1*
X3010932Y2236653D1*
X3015740Y2241406D1*
X3018117Y2246215D1*
X3057488Y2234221D2*
Y2284406D1*
X3033556Y2250968D1*
X3069426D1*
X3087242Y2239030D2*
X3084865Y2236598D1*
X3087242Y2234221D1*
X3089674Y2236598D1*
X3087242Y2239030D1*
X3119483Y2284406D2*
X3112298Y2282029D1*
X3107489Y2274844D1*
X3105113Y2262906D1*
Y2255721D1*
X3107489Y2243783D1*
X3112298Y2236598D1*
X3119483Y2234221D1*
X3124236D1*
X3131421Y2236598D1*
X3136174Y2243783D1*
X3138606Y2255721D1*
Y2262906D1*
X3136174Y2274844D1*
X3131421Y2282029D1*
X3124236Y2284406D1*
X3119483D1*
X3136174Y2274844D2*
X3107489Y2243783D1*
X3240948Y2234221D2*
X3221770Y2284461D1*
X3202646Y2234221D1*
X3209831Y2250968D2*
X3233763D1*
X3263572Y2284461D2*
Y2243783D1*
X3265949Y2236653D1*
X3270758Y2234221D1*
X3275511D1*
X3256387Y2267715D2*
X3273134D1*
X3298135Y2284461D2*
Y2243783D1*
X3300512Y2236653D1*
X3305320Y2234221D1*
X3310073D1*
X3290950Y2267715D2*
X3307697D1*
X3325512D2*
Y2234221D1*
Y2253345D2*
X3327944Y2260530D1*
X3332698Y2265338D1*
X3337506Y2267715D1*
X3344691D1*
X3360130Y2284461D2*
X3362507Y2282085D1*
X3364939Y2284461D1*
X3362507Y2286893D1*
X3360130Y2284461D1*
X3362507Y2267715D2*
Y2234221D1*
X3380378Y2284461D2*
Y2234221D1*
Y2260530D2*
X3385186Y2265338D1*
X3389940Y2267715D1*
X3397125D1*
X3401878Y2265338D1*
X3406686Y2260530D1*
X3409063Y2253345D1*
Y2248591D1*
X3406686Y2241406D1*
X3401878Y2236653D1*
X3397125Y2234221D1*
X3389940D1*
X3385186Y2236653D1*
X3380378Y2241406D1*
X3424502Y2234221D2*
X3457995Y2284406D1*
X3506928Y2277276D2*
X3502175Y2282085D1*
X3494990Y2284461D1*
X3485428D1*
X3478243Y2282085D1*
X3473435Y2277276D1*
Y2272523D1*
X3475867Y2267715D1*
X3478243Y2265338D1*
X3482996Y2262961D1*
X3497366Y2258153D1*
X3502175Y2255776D1*
X3504551Y2253345D1*
X3506928Y2248591D1*
Y2241406D1*
X3502175Y2236653D1*
X3494990Y2234221D1*
X3485428D1*
X3478243Y2236653D1*
X3473435Y2241406D1*
X3522367Y2284461D2*
Y2234221D1*
Y2258153D2*
X3529552Y2265338D1*
X3534361Y2267715D1*
X3541546D1*
X3546299Y2265338D1*
X3548676Y2258153D1*
Y2234221D1*
X3592800Y2267715D2*
Y2234221D1*
Y2260530D2*
X3588046Y2265338D1*
X3583238Y2267715D1*
X3576108D1*
X3571300Y2265338D1*
X3566547Y2260530D1*
X3564115Y2253345D1*
Y2248591D1*
X3566547Y2241406D1*
X3571300Y2236653D1*
X3576108Y2234221D1*
X3583238D1*
X3588046Y2236653D1*
X3592800Y2241406D1*
X3608239Y2267715D2*
Y2234221D1*
Y2253345D2*
X3610671Y2260530D1*
X3615424Y2265338D1*
X3620232Y2267715D1*
X3627417D1*
X3642857Y2253345D2*
X3671542D1*
Y2258153D1*
X3669165Y2262961D1*
X3666788Y2265338D1*
X3661980Y2267715D1*
X3654795D1*
X3650042Y2265338D1*
X3645233Y2260530D1*
X3642857Y2253345D1*
Y2248591D1*
X3645233Y2241406D1*
X3650042Y2236653D1*
X3654795Y2234221D1*
X3661980D1*
X3666788Y2236653D1*
X3671542Y2241406D1*
X3987934Y505399D2*
X4038174D1*
Y534084D1*
X3987934Y549523D2*
X3990310Y551900D1*
X3987934Y554332D1*
X3985502Y551900D1*
X3987934Y549523D1*
X4004680Y551900D2*
X4038174D1*
X4004680Y569771D2*
X4038174D1*
X4014242D2*
X4007057Y576956D1*
X4004680Y581765D1*
Y588894D1*
X4007057Y593703D1*
X4014242Y596079D1*
X4038174D1*
X4019051Y611519D2*
Y640203D1*
X4014242D1*
X4009434Y637827D1*
X4007057Y635450D1*
X4004680Y630642D1*
Y623457D1*
X4007057Y618704D1*
X4011866Y613895D1*
X4019051Y611519D1*
X4023804D1*
X4030989Y613895D1*
X4035742Y618704D1*
X4038174Y623457D1*
Y630642D1*
X4035742Y635450D1*
X4030989Y640203D1*
X4503873Y495394D2*
X4554113D1*
X4503873Y461901D1*
X4554113D1*
X4534990Y510833D2*
Y539518D1*
X4530182D1*
X4525373Y537141D1*
X4522997Y534765D1*
X4520620Y529956D1*
Y522771D1*
X4522997Y518018D1*
X4527805Y513210D1*
X4534990Y510833D1*
X4539743D1*
X4546928Y513210D1*
X4551682Y518018D1*
X4554113Y522771D1*
Y529956D1*
X4551682Y534765D1*
X4546928Y539518D1*
X4520620Y554957D2*
X4544552D1*
X4551682Y557334D1*
X4554113Y562142D1*
Y569327D1*
X4551682Y574080D1*
X4544552Y581266D1*
X4520620D2*
X4554113D1*
X4503873Y603890D2*
X4544552D1*
X4551682Y606266D1*
X4554113Y611075D1*
Y615828D1*
X4520620Y596705D2*
Y613451D1*
Y631267D2*
X4554113D1*
X4534990D2*
X4527805Y633699D1*
X4522997Y638452D1*
X4520620Y643261D1*
Y650446D1*
Y694570D2*
X4554113D1*
X4527805D2*
X4522997Y689817D1*
X4520620Y685008D1*
Y677879D1*
X4522997Y673070D1*
X4527805Y668317D1*
X4534990Y665885D1*
X4539743D1*
X4546928Y668317D1*
X4551682Y673070D1*
X4554113Y677879D1*
Y685008D1*
X4551682Y689817D1*
X4546928Y694570D1*
X4503873Y710009D2*
X4554113D1*
X2615859Y3531017D2*
X2666099D1*
X2632606Y3546457D2*
X2666099D1*
X2642167D2*
X2634982Y3553642D1*
X2632606Y3558450D1*
Y3565580D1*
X2634982Y3570388D1*
X2642167Y3572765D1*
X2666099D1*
X2615859Y3595389D2*
X2656537D1*
X2663667Y3597766D1*
X2666099Y3602574D1*
Y3607327D1*
X2632606Y3588204D2*
Y3604951D1*
X2615859Y3622767D2*
X2666099D1*
X2615859Y3638206D2*
X2666099D1*
X2632606Y3662138D2*
X2656537Y3638206D1*
X2646976Y3647767D2*
X2666099Y3664514D1*
X2278467Y3663173D2*
X2276091Y3667926D1*
X2271282Y3672734D1*
X2266529Y3675111D1*
X2256967D1*
X2252159Y3672734D1*
X2247406Y3667926D1*
X2244974Y3663173D1*
X2242597Y3655988D1*
Y3643994D1*
X2244974Y3636864D1*
X2247406Y3632056D1*
X2252159Y3627303D1*
X2256967Y3624871D1*
X2266529D1*
X2271282Y3627303D1*
X2276091Y3632056D1*
X2278467Y3636864D1*
Y3643994D1*
X2266529D1*
X2293907Y3658364D2*
Y3624871D1*
Y3648803D2*
X2301092Y3655988D1*
X2305900Y3658364D1*
X2313030D1*
X2317838Y3655988D1*
X2320215Y3648803D1*
Y3624871D1*
X2364339Y3675111D2*
Y3624871D1*
Y3651179D2*
X2359586Y3655988D1*
X2354777Y3658364D1*
X2347592D1*
X2342839Y3655988D1*
X2338031Y3651179D1*
X2335654Y3643994D1*
Y3639241D1*
X2338031Y3632056D1*
X2342839Y3627303D1*
X2347592Y3624871D1*
X2354777D1*
X2359586Y3627303D1*
X2364339Y3632056D1*
X2213070Y3540535D2*
X2234625D1*
X2241755Y3542911D1*
X2244187Y3545343D1*
X2246563Y3550096D1*
Y3557282D1*
X2244187Y3562035D1*
X2241755Y3564467D1*
X2234625Y3566843D1*
X2213070D1*
Y3516603D1*
X2262002Y3566843D2*
X2273996Y3516603D1*
X2285934Y3566843D1*
X2297872Y3516603D1*
X2309866Y3566843D1*
X2363552Y3516603D2*
Y3566843D1*
X2344428Y3516603D1*
X2325305Y3566843D1*
Y3516603D1*
X2413605Y2605495D2*
X2411228Y2610249D1*
X2406420Y2615057D1*
X2401667Y2617434D1*
X2392105D1*
X2387297Y2615057D1*
X2382544Y2610249D1*
X2380112Y2605495D1*
X2377735Y2598310D1*
Y2586317D1*
X2380112Y2579187D1*
X2382544Y2574379D1*
X2387297Y2569626D1*
X2392105Y2567194D1*
X2401667D1*
X2406420Y2569626D1*
X2411228Y2574379D1*
X2413605Y2579187D1*
Y2586317D1*
X2401667D1*
X2429044Y2600687D2*
Y2567194D1*
Y2586317D2*
X2431476Y2593502D1*
X2436229Y2598310D1*
X2441038Y2600687D1*
X2448223D1*
X2463662Y2617434D2*
Y2567194D1*
Y2593502D2*
X2468471Y2598310D1*
X2473224Y2600687D1*
X2480409D1*
X2485162Y2598310D1*
X2489970Y2593502D1*
X2492347Y2586317D1*
Y2581564D1*
X2489970Y2574379D1*
X2485162Y2569626D1*
X2480409Y2567194D1*
X2473224D1*
X2468471Y2569626D1*
X2463662Y2574379D1*
X2507786Y2617434D2*
Y2567194D1*
X2523225Y2558903D2*
X2568657D1*
X2615158Y2617434D2*
X2584096D1*
Y2567194D1*
X2615158D1*
X2584096Y2593502D2*
X2603220D1*
X2664090Y2610249D2*
X2659337Y2615057D1*
X2652152Y2617434D1*
X2642590D1*
X2635405Y2615057D1*
X2630597Y2610249D1*
Y2605495D1*
X2633029Y2600687D1*
X2635405Y2598310D1*
X2640159Y2595934D1*
X2654529Y2591125D1*
X2659337Y2588749D1*
X2661714Y2586317D1*
X2664090Y2581564D1*
Y2574379D1*
X2659337Y2569626D1*
X2652152Y2567194D1*
X2642590D1*
X2635405Y2569626D1*
X2630597Y2574379D1*
X2679530Y2591125D2*
X2701085D1*
X2708214Y2593502D1*
X2710646Y2595934D1*
X2713023Y2600687D1*
Y2607872D1*
X2710646Y2612625D1*
X2708214Y2615057D1*
X2701085Y2617434D1*
X2679530D1*
Y2567194D1*
X2733271Y2617378D2*
X2759524D1*
X2745209Y2598255D1*
X2752394D1*
X2757147Y2595879D1*
X2759524Y2593502D1*
X2761956Y2586317D1*
Y2581564D1*
X2759524Y2574379D1*
X2754770Y2569570D1*
X2747585Y2567194D1*
X2740400D1*
X2733271Y2569570D1*
X2730894Y2572002D1*
X2728462Y2576755D1*
X2779827Y2605440D2*
Y2607817D1*
X2782203Y2612625D1*
X2784580Y2615002D1*
X2789388Y2617378D1*
X2798950D1*
X2803703Y2615002D1*
X2806080Y2612625D1*
X2808511Y2607817D1*
Y2603064D1*
X2806080Y2598255D1*
X2801326Y2591125D1*
X2777395Y2567194D1*
X2810888D1*
X1378833Y3564184D2*
X1376457Y3568938D1*
X1371648Y3573746D1*
X1366895Y3576123D1*
X1357334D1*
X1352525Y3573746D1*
X1347772Y3568938D1*
X1345340Y3564184D1*
X1342963Y3556999D1*
Y3545006D1*
X1345340Y3537876D1*
X1347772Y3533068D1*
X1352525Y3528315D1*
X1357334Y3525883D1*
X1366895D1*
X1371648Y3528315D1*
X1376457Y3533068D1*
X1378833Y3537876D1*
Y3545006D1*
X1366895D1*
X1394273Y3559376D2*
Y3525883D1*
Y3549814D2*
X1401458Y3556999D1*
X1406266Y3559376D1*
X1413396D1*
X1418204Y3556999D1*
X1420581Y3549814D1*
Y3525883D1*
X1464705Y3576123D2*
Y3525883D1*
Y3552191D2*
X1459952Y3556999D1*
X1455143Y3559376D1*
X1447958D1*
X1443205Y3556999D1*
X1438397Y3552191D1*
X1436020Y3545006D1*
Y3540253D1*
X1438397Y3533068D1*
X1443205Y3528315D1*
X1447958Y3525883D1*
X1455143D1*
X1459952Y3528315D1*
X1464705Y3533068D1*
X1337203Y3028551D2*
D124*
Y2997954D1*
X1335302Y2992206D1*
X1333356Y2990305D1*
X1329554Y2988359D1*
X1325707D1*
X1321904Y2990305D1*
X1320003Y2992206D1*
X1318058Y2997954D1*
Y3001756D1*
X1349554Y3015154D2*
Y2996008D1*
X1351456Y2990305D1*
X1355302Y2988359D1*
X1361050D1*
X1364853Y2990305D1*
X1370601Y2996008D1*
Y3015154D2*
Y2988359D1*
X1382952Y3015154D2*
Y2988359D1*
Y3007505D2*
X1388700Y3013253D1*
X1392547Y3015154D1*
X1398251D1*
X1402098Y3013253D1*
X1403999Y3007505D1*
Y2988359D1*
Y3007505D2*
X1409747Y3013253D1*
X1413594Y3015154D1*
X1419298D1*
X1423144Y3013253D1*
X1425090Y3007505D1*
Y2988359D1*
X1437441Y3015154D2*
Y2974962D1*
Y3009406D2*
X1441288Y3013208D1*
X1445091Y3015154D1*
X1450839D1*
X1454685Y3013208D1*
X1458488Y3009406D1*
X1460433Y3003658D1*
Y2999811D1*
X1458488Y2994107D1*
X1454685Y2990260D1*
X1450839Y2988359D1*
X1445091D1*
X1441288Y2990260D1*
X1437441Y2994107D1*
X1472785Y3003658D2*
X1495733D1*
Y3007505D1*
X1493832Y3011351D1*
X1491930Y3013253D1*
X1488083Y3015154D1*
X1482335D1*
X1478533Y3013253D1*
X1474686Y3009406D1*
X1472785Y3003658D1*
Y2999855D1*
X1474686Y2994107D1*
X1478533Y2990305D1*
X1482335Y2988359D1*
X1488083D1*
X1491930Y2990305D1*
X1495733Y2994107D1*
X1508084Y3015154D2*
Y2988359D1*
Y3003658D2*
X1510030Y3009406D1*
X1513832Y3013253D1*
X1517679Y3015154D1*
X1523427D1*
X1580407Y3028551D2*
Y2996008D1*
X1582308Y2990305D1*
X1586155Y2988359D1*
X1589958D1*
X1574659Y3015154D2*
X1588057D1*
X1611860D2*
X1608057Y3013253D1*
X1604210Y3009406D1*
X1602309Y3003658D1*
Y2999855D1*
X1604210Y2994107D1*
X1608057Y2990305D1*
X1611860Y2988359D1*
X1617608D1*
X1621455Y2990305D1*
X1625257Y2994107D1*
X1627203Y2999855D1*
Y3003658D1*
X1625257Y3009406D1*
X1621455Y3013253D1*
X1617608Y3015154D1*
X1611860D1*
X1367270Y2946256D2*
Y2927111D1*
X1369172Y2921407D1*
X1373018Y2919462D1*
X1378766D1*
X1382569Y2921407D1*
X1388317Y2927111D1*
Y2946256D2*
Y2919462D1*
X1421715Y2940508D2*
X1419814Y2944355D1*
X1414066Y2946256D1*
X1408318D1*
X1402570Y2944355D1*
X1400668Y2940508D1*
X1402570Y2936706D1*
X1406416Y2934760D1*
X1415967Y2932859D1*
X1419814Y2930958D1*
X1421715Y2927111D1*
Y2925210D1*
X1419814Y2921407D1*
X1414066Y2919462D1*
X1408318D1*
X1402570Y2921407D1*
X1400668Y2925210D1*
X1434066Y2934760D2*
X1457014D1*
Y2938607D1*
X1455113Y2942454D1*
X1453212Y2944355D1*
X1449365Y2946256D1*
X1443617D1*
X1439814Y2944355D1*
X1435968Y2940508D1*
X1434066Y2934760D1*
Y2930958D1*
X1435968Y2925210D1*
X1439814Y2921407D1*
X1443617Y2919462D1*
X1449365D1*
X1453212Y2921407D1*
X1457014Y2925210D1*
X1529293Y2940508D2*
X1527392Y2944355D1*
X1521644Y2946256D1*
X1515896D1*
X1510148Y2944355D1*
X1508246Y2940508D1*
X1510148Y2936706D1*
X1513994Y2934760D1*
X1523545Y2932859D1*
X1527392Y2930958D1*
X1529293Y2927111D1*
Y2925210D1*
X1527392Y2921407D1*
X1521644Y2919462D1*
X1515896D1*
X1510148Y2921407D1*
X1508246Y2925210D1*
X1547392Y2959654D2*
Y2927111D1*
X1549294Y2921407D1*
X1553141Y2919462D1*
X1556943D1*
X1541644Y2946256D2*
X1555042D1*
X1592242D2*
Y2919462D1*
Y2940508D2*
X1588440Y2944355D1*
X1584593Y2946256D1*
X1578889D1*
X1575042Y2944355D1*
X1571240Y2940508D1*
X1569294Y2934760D1*
Y2930958D1*
X1571240Y2925210D1*
X1575042Y2921407D1*
X1578889Y2919462D1*
X1584593D1*
X1588440Y2921407D1*
X1592242Y2925210D1*
X1604594Y2959654D2*
Y2919462D1*
X1616945Y2959654D2*
Y2919462D1*
X1360691Y2900598D2*
Y2860406D1*
Y2881453D2*
X1356888Y2885300D1*
X1353041Y2887201D1*
X1347293D1*
X1343491Y2885300D1*
X1339644Y2881453D1*
X1337743Y2875705D1*
Y2871902D1*
X1339644Y2866154D1*
X1343491Y2862352D1*
X1347293Y2860406D1*
X1353041D1*
X1356888Y2862352D1*
X1360691Y2866154D1*
X1373042Y2875705D2*
X1395990D1*
Y2879552D1*
X1394089Y2883399D1*
X1392187Y2885300D1*
X1388341Y2887201D1*
X1382593D1*
X1378790Y2885300D1*
X1374943Y2881453D1*
X1373042Y2875705D1*
Y2871902D1*
X1374943Y2866154D1*
X1378790Y2862352D1*
X1382593Y2860406D1*
X1388341D1*
X1392187Y2862352D1*
X1395990Y2866154D1*
X1414089Y2900598D2*
Y2868056D1*
X1415991Y2862352D1*
X1419837Y2860406D1*
X1423640D1*
X1408341Y2887201D2*
X1421739D1*
X1435991Y2875705D2*
X1458939D1*
Y2879552D1*
X1457038Y2883399D1*
X1455137Y2885300D1*
X1451290Y2887201D1*
X1445542D1*
X1441739Y2885300D1*
X1437893Y2881453D1*
X1435991Y2875705D1*
Y2871902D1*
X1437893Y2866154D1*
X1441739Y2862352D1*
X1445542Y2860406D1*
X1451290D1*
X1455137Y2862352D1*
X1458939Y2866154D1*
X1494283Y2881453D2*
X1490436Y2885300D1*
X1486589Y2887201D1*
X1480885D1*
X1477039Y2885300D1*
X1473236Y2881453D1*
X1471291Y2875705D1*
Y2871902D1*
X1473236Y2866154D1*
X1477039Y2862352D1*
X1480885Y2860406D1*
X1486589D1*
X1490436Y2862352D1*
X1494283Y2866154D1*
X1512382Y2900598D2*
Y2868056D1*
X1514283Y2862352D1*
X1518130Y2860406D1*
X1521933D1*
X1506634Y2887201D2*
X1520031D1*
X1534284Y2900598D2*
X1536185Y2898697D1*
X1538131Y2900598D1*
X1536185Y2902544D1*
X1534284Y2900598D1*
X1536185Y2887201D2*
Y2860406D1*
X1560033Y2887201D2*
X1556230Y2885300D1*
X1552384Y2881453D1*
X1550482Y2875705D1*
Y2871902D1*
X1552384Y2866154D1*
X1556230Y2862352D1*
X1560033Y2860406D1*
X1565781D1*
X1569628Y2862352D1*
X1573430Y2866154D1*
X1575376Y2871902D1*
Y2875705D1*
X1573430Y2881453D1*
X1569628Y2885300D1*
X1565781Y2887201D1*
X1560033D1*
X1587727D2*
Y2860406D1*
Y2879552D2*
X1593475Y2885300D1*
X1597322Y2887201D1*
X1603026D1*
X1606872Y2885300D1*
X1608774Y2879552D1*
Y2860406D1*
X3016656Y3180889D2*
D125*
X3014280Y3185642D1*
X3009471Y3190451D1*
X3004718Y3192827D1*
X2995156D1*
X2990348Y3190451D1*
X2985595Y3185642D1*
X2983163Y3180889D1*
X2980786Y3173704D1*
Y3161711D1*
X2983163Y3154581D1*
X2985595Y3149772D1*
X2990348Y3145019D1*
X2995156Y3142587D1*
X3004718D1*
X3009471Y3145019D1*
X3014280Y3149772D1*
X3016656Y3154581D1*
Y3161711D1*
X3004718D1*
X3032095Y3176081D2*
Y3142587D1*
Y3166519D2*
X3039281Y3173704D1*
X3044089Y3176081D1*
X3051219D1*
X3056027Y3173704D1*
X3058404Y3166519D1*
Y3142587D1*
X3102528Y3192827D2*
Y3142587D1*
Y3168896D2*
X3097775Y3173704D1*
X3092966Y3176081D1*
X3085781D1*
X3081028Y3173704D1*
X3076220Y3168896D1*
X3073843Y3161711D1*
Y3156957D1*
X3076220Y3149772D1*
X3081028Y3145019D1*
X3085781Y3142587D1*
X3092966D1*
X3097775Y3145019D1*
X3102528Y3149772D1*
X3016656Y3289157D2*
X3014280Y3293910D1*
X3009471Y3298719D1*
X3004718Y3301095D1*
X2995156D1*
X2990348Y3298719D1*
X2985595Y3293910D1*
X2983163Y3289157D1*
X2980786Y3281972D1*
Y3269978D1*
X2983163Y3262849D1*
X2985595Y3258040D1*
X2990348Y3253287D1*
X2995156Y3250855D1*
X3004718D1*
X3009471Y3253287D1*
X3014280Y3258040D1*
X3016656Y3262849D1*
Y3269978D1*
X3004718D1*
X3032095Y3284348D2*
Y3250855D1*
Y3274787D2*
X3039281Y3281972D1*
X3044089Y3284348D1*
X3051219D1*
X3056027Y3281972D1*
X3058404Y3274787D1*
Y3250855D1*
X3102528Y3301095D2*
Y3250855D1*
Y3277163D2*
X3097775Y3281972D1*
X3092966Y3284348D1*
X3085781D1*
X3081028Y3281972D1*
X3076220Y3277163D1*
X3073843Y3269978D1*
Y3265225D1*
X3076220Y3258040D1*
X3081028Y3253287D1*
X3085781Y3250855D1*
X3092966D1*
X3097775Y3253287D1*
X3102528Y3258040D1*
X1333179Y1001481D2*
D126*
X1344653Y971337D1*
X1356127Y1001481D1*
X1382602D2*
Y971337D1*
Y987122D2*
X1379750Y990007D1*
X1376865Y991433D1*
X1372554D1*
X1369702Y990007D1*
X1366817Y987122D1*
X1365391Y982811D1*
Y979959D1*
X1366817Y975648D1*
X1369702Y972796D1*
X1372554Y971337D1*
X1376865D1*
X1379750Y972796D1*
X1382602Y975648D1*
X1409076Y1001481D2*
Y971337D1*
Y987122D2*
X1406224Y990007D1*
X1403339Y991433D1*
X1399028D1*
X1396176Y990007D1*
X1393291Y987122D1*
X1391865Y982811D1*
Y979959D1*
X1393291Y975648D1*
X1396176Y972796D1*
X1399028Y971337D1*
X1403339D1*
X1406224Y972796D1*
X1409076Y975648D1*
X2110738Y1001481D2*
X2122212Y971337D1*
X2133686Y1001481D1*
X2160161D2*
Y971337D1*
Y987122D2*
X2157309Y990007D1*
X2154424Y991433D1*
X2150113D1*
X2147261Y990007D1*
X2144376Y987122D1*
X2142950Y982811D1*
Y979959D1*
X2144376Y975648D1*
X2147261Y972796D1*
X2150113Y971337D1*
X2154424D1*
X2157309Y972796D1*
X2160161Y975648D1*
X2186635Y1001481D2*
Y971337D1*
Y987122D2*
X2183783Y990007D1*
X2180898Y991433D1*
X2176587D1*
X2173735Y990007D1*
X2170850Y987122D1*
X2169424Y982811D1*
Y979959D1*
X2170850Y975648D1*
X2173735Y972796D1*
X2176587Y971337D1*
X2180898D1*
X2183783Y972796D1*
X2186635Y975648D1*
X2917825Y1001481D2*
X2929299Y971337D1*
X2940773Y1001481D1*
X2967247D2*
Y971337D1*
Y987122D2*
X2964396Y990007D1*
X2961510Y991433D1*
X2957199D1*
X2954348Y990007D1*
X2951462Y987122D1*
X2950037Y982811D1*
Y979959D1*
X2951462Y975648D1*
X2954348Y972796D1*
X2957199Y971337D1*
X2961510D1*
X2964396Y972796D1*
X2967247Y975648D1*
X2993722Y1001481D2*
Y971337D1*
Y987122D2*
X2990870Y990007D1*
X2987985Y991433D1*
X2983674D1*
X2980822Y990007D1*
X2977937Y987122D1*
X2976511Y982811D1*
Y979959D1*
X2977937Y975648D1*
X2980822Y972796D1*
X2983674Y971337D1*
X2987985D1*
X2990870Y972796D1*
X2993722Y975648D1*
X3764282Y1001481D2*
X3775756Y971337D1*
X3787230Y1001481D1*
X3813704D2*
Y971337D1*
Y987122D2*
X3810852Y990007D1*
X3807967Y991433D1*
X3803656D1*
X3800804Y990007D1*
X3797919Y987122D1*
X3796493Y982811D1*
Y979959D1*
X3797919Y975648D1*
X3800804Y972796D1*
X3803656Y971337D1*
X3807967D1*
X3810852Y972796D1*
X3813704Y975648D1*
X3840179Y1001481D2*
Y971337D1*
Y987122D2*
X3837327Y990007D1*
X3834442Y991433D1*
X3830131D1*
X3827279Y990007D1*
X3824394Y987122D1*
X3822968Y982811D1*
Y979959D1*
X3824394Y975648D1*
X3827279Y972796D1*
X3830131Y971337D1*
X3834442D1*
X3837327Y972796D1*
X3840179Y975648D1*
X1354701Y895893D2*
X1353275Y898745D1*
X1350390Y901630D1*
X1347538Y903056D1*
X1341801D1*
X1338916Y901630D1*
X1336064Y898745D1*
X1334605Y895893D1*
X1333179Y891582D1*
Y884386D1*
X1334605Y880108D1*
X1336064Y877223D1*
X1338916Y874371D1*
X1341801Y872912D1*
X1347538D1*
X1350390Y874371D1*
X1353275Y877223D1*
X1354701Y880108D1*
Y884386D1*
X1347538D1*
X1363965Y893008D2*
Y872912D1*
Y887271D2*
X1368276Y891582D1*
X1371161Y893008D1*
X1375439D1*
X1378324Y891582D1*
X1379750Y887271D1*
Y872912D1*
X1406224Y903056D2*
Y872912D1*
Y888697D2*
X1403372Y891582D1*
X1400487Y893008D1*
X1396176D1*
X1393324Y891582D1*
X1390439Y888697D1*
X1389013Y884386D1*
Y881534D1*
X1390439Y877223D1*
X1393324Y874371D1*
X1396176Y872912D1*
X1400487D1*
X1403372Y874371D1*
X1406224Y877223D1*
X683984Y1007012D2*
X681132Y1009898D1*
X676821Y1011323D1*
X671084D1*
X666773Y1009898D1*
X663888Y1007012D1*
Y1004161D1*
X665347Y1001275D1*
X666773Y999850D1*
X669625Y998424D1*
X678247Y995538D1*
X681132Y994113D1*
X682558Y992653D1*
X683984Y989802D1*
Y985490D1*
X681132Y982639D1*
X676821Y981179D1*
X671084D1*
X666773Y982639D1*
X663888Y985490D1*
X697559Y1011323D2*
Y986916D1*
X698985Y982639D1*
X701870Y981179D1*
X704722D1*
X693248Y1001275D2*
X703296D1*
X663888Y912898D2*
Y882754D1*
X673936D1*
X678247Y884213D1*
X681132Y887065D1*
X682558Y889950D1*
X683984Y894228D1*
Y901424D1*
X682558Y905735D1*
X681132Y908587D1*
X678247Y911472D1*
X673936Y912898D1*
X663888D1*
X693248Y902850D2*
Y882754D1*
Y894228D2*
X694707Y898539D1*
X697559Y901424D1*
X700444Y902850D1*
X704755D1*
X685410Y1102586D2*
X683984Y1105438D1*
X681099Y1108323D1*
X678247Y1109749D1*
X672510D1*
X669625Y1108323D1*
X666773Y1105438D1*
X665314Y1102586D1*
X663888Y1098275D1*
Y1091079D1*
X665314Y1086801D1*
X666773Y1083916D1*
X669625Y1081064D1*
X672510Y1079605D1*
X678247D1*
X681099Y1081064D1*
X683984Y1083916D1*
X685410Y1086801D1*
X694674Y1109749D2*
Y1079605D1*
X709033Y1099701D2*
X694674Y1085342D1*
X700411Y1091079D2*
X710459Y1079605D1*
X644614Y1203863D2*
X641762Y1206748D1*
X637451Y1208174D1*
X631714D1*
X627403Y1206748D1*
X624518Y1203863D1*
Y1201011D1*
X625977Y1198126D1*
X627403Y1196700D1*
X630255Y1195274D1*
X638877Y1192389D1*
X641762Y1190963D1*
X643188Y1189504D1*
X644614Y1186652D1*
Y1182341D1*
X641762Y1179489D1*
X637451Y1178030D1*
X631714D1*
X627403Y1179489D1*
X624518Y1182341D1*
X653878Y1208174D2*
Y1178030D1*
X663926D1*
X668237Y1179489D1*
X671122Y1182341D1*
X672548Y1185226D1*
X673974Y1189504D1*
Y1196700D1*
X672548Y1201011D1*
X671122Y1203863D1*
X668237Y1206748D1*
X663926Y1208174D1*
X653878D1*
X691859D2*
X688974Y1206748D1*
X686122Y1203863D1*
X684663Y1201011D1*
X683237Y1196700D1*
Y1189504D1*
X684663Y1185226D1*
X686122Y1182341D1*
X688974Y1179489D1*
X691859Y1178030D1*
X697596D1*
X700448Y1179489D1*
X703333Y1182341D1*
X704759Y1185226D1*
X706185Y1189504D1*
Y1196700D1*
X704759Y1201011D1*
X703333Y1203863D1*
X700448Y1206748D1*
X697596Y1208174D1*
X691859D1*
X674142Y1302288D2*
X671290Y1305173D1*
X666979Y1306599D1*
X661242D1*
X656931Y1305173D1*
X654046Y1302288D1*
Y1299436D1*
X655505Y1296551D1*
X656931Y1295125D1*
X659783Y1293699D1*
X668405Y1290814D1*
X671290Y1289388D1*
X672716Y1287929D1*
X674142Y1285077D1*
Y1280766D1*
X671290Y1277914D1*
X666979Y1276455D1*
X661242D1*
X656931Y1277914D1*
X654046Y1280766D1*
X704927Y1299436D2*
X703501Y1302288D1*
X700616Y1305173D1*
X697764Y1306599D1*
X692027D1*
X689142Y1305173D1*
X686290Y1302288D1*
X684831Y1299436D1*
X683405Y1295125D1*
Y1287929D1*
X684831Y1283651D1*
X686290Y1280766D1*
X689142Y1277914D1*
X692027Y1276455D1*
X697764D1*
X700616Y1277914D1*
X703501Y1280766D1*
X704927Y1283651D1*
X644614Y1400713D2*
X641762Y1403598D1*
X637451Y1405024D1*
X631714D1*
X627403Y1403598D1*
X624518Y1400713D1*
Y1397861D1*
X625977Y1394976D1*
X627403Y1393550D1*
X630255Y1392124D1*
X638877Y1389239D1*
X641762Y1387813D1*
X643188Y1386354D1*
X644614Y1383502D1*
Y1379191D1*
X641762Y1376339D1*
X637451Y1374880D1*
X631714D1*
X627403Y1376339D1*
X624518Y1379191D1*
X675399Y1397861D2*
X673974Y1400713D1*
X671088Y1403598D1*
X668237Y1405024D1*
X662500D1*
X659615Y1403598D1*
X656763Y1400713D1*
X655303Y1397861D1*
X653878Y1393550D1*
Y1386354D1*
X655303Y1382076D1*
X656763Y1379191D1*
X659615Y1376339D1*
X662500Y1374880D1*
X668237D1*
X671088Y1376339D1*
X673974Y1379191D1*
X675399Y1382076D1*
X684663Y1405024D2*
Y1374880D1*
X704759Y1405024D2*
X684663Y1384928D1*
X691826Y1392124D2*
X704759Y1374880D1*
X664299Y1508981D2*
X661447Y1511866D1*
X657136Y1513292D1*
X651399D1*
X647088Y1511866D1*
X644203Y1508981D1*
Y1506129D1*
X645662Y1503244D1*
X647088Y1501818D1*
X649940Y1500392D1*
X658562Y1497507D1*
X661447Y1496081D1*
X662873Y1494622D1*
X664299Y1491770D1*
Y1487459D1*
X661447Y1484607D1*
X657136Y1483148D1*
X651399D1*
X647088Y1484607D1*
X644203Y1487459D1*
X673563Y1513292D2*
Y1483148D1*
X683611D1*
X687922Y1484607D1*
X690807Y1487459D1*
X692233Y1490344D1*
X693659Y1494622D1*
Y1501818D1*
X692233Y1506129D1*
X690807Y1508981D1*
X687922Y1511866D1*
X683611Y1513292D1*
X673563D1*
X702922D2*
Y1483148D1*
X672682Y1611717D2*
X654046D1*
Y1581573D1*
X672682D1*
X654046Y1597358D2*
X665520D1*
X681946Y1601669D2*
Y1581573D1*
Y1595932D2*
X686257Y1600243D1*
X689142Y1601669D1*
X693420D1*
X696305Y1600243D1*
X697731Y1595932D1*
Y1581573D1*
X1461543Y1007012D2*
X1458691Y1009898D1*
X1454380Y1011323D1*
X1448643D1*
X1444332Y1009898D1*
X1441447Y1007012D1*
Y1004161D1*
X1442906Y1001275D1*
X1444332Y999850D1*
X1447184Y998424D1*
X1455806Y995538D1*
X1458691Y994113D1*
X1460117Y992653D1*
X1461543Y989802D1*
Y985490D1*
X1458691Y982639D1*
X1454380Y981179D1*
X1448643D1*
X1444332Y982639D1*
X1441447Y985490D1*
X1475118Y1011323D2*
Y986916D1*
X1476544Y982639D1*
X1479429Y981179D1*
X1482281D1*
X1470807Y1001275D2*
X1480855D1*
X1462969Y1102586D2*
X1461543Y1105438D1*
X1458658Y1108323D1*
X1455806Y1109749D1*
X1450069D1*
X1447184Y1108323D1*
X1444332Y1105438D1*
X1442873Y1102586D1*
X1441447Y1098275D1*
Y1091079D1*
X1442873Y1086801D1*
X1444332Y1083916D1*
X1447184Y1081064D1*
X1450069Y1079605D1*
X1455806D1*
X1458658Y1081064D1*
X1461543Y1083916D1*
X1462969Y1086801D1*
X1472233Y1109749D2*
Y1079605D1*
X1486592Y1099701D2*
X1472233Y1085342D1*
X1477970Y1091079D2*
X1488018Y1079605D1*
X1422173Y1203863D2*
X1419321Y1206748D1*
X1415010Y1208174D1*
X1409273D1*
X1404962Y1206748D1*
X1402077Y1203863D1*
Y1201011D1*
X1403536Y1198126D1*
X1404962Y1196700D1*
X1407814Y1195274D1*
X1416436Y1192389D1*
X1419321Y1190963D1*
X1420747Y1189504D1*
X1422173Y1186652D1*
Y1182341D1*
X1419321Y1179489D1*
X1415010Y1178030D1*
X1409273D1*
X1404962Y1179489D1*
X1402077Y1182341D1*
X1431437Y1208174D2*
Y1178030D1*
X1441485D1*
X1445796Y1179489D1*
X1448681Y1182341D1*
X1450107Y1185226D1*
X1451533Y1189504D1*
Y1196700D1*
X1450107Y1201011D1*
X1448681Y1203863D1*
X1445796Y1206748D1*
X1441485Y1208174D1*
X1431437D1*
X1469418D2*
X1466533Y1206748D1*
X1463681Y1203863D1*
X1462222Y1201011D1*
X1460796Y1196700D1*
Y1189504D1*
X1462222Y1185226D1*
X1463681Y1182341D1*
X1466533Y1179489D1*
X1469418Y1178030D1*
X1475155D1*
X1478007Y1179489D1*
X1480892Y1182341D1*
X1482318Y1185226D1*
X1483744Y1189504D1*
Y1196700D1*
X1482318Y1201011D1*
X1480892Y1203863D1*
X1478007Y1206748D1*
X1475155Y1208174D1*
X1469418D1*
X1451701Y1302288D2*
X1448849Y1305173D1*
X1444538Y1306599D1*
X1438801D1*
X1434490Y1305173D1*
X1431605Y1302288D1*
Y1299436D1*
X1433064Y1296551D1*
X1434490Y1295125D1*
X1437342Y1293699D1*
X1445964Y1290814D1*
X1448849Y1289388D1*
X1450275Y1287929D1*
X1451701Y1285077D1*
Y1280766D1*
X1448849Y1277914D1*
X1444538Y1276455D1*
X1438801D1*
X1434490Y1277914D1*
X1431605Y1280766D1*
X1482486Y1299436D2*
X1481060Y1302288D1*
X1478175Y1305173D1*
X1475323Y1306599D1*
X1469586D1*
X1466701Y1305173D1*
X1463849Y1302288D1*
X1462390Y1299436D1*
X1460964Y1295125D1*
Y1287929D1*
X1462390Y1283651D1*
X1463849Y1280766D1*
X1466701Y1277914D1*
X1469586Y1276455D1*
X1475323D1*
X1478175Y1277914D1*
X1481060Y1280766D1*
X1482486Y1283651D1*
X1422173Y1400713D2*
X1419321Y1403598D1*
X1415010Y1405024D1*
X1409273D1*
X1404962Y1403598D1*
X1402077Y1400713D1*
Y1397861D1*
X1403536Y1394976D1*
X1404962Y1393550D1*
X1407814Y1392124D1*
X1416436Y1389239D1*
X1419321Y1387813D1*
X1420747Y1386354D1*
X1422173Y1383502D1*
Y1379191D1*
X1419321Y1376339D1*
X1415010Y1374880D1*
X1409273D1*
X1404962Y1376339D1*
X1402077Y1379191D1*
X1452959Y1397861D2*
X1451533Y1400713D1*
X1448648Y1403598D1*
X1445796Y1405024D1*
X1440059D1*
X1437174Y1403598D1*
X1434322Y1400713D1*
X1432863Y1397861D1*
X1431437Y1393550D1*
Y1386354D1*
X1432863Y1382076D1*
X1434322Y1379191D1*
X1437174Y1376339D1*
X1440059Y1374880D1*
X1445796D1*
X1448648Y1376339D1*
X1451533Y1379191D1*
X1452959Y1382076D1*
X1462222Y1405024D2*
Y1374880D1*
X1482318Y1405024D2*
X1462222Y1384928D1*
X1469385Y1392124D2*
X1482318Y1374880D1*
X1441858Y1508981D2*
X1439006Y1511866D1*
X1434695Y1513292D1*
X1428958D1*
X1424647Y1511866D1*
X1421762Y1508981D1*
Y1506129D1*
X1423221Y1503244D1*
X1424647Y1501818D1*
X1427499Y1500392D1*
X1436121Y1497507D1*
X1439006Y1496081D1*
X1440432Y1494622D1*
X1441858Y1491770D1*
Y1487459D1*
X1439006Y1484607D1*
X1434695Y1483148D1*
X1428958D1*
X1424647Y1484607D1*
X1421762Y1487459D1*
X1451122Y1513292D2*
Y1483148D1*
X1461170D1*
X1465481Y1484607D1*
X1468366Y1487459D1*
X1469792Y1490344D1*
X1471218Y1494622D1*
Y1501818D1*
X1469792Y1506129D1*
X1468366Y1508981D1*
X1465481Y1511866D1*
X1461170Y1513292D1*
X1451122D1*
X1480481D2*
Y1483148D1*
X1450241Y1611717D2*
X1431605D1*
Y1581573D1*
X1450241D1*
X1431605Y1597358D2*
X1443079D1*
X1459505Y1601669D2*
Y1581573D1*
Y1595932D2*
X1463816Y1600243D1*
X1466701Y1601669D1*
X1470979D1*
X1473864Y1600243D1*
X1475290Y1595932D1*
Y1581573D1*
X2258787Y1007012D2*
X2255935Y1009898D1*
X2251624Y1011323D1*
X2245887D1*
X2241576Y1009898D1*
X2238691Y1007012D1*
Y1004161D1*
X2240150Y1001275D1*
X2241576Y999850D1*
X2244428Y998424D1*
X2253050Y995538D1*
X2255935Y994113D1*
X2257361Y992653D1*
X2258787Y989802D1*
Y985490D1*
X2255935Y982639D1*
X2251624Y981179D1*
X2245887D1*
X2241576Y982639D1*
X2238691Y985490D1*
X2272362Y1011323D2*
Y986916D1*
X2273788Y982639D1*
X2276673Y981179D1*
X2279525D1*
X2268051Y1001275D2*
X2278099D1*
X2260213Y1102586D2*
X2258787Y1105438D1*
X2255902Y1108323D1*
X2253050Y1109749D1*
X2247313D1*
X2244428Y1108323D1*
X2241576Y1105438D1*
X2240117Y1102586D1*
X2238691Y1098275D1*
Y1091079D1*
X2240117Y1086801D1*
X2241576Y1083916D1*
X2244428Y1081064D1*
X2247313Y1079605D1*
X2253050D1*
X2255902Y1081064D1*
X2258787Y1083916D1*
X2260213Y1086801D1*
X2269477Y1109749D2*
Y1079605D1*
X2283836Y1099701D2*
X2269477Y1085342D1*
X2275214Y1091079D2*
X2285262Y1079605D1*
X2219417Y1203863D2*
X2216565Y1206748D1*
X2212254Y1208174D1*
X2206517D1*
X2202206Y1206748D1*
X2199321Y1203863D1*
Y1201011D1*
X2200780Y1198126D1*
X2202206Y1196700D1*
X2205058Y1195274D1*
X2213680Y1192389D1*
X2216565Y1190963D1*
X2217991Y1189504D1*
X2219417Y1186652D1*
Y1182341D1*
X2216565Y1179489D1*
X2212254Y1178030D1*
X2206517D1*
X2202206Y1179489D1*
X2199321Y1182341D1*
X2228681Y1208174D2*
Y1178030D1*
X2238729D1*
X2243040Y1179489D1*
X2245925Y1182341D1*
X2247351Y1185226D1*
X2248777Y1189504D1*
Y1196700D1*
X2247351Y1201011D1*
X2245925Y1203863D1*
X2243040Y1206748D1*
X2238729Y1208174D1*
X2228681D1*
X2266662D2*
X2263777Y1206748D1*
X2260925Y1203863D1*
X2259466Y1201011D1*
X2258040Y1196700D1*
Y1189504D1*
X2259466Y1185226D1*
X2260925Y1182341D1*
X2263777Y1179489D1*
X2266662Y1178030D1*
X2272399D1*
X2275251Y1179489D1*
X2278136Y1182341D1*
X2279562Y1185226D1*
X2280988Y1189504D1*
Y1196700D1*
X2279562Y1201011D1*
X2278136Y1203863D1*
X2275251Y1206748D1*
X2272399Y1208174D1*
X2266662D1*
X2248945Y1302288D2*
X2246093Y1305173D1*
X2241782Y1306599D1*
X2236045D1*
X2231734Y1305173D1*
X2228849Y1302288D1*
Y1299436D1*
X2230308Y1296551D1*
X2231734Y1295125D1*
X2234586Y1293699D1*
X2243208Y1290814D1*
X2246093Y1289388D1*
X2247519Y1287929D1*
X2248945Y1285077D1*
Y1280766D1*
X2246093Y1277914D1*
X2241782Y1276455D1*
X2236045D1*
X2231734Y1277914D1*
X2228849Y1280766D1*
X2279730Y1299436D2*
X2278304Y1302288D1*
X2275419Y1305173D1*
X2272567Y1306599D1*
X2266830D1*
X2263945Y1305173D1*
X2261093Y1302288D1*
X2259634Y1299436D1*
X2258208Y1295125D1*
Y1287929D1*
X2259634Y1283651D1*
X2261093Y1280766D1*
X2263945Y1277914D1*
X2266830Y1276455D1*
X2272567D1*
X2275419Y1277914D1*
X2278304Y1280766D1*
X2279730Y1283651D1*
X2219417Y1400713D2*
X2216565Y1403598D1*
X2212254Y1405024D1*
X2206517D1*
X2202206Y1403598D1*
X2199321Y1400713D1*
Y1397861D1*
X2200780Y1394976D1*
X2202206Y1393550D1*
X2205058Y1392124D1*
X2213680Y1389239D1*
X2216565Y1387813D1*
X2217991Y1386354D1*
X2219417Y1383502D1*
Y1379191D1*
X2216565Y1376339D1*
X2212254Y1374880D1*
X2206517D1*
X2202206Y1376339D1*
X2199321Y1379191D1*
X2250203Y1397861D2*
X2248777Y1400713D1*
X2245892Y1403598D1*
X2243040Y1405024D1*
X2237303D1*
X2234418Y1403598D1*
X2231566Y1400713D1*
X2230107Y1397861D1*
X2228681Y1393550D1*
Y1386354D1*
X2230107Y1382076D1*
X2231566Y1379191D1*
X2234418Y1376339D1*
X2237303Y1374880D1*
X2243040D1*
X2245892Y1376339D1*
X2248777Y1379191D1*
X2250203Y1382076D1*
X2259466Y1405024D2*
Y1374880D1*
X2279562Y1405024D2*
X2259466Y1384928D1*
X2266629Y1392124D2*
X2279562Y1374880D1*
X2239102Y1508981D2*
X2236250Y1511866D1*
X2231939Y1513292D1*
X2226202D1*
X2221891Y1511866D1*
X2219006Y1508981D1*
Y1506129D1*
X2220465Y1503244D1*
X2221891Y1501818D1*
X2224743Y1500392D1*
X2233365Y1497507D1*
X2236250Y1496081D1*
X2237676Y1494622D1*
X2239102Y1491770D1*
Y1487459D1*
X2236250Y1484607D1*
X2231939Y1483148D1*
X2226202D1*
X2221891Y1484607D1*
X2219006Y1487459D1*
X2248366Y1513292D2*
Y1483148D1*
X2258414D1*
X2262725Y1484607D1*
X2265610Y1487459D1*
X2267036Y1490344D1*
X2268462Y1494622D1*
Y1501818D1*
X2267036Y1506129D1*
X2265610Y1508981D1*
X2262725Y1511866D1*
X2258414Y1513292D1*
X2248366D1*
X2277725D2*
Y1483148D1*
X2247486Y1611717D2*
X2228849D1*
Y1581573D1*
X2247486D1*
X2228849Y1597358D2*
X2240323D1*
X2256749Y1601669D2*
Y1581573D1*
Y1595932D2*
X2261060Y1600243D1*
X2263945Y1601669D1*
X2268223D1*
X2271108Y1600243D1*
X2272534Y1595932D1*
Y1581573D1*
X3105244Y1007012D2*
X3102392Y1009898D1*
X3098081Y1011323D1*
X3092344D1*
X3088033Y1009898D1*
X3085148Y1007012D1*
Y1004161D1*
X3086607Y1001275D1*
X3088033Y999850D1*
X3090885Y998424D1*
X3099507Y995538D1*
X3102392Y994113D1*
X3103818Y992653D1*
X3105244Y989802D1*
Y985490D1*
X3102392Y982639D1*
X3098081Y981179D1*
X3092344D1*
X3088033Y982639D1*
X3085148Y985490D1*
X3118818Y1011323D2*
Y986916D1*
X3120244Y982639D1*
X3123130Y981179D1*
X3125981D1*
X3114507Y1001275D2*
X3124555D1*
X3106670Y1102586D2*
X3105244Y1105438D1*
X3102359Y1108323D1*
X3099507Y1109749D1*
X3093770D1*
X3090885Y1108323D1*
X3088033Y1105438D1*
X3086574Y1102586D1*
X3085148Y1098275D1*
Y1091079D1*
X3086574Y1086801D1*
X3088033Y1083916D1*
X3090885Y1081064D1*
X3093770Y1079605D1*
X3099507D1*
X3102359Y1081064D1*
X3105244Y1083916D1*
X3106670Y1086801D1*
X3115933Y1109749D2*
Y1079605D1*
X3130292Y1099701D2*
X3115933Y1085342D1*
X3121670Y1091079D2*
X3131718Y1079605D1*
X3065874Y1203863D2*
X3063022Y1206748D1*
X3058711Y1208174D1*
X3052974D1*
X3048663Y1206748D1*
X3045778Y1203863D1*
Y1201011D1*
X3047237Y1198126D1*
X3048663Y1196700D1*
X3051515Y1195274D1*
X3060137Y1192389D1*
X3063022Y1190963D1*
X3064448Y1189504D1*
X3065874Y1186652D1*
Y1182341D1*
X3063022Y1179489D1*
X3058711Y1178030D1*
X3052974D1*
X3048663Y1179489D1*
X3045778Y1182341D1*
X3075137Y1208174D2*
Y1178030D1*
X3085185D1*
X3089496Y1179489D1*
X3092381Y1182341D1*
X3093807Y1185226D1*
X3095233Y1189504D1*
Y1196700D1*
X3093807Y1201011D1*
X3092381Y1203863D1*
X3089496Y1206748D1*
X3085185Y1208174D1*
X3075137D1*
X3113119D2*
X3110234Y1206748D1*
X3107382Y1203863D1*
X3105923Y1201011D1*
X3104497Y1196700D1*
Y1189504D1*
X3105923Y1185226D1*
X3107382Y1182341D1*
X3110234Y1179489D1*
X3113119Y1178030D1*
X3118856D1*
X3121708Y1179489D1*
X3124593Y1182341D1*
X3126019Y1185226D1*
X3127445Y1189504D1*
Y1196700D1*
X3126019Y1201011D1*
X3124593Y1203863D1*
X3121708Y1206748D1*
X3118856Y1208174D1*
X3113119D1*
X3095401Y1302288D2*
X3092549Y1305173D1*
X3088238Y1306599D1*
X3082501D1*
X3078190Y1305173D1*
X3075305Y1302288D1*
Y1299436D1*
X3076765Y1296551D1*
X3078190Y1295125D1*
X3081042Y1293699D1*
X3089664Y1290814D1*
X3092549Y1289388D1*
X3093975Y1287929D1*
X3095401Y1285077D1*
Y1280766D1*
X3092549Y1277914D1*
X3088238Y1276455D1*
X3082501D1*
X3078190Y1277914D1*
X3075305Y1280766D1*
X3126187Y1299436D2*
X3124761Y1302288D1*
X3121876Y1305173D1*
X3119024Y1306599D1*
X3113287D1*
X3110402Y1305173D1*
X3107550Y1302288D1*
X3106091Y1299436D1*
X3104665Y1295125D1*
Y1287929D1*
X3106091Y1283651D1*
X3107550Y1280766D1*
X3110402Y1277914D1*
X3113287Y1276455D1*
X3119024D1*
X3121876Y1277914D1*
X3124761Y1280766D1*
X3126187Y1283651D1*
X3065874Y1400713D2*
X3063022Y1403598D1*
X3058711Y1405024D1*
X3052974D1*
X3048663Y1403598D1*
X3045778Y1400713D1*
Y1397861D1*
X3047237Y1394976D1*
X3048663Y1393550D1*
X3051515Y1392124D1*
X3060137Y1389239D1*
X3063022Y1387813D1*
X3064448Y1386354D1*
X3065874Y1383502D1*
Y1379191D1*
X3063022Y1376339D1*
X3058711Y1374880D1*
X3052974D1*
X3048663Y1376339D1*
X3045778Y1379191D1*
X3096659Y1397861D2*
X3095233Y1400713D1*
X3092348Y1403598D1*
X3089496Y1405024D1*
X3083759D1*
X3080874Y1403598D1*
X3078022Y1400713D1*
X3076563Y1397861D1*
X3075137Y1393550D1*
Y1386354D1*
X3076563Y1382076D1*
X3078022Y1379191D1*
X3080874Y1376339D1*
X3083759Y1374880D1*
X3089496D1*
X3092348Y1376339D1*
X3095233Y1379191D1*
X3096659Y1382076D1*
X3105923Y1405024D2*
Y1374880D1*
X3126019Y1405024D2*
X3105923Y1384928D1*
X3113086Y1392124D2*
X3126019Y1374880D1*
X3085559Y1508981D2*
X3082707Y1511866D1*
X3078396Y1513292D1*
X3072659D1*
X3068348Y1511866D1*
X3065463Y1508981D1*
Y1506129D1*
X3066922Y1503244D1*
X3068348Y1501818D1*
X3071200Y1500392D1*
X3079822Y1497507D1*
X3082707Y1496081D1*
X3084133Y1494622D1*
X3085559Y1491770D1*
Y1487459D1*
X3082707Y1484607D1*
X3078396Y1483148D1*
X3072659D1*
X3068348Y1484607D1*
X3065463Y1487459D1*
X3094822Y1513292D2*
Y1483148D1*
X3104870D1*
X3109181Y1484607D1*
X3112067Y1487459D1*
X3113492Y1490344D1*
X3114918Y1494622D1*
Y1501818D1*
X3113492Y1506129D1*
X3112067Y1508981D1*
X3109181Y1511866D1*
X3104870Y1513292D1*
X3094822D1*
X3124182D2*
Y1483148D1*
X3093942Y1611717D2*
X3075305D1*
Y1581573D1*
X3093942D1*
X3075305Y1597358D2*
X3086779D1*
X3103206Y1601669D2*
Y1581573D1*
Y1595932D2*
X3107517Y1600243D1*
X3110402Y1601669D1*
X3114680D1*
X3117565Y1600243D1*
X3118991Y1595932D1*
Y1581573D1*
X1331056Y1611717D2*
X1342530Y1581573D1*
X1354004Y1611717D1*
X1386215Y1581573D2*
Y1611717D1*
X1374741Y1581573D1*
X1363268Y1611717D1*
Y1581573D1*
X2132260Y895893D2*
X2130834Y898745D1*
X2127949Y901630D1*
X2125097Y903056D1*
X2119361D1*
X2116475Y901630D1*
X2113624Y898745D1*
X2112164Y895893D1*
X2110738Y891582D1*
Y884386D1*
X2112164Y880108D1*
X2113624Y877223D1*
X2116475Y874371D1*
X2119361Y872912D1*
X2125097D1*
X2127949Y874371D1*
X2130834Y877223D1*
X2132260Y880108D1*
Y884386D1*
X2125097D1*
X2141524Y893008D2*
Y872912D1*
Y887271D2*
X2145835Y891582D1*
X2148720Y893008D1*
X2152998D1*
X2155883Y891582D1*
X2157309Y887271D1*
Y872912D1*
X2183783Y903056D2*
Y872912D1*
Y888697D2*
X2180932Y891582D1*
X2178046Y893008D1*
X2173735D1*
X2170884Y891582D1*
X2167998Y888697D1*
X2166572Y884386D1*
Y881534D1*
X2167998Y877223D1*
X2170884Y874371D1*
X2173735Y872912D1*
X2178046D1*
X2180932Y874371D1*
X2183783Y877223D1*
X2108615Y1611717D2*
X2120089Y1581573D1*
X2131563Y1611717D1*
X2163774Y1581573D2*
Y1611717D1*
X2152301Y1581573D1*
X2140827Y1611717D1*
Y1581573D1*
X2939347Y895893D2*
X2937921Y898745D1*
X2935036Y901630D1*
X2932184Y903056D1*
X2926447D1*
X2923562Y901630D1*
X2920710Y898745D1*
X2919251Y895893D1*
X2917825Y891582D1*
Y884386D1*
X2919251Y880108D1*
X2920710Y877223D1*
X2923562Y874371D1*
X2926447Y872912D1*
X2932184D1*
X2935036Y874371D1*
X2937921Y877223D1*
X2939347Y880108D1*
Y884386D1*
X2932184D1*
X2948611Y893008D2*
Y872912D1*
Y887271D2*
X2952922Y891582D1*
X2955807Y893008D1*
X2960085D1*
X2962970Y891582D1*
X2964396Y887271D1*
Y872912D1*
X2990870Y903056D2*
Y872912D1*
Y888697D2*
X2988018Y891582D1*
X2985133Y893008D1*
X2980822D1*
X2977970Y891582D1*
X2975085Y888697D1*
X2973659Y884386D1*
Y881534D1*
X2975085Y877223D1*
X2977970Y874371D1*
X2980822Y872912D1*
X2985133D1*
X2988018Y874371D1*
X2990870Y877223D1*
X2915702Y1611717D2*
X2927176Y1581573D1*
X2938650Y1611717D1*
X2970861Y1581573D2*
Y1611717D1*
X2959387Y1581573D1*
X2947913Y1611717D1*
Y1581573D1*
X3785804Y895893D2*
X3784378Y898745D1*
X3781493Y901630D1*
X3778641Y903056D1*
X3772904D1*
X3770019Y901630D1*
X3767167Y898745D1*
X3765708Y895893D1*
X3764282Y891582D1*
Y884386D1*
X3765708Y880108D1*
X3767167Y877223D1*
X3770019Y874371D1*
X3772904Y872912D1*
X3778641D1*
X3781493Y874371D1*
X3784378Y877223D1*
X3785804Y880108D1*
Y884386D1*
X3778641D1*
X3795067Y893008D2*
Y872912D1*
Y887271D2*
X3799378Y891582D1*
X3802263Y893008D1*
X3806541D1*
X3809426Y891582D1*
X3810852Y887271D1*
Y872912D1*
X3837327Y903056D2*
Y872912D1*
Y888697D2*
X3834475Y891582D1*
X3831590Y893008D1*
X3827279D1*
X3824427Y891582D1*
X3821542Y888697D1*
X3820116Y884386D1*
Y881534D1*
X3821542Y877223D1*
X3824427Y874371D1*
X3827279Y872912D1*
X3831590D1*
X3834475Y874371D1*
X3837327Y877223D1*
X3762158Y1611717D2*
X3773632Y1581573D1*
X3785106Y1611717D1*
X3817318Y1581573D2*
Y1611717D1*
X3805844Y1581573D1*
X3794370Y1611717D1*
Y1581573D1*
X2618412Y3427466D2*
D124*
X2614565Y3423663D1*
X2610762Y3417915D1*
X2606916Y3410266D1*
X2605014Y3400671D1*
Y3393022D1*
X2606916Y3383471D1*
X2610762Y3375822D1*
X2614565Y3370074D1*
X2618412Y3366272D1*
X2630763Y3416987D2*
Y3376795D1*
X2644160D1*
X2649908Y3378740D1*
X2653755Y3382543D1*
X2655656Y3386390D1*
X2657558Y3392093D1*
Y3401688D1*
X2655656Y3407436D1*
X2653755Y3411239D1*
X2649908Y3415086D1*
X2644160Y3416987D1*
X2630763D1*
X2696704D2*
Y3376795D1*
X2669909Y3416987D1*
Y3376795D1*
X2709055Y3395940D2*
X2726299D1*
X2732003Y3397841D1*
X2733949Y3399787D1*
X2735850Y3403590D1*
Y3409338D1*
X2733949Y3413140D1*
X2732003Y3415086D1*
X2726299Y3416987D1*
X2709055D1*
Y3376795D1*
X2748201Y3427466D2*
X2752048Y3423663D1*
X2755851Y3417915D1*
X2759697Y3410266D1*
X2761599Y3400671D1*
Y3393022D1*
X2759697Y3383471D1*
X2755851Y3375822D1*
X2752048Y3370074D1*
X2748201Y3366272D1*
X2967450Y1336334D2*
X3007642D1*
X2967450Y1309539D1*
X3007642D1*
X2980848Y1358236D2*
X2982749Y1354433D1*
X2986596Y1350587D1*
X2992344Y1348685D1*
X2996146D1*
X3001894Y1350587D1*
X3005697Y1354433D1*
X3007642Y1358236D1*
Y1363984D1*
X3005697Y1367831D1*
X3001894Y1371633D1*
X2996146Y1373579D1*
X2992344D1*
X2986596Y1371633D1*
X2982749Y1367831D1*
X2980848Y1363984D1*
Y1358236D1*
X3007642Y1443956D2*
X2967494D1*
X2994245Y1424811D1*
Y1453507D1*
X2967450Y1471606D2*
X2999993D1*
X3005697Y1473508D1*
X3007642Y1477354D1*
Y1481157D1*
X2980848Y1465858D2*
Y1479256D1*
X2967450Y1493508D2*
X3007642D1*
X2988497D2*
X2982749Y1499256D1*
X2980848Y1503103D1*
Y1508851D1*
X2982749Y1512654D1*
X2988497Y1514555D1*
X3007642D1*
X1438888Y900398D2*
D126*
Y870254D1*
X1448936D1*
X1453247Y871713D1*
X1456132Y874565D1*
X1457558Y877450D1*
X1458984Y881728D1*
Y888924D1*
X1457558Y893235D1*
X1456132Y896087D1*
X1453247Y898972D1*
X1448936Y900398D1*
X1438888D1*
X1468248Y890350D2*
Y870254D1*
Y881728D2*
X1469707Y886039D1*
X1472559Y888924D1*
X1475444Y890350D1*
X1479755D1*
X2238888Y900398D2*
Y870254D1*
X2248936D1*
X2253247Y871713D1*
X2256132Y874565D1*
X2257558Y877450D1*
X2258984Y881728D1*
Y888924D1*
X2257558Y893235D1*
X2256132Y896087D1*
X2253247Y898972D1*
X2248936Y900398D1*
X2238888D1*
X2268248Y890350D2*
Y870254D1*
Y881728D2*
X2269707Y886039D1*
X2272559Y888924D1*
X2275444Y890350D1*
X2279755D1*
X3088888Y912898D2*
Y882754D1*
X3098936D1*
X3103247Y884213D1*
X3106132Y887065D1*
X3107558Y889950D1*
X3108984Y894228D1*
Y901424D1*
X3107558Y905735D1*
X3106132Y908587D1*
X3103247Y911472D1*
X3098936Y912898D1*
X3088888D1*
X3118248Y902850D2*
Y882754D1*
Y894228D2*
X3119707Y898539D1*
X3122559Y901424D1*
X3125444Y902850D1*
X3129755D1*
X1760319Y3458759D2*
D125*
X1710079Y3439580D1*
X1760319Y3420457D1*
X1743573Y3427642D2*
Y3451574D1*
X1816330Y3420457D2*
Y3453950D1*
X1866570Y3420457D1*
Y3453950D1*
X1916330Y3420457D2*
X1940262Y3439580D1*
X1966570D1*
X1916330Y3458704D2*
X1940262Y3439580D1*
X2010079Y3426709D2*
X2060319Y3460202D1*
X2010079D2*
X2060319Y3426709D1*
X1648888Y3407958D2*
Y3429513D1*
X1646511Y3436643D1*
X1644079Y3439075D1*
X1639326Y3441452D1*
X1632141D1*
X1627388Y3439075D1*
X1624956Y3436643D1*
X1622579Y3429513D1*
Y3407958D1*
X1672819D1*
X1639326Y3456891D2*
X1672819D1*
X1653696D2*
X1646511Y3459323D1*
X1641703Y3464076D1*
X1639326Y3468884D1*
Y3476069D1*
X1560319Y3458703D2*
X1510079Y3458704D1*
X1560319Y3439580D1*
X1510079Y3420457D1*
X1560319D1*
X507420Y2981897D2*
D128*
X457202D1*
X447143Y2978570D1*
X440489Y2971838D1*
X437084Y2961779D1*
Y2955124D1*
X440489Y2945065D1*
X447143Y2938334D1*
X457202Y2935006D1*
X507420D1*
X497361Y2866501D2*
X504093Y2873155D1*
X507420Y2883214D1*
Y2896600D1*
X504093Y2906660D1*
X497361Y2913391D1*
X490707D1*
X483975Y2909987D1*
X480648Y2906660D1*
X477320Y2900005D1*
X470589Y2879887D1*
X467261Y2873155D1*
X463857Y2869828D1*
X457202Y2866501D1*
X447143D1*
X440489Y2873155D1*
X437084Y2883214D1*
Y2896601D1*
X440489Y2906660D1*
X447143Y2913391D1*
X507420Y2844886D2*
X437084D1*
Y2814709D1*
X440489Y2804650D1*
X443816Y2801322D1*
X450471Y2797995D1*
X460530D1*
X467261Y2801322D1*
X470589Y2804650D1*
X473916Y2814709D1*
X477320Y2804650D1*
X480648Y2801322D1*
X487302Y2797995D1*
X494034D1*
X500688Y2801322D1*
X504093Y2804650D1*
X507420Y2814709D1*
Y2844886D1*
X473916D2*
Y2814709D1*
X1046809Y1617654D2*
D124*
X1062107Y1577462D1*
X1077406Y1617654D1*
X1120354Y1577462D2*
Y1617654D1*
X1105056Y1577462D1*
X1089757Y1617654D1*
Y1577462D1*
X1142256Y1604256D2*
X1138454Y1602355D1*
X1134607Y1598508D1*
X1132706Y1592760D1*
Y1588958D1*
X1134607Y1583210D1*
X1138454Y1579407D1*
X1142256Y1577462D1*
X1148004D1*
X1151851Y1579407D1*
X1155654Y1583210D1*
X1157599Y1588958D1*
Y1592760D1*
X1155654Y1598508D1*
X1151851Y1602355D1*
X1148004Y1604256D1*
X1142256D1*
X1175699Y1617654D2*
Y1585111D1*
X1177600Y1579407D1*
X1181447Y1577462D1*
X1185249D1*
X1169951Y1604256D2*
X1183348D1*
X1125485Y908103D2*
X1123583Y911906D1*
X1119737Y915753D1*
X1115934Y917654D1*
X1108285D1*
X1104438Y915753D1*
X1100635Y911906D1*
X1098690Y908103D1*
X1096789Y902355D1*
Y892760D1*
X1098690Y887057D1*
X1100635Y883210D1*
X1104438Y879407D1*
X1108285Y877462D1*
X1115934D1*
X1119737Y879407D1*
X1123583Y883210D1*
X1125485Y887057D1*
Y892760D1*
X1115934D1*
X1137836Y904256D2*
Y877462D1*
Y896607D2*
X1143584Y902355D1*
X1147431Y904256D1*
X1153135D1*
X1156981Y902355D1*
X1158883Y896607D1*
Y877462D1*
X1194182Y917654D2*
Y877462D1*
Y898508D2*
X1190379Y902355D1*
X1186533Y904256D1*
X1180785D1*
X1176982Y902355D1*
X1173135Y898508D1*
X1171234Y892760D1*
Y888958D1*
X1173135Y883210D1*
X1176982Y879407D1*
X1180785Y877462D1*
X1186533D1*
X1190379Y879407D1*
X1194182Y883210D1*
X957716Y1507537D2*
D126*
X987860D1*
Y1517585D1*
X986401Y1521896D1*
X983549Y1524781D1*
X980664Y1526207D1*
X976386Y1527633D1*
X969190D1*
X964879Y1526207D1*
X962027Y1524781D1*
X959142Y1521896D1*
X957716Y1517585D1*
Y1507537D1*
X963486Y1536896D2*
X962027Y1539781D1*
X957749Y1544092D1*
X987860D1*
X846769Y917654D2*
D124*
Y877462D1*
X860166D1*
X865914Y879407D1*
X869761Y883210D1*
X871662Y887057D1*
X873563Y892760D1*
Y902355D1*
X871662Y908103D1*
X869761Y911906D1*
X865914Y915753D1*
X860166Y917654D1*
X846769D1*
X885915D2*
X887816Y915753D1*
X889761Y917654D1*
X887816Y919599D1*
X885915Y917654D1*
X887816Y904256D2*
Y877462D1*
X902113Y904256D2*
Y877462D1*
Y892760D2*
X904058Y898508D1*
X907861Y902355D1*
X911708Y904256D1*
X917456D1*
X845216Y1507457D2*
D126*
X875360D1*
Y1517505D1*
X873901Y1521816D1*
X871049Y1524701D1*
X868164Y1526127D1*
X863886Y1527553D1*
X856690D1*
X852379Y1526127D1*
X849527Y1524701D1*
X846642Y1521816D1*
X845216Y1517505D1*
Y1507457D1*
X845249Y1545438D2*
X846675Y1541127D1*
X850986Y1538242D1*
X858149Y1536816D1*
X862460D1*
X869623Y1538242D1*
X873934Y1541127D1*
X875360Y1545438D1*
Y1548290D1*
X873934Y1552601D1*
X869623Y1555453D1*
X862460Y1556912D1*
X858149D1*
X850986Y1555453D1*
X846675Y1552601D1*
X845249Y1548290D1*
Y1545438D1*
X850986Y1555453D2*
X869623Y1538242D1*
X1821809Y1617654D2*
D124*
X1837107Y1577462D1*
X1852406Y1617654D1*
X1895354Y1577462D2*
Y1617654D1*
X1880056Y1577462D1*
X1864757Y1617654D1*
Y1577462D1*
X1917256Y1604256D2*
X1913454Y1602355D1*
X1909607Y1598508D1*
X1907706Y1592760D1*
Y1588958D1*
X1909607Y1583210D1*
X1913454Y1579407D1*
X1917256Y1577462D1*
X1923004D1*
X1926851Y1579407D1*
X1930654Y1583210D1*
X1932599Y1588958D1*
Y1592760D1*
X1930654Y1598508D1*
X1926851Y1602355D1*
X1923004Y1604256D1*
X1917256D1*
X1950699Y1617654D2*
Y1585111D1*
X1952600Y1579407D1*
X1956447Y1577462D1*
X1960249D1*
X1944951Y1604256D2*
X1958348D1*
X1900485Y908103D2*
X1898583Y911906D1*
X1894737Y915753D1*
X1890934Y917654D1*
X1883285D1*
X1879438Y915753D1*
X1875635Y911906D1*
X1873690Y908103D1*
X1871789Y902355D1*
Y892760D1*
X1873690Y887057D1*
X1875635Y883210D1*
X1879438Y879407D1*
X1883285Y877462D1*
X1890934D1*
X1894737Y879407D1*
X1898583Y883210D1*
X1900485Y887057D1*
Y892760D1*
X1890934D1*
X1912836Y904256D2*
Y877462D1*
Y896607D2*
X1918584Y902355D1*
X1922431Y904256D1*
X1928135D1*
X1931981Y902355D1*
X1933883Y896607D1*
Y877462D1*
X1969182Y917654D2*
Y877462D1*
Y898508D2*
X1965379Y902355D1*
X1961533Y904256D1*
X1955785D1*
X1951982Y902355D1*
X1948135Y898508D1*
X1946234Y892760D1*
Y888958D1*
X1948135Y883210D1*
X1951982Y879407D1*
X1955785Y877462D1*
X1961533D1*
X1965379Y879407D1*
X1969182Y883210D1*
X1732716Y1507537D2*
D126*
X1762860D1*
Y1517585D1*
X1761401Y1521896D1*
X1758549Y1524781D1*
X1755664Y1526207D1*
X1751386Y1527633D1*
X1744190D1*
X1739879Y1526207D1*
X1737027Y1524781D1*
X1734142Y1521896D1*
X1732716Y1517585D1*
Y1507537D1*
X1738486Y1536896D2*
X1737027Y1539781D1*
X1732749Y1544092D1*
X1762860D1*
X1621769Y917654D2*
D124*
Y877462D1*
X1635166D1*
X1640914Y879407D1*
X1644761Y883210D1*
X1646662Y887057D1*
X1648563Y892760D1*
Y902355D1*
X1646662Y908103D1*
X1644761Y911906D1*
X1640914Y915753D1*
X1635166Y917654D1*
X1621769D1*
X1660915D2*
X1662816Y915753D1*
X1664761Y917654D1*
X1662816Y919599D1*
X1660915Y917654D1*
X1662816Y904256D2*
Y877462D1*
X1677113Y904256D2*
Y877462D1*
Y892760D2*
X1679058Y898508D1*
X1682861Y902355D1*
X1686708Y904256D1*
X1692456D1*
X1620216Y1507457D2*
D126*
X1650360D1*
Y1517505D1*
X1648901Y1521816D1*
X1646049Y1524701D1*
X1643164Y1526127D1*
X1638886Y1527553D1*
X1631690D1*
X1627379Y1526127D1*
X1624527Y1524701D1*
X1621642Y1521816D1*
X1620216Y1517505D1*
Y1507457D1*
X1620249Y1545438D2*
X1621675Y1541127D1*
X1625986Y1538242D1*
X1633149Y1536816D1*
X1637460D1*
X1644623Y1538242D1*
X1648934Y1541127D1*
X1650360Y1545438D1*
Y1548290D1*
X1648934Y1552601D1*
X1644623Y1555453D1*
X1637460Y1556912D1*
X1633149D1*
X1625986Y1555453D1*
X1621675Y1552601D1*
X1620249Y1548290D1*
Y1545438D1*
X1625986Y1555453D2*
X1644623Y1538242D1*
X2621809Y1617654D2*
D124*
X2637107Y1577462D1*
X2652406Y1617654D1*
X2695354Y1577462D2*
Y1617654D1*
X2680056Y1577462D1*
X2664757Y1617654D1*
Y1577462D1*
X2717256Y1604256D2*
X2713454Y1602355D1*
X2709607Y1598508D1*
X2707706Y1592760D1*
Y1588958D1*
X2709607Y1583210D1*
X2713454Y1579407D1*
X2717256Y1577462D1*
X2723004D1*
X2726851Y1579407D1*
X2730654Y1583210D1*
X2732599Y1588958D1*
Y1592760D1*
X2730654Y1598508D1*
X2726851Y1602355D1*
X2723004Y1604256D1*
X2717256D1*
X2750699Y1617654D2*
Y1585111D1*
X2752600Y1579407D1*
X2756447Y1577462D1*
X2760249D1*
X2744951Y1604256D2*
X2758348D1*
X2700485Y908103D2*
X2698583Y911906D1*
X2694737Y915753D1*
X2690934Y917654D1*
X2683285D1*
X2679438Y915753D1*
X2675635Y911906D1*
X2673690Y908103D1*
X2671789Y902355D1*
Y892760D1*
X2673690Y887057D1*
X2675635Y883210D1*
X2679438Y879407D1*
X2683285Y877462D1*
X2690934D1*
X2694737Y879407D1*
X2698583Y883210D1*
X2700485Y887057D1*
Y892760D1*
X2690934D1*
X2712836Y904256D2*
Y877462D1*
Y896607D2*
X2718584Y902355D1*
X2722431Y904256D1*
X2728135D1*
X2731981Y902355D1*
X2733883Y896607D1*
Y877462D1*
X2769182Y917654D2*
Y877462D1*
Y898508D2*
X2765379Y902355D1*
X2761533Y904256D1*
X2755785D1*
X2751982Y902355D1*
X2748135Y898508D1*
X2746234Y892760D1*
Y888958D1*
X2748135Y883210D1*
X2751982Y879407D1*
X2755785Y877462D1*
X2761533D1*
X2765379Y879407D1*
X2769182Y883210D1*
X2532716Y1507537D2*
D126*
X2562860D1*
Y1517585D1*
X2561401Y1521896D1*
X2558549Y1524781D1*
X2555664Y1526207D1*
X2551386Y1527633D1*
X2544190D1*
X2539879Y1526207D1*
X2537027Y1524781D1*
X2534142Y1521896D1*
X2532716Y1517585D1*
Y1507537D1*
X2538486Y1536896D2*
X2537027Y1539781D1*
X2532749Y1544092D1*
X2562860D1*
X2421769Y917654D2*
D124*
Y877462D1*
X2435166D1*
X2440914Y879407D1*
X2444761Y883210D1*
X2446662Y887057D1*
X2448563Y892760D1*
Y902355D1*
X2446662Y908103D1*
X2444761Y911906D1*
X2440914Y915753D1*
X2435166Y917654D1*
X2421769D1*
X2460915D2*
X2462816Y915753D1*
X2464761Y917654D1*
X2462816Y919599D1*
X2460915Y917654D1*
X2462816Y904256D2*
Y877462D1*
X2477113Y904256D2*
Y877462D1*
Y892760D2*
X2479058Y898508D1*
X2482861Y902355D1*
X2486708Y904256D1*
X2492456D1*
X2420216Y1507457D2*
D126*
X2450360D1*
Y1517505D1*
X2448901Y1521816D1*
X2446049Y1524701D1*
X2443164Y1526127D1*
X2438886Y1527553D1*
X2431690D1*
X2427379Y1526127D1*
X2424527Y1524701D1*
X2421642Y1521816D1*
X2420216Y1517505D1*
Y1507457D1*
X2420249Y1545438D2*
X2421675Y1541127D1*
X2425986Y1538242D1*
X2433149Y1536816D1*
X2437460D1*
X2444623Y1538242D1*
X2448934Y1541127D1*
X2450360Y1545438D1*
Y1548290D1*
X2448934Y1552601D1*
X2444623Y1555453D1*
X2437460Y1556912D1*
X2433149D1*
X2425986Y1555453D1*
X2421675Y1552601D1*
X2420249Y1548290D1*
Y1545438D1*
X2425986Y1555453D2*
X2444623Y1538242D1*
X3471809Y1617654D2*
D124*
X3487107Y1577462D1*
X3502406Y1617654D1*
X3545354Y1577462D2*
Y1617654D1*
X3530056Y1577462D1*
X3514757Y1617654D1*
Y1577462D1*
X3567256Y1604256D2*
X3563454Y1602355D1*
X3559607Y1598508D1*
X3557706Y1592760D1*
Y1588958D1*
X3559607Y1583210D1*
X3563454Y1579407D1*
X3567256Y1577462D1*
X3573004D1*
X3576851Y1579407D1*
X3580654Y1583210D1*
X3582599Y1588958D1*
Y1592760D1*
X3580654Y1598508D1*
X3576851Y1602355D1*
X3573004Y1604256D1*
X3567256D1*
X3600699Y1617654D2*
Y1585111D1*
X3602600Y1579407D1*
X3606447Y1577462D1*
X3610249D1*
X3594951Y1604256D2*
X3608348D1*
X3550485Y908103D2*
X3548583Y911906D1*
X3544737Y915753D1*
X3540934Y917654D1*
X3533285D1*
X3529438Y915753D1*
X3525635Y911906D1*
X3523690Y908103D1*
X3521789Y902355D1*
Y892760D1*
X3523690Y887057D1*
X3525635Y883210D1*
X3529438Y879407D1*
X3533285Y877462D1*
X3540934D1*
X3544737Y879407D1*
X3548583Y883210D1*
X3550485Y887057D1*
Y892760D1*
X3540934D1*
X3562836Y904256D2*
Y877462D1*
Y896607D2*
X3568584Y902355D1*
X3572431Y904256D1*
X3578135D1*
X3581981Y902355D1*
X3583883Y896607D1*
Y877462D1*
X3619182Y917654D2*
Y877462D1*
Y898508D2*
X3615379Y902355D1*
X3611533Y904256D1*
X3605785D1*
X3601982Y902355D1*
X3598135Y898508D1*
X3596234Y892760D1*
Y888958D1*
X3598135Y883210D1*
X3601982Y879407D1*
X3605785Y877462D1*
X3611533D1*
X3615379Y879407D1*
X3619182Y883210D1*
X3382716Y1507537D2*
D126*
X3412860D1*
Y1517585D1*
X3411401Y1521896D1*
X3408549Y1524781D1*
X3405664Y1526207D1*
X3401386Y1527633D1*
X3394190D1*
X3389879Y1526207D1*
X3387027Y1524781D1*
X3384142Y1521896D1*
X3382716Y1517585D1*
Y1507537D1*
X3388486Y1536896D2*
X3387027Y1539781D1*
X3382749Y1544092D1*
X3412860D1*
X3271769Y917654D2*
D124*
Y877462D1*
X3285166D1*
X3290914Y879407D1*
X3294761Y883210D1*
X3296662Y887057D1*
X3298563Y892760D1*
Y902355D1*
X3296662Y908103D1*
X3294761Y911906D1*
X3290914Y915753D1*
X3285166Y917654D1*
X3271769D1*
X3310915D2*
X3312816Y915753D1*
X3314761Y917654D1*
X3312816Y919599D1*
X3310915Y917654D1*
X3312816Y904256D2*
Y877462D1*
X3327113Y904256D2*
Y877462D1*
Y892760D2*
X3329058Y898508D1*
X3332861Y902355D1*
X3336708Y904256D1*
X3342456D1*
X3270216Y1507457D2*
D126*
X3300360D1*
Y1517505D1*
X3298901Y1521816D1*
X3296049Y1524701D1*
X3293164Y1526127D1*
X3288886Y1527553D1*
X3281690D1*
X3277379Y1526127D1*
X3274527Y1524701D1*
X3271642Y1521816D1*
X3270216Y1517505D1*
Y1507457D1*
X3270249Y1545438D2*
X3271675Y1541127D1*
X3275986Y1538242D1*
X3283149Y1536816D1*
X3287460D1*
X3294623Y1538242D1*
X3298934Y1541127D1*
X3300360Y1545438D1*
Y1548290D1*
X3298934Y1552601D1*
X3294623Y1555453D1*
X3287460Y1556912D1*
X3283149D1*
X3275986Y1555453D1*
X3271675Y1552601D1*
X3270249Y1548290D1*
Y1545438D1*
X3275986Y1555453D2*
X3294623Y1538242D1*
M02*
