G04 DipTrace 3.3.1.3*
G04 Bottom.gbr*
%MOIN*%
G04 #@! TF.FileFunction,Copper,L2,Bot*
G04 #@! TF.Part,Single*
G04 #@! TA.AperFunction,Conductor*
%ADD14C,0.018*%
%ADD15C,0.015*%
%ADD16C,0.012*%
G04 #@! TA.AperFunction,ViaPad*
%ADD17C,0.03*%
G04 #@! TA.AperFunction,CopperBalancing*
%ADD18C,0.025*%
G04 #@! TA.AperFunction,ComponentPad*
%ADD19C,0.06*%
G04 #@! TA.AperFunction,Conductor*
%ADD20C,0.059*%
%ADD21C,0.11*%
G04 #@! TA.AperFunction,ComponentPad*
%ADD31R,0.059055X0.059055*%
%ADD32C,0.059055*%
%ADD33R,0.066929X0.066929*%
%ADD34C,0.066929*%
%ADD35C,0.076772*%
%ADD36R,0.076772X0.076772*%
%ADD38C,0.2*%
%ADD45R,0.12X0.12*%
%ADD46C,0.12*%
%ADD47R,0.059X0.059*%
%ADD48C,0.059*%
G04 #@! TA.AperFunction,ViaPad*
%ADD55C,0.04*%
%FSLAX26Y26*%
G04*
G70*
G90*
G75*
G01*
G04 Bottom*
%LPD*%
X1743700Y3093700D2*
D14*
X1843700D1*
X1943700D1*
X2043700D1*
X2243700D1*
Y3343700D1*
X2843700Y993700D2*
D15*
X2918700Y1068700D1*
Y1693700D1*
X2818700Y1793700D1*
Y3068700D1*
X2781200Y3106200D1*
Y3306200D1*
X3752254Y3545991D2*
D17*
X3764700Y3533545D1*
Y2908700D1*
X3881700Y2791700D1*
X856200Y2606200D2*
D16*
Y2793700D1*
X893700Y2831200D1*
Y3006200D1*
Y3218700D1*
X906200Y3231200D1*
X493700Y2506200D2*
Y2268700D1*
X593700Y2506200D2*
Y2268700D1*
X531495Y3562991D2*
Y3531495D1*
X493700Y3493700D1*
Y3281200D1*
X531495Y3562991D2*
Y3555905D1*
X593700Y3493700D1*
Y3281200D1*
X1043700Y3343700D2*
Y2856200D1*
X1093700Y2806200D1*
Y2193700D1*
X1143700Y3343700D2*
Y2881200D1*
X1193700Y2831200D1*
Y2268700D1*
X2143700Y2118700D2*
Y2343700D1*
X1242814Y2880314D2*
X1243700Y2879428D1*
Y2631200D1*
X2143700D2*
Y2443700D1*
X2043700Y3218503D2*
D14*
Y3343700D1*
D16*
Y3431200D1*
X2093700Y3481200D1*
Y3618700D1*
X2068700Y3643700D1*
X2043700D1*
X1943700Y3218503D2*
D14*
Y3343700D1*
D16*
Y3406200D1*
X1993700Y3456200D1*
Y3593700D1*
X1943700Y3643700D1*
X1743700Y2443700D2*
X1593700Y2593700D1*
Y3593700D1*
X1543700Y3643700D1*
X1337893Y2837007D2*
X1343700Y2831200D1*
Y2443700D1*
X2343700Y1393700D2*
X2281200Y1456200D1*
Y1718700D1*
X2231200Y1768700D1*
Y2268700D1*
X1441928Y2966928D2*
X1443700Y2965157D1*
Y2443700D1*
X768700Y1293700D2*
X1081200Y1606200D1*
Y1781200D1*
X1243700Y1943700D1*
Y2343700D1*
X1268700Y1393700D2*
D19*
X1168700D1*
X931200Y1156200D1*
Y856200D1*
X643700Y568700D1*
X618700D1*
X1268700Y1193700D2*
X1231200D1*
X1106200Y1068700D1*
Y662499D1*
X1012401Y568700D1*
X815550D2*
X1018700Y771850D1*
Y1118700D1*
X1193700Y1293700D1*
X1268700D1*
X1543700Y993700D2*
D16*
X1493700D1*
X1456200Y1031200D1*
Y1656200D1*
X1393700Y1718700D1*
Y3156200D1*
X1243700D2*
Y3343700D1*
X1543700Y893700D2*
X1493700D1*
X1418700Y968700D1*
Y1631200D1*
X1293700Y1756200D1*
Y3293700D1*
X1343700Y3343700D1*
X2343700Y993700D2*
X2318700D1*
X2256200Y1056200D1*
Y1693700D1*
X2193700Y1756200D1*
Y2156200D1*
X743700D2*
Y2343700D1*
X3193700Y893700D2*
X3106200D1*
X3056200Y943700D1*
Y1718700D1*
X2993700Y1781200D1*
Y2668700D1*
X1643700D2*
Y3343700D1*
X1843700Y3218503D2*
D14*
Y3343700D1*
D16*
Y3406200D1*
X1893700Y3456200D1*
Y3593700D1*
X1843700Y3643700D1*
X3193700Y1193700D2*
X3131200Y1256200D1*
Y1756200D1*
X3093700Y1793700D1*
Y2418700D1*
X3143700Y2468700D1*
Y2556200D1*
X1543700D2*
Y2343700D1*
X1493700Y3053543D2*
Y2606200D1*
X1543700Y2556200D1*
X1209251Y568700D2*
D19*
X1193700D1*
Y1018700D1*
X1268700Y1093700D1*
X2699999Y3074901D2*
D16*
X2543700Y3231200D1*
Y3543700D1*
X4093700Y2168700D2*
Y2581200D1*
X3181200Y2668700D2*
Y2818700D1*
X2881200Y3118700D1*
Y3456200D1*
X2843700Y3493700D1*
Y3543700D1*
X1665550Y568700D2*
D19*
Y590550D1*
X1793700Y718700D1*
Y1106200D1*
X1981200Y1293700D1*
X2043700D1*
X1862401Y568700D2*
X1881200D1*
Y1068700D1*
X2006200Y1193700D1*
X2043700D1*
X1468700Y568700D2*
X1706200Y806200D1*
Y1143700D1*
X1956200Y1393700D1*
X2043700D1*
X2059251Y568700D2*
Y628149D1*
X1968700Y718700D1*
Y1018700D1*
X2043700Y1093700D1*
X1743700Y3218503D2*
D14*
Y3343700D1*
D16*
Y3393700D1*
X1793700Y3443700D1*
Y3593700D1*
X1743700Y3643700D1*
X2909251Y568700D2*
D19*
Y590649D1*
X2756200Y743700D1*
Y1031200D1*
X2818700Y1093700D1*
D20*
X2843700D1*
X3268700Y1143700D2*
D16*
Y1493700D1*
X3365550Y568700D2*
D19*
Y715550D1*
X3431200Y781200D1*
Y1193700D1*
X3531200Y1293700D1*
X3634200D1*
D20*
X3693700D1*
X3562401Y568700D2*
D19*
Y637499D1*
X3518700Y681200D1*
Y1118700D1*
X3593700Y1193700D1*
X3634200D1*
D20*
X3693700D1*
X3759251Y568700D2*
D19*
X3756200D1*
X3606200Y718700D1*
Y1006200D1*
X3651627Y1051627D1*
D20*
X3693700Y1093700D1*
X2493700Y3268700D2*
D16*
Y3181200D1*
X2593700Y3081200D1*
X1643700Y3643700D2*
Y3631200D1*
X1693700Y3581200D1*
Y3206200D1*
X1681200Y3193700D1*
Y2731200D1*
X1743700Y2668700D1*
Y2518700D1*
X1343700Y1243700D2*
Y1493700D1*
X2118700Y1243700D2*
Y1493700D1*
X2318700Y568700D2*
D19*
Y631200D1*
X2493700Y806200D1*
Y1168700D1*
X2718700Y1393700D1*
X2784200D1*
D20*
X2843700D1*
X2515550Y568700D2*
D19*
Y665550D1*
X2581200Y731200D1*
Y1131200D1*
X2743700Y1293700D1*
X2784200D1*
D20*
X2843700D1*
X4015747Y1015747D2*
D21*
Y884153D1*
X4168700Y731200D1*
Y568700D1*
X2712401D2*
D19*
Y637499D1*
X2668700Y681200D1*
Y1081200D1*
X2781200Y1193700D1*
D20*
X2843700D1*
X2343700Y893700D2*
D16*
X2231200Y1006200D1*
Y1668700D1*
X2106200Y1793700D1*
Y2231200D1*
X843700D2*
Y2343700D1*
X3168700Y568700D2*
D19*
Y656200D1*
X3343700Y831200D1*
Y1281200D1*
X3456200Y1393700D1*
X3634200D1*
D20*
X3693700D1*
X4365550Y568700D2*
D21*
Y871850D1*
X4251968Y985432D1*
Y1574802D1*
X2243700Y2593700D2*
D16*
Y3031200D1*
X1006200Y1993700D2*
Y2168700D1*
X993700Y2156200D1*
Y2543700D1*
X1043700Y2593700D1*
Y2706200D1*
X2118700D2*
X2043700Y2781200D1*
Y2893700D1*
X1943700D2*
Y2631200D1*
X1893700Y2581200D1*
Y1743700D1*
X1743700Y1593700D1*
X2543700D2*
Y2201029D1*
X2486371D1*
X2356200Y2331200D1*
Y2756200D1*
X1843700D2*
Y2893700D1*
X3393700Y1593700D2*
Y2793700D1*
X1743700D2*
Y2893700D1*
X3193700Y993700D2*
X3131200D1*
X3106200Y1018700D1*
Y1743700D1*
X3068700Y1781200D1*
Y2831200D1*
X1543700D2*
Y3343700D1*
D55*
X2781200Y3306200D3*
X1093700Y2193700D3*
X1193700Y2268700D3*
X2143700Y2118700D3*
X1242814Y2880314D3*
X1243700Y2631200D3*
X2143700D3*
X2043700Y3218503D3*
X1943700D3*
X1337893Y2837007D3*
X2231200Y2268700D3*
X1441928Y2966928D3*
X1393700Y3156200D3*
X1243700D3*
X2193700Y2156200D3*
X743700D3*
X2993700Y2668700D3*
X1643700D3*
X1843700Y3218503D3*
X3143700Y2556200D3*
X1543700D3*
X1493700Y3053543D3*
X1543700Y2556200D3*
X2699999Y3074901D3*
X4093700Y2581200D3*
X3181200Y2668700D3*
X1743700Y3218503D3*
X3268700Y1143700D3*
Y1493700D3*
X2493700Y3268700D3*
X2593700Y3081200D3*
X1743700Y2518700D3*
X1343700Y1243700D3*
Y1493700D3*
X2118700Y1243700D3*
Y1493700D3*
X2106200Y2231200D3*
X843700D3*
X2243700Y2593700D3*
Y3031200D3*
X1006200Y1993700D3*
X1043700Y2706200D3*
X2118700D3*
X2356200Y2756200D3*
X1843700D3*
X3393700Y2793700D3*
X1743700D3*
X3068700Y2831200D3*
X1543700D3*
X606200Y3181200D3*
X593700Y2606200D3*
X856200D3*
X906200Y3231200D3*
X2406200Y3106200D3*
X893700Y3006200D3*
X4093700Y2056200D3*
X2143700Y3543700D3*
X493700Y2506200D3*
Y2268700D3*
X593700D3*
Y2506200D3*
X493700Y3281200D3*
X593700D3*
D17*
X3959700Y3090700D3*
X3985700D3*
X4011700D3*
X3959700Y3051700D3*
X3985700D3*
X4011700D3*
X3959700Y3012700D3*
X3985700D3*
X4011700D3*
X4207254Y3441991D3*
Y3402991D3*
D55*
X3881700Y2791700D3*
X3752254Y3545991D3*
X1468700Y1943700D3*
Y1893700D3*
Y1843700D3*
X2318700Y1893700D3*
Y1943700D3*
Y1843700D3*
X693700Y1893700D3*
Y1943700D3*
Y1843700D3*
X3168700Y1893700D3*
Y1943700D3*
Y1843700D3*
X1743700Y3093700D3*
X1843700D3*
X1943700D3*
X2043700D3*
X2468700Y3343700D3*
X458718Y3631331D2*
D18*
X1486572D1*
X2126148D2*
X2486557D1*
X2600860D2*
X4828718D1*
X458718Y3606462D2*
X1499347D1*
X2128696D2*
X2499332D1*
X2588050D2*
X4828754D1*
X458718Y3581594D2*
X1557336D1*
X2128696D2*
X2399933D1*
X2602224D2*
X2781238D1*
X2992680D2*
X3719825D1*
X3784680D2*
X4828754D1*
X458718Y3556725D2*
X1558700D1*
X2128696D2*
X2386691D1*
X2602224D2*
X2781238D1*
X3004737D2*
X3704502D1*
X3801617D2*
X4828790D1*
X458718Y3531856D2*
X1558700D1*
X2128696D2*
X2386440D1*
X2602224D2*
X2781238D1*
X3004988D2*
X3705471D1*
X3808686D2*
X4828826D1*
X458718Y3506987D2*
X1558700D1*
X2128696D2*
X2398892D1*
X2602224D2*
X2781238D1*
X2993613D2*
X3720686D1*
X3808686D2*
X4828826D1*
X458718Y3482119D2*
X1558700D1*
X2128696D2*
X2508698D1*
X2578684D2*
X2810842D1*
X2903759D2*
X3720686D1*
X3808686D2*
X4828861D1*
X458718Y3457250D2*
X1558700D1*
X2118218D2*
X2508698D1*
X2578684D2*
X2831691D1*
X2916175D2*
X3720686D1*
X3808686D2*
X4828861D1*
X458718Y3432381D2*
X1558700D1*
X2093350D2*
X2508698D1*
X2578684D2*
X2846188D1*
X2916211D2*
X3720686D1*
X3808686D2*
X4828897D1*
X458718Y3407512D2*
X1558700D1*
X2078710D2*
X2508698D1*
X2578684D2*
X2846188D1*
X2916211D2*
X3720686D1*
X3808686D2*
X4828897D1*
X487138Y3382644D2*
X500260D1*
X587147D2*
X600269D1*
X687121D2*
X700278D1*
X787130D2*
X800252D1*
X887139D2*
X900261D1*
X987148D2*
X1000270D1*
X1087122D2*
X1100279D1*
X1187131D2*
X1200253D1*
X1287140D2*
X1300262D1*
X1387149D2*
X1400271D1*
X1487123D2*
X1500280D1*
X2087142D2*
X2100264D1*
X2187152D2*
X2200273D1*
X2287125D2*
X2508698D1*
X2578684D2*
X2846188D1*
X2916211D2*
X3720686D1*
X3808686D2*
X4828933D1*
X2300904Y3357775D2*
X2508698D1*
X2578684D2*
X2846188D1*
X2916211D2*
X3720686D1*
X3808686D2*
X4828933D1*
X2301658Y3332906D2*
X2508698D1*
X2578684D2*
X2740617D1*
X2821763D2*
X2846188D1*
X2916211D2*
X3720686D1*
X3808686D2*
X4828969D1*
X2290032Y3308037D2*
X2466390D1*
X2578684D2*
X2732220D1*
X2830160D2*
X2846188D1*
X2916211D2*
X3238797D1*
X3323604D2*
X3720686D1*
X3808686D2*
X4828969D1*
X458718Y3283169D2*
X1008703D1*
X2281706D2*
X2447013D1*
X2578684D2*
X2738321D1*
X2824096D2*
X2846188D1*
X2916211D2*
X3224587D1*
X3337814D2*
X3720686D1*
X3808686D2*
X4829005D1*
X458718Y3258300D2*
X1008703D1*
X2281706D2*
X2445864D1*
X2578684D2*
X2744708D1*
X2817708D2*
X2846188D1*
X2916211D2*
X3223654D1*
X3338747D2*
X3720686D1*
X3808686D2*
X4829041D1*
X458718Y3233431D2*
X1008703D1*
X2281706D2*
X2458711D1*
X2589916D2*
X2744708D1*
X2817708D2*
X2846188D1*
X2916211D2*
X3235173D1*
X3327228D2*
X3720686D1*
X3808686D2*
X4829041D1*
X458718Y3208562D2*
X1008703D1*
X2281706D2*
X2458711D1*
X2614783D2*
X2744708D1*
X2817708D2*
X2846188D1*
X2916211D2*
X3222685D1*
X3339716D2*
X3720686D1*
X3808686D2*
X4829077D1*
X458718Y3183693D2*
X1008703D1*
X2281706D2*
X2458711D1*
X2639651D2*
X2744708D1*
X2817708D2*
X2846188D1*
X2916211D2*
X3222685D1*
X3339716D2*
X3720686D1*
X3808686D2*
X4829077D1*
X458718Y3158825D2*
X1008703D1*
X2281706D2*
X2467646D1*
X2664555D2*
X2744708D1*
X2817708D2*
X2846188D1*
X2916211D2*
X3222685D1*
X3339716D2*
X3720686D1*
X3808686D2*
X4829113D1*
X458718Y3133956D2*
X1008703D1*
X2281706D2*
X2492478D1*
X2689423D2*
X2744708D1*
X2817708D2*
X2846188D1*
X2916211D2*
X3222685D1*
X3339716D2*
X3720686D1*
X3808686D2*
X4829113D1*
X458718Y3109087D2*
X472808D1*
X552376D2*
X1008703D1*
X2281706D2*
X2517346D1*
X2828904D2*
X2847660D1*
X2939284D2*
X3720686D1*
X3808686D2*
X4829149D1*
X565832Y3084218D2*
X1008703D1*
X2280415D2*
X2542213D1*
X2851440D2*
X2867217D1*
X2964152D2*
X3720686D1*
X3808686D2*
X4829149D1*
X565330Y3059350D2*
X1008703D1*
X2283214D2*
X2550144D1*
X2637247D2*
X2653670D1*
X2746335D2*
X2777470D1*
X2855207D2*
X2892084D1*
X2989020D2*
X3720686D1*
X3808686D2*
X4829184D1*
X458718Y3034481D2*
X474997D1*
X550223D2*
X1008703D1*
X2102214D2*
X2194819D1*
X2292579D2*
X2674518D1*
X2725486D2*
X2782207D1*
X2855207D2*
X2916952D1*
X3013887D2*
X3720686D1*
X3808686D2*
X4829220D1*
X458718Y3009612D2*
X1008703D1*
X2102214D2*
X2200022D1*
X2287376D2*
X2782207D1*
X2855207D2*
X2941820D1*
X3038755D2*
X3720686D1*
X3808686D2*
X4829220D1*
X458718Y2984743D2*
X1008703D1*
X2102214D2*
X2208706D1*
X2278692D2*
X2782207D1*
X2855207D2*
X2966688D1*
X3063623D2*
X3720686D1*
X3808686D2*
X4829256D1*
X458718Y2959875D2*
X1008703D1*
X2102214D2*
X2208706D1*
X2278692D2*
X2782207D1*
X2855207D2*
X2991555D1*
X3088491D2*
X3720686D1*
X3808686D2*
X4829256D1*
X458718Y2935006D2*
X1008703D1*
X2084056D2*
X2208706D1*
X2278692D2*
X2782207D1*
X2855207D2*
X3016423D1*
X3113358D2*
X3720686D1*
X3808686D2*
X4829292D1*
X458718Y2910137D2*
X1008703D1*
X2099774D2*
X2208706D1*
X2278692D2*
X2782207D1*
X2855207D2*
X3041291D1*
X3138226D2*
X3720686D1*
X3824439D2*
X4829292D1*
X458718Y2885268D2*
X1008703D1*
X2101604D2*
X2208706D1*
X2278692D2*
X2782207D1*
X2855207D2*
X3066158D1*
X3163094D2*
X3727935D1*
X3849307D2*
X4829328D1*
X458718Y2860399D2*
X1008703D1*
X2091269D2*
X2208706D1*
X2278692D2*
X2782207D1*
X2855207D2*
X3030023D1*
X3187962D2*
X3751798D1*
X3874175D2*
X4829328D1*
X458718Y2835531D2*
X1016131D1*
X2078710D2*
X2208706D1*
X2278692D2*
X2782207D1*
X2855207D2*
X3019904D1*
X3211502D2*
X3370887D1*
X3416508D2*
X3776665D1*
X3899724D2*
X4829364D1*
X458718Y2810662D2*
X1040783D1*
X2078710D2*
X2208706D1*
X2278692D2*
X2782207D1*
X2855207D2*
X3024497D1*
X3112928D2*
X3140762D1*
X3216202D2*
X3347921D1*
X3439510D2*
X3801533D1*
X3926673D2*
X4829400D1*
X558978Y2785793D2*
X1058689D1*
X2087573D2*
X2208706D1*
X2278692D2*
X2317830D1*
X2394562D2*
X2782207D1*
X2855207D2*
X3033683D1*
X3103705D2*
X3146216D1*
X3216202D2*
X3345373D1*
X3442022D2*
X3826401D1*
X3930334D2*
X4829400D1*
X567016Y2760924D2*
X1058689D1*
X2112441D2*
X2208706D1*
X2278692D2*
X2307423D1*
X2404969D2*
X2782207D1*
X2855207D2*
X3033683D1*
X3103705D2*
X3146216D1*
X3216202D2*
X3358220D1*
X3429175D2*
X3844343D1*
X3919066D2*
X4829436D1*
X562316Y2736056D2*
X1005545D1*
X2156865D2*
X2208706D1*
X2278692D2*
X2311801D1*
X2400627D2*
X2782207D1*
X2855207D2*
X3033683D1*
X3103705D2*
X3146216D1*
X3216202D2*
X3358686D1*
X3428709D2*
X4829436D1*
X458718Y2711187D2*
X487198D1*
X537986D2*
X994959D1*
X2167415D2*
X2208706D1*
X2278692D2*
X2321203D1*
X2391189D2*
X2782207D1*
X2855207D2*
X2972285D1*
X3015107D2*
X3033683D1*
X3103705D2*
X3146216D1*
X3216202D2*
X3358686D1*
X3428709D2*
X4829472D1*
X458718Y2686318D2*
X999158D1*
X2163253D2*
X2208706D1*
X2278692D2*
X2321203D1*
X2391189D2*
X2782207D1*
X2855207D2*
X2948171D1*
X3103705D2*
X3135666D1*
X3226716D2*
X3358686D1*
X3428709D2*
X4829472D1*
X458718Y2661449D2*
X1008703D1*
X2181518D2*
X2208706D1*
X2278692D2*
X2321203D1*
X2391189D2*
X2782207D1*
X2855207D2*
X2945265D1*
X3103705D2*
X3132760D1*
X3229623D2*
X3358686D1*
X3428709D2*
X4829507D1*
X458718Y2636581D2*
X1008703D1*
X2192391D2*
X2208706D1*
X2278692D2*
X2321203D1*
X2391189D2*
X2782207D1*
X2855207D2*
X2957573D1*
X3103705D2*
X3145068D1*
X3217315D2*
X3358686D1*
X3428709D2*
X4829507D1*
X458718Y2611712D2*
X1008703D1*
X2289063D2*
X2321203D1*
X2391189D2*
X2782207D1*
X2855207D2*
X2958685D1*
X3103705D2*
X3358686D1*
X3428709D2*
X4056096D1*
X4131285D2*
X4829543D1*
X458718Y2586843D2*
X988392D1*
X2178683D2*
X2195213D1*
X2292185D2*
X2321203D1*
X2391189D2*
X2782207D1*
X2855207D2*
X2958685D1*
X3181179D2*
X3358686D1*
X3428709D2*
X4045043D1*
X4142373D2*
X4829543D1*
X458718Y2561974D2*
X964314D1*
X2178683D2*
X2207199D1*
X2280199D2*
X2321203D1*
X2391189D2*
X2782207D1*
X2855207D2*
X2958685D1*
X3192339D2*
X3358686D1*
X3428709D2*
X4048847D1*
X4138534D2*
X4829579D1*
X458718Y2537106D2*
X958716D1*
X1588603D2*
X1601832D1*
X2178683D2*
X2321203D1*
X2391189D2*
X2782207D1*
X2855207D2*
X2958685D1*
X3188607D2*
X3358686D1*
X3428709D2*
X4058715D1*
X4128701D2*
X4829615D1*
X458718Y2512237D2*
X958716D1*
X1578699D2*
X1626700D1*
X2178683D2*
X2321203D1*
X2391189D2*
X2782207D1*
X2855207D2*
X2958685D1*
X3178703D2*
X3358686D1*
X3428709D2*
X4058715D1*
X4128701D2*
X4829615D1*
X482043Y2487368D2*
X505355D1*
X582052D2*
X605365D1*
X682061D2*
X705338D1*
X782034D2*
X805347D1*
X882044D2*
X905356D1*
X1582037D2*
X1651568D1*
X2182056D2*
X2321203D1*
X2391189D2*
X2782207D1*
X2855207D2*
X2958685D1*
X3178703D2*
X3358686D1*
X3428709D2*
X4058715D1*
X4128701D2*
X4617217D1*
X4795214D2*
X4829651D1*
X1599476Y2462499D2*
X1676436D1*
X2199496D2*
X2321203D1*
X2391189D2*
X2782207D1*
X2855207D2*
X2958685D1*
X3178093D2*
X3358686D1*
X3428709D2*
X4058715D1*
X4128701D2*
X4617217D1*
X4795214D2*
X4829651D1*
X1602383Y2437630D2*
X1685012D1*
X2202366D2*
X2321203D1*
X2391189D2*
X2782207D1*
X2855207D2*
X2958685D1*
X3161084D2*
X3358686D1*
X3428709D2*
X4058715D1*
X4128701D2*
X4617217D1*
X4795214D2*
X4829687D1*
X1593484Y2412762D2*
X1693911D1*
X2193467D2*
X2321203D1*
X2391189D2*
X2782207D1*
X2855207D2*
X2958685D1*
X3136217D2*
X3358686D1*
X3428709D2*
X4058715D1*
X4128701D2*
X4617217D1*
X4795214D2*
X4829687D1*
X1580637Y2387893D2*
X1706758D1*
X2180657D2*
X2321203D1*
X2391189D2*
X2782207D1*
X2855207D2*
X2958685D1*
X3128717D2*
X3358686D1*
X3428709D2*
X4058715D1*
X4128701D2*
X4617217D1*
X4795214D2*
X4829723D1*
X1598794Y2363024D2*
X1688600D1*
X2198778D2*
X2321203D1*
X2391189D2*
X2782207D1*
X2855207D2*
X2958685D1*
X3128717D2*
X3358686D1*
X3428709D2*
X4058715D1*
X4128701D2*
X4617217D1*
X4795214D2*
X4829723D1*
X1601952Y2338155D2*
X1685443D1*
X2201936D2*
X2321203D1*
X2397720D2*
X2782207D1*
X2855207D2*
X2958685D1*
X3128717D2*
X3358686D1*
X3428709D2*
X4058715D1*
X4128701D2*
X4617217D1*
X4795214D2*
X4829759D1*
X1593268Y2313287D2*
X1694162D1*
X2193252D2*
X2215488D1*
X2246899D2*
X2326585D1*
X2422588D2*
X2782207D1*
X2855207D2*
X2958685D1*
X3128717D2*
X3358686D1*
X3428709D2*
X4058715D1*
X4128701D2*
X4829794D1*
X502245Y2288418D2*
X532089D1*
X555318D2*
X632098D1*
X655292D2*
X708711D1*
X778697D2*
X808684D1*
X878706D2*
X932090D1*
X1455294D2*
X1532074D1*
X1555303D2*
X1732092D1*
X1755321D2*
X1832101D1*
X1955304D2*
X2032084D1*
X2055313D2*
X2108697D1*
X2275821D2*
X2350520D1*
X2447455D2*
X2782207D1*
X2855207D2*
X2958685D1*
X3128717D2*
X3358686D1*
X3428709D2*
X4058715D1*
X4128701D2*
X4829794D1*
X458718Y2263549D2*
X708711D1*
X778697D2*
X807787D1*
X879604D2*
X958716D1*
X1028702D2*
X1058689D1*
X1128712D2*
X1144991D1*
X1428703D2*
X1858691D1*
X1928714D2*
X2070301D1*
X2279912D2*
X2375388D1*
X2472323D2*
X2782207D1*
X2855207D2*
X2958685D1*
X3128717D2*
X3358686D1*
X3428709D2*
X4058715D1*
X4128701D2*
X4829830D1*
X458718Y2238680D2*
X708711D1*
X778697D2*
X795300D1*
X892091D2*
X958716D1*
X1028702D2*
X1058689D1*
X1128712D2*
X1155684D1*
X1428703D2*
X1858691D1*
X1928714D2*
X2057813D1*
X2178683D2*
X2193204D1*
X2269219D2*
X2400256D1*
X2497191D2*
X2782207D1*
X2855207D2*
X2958685D1*
X3128717D2*
X3358686D1*
X3428709D2*
X4058715D1*
X4128701D2*
X4829830D1*
X458718Y2213812D2*
X708711D1*
X778697D2*
X798063D1*
X889328D2*
X958716D1*
X1028702D2*
X1049288D1*
X1138113D2*
X1208685D1*
X1428703D2*
X1858691D1*
X1928714D2*
X2060576D1*
X2178683D2*
X2196182D1*
X2266204D2*
X2425123D1*
X2576064D2*
X2782207D1*
X2855207D2*
X2958685D1*
X3128717D2*
X3358686D1*
X3428709D2*
X4057962D1*
X4252215D2*
X4829866D1*
X458718Y2188943D2*
X708173D1*
X779235D2*
X821782D1*
X865609D2*
X958716D1*
X1142455D2*
X1208685D1*
X1428703D2*
X1858691D1*
X1928714D2*
X2071198D1*
X2266204D2*
X2449991D1*
X2578684D2*
X2782207D1*
X2855207D2*
X2958685D1*
X3128717D2*
X3358686D1*
X3428709D2*
X4038943D1*
X4252215D2*
X4829866D1*
X458718Y2164074D2*
X695362D1*
X792046D2*
X958716D1*
X1041190D2*
X1055352D1*
X1132049D2*
X1208685D1*
X1428703D2*
X1858691D1*
X1928714D2*
X2071198D1*
X2266204D2*
X2508698D1*
X2578684D2*
X2782207D1*
X2855207D2*
X2958685D1*
X3128717D2*
X3358686D1*
X3428709D2*
X4035354D1*
X4252215D2*
X4829902D1*
X458718Y2139205D2*
X697910D1*
X789498D2*
X963489D1*
X1041190D2*
X1208685D1*
X1428703D2*
X1858691D1*
X1928714D2*
X2071198D1*
X2266204D2*
X2508698D1*
X2578684D2*
X2782207D1*
X2855207D2*
X2958685D1*
X3128717D2*
X3358686D1*
X3428709D2*
X4043572D1*
X4252215D2*
X4829902D1*
X458718Y2114336D2*
X720947D1*
X766425D2*
X971204D1*
X1041190D2*
X1208685D1*
X1428703D2*
X1858691D1*
X1928714D2*
X2071198D1*
X2266204D2*
X2508698D1*
X2578684D2*
X2782207D1*
X2855207D2*
X2958685D1*
X3128717D2*
X3358686D1*
X3428709D2*
X4077662D1*
X4109754D2*
X4135184D1*
X4252215D2*
X4829938D1*
X458718Y2089468D2*
X971204D1*
X1041190D2*
X1208685D1*
X1428703D2*
X1858691D1*
X1928714D2*
X2071198D1*
X2266204D2*
X2508698D1*
X2578684D2*
X2782207D1*
X2855207D2*
X2958685D1*
X3128717D2*
X3358686D1*
X3428709D2*
X4829974D1*
X458718Y2064599D2*
X971204D1*
X1041190D2*
X1208685D1*
X1428703D2*
X1858691D1*
X1928714D2*
X2071198D1*
X2266204D2*
X2508698D1*
X2578684D2*
X2782207D1*
X2855207D2*
X2958685D1*
X3128717D2*
X3358686D1*
X3428709D2*
X4829974D1*
X458718Y2039730D2*
X971204D1*
X1041190D2*
X1208685D1*
X1428703D2*
X1858691D1*
X1928714D2*
X2071198D1*
X2266204D2*
X2508698D1*
X2578684D2*
X2782207D1*
X2855207D2*
X2958685D1*
X3128717D2*
X3358686D1*
X3428709D2*
X4830010D1*
X458718Y2014861D2*
X962305D1*
X1050089D2*
X1208685D1*
X1428703D2*
X1858691D1*
X1928714D2*
X2071198D1*
X2266204D2*
X2508698D1*
X2578684D2*
X2782207D1*
X2855207D2*
X2958685D1*
X3128717D2*
X3358686D1*
X3428709D2*
X4830010D1*
X458718Y1989993D2*
X957352D1*
X1055041D2*
X1208685D1*
X1428703D2*
X1858691D1*
X1928714D2*
X2071198D1*
X2266204D2*
X2508698D1*
X2578684D2*
X2782207D1*
X2855207D2*
X2958685D1*
X3128717D2*
X3358686D1*
X3428709D2*
X4830046D1*
X458718Y1965124D2*
X967005D1*
X1045389D2*
X1208685D1*
X1428703D2*
X1858691D1*
X1928714D2*
X2071198D1*
X2266204D2*
X2508698D1*
X2578684D2*
X2782207D1*
X2855207D2*
X2958685D1*
X3128717D2*
X3358686D1*
X3428709D2*
X4830046D1*
X458718Y1940255D2*
X1191784D1*
X1428703D2*
X1858691D1*
X1928714D2*
X2071198D1*
X2266204D2*
X2508698D1*
X2578684D2*
X2782207D1*
X2855207D2*
X2958685D1*
X3128717D2*
X3358686D1*
X3428709D2*
X3840216D1*
X458718Y1915386D2*
X1166916D1*
X1428703D2*
X1858691D1*
X1928714D2*
X2071198D1*
X2266204D2*
X2508698D1*
X2578684D2*
X2782207D1*
X2855207D2*
X2958685D1*
X3128717D2*
X3358686D1*
X3428709D2*
X3833506D1*
X458718Y1890518D2*
X1142048D1*
X1238984D2*
X1258708D1*
X1428703D2*
X1858691D1*
X1928714D2*
X2071198D1*
X2266204D2*
X2508698D1*
X2578684D2*
X2782207D1*
X2855207D2*
X2958685D1*
X3128717D2*
X3358686D1*
X3428709D2*
X3833685D1*
X458718Y1865649D2*
X1117181D1*
X1214116D2*
X1258708D1*
X1428703D2*
X1858691D1*
X1928714D2*
X2071198D1*
X2266204D2*
X2508698D1*
X2578684D2*
X2782207D1*
X2855207D2*
X2958685D1*
X3128717D2*
X3358686D1*
X3428709D2*
X3833829D1*
X458718Y1840780D2*
X1092313D1*
X1189248D2*
X1258708D1*
X1428703D2*
X1858691D1*
X1928714D2*
X2071198D1*
X2266204D2*
X2508698D1*
X2578684D2*
X2782207D1*
X2855207D2*
X2958685D1*
X3128717D2*
X3358686D1*
X3428709D2*
X3834008D1*
X458718Y1815911D2*
X1067445D1*
X1164380D2*
X1258708D1*
X1428703D2*
X1858691D1*
X1928714D2*
X2071198D1*
X2266204D2*
X2508698D1*
X2578684D2*
X2782207D1*
X2855207D2*
X2958685D1*
X3128717D2*
X3358686D1*
X3428709D2*
X3834188D1*
X458718Y1791043D2*
X1047709D1*
X1139513D2*
X1258708D1*
X1428703D2*
X1858691D1*
X1928714D2*
X2071305D1*
X2266204D2*
X2508698D1*
X2578684D2*
X2782315D1*
X2871929D2*
X2958685D1*
X3144829D2*
X3358686D1*
X3428709D2*
X3834331D1*
X458718Y1766174D2*
X1046202D1*
X1116188D2*
X1258708D1*
X1428703D2*
X1858691D1*
X1928714D2*
X2085264D1*
X2282173D2*
X2508698D1*
X2578684D2*
X2795628D1*
X2896797D2*
X2962381D1*
X3164637D2*
X3358686D1*
X3428709D2*
X3834511D1*
X458718Y1741305D2*
X1046202D1*
X1116188D2*
X1262296D1*
X1428703D2*
X1842831D1*
X1928606D2*
X2110132D1*
X2307041D2*
X2508698D1*
X2578684D2*
X2820495D1*
X2921665D2*
X2985132D1*
X3166216D2*
X3358686D1*
X3428709D2*
X3834654D1*
X458718Y1716436D2*
X1046202D1*
X1116188D2*
X1285011D1*
X1444421D2*
X1817963D1*
X1914898D2*
X2135000D1*
X2316191D2*
X2508698D1*
X2578684D2*
X2845363D1*
X2946497D2*
X3010000D1*
X3166216D2*
X3358686D1*
X3428709D2*
X3834834D1*
X458718Y1691567D2*
X1046202D1*
X1116188D2*
X1309879D1*
X1469288D2*
X1793095D1*
X1890030D2*
X2159867D1*
X2316191D2*
X2508698D1*
X2578684D2*
X2870267D1*
X2955217D2*
X3021196D1*
X3166216D2*
X3358686D1*
X3428709D2*
X3835013D1*
X458718Y1666699D2*
X1046202D1*
X1116188D2*
X1334746D1*
X1489455D2*
X1768227D1*
X1865163D2*
X2184735D1*
X2316191D2*
X2508698D1*
X2578684D2*
X2882216D1*
X2955217D2*
X3021196D1*
X3166216D2*
X3358686D1*
X3428709D2*
X3835157D1*
X458718Y1641830D2*
X837571D1*
X899842D2*
X937580D1*
X999816D2*
X1046202D1*
X1116188D2*
X1237572D1*
X1299843D2*
X1359614D1*
X1491214D2*
X1612562D1*
X1674833D2*
X1712571D1*
X1840295D2*
X2012563D1*
X2074834D2*
X2196182D1*
X2316191D2*
X2412564D1*
X2474835D2*
X2508698D1*
X2578684D2*
X2812565D1*
X2955217D2*
X3021196D1*
X3166216D2*
X3262589D1*
X3324824D2*
X3358686D1*
X3428709D2*
X3662590D1*
X3724825D2*
X3835336D1*
X458718Y1616961D2*
X815251D1*
X1022136D2*
X1043510D1*
X1116188D2*
X1215252D1*
X1322127D2*
X1383693D1*
X1491214D2*
X1590242D1*
X1815427D2*
X1990243D1*
X2097154D2*
X2196182D1*
X2316191D2*
X2390244D1*
X2597128D2*
X2790245D1*
X2955217D2*
X3021196D1*
X3166216D2*
X3240269D1*
X3447153D2*
X3640270D1*
X3747145D2*
X3835480D1*
X458718Y1592092D2*
X810227D1*
X1112994D2*
X1210228D1*
X1327187D2*
X1383693D1*
X1491214D2*
X1585218D1*
X1802186D2*
X1985219D1*
X2102178D2*
X2196182D1*
X2316191D2*
X2385220D1*
X2602188D2*
X2785221D1*
X2955217D2*
X3021196D1*
X3166216D2*
X3235209D1*
X3452177D2*
X3635210D1*
X3752169D2*
X3835659D1*
X458718Y1567224D2*
X816866D1*
X1090674D2*
X1216867D1*
X1320548D2*
X1383693D1*
X1491214D2*
X1591857D1*
X1795547D2*
X1991858D1*
X2095539D2*
X2196182D1*
X2316191D2*
X2391859D1*
X2595549D2*
X2791860D1*
X2955217D2*
X3021196D1*
X3166216D2*
X3241847D1*
X3445538D2*
X3641848D1*
X3745530D2*
X3835838D1*
X458718Y1542355D2*
X738459D1*
X798936D2*
X843851D1*
X893563D2*
X943860D1*
X1065807D2*
X1243852D1*
X1293564D2*
X1383693D1*
X1491214D2*
X1513486D1*
X1573927D2*
X1618842D1*
X1668553D2*
X1718851D1*
X1768563D2*
X2018843D1*
X2068554D2*
X2196182D1*
X2373929D2*
X2418844D1*
X2468555D2*
X2518853D1*
X2568565D2*
X2818845D1*
X2868556D2*
X2882216D1*
X2955217D2*
X3021196D1*
X3223917D2*
X3268832D1*
X3318544D2*
X3368842D1*
X3418553D2*
X3668833D1*
X3718545D2*
X3835982D1*
X458718Y1517486D2*
X715493D1*
X821902D2*
X944039D1*
X1040939D2*
X1301231D1*
X1596893D2*
X2076257D1*
X2161171D2*
X2196182D1*
X2396895D2*
X2882216D1*
X2955217D2*
X3021196D1*
X3311152D2*
X3836161D1*
X458718Y1492617D2*
X710218D1*
X827177D2*
X919172D1*
X1016071D2*
X1294700D1*
X1602203D2*
X2069726D1*
X2167702D2*
X2196182D1*
X2402205D2*
X2882216D1*
X2955217D2*
X3021196D1*
X3317683D2*
X3836305D1*
X458718Y1467749D2*
X716570D1*
X820825D2*
X894304D1*
X991203D2*
X1302630D1*
X1595816D2*
X2077621D1*
X2159772D2*
X2196182D1*
X2395818D2*
X2882216D1*
X2955217D2*
X3021196D1*
X3309788D2*
X3836484D1*
X458718Y1442880D2*
X739428D1*
X797967D2*
X869400D1*
X966336D2*
X1138388D1*
X1491214D2*
X1514419D1*
X1572994D2*
X1925903D1*
X2153707D2*
X2196182D1*
X2372996D2*
X2688370D1*
X2955217D2*
X3021196D1*
X3303688D2*
X3425897D1*
X3722995D2*
X3836628D1*
X458718Y1418011D2*
X715744D1*
X821651D2*
X844533D1*
X941468D2*
X1110614D1*
X1596641D2*
X1898092D1*
X2153707D2*
X2196182D1*
X2396643D2*
X2660595D1*
X2955217D2*
X3021196D1*
X3303688D2*
X3398123D1*
X3746642D2*
X3836807D1*
X458718Y1393142D2*
X710218D1*
X916600D2*
X1085746D1*
X1602203D2*
X1873225D1*
X2153707D2*
X2196182D1*
X2402205D2*
X2635728D1*
X2955217D2*
X3021196D1*
X3303688D2*
X3373255D1*
X3752204D2*
X3836987D1*
X458718Y1368273D2*
X716318D1*
X891732D2*
X1060878D1*
X1596103D2*
X1848357D1*
X2153707D2*
X2196182D1*
X2396105D2*
X2610860D1*
X2955217D2*
X3021196D1*
X3303688D2*
X3348388D1*
X3746104D2*
X3837130D1*
X458718Y1343405D2*
X740397D1*
X866865D2*
X1036011D1*
X1491214D2*
X1515387D1*
X1571989D2*
X1823489D1*
X2153707D2*
X2196182D1*
X2291216D2*
X2315390D1*
X2371991D2*
X2585992D1*
X2955217D2*
X3021196D1*
X3303688D2*
X3323484D1*
X3721990D2*
X3837310D1*
X458718Y1318536D2*
X715995D1*
X841997D2*
X1011143D1*
X1596390D2*
X1798621D1*
X2153707D2*
X2196182D1*
X2396392D2*
X2561124D1*
X2955217D2*
X3021196D1*
X3746391D2*
X3837453D1*
X458718Y1293667D2*
X710182D1*
X827213D2*
X986275D1*
X1602203D2*
X1773754D1*
X2153707D2*
X2196182D1*
X2402205D2*
X2536257D1*
X3752204D2*
X3837633D1*
X458718Y1268798D2*
X716031D1*
X821364D2*
X961407D1*
X1596354D2*
X1748886D1*
X2160346D2*
X2196182D1*
X2396356D2*
X2511389D1*
X3746355D2*
X3837812D1*
X458718Y1243930D2*
X740540D1*
X796855D2*
X936540D1*
X1491214D2*
X1515531D1*
X1571881D2*
X1724018D1*
X2167702D2*
X2196182D1*
X2291216D2*
X2315533D1*
X2371883D2*
X2486521D1*
X3721882D2*
X3837956D1*
X458718Y1219061D2*
X716283D1*
X821112D2*
X911672D1*
X1596139D2*
X1699150D1*
X2160633D2*
X2196182D1*
X2396141D2*
X2461653D1*
X3746140D2*
X3838135D1*
X458718Y1194192D2*
X710218D1*
X827213D2*
X886876D1*
X1327689D2*
X1383693D1*
X1602203D2*
X1674283D1*
X2102680D2*
X2196182D1*
X2402205D2*
X2440769D1*
X3752204D2*
X3838279D1*
X458718Y1169323D2*
X715780D1*
X821615D2*
X873742D1*
X1322163D2*
X1383693D1*
X1596605D2*
X1653362D1*
X2097154D2*
X2196182D1*
X2396608D2*
X2434704D1*
X3746607D2*
X3838458D1*
X458718Y1144455D2*
X739535D1*
X797859D2*
X872199D1*
X1298910D2*
X1383693D1*
X1491214D2*
X1514526D1*
X1572850D2*
X1647190D1*
X2073901D2*
X2196182D1*
X2291216D2*
X2314528D1*
X2372852D2*
X2434704D1*
X3141204D2*
X3164553D1*
X3722851D2*
X3838637D1*
X458718Y1119586D2*
X872199D1*
X1321410D2*
X1383693D1*
X1491214D2*
X1647190D1*
X2096436D2*
X2196182D1*
X2291216D2*
X2434704D1*
X3141204D2*
X3226453D1*
X3745853D2*
X3838781D1*
X458718Y1094717D2*
X872199D1*
X1327689D2*
X1383693D1*
X1491214D2*
X1647190D1*
X2102680D2*
X2196182D1*
X2291216D2*
X2434704D1*
X3141204D2*
X3284693D1*
X3752204D2*
X3838960D1*
X458718Y1069848D2*
X872199D1*
X1322414D2*
X1383693D1*
X1491214D2*
X1647190D1*
X2097405D2*
X2196182D1*
X2291216D2*
X2434704D1*
X2955217D2*
X3021196D1*
X3141204D2*
X3284693D1*
X3746858D2*
X3839104D1*
X458718Y1044980D2*
X743698D1*
X793697D2*
X872199D1*
X1302391D2*
X1383693D1*
X1491214D2*
X1518689D1*
X1568688D2*
X1647190D1*
X2077382D2*
X2196182D1*
X2368690D2*
X2434704D1*
X2945564D2*
X3021196D1*
X3141204D2*
X3168680D1*
X3218714D2*
X3284693D1*
X3726691D2*
X3839283D1*
X458718Y1020111D2*
X716821D1*
X820574D2*
X872199D1*
X1320584D2*
X1383693D1*
X1595565D2*
X1647190D1*
X2095575D2*
X2196182D1*
X2395567D2*
X2434704D1*
X2920696D2*
X3021196D1*
X3245592D2*
X3284693D1*
X3745566D2*
X3839427D1*
X458718Y995242D2*
X710218D1*
X827177D2*
X872199D1*
X1327187D2*
X1383693D1*
X1602168D2*
X1647190D1*
X2102178D2*
X2198120D1*
X2402170D2*
X2434704D1*
X2902180D2*
X3021196D1*
X3252194D2*
X3284693D1*
X3752169D2*
X3839606D1*
X458718Y970373D2*
X715278D1*
X822117D2*
X872199D1*
X1322127D2*
X1383693D1*
X1597108D2*
X1647190D1*
X2097118D2*
X2218574D1*
X2397110D2*
X2434704D1*
X2897120D2*
X3021196D1*
X3247099D2*
X3284693D1*
X3747109D2*
X3839786D1*
X458718Y945504D2*
X737670D1*
X799725D2*
X872199D1*
X1299700D2*
X1393417D1*
X1574716D2*
X1647190D1*
X2074726D2*
X2243442D1*
X2374718D2*
X2434704D1*
X2874728D2*
X3021196D1*
X3224707D2*
X3284693D1*
X3724717D2*
X3839929D1*
X458718Y920636D2*
X717108D1*
X820287D2*
X872199D1*
X1252691D2*
X1418285D1*
X1595314D2*
X1647190D1*
X2027682D2*
X2268309D1*
X2395280D2*
X2434704D1*
X2815197D2*
X3030813D1*
X3245304D2*
X3284693D1*
X3665185D2*
X3840109D1*
X458718Y895767D2*
X710254D1*
X827177D2*
X872199D1*
X1252691D2*
X1443188D1*
X1602168D2*
X1647190D1*
X2027682D2*
X2285247D1*
X2402170D2*
X2434704D1*
X2815197D2*
X3055680D1*
X3252158D2*
X3284693D1*
X3665185D2*
X3840252D1*
X458718Y870898D2*
X715062D1*
X822332D2*
X863479D1*
X1252691D2*
X1468056D1*
X1597359D2*
X1647190D1*
X2027682D2*
X2290055D1*
X2397361D2*
X2434704D1*
X2815197D2*
X3080548D1*
X3247350D2*
X3284693D1*
X3665185D2*
X3840432D1*
X458718Y846029D2*
X736808D1*
X800587D2*
X838612D1*
X1252691D2*
X1511799D1*
X1575577D2*
X1647190D1*
X2027682D2*
X2311801D1*
X2375579D2*
X2434704D1*
X2815197D2*
X3161826D1*
X3225568D2*
X3276117D1*
X3665185D2*
X3840611D1*
X458718Y821161D2*
X813744D1*
X1252691D2*
X1638757D1*
X2027682D2*
X2426272D1*
X2815197D2*
X3251249D1*
X3665185D2*
X3840755D1*
X458718Y796292D2*
X788876D1*
X1252691D2*
X1613890D1*
X2027682D2*
X2401404D1*
X2815197D2*
X3226381D1*
X3665185D2*
X3840934D1*
X458718Y771423D2*
X764009D1*
X1252691D2*
X1589022D1*
X2027682D2*
X2376536D1*
X2815197D2*
X3201514D1*
X3665185D2*
X3841077D1*
X458718Y746554D2*
X739141D1*
X1252691D2*
X1564154D1*
X2027682D2*
X2351668D1*
X2835758D2*
X3176646D1*
X3665185D2*
X3841257D1*
X458718Y721686D2*
X714273D1*
X1252691D2*
X1539286D1*
X2048100D2*
X2326765D1*
X2860626D2*
X3151778D1*
X3685603D2*
X3841436D1*
X458718Y696817D2*
X689405D1*
X1252691D2*
X1514419D1*
X2073004D2*
X2301897D1*
X2885494D2*
X3126910D1*
X3291703D2*
X3306547D1*
X3429211D2*
X3459700D1*
X3710471D2*
X3841580D1*
X458718Y671948D2*
X664538D1*
X1252691D2*
X1489551D1*
X2097872D2*
X2277029D1*
X2441858D2*
X2456917D1*
X2910361D2*
X3111947D1*
X3266835D2*
X3306547D1*
X3424546D2*
X3460454D1*
X3735339D2*
X3841759D1*
X458718Y647079D2*
X529685D1*
X1252691D2*
X1379709D1*
X1804483D2*
X1822197D1*
X1940197D2*
X1957911D1*
X2114988D2*
X2229698D1*
X2416990D2*
X2456558D1*
X2579473D2*
X2621159D1*
X2948327D2*
X3079687D1*
X3257684D2*
X3306547D1*
X3424546D2*
X3471183D1*
X3798352D2*
X3841903D1*
X458718Y622210D2*
X529685D1*
X1279712D2*
X1379709D1*
X1940197D2*
X1982779D1*
X2129701D2*
X2229698D1*
X2407696D2*
X2445075D1*
X2586004D2*
X2641936D1*
X2979726D2*
X3079687D1*
X3257684D2*
X3295100D1*
X3436029D2*
X3491924D1*
X458718Y597342D2*
X529685D1*
X1293384D2*
X1379709D1*
X1754747D2*
X1778275D1*
X1946512D2*
X1975136D1*
X2143373D2*
X2229698D1*
X2407696D2*
X2431439D1*
X2599676D2*
X2628264D1*
X2796537D2*
X2820172D1*
X2993362D2*
X3079687D1*
X3257684D2*
X3281428D1*
X3449665D2*
X3478288D1*
X458718Y572473D2*
X529685D1*
X904471D2*
X923478D1*
X1101332D2*
X1120338D1*
X1298157D2*
X1379709D1*
X1557707D2*
X1576642D1*
X1754460D2*
X1773467D1*
X1951321D2*
X1970327D1*
X2148181D2*
X2229698D1*
X2407696D2*
X2426631D1*
X2604485D2*
X2623491D1*
X2801309D2*
X2820316D1*
X2998170D2*
X3079687D1*
X3257684D2*
X3276619D1*
X3454473D2*
X3473480D1*
X3651334D2*
X3670018D1*
X458718Y547604D2*
X529685D1*
X707682D2*
X729165D1*
X901924D2*
X926026D1*
X1098784D2*
X1122850D1*
X1295645D2*
X1379709D1*
X1557707D2*
X1579154D1*
X1751948D2*
X1776014D1*
X1948773D2*
X1972875D1*
X2145634D2*
X2229698D1*
X2407696D2*
X2429178D1*
X2601937D2*
X2626003D1*
X2798798D2*
X2822864D1*
X2995622D2*
X3079687D1*
X3257684D2*
X3279167D1*
X3451926D2*
X3476028D1*
X3648786D2*
X3672852D1*
X458718Y522735D2*
X529685D1*
X707682D2*
X739787D1*
X891338D2*
X936611D1*
X1088162D2*
X1133472D1*
X1285023D2*
X1379709D1*
X1557707D2*
X1589775D1*
X1741326D2*
X1786636D1*
X1938187D2*
X1983461D1*
X2135012D2*
X2229698D1*
X2407696D2*
X2439764D1*
X2591315D2*
X2636625D1*
X2788176D2*
X2833485D1*
X2985036D2*
X3079687D1*
X3257684D2*
X3289789D1*
X3441340D2*
X3486613D1*
X3638165D2*
X3683474D1*
X458718Y497867D2*
X529685D1*
X707682D2*
X763398D1*
X867690D2*
X960259D1*
X1064551D2*
X1157120D1*
X1261411D2*
X1379709D1*
X1557707D2*
X1613387D1*
X1717715D2*
X1810248D1*
X1914539D2*
X2007108D1*
X2111400D2*
X2229698D1*
X2407696D2*
X2463412D1*
X2567703D2*
X2660237D1*
X2764564D2*
X2857097D1*
X2961389D2*
X3079687D1*
X3257684D2*
X3313401D1*
X3417692D2*
X3510261D1*
X3614553D2*
X3707086D1*
X3811413D2*
X3842908D1*
X458718Y472998D2*
X3843051D1*
X2496859Y3599728D2*
X2508952D1*
X2504083Y3604083D1*
X2498373Y3610768D1*
X2493779Y3618264D1*
X2490415Y3626387D1*
X2488362Y3634935D1*
X2487672Y3643700D1*
X2488362Y3652465D1*
X2489103Y3656189D1*
X2102184Y3656200D1*
X2118413Y3639807D1*
X2121411Y3635681D1*
X2123726Y3631137D1*
X2125302Y3626287D1*
X2126100Y3621250D1*
X2126200Y3554396D1*
X2126100Y3478650D1*
X2125302Y3473613D1*
X2123726Y3468763D1*
X2121411Y3464219D1*
X2118413Y3460093D1*
X2076210Y3417748D1*
X2076200Y3389897D1*
X2080394Y3386663D1*
X2086663Y3380394D1*
X2091874Y3373221D1*
X2093695Y3369970D1*
X2097991Y3376910D1*
X2103748Y3383652D1*
X2110490Y3389409D1*
X2118050Y3394042D1*
X2126241Y3397435D1*
X2134861Y3399504D1*
X2143700Y3400200D1*
X2152539Y3399504D1*
X2161159Y3397435D1*
X2169350Y3394042D1*
X2176910Y3389409D1*
X2183652Y3383652D1*
X2189409Y3376910D1*
X2193695Y3369970D1*
X2197991Y3376910D1*
X2203748Y3383652D1*
X2210490Y3389409D1*
X2218050Y3394042D1*
X2226241Y3397435D1*
X2234861Y3399504D1*
X2243700Y3400200D1*
X2252539Y3399504D1*
X2261159Y3397435D1*
X2269350Y3394042D1*
X2276910Y3389409D1*
X2283652Y3383652D1*
X2289409Y3376910D1*
X2294042Y3369350D1*
X2297435Y3361159D1*
X2299504Y3352539D1*
X2300200Y3343700D1*
X2299504Y3334861D1*
X2297435Y3326241D1*
X2294042Y3318050D1*
X2289409Y3310490D1*
X2283652Y3303748D1*
X2279210Y3299804D1*
X2279091Y3090915D1*
X2278219Y3085413D1*
X2276498Y3080115D1*
X2273969Y3075151D1*
X2270687Y3070637D1*
X2271032Y3068819D1*
X2276580Y3064080D1*
X2281319Y3058532D1*
X2285132Y3052311D1*
X2287924Y3045569D1*
X2289628Y3038474D1*
X2290200Y3031200D1*
X2289628Y3023926D1*
X2287924Y3016831D1*
X2285132Y3010089D1*
X2281319Y3003868D1*
X2276193Y2997961D1*
X2276200Y2626965D1*
X2281319Y2621032D1*
X2285132Y2614811D1*
X2287924Y2608069D1*
X2289628Y2600974D1*
X2290200Y2593700D1*
X2289628Y2586426D1*
X2287924Y2579331D1*
X2285132Y2572589D1*
X2281319Y2566368D1*
X2276580Y2560820D1*
X2271032Y2556081D1*
X2264811Y2552268D1*
X2258069Y2549476D1*
X2250974Y2547772D1*
X2243700Y2547200D1*
X2236426Y2547772D1*
X2229331Y2549476D1*
X2222589Y2552268D1*
X2216368Y2556081D1*
X2210820Y2560820D1*
X2206081Y2566368D1*
X2202268Y2572589D1*
X2199476Y2579331D1*
X2197772Y2586426D1*
X2197200Y2593700D1*
X2197772Y2600974D1*
X2199476Y2608069D1*
X2202268Y2614811D1*
X2206081Y2621032D1*
X2211207Y2626939D1*
X2211200Y2997935D1*
X2206081Y3003868D1*
X2202268Y3010089D1*
X2199476Y3016831D1*
X2197772Y3023926D1*
X2197200Y3031200D1*
X2197772Y3038474D1*
X2199476Y3045569D1*
X2202268Y3052311D1*
X2205851Y3058188D1*
X2073717Y3058200D1*
X2067996Y3054052D1*
X2061495Y3050740D1*
X2058752Y3049728D1*
X2099728Y3049727D1*
Y2937672D1*
X2078448D1*
X2083317Y2933317D1*
X2089027Y2926632D1*
X2093621Y2919136D1*
X2096985Y2911013D1*
X2099038Y2902465D1*
X2099728Y2893700D1*
X2099038Y2884935D1*
X2096985Y2876387D1*
X2093621Y2868264D1*
X2089027Y2860768D1*
X2083317Y2854083D1*
X2076632Y2848373D1*
X2076200Y2847768D1*
Y2794696D1*
X2118165Y2752697D1*
X2125974Y2752128D1*
X2133069Y2750424D1*
X2139811Y2747632D1*
X2146032Y2743819D1*
X2151580Y2739080D1*
X2156319Y2733532D1*
X2160132Y2727311D1*
X2162924Y2720569D1*
X2164628Y2713474D1*
X2165200Y2706200D1*
X2164628Y2698926D1*
X2162924Y2691831D1*
X2160132Y2685089D1*
X2156319Y2678868D1*
X2154555Y2676415D1*
X2161495Y2674160D1*
X2167996Y2670848D1*
X2173899Y2666559D1*
X2179059Y2661399D1*
X2183348Y2655496D1*
X2186660Y2648995D1*
X2188915Y2642055D1*
X2190057Y2634848D1*
Y2627552D1*
X2188915Y2620345D1*
X2186660Y2613405D1*
X2183348Y2606904D1*
X2179059Y2601001D1*
X2176193Y2597961D1*
X2176200Y2489924D1*
X2180394Y2486663D1*
X2186663Y2480394D1*
X2191874Y2473221D1*
X2195899Y2465322D1*
X2198639Y2456890D1*
X2200026Y2448133D1*
Y2439267D1*
X2198639Y2430510D1*
X2195899Y2422078D1*
X2191874Y2414179D1*
X2186663Y2407006D1*
X2180394Y2400737D1*
X2173221Y2395526D1*
X2169487Y2393434D1*
X2176632Y2389027D1*
X2183317Y2383317D1*
X2189027Y2376632D1*
X2193621Y2369136D1*
X2196985Y2361013D1*
X2199038Y2352465D1*
X2199728Y2343700D1*
X2199038Y2334935D1*
X2196985Y2326387D1*
X2193621Y2318264D1*
X2189027Y2310768D1*
X2183317Y2304083D1*
X2176632Y2298373D1*
X2176200Y2297768D1*
Y2199266D1*
X2182845Y2201415D1*
X2190052Y2202557D1*
X2197348D1*
X2198694Y2202397D1*
X2198700Y2235446D1*
X2193581Y2241368D1*
X2189768Y2247589D1*
X2186976Y2254331D1*
X2185272Y2261426D1*
X2184700Y2268700D1*
X2185272Y2275974D1*
X2186976Y2283069D1*
X2189768Y2289811D1*
X2193581Y2296032D1*
X2198320Y2301580D1*
X2203868Y2306319D1*
X2210089Y2310132D1*
X2216831Y2312924D1*
X2223926Y2314628D1*
X2231200Y2315200D1*
X2238474Y2314628D1*
X2245569Y2312924D1*
X2252311Y2310132D1*
X2258532Y2306319D1*
X2264080Y2301580D1*
X2268819Y2296032D1*
X2272632Y2289811D1*
X2275424Y2283069D1*
X2277128Y2275974D1*
X2277700Y2268700D1*
X2277128Y2261426D1*
X2275424Y2254331D1*
X2272632Y2247589D1*
X2268819Y2241368D1*
X2263693Y2235461D1*
X2263700Y1782146D1*
X2305913Y1739807D1*
X2308911Y1735681D1*
X2311226Y1731137D1*
X2312802Y1726287D1*
X2313600Y1721250D1*
X2313700Y1654396D1*
Y1540966D1*
X2318277Y1543596D1*
X2326395Y1546959D1*
X2334940Y1549011D1*
X2343700Y1549700D1*
X2352460Y1549011D1*
X2361005Y1546959D1*
X2369123Y1543596D1*
X2376616Y1539005D1*
X2383298Y1533298D1*
X2389005Y1526616D1*
X2393596Y1519123D1*
X2396959Y1511005D1*
X2399011Y1502460D1*
X2399700Y1493700D1*
X2399011Y1484940D1*
X2396959Y1476395D1*
X2393596Y1468277D1*
X2389005Y1460784D1*
X2383298Y1454102D1*
X2376616Y1448395D1*
X2368921Y1443710D1*
X2376616Y1439005D1*
X2383298Y1433298D1*
X2389005Y1426616D1*
X2393596Y1419123D1*
X2396959Y1411005D1*
X2399011Y1402460D1*
X2399700Y1393700D1*
X2399011Y1384940D1*
X2396959Y1376395D1*
X2393596Y1368277D1*
X2389005Y1360784D1*
X2383298Y1354102D1*
X2376616Y1348395D1*
X2368921Y1343710D1*
X2376616Y1339005D1*
X2383298Y1333298D1*
X2389005Y1326616D1*
X2393596Y1319123D1*
X2396959Y1311005D1*
X2399011Y1302460D1*
X2399700Y1293700D1*
X2399011Y1284940D1*
X2396959Y1276395D1*
X2393596Y1268277D1*
X2389005Y1260784D1*
X2383298Y1254102D1*
X2376616Y1248395D1*
X2368921Y1243710D1*
X2376616Y1239005D1*
X2383298Y1233298D1*
X2389005Y1226616D1*
X2393596Y1219123D1*
X2396959Y1211005D1*
X2399011Y1202460D1*
X2399700Y1193700D1*
X2399011Y1184940D1*
X2396959Y1176395D1*
X2393596Y1168277D1*
X2389005Y1160784D1*
X2383298Y1154102D1*
X2376616Y1148395D1*
X2369123Y1143804D1*
X2361005Y1140441D1*
X2352460Y1138389D1*
X2343700Y1137700D1*
X2334940Y1138389D1*
X2326395Y1140441D1*
X2318277Y1143804D1*
X2310784Y1148395D1*
X2304102Y1154102D1*
X2298395Y1160784D1*
X2293804Y1168277D1*
X2290441Y1176395D1*
X2288701Y1183373D1*
X2288700Y1069638D1*
X2315999Y1042363D1*
X2322270Y1045437D1*
X2330627Y1048153D1*
X2339306Y1049527D1*
X2348094D1*
X2356773Y1048153D1*
X2365130Y1045437D1*
X2372960Y1041448D1*
X2380069Y1036283D1*
X2386283Y1030069D1*
X2391448Y1022960D1*
X2395437Y1015130D1*
X2398153Y1006773D1*
X2399527Y998094D1*
Y989306D1*
X2398153Y980627D1*
X2395437Y972270D1*
X2391448Y964440D1*
X2386283Y957331D1*
X2380069Y951117D1*
X2372960Y945952D1*
X2369123Y943596D1*
X2376616Y939005D1*
X2383298Y933298D1*
X2389005Y926616D1*
X2393596Y919123D1*
X2396959Y911005D1*
X2399011Y902460D1*
X2399700Y893700D1*
X2399011Y884940D1*
X2396959Y876395D1*
X2393596Y868277D1*
X2389005Y860784D1*
X2383298Y854102D1*
X2376616Y848395D1*
X2369123Y843804D1*
X2361005Y840441D1*
X2352460Y838389D1*
X2343700Y837700D1*
X2334940Y838389D1*
X2326395Y840441D1*
X2318277Y843804D1*
X2310784Y848395D1*
X2304102Y854102D1*
X2298395Y860784D1*
X2293804Y868277D1*
X2290441Y876395D1*
X2288389Y884940D1*
X2287700Y893700D1*
X2288487Y902949D1*
X2206487Y985093D1*
X2203489Y989219D1*
X2201174Y993763D1*
X2199598Y998613D1*
X2198800Y1003650D1*
X2198700Y1070504D1*
Y1655237D1*
X2081487Y1772593D1*
X2078489Y1776719D1*
X2076174Y1781263D1*
X2074598Y1786113D1*
X2073800Y1791150D1*
X2073700Y1858004D1*
Y2197935D1*
X2068581Y2203868D1*
X2064768Y2210089D1*
X2061976Y2216831D1*
X2060272Y2223926D1*
X2059700Y2231200D1*
X2060272Y2238474D1*
X2061976Y2245569D1*
X2064768Y2252311D1*
X2068581Y2258532D1*
X2073320Y2264080D1*
X2078868Y2268819D1*
X2085089Y2272632D1*
X2091831Y2275424D1*
X2098926Y2277128D1*
X2106200Y2277700D1*
X2111194Y2277397D1*
X2111200Y2298085D1*
X2107313Y2301096D1*
X2101096Y2307313D1*
X2095929Y2314426D1*
X2093621Y2318264D1*
X2089027Y2310768D1*
X2083317Y2304083D1*
X2076632Y2298373D1*
X2069136Y2293779D1*
X2061013Y2290415D1*
X2052465Y2288362D1*
X2043700Y2287672D1*
X2034935Y2288362D1*
X2026387Y2290415D1*
X2018264Y2293779D1*
X2010768Y2298373D1*
X2004083Y2304083D1*
X1998373Y2310768D1*
X1993700Y2318436D1*
X1989027Y2310768D1*
X1983317Y2304083D1*
X1976632Y2298373D1*
X1969136Y2293779D1*
X1961013Y2290415D1*
X1952465Y2288362D1*
X1943700Y2287672D1*
X1934935Y2288362D1*
X1926209Y2290480D1*
X1926100Y1741150D1*
X1925302Y1736113D1*
X1923726Y1731263D1*
X1921411Y1726719D1*
X1918413Y1722593D1*
X1871211Y1675249D1*
X1798921Y1602958D1*
X1799700Y1593700D1*
X1799011Y1584940D1*
X1796959Y1576395D1*
X1793596Y1568277D1*
X1789005Y1560784D1*
X1783298Y1554102D1*
X1776616Y1548395D1*
X1769123Y1543804D1*
X1761005Y1540441D1*
X1752460Y1538389D1*
X1743700Y1537700D1*
X1734940Y1538389D1*
X1726395Y1540441D1*
X1718277Y1543804D1*
X1710784Y1548395D1*
X1704102Y1554102D1*
X1698395Y1560784D1*
X1693710Y1568479D1*
X1689005Y1560784D1*
X1683298Y1554102D1*
X1676616Y1548395D1*
X1669123Y1543804D1*
X1661005Y1540441D1*
X1652460Y1538389D1*
X1643700Y1537700D1*
X1634940Y1538389D1*
X1626395Y1540441D1*
X1618277Y1543804D1*
X1610784Y1548395D1*
X1604102Y1554102D1*
X1598395Y1560784D1*
X1593804Y1568277D1*
X1590441Y1576395D1*
X1588389Y1584940D1*
X1587700Y1593700D1*
X1588389Y1602460D1*
X1590441Y1611005D1*
X1593804Y1619123D1*
X1598395Y1626616D1*
X1604102Y1633298D1*
X1610784Y1639005D1*
X1618277Y1643596D1*
X1626395Y1646959D1*
X1634940Y1649011D1*
X1643700Y1649700D1*
X1652460Y1649011D1*
X1661005Y1646959D1*
X1669123Y1643596D1*
X1676616Y1639005D1*
X1683298Y1633298D1*
X1689005Y1626616D1*
X1693690Y1618921D1*
X1698395Y1626616D1*
X1704102Y1633298D1*
X1710784Y1639005D1*
X1718277Y1643596D1*
X1726395Y1646959D1*
X1734940Y1649011D1*
X1743700Y1649700D1*
X1752949Y1648913D1*
X1861215Y1757177D1*
X1861200Y2290467D1*
X1852465Y2288362D1*
X1843700Y2287672D1*
X1834935Y2288362D1*
X1826387Y2290415D1*
X1818264Y2293779D1*
X1810768Y2298373D1*
X1804083Y2304083D1*
X1798373Y2310768D1*
X1793700Y2318436D1*
X1789027Y2310768D1*
X1783317Y2304083D1*
X1776632Y2298373D1*
X1769136Y2293779D1*
X1761013Y2290415D1*
X1752465Y2288362D1*
X1743700Y2287672D1*
X1734935Y2288362D1*
X1726387Y2290415D1*
X1718264Y2293779D1*
X1710768Y2298373D1*
X1704083Y2304083D1*
X1698373Y2310768D1*
X1693779Y2318264D1*
X1690415Y2326387D1*
X1688362Y2334935D1*
X1687672Y2343700D1*
X1688362Y2352465D1*
X1690415Y2361013D1*
X1693779Y2369136D1*
X1698373Y2376632D1*
X1704083Y2383317D1*
X1710768Y2389027D1*
X1717919Y2393428D1*
X1710490Y2397991D1*
X1703748Y2403748D1*
X1697991Y2410490D1*
X1693358Y2418050D1*
X1689965Y2426241D1*
X1687896Y2434861D1*
X1687200Y2443700D1*
X1687896Y2452539D1*
X1688061Y2453371D1*
X1589967Y2551471D1*
X1588915Y2545345D1*
X1586660Y2538405D1*
X1583348Y2531904D1*
X1579059Y2526001D1*
X1576193Y2522961D1*
X1576200Y2489922D1*
X1580394Y2486663D1*
X1586663Y2480394D1*
X1591874Y2473221D1*
X1595899Y2465322D1*
X1598639Y2456890D1*
X1600026Y2448133D1*
Y2439267D1*
X1598639Y2430510D1*
X1595899Y2422078D1*
X1591874Y2414179D1*
X1586663Y2407006D1*
X1580394Y2400737D1*
X1576204Y2397519D1*
X1576200Y2389303D1*
X1580087Y2386304D1*
X1586304Y2380087D1*
X1591471Y2372974D1*
X1595463Y2365141D1*
X1598180Y2356779D1*
X1599555Y2348096D1*
Y2339304D1*
X1598180Y2330621D1*
X1595463Y2322259D1*
X1591471Y2314426D1*
X1586304Y2307313D1*
X1580087Y2301096D1*
X1572974Y2295929D1*
X1565141Y2291937D1*
X1556779Y2289220D1*
X1548096Y2287845D1*
X1539304D1*
X1530621Y2289220D1*
X1522259Y2291937D1*
X1514426Y2295929D1*
X1507313Y2301096D1*
X1501096Y2307313D1*
X1495929Y2314426D1*
X1493621Y2318264D1*
X1489027Y2310768D1*
X1483317Y2304083D1*
X1476632Y2298373D1*
X1469136Y2293779D1*
X1461013Y2290415D1*
X1452465Y2288362D1*
X1443700Y2287672D1*
X1434935Y2288362D1*
X1426209Y2290480D1*
X1426200Y1732136D1*
X1480913Y1677307D1*
X1483911Y1673181D1*
X1486226Y1668637D1*
X1487802Y1663787D1*
X1488600Y1658750D1*
X1488700Y1591896D1*
Y1504230D1*
X1490441Y1511005D1*
X1493804Y1519123D1*
X1498395Y1526616D1*
X1504102Y1533298D1*
X1510784Y1539005D1*
X1518277Y1543596D1*
X1526395Y1546959D1*
X1534940Y1549011D1*
X1543700Y1549700D1*
X1552460Y1549011D1*
X1561005Y1546959D1*
X1569123Y1543596D1*
X1576616Y1539005D1*
X1583298Y1533298D1*
X1589005Y1526616D1*
X1593596Y1519123D1*
X1596959Y1511005D1*
X1599011Y1502460D1*
X1599700Y1493700D1*
X1599011Y1484940D1*
X1596959Y1476395D1*
X1593596Y1468277D1*
X1589005Y1460784D1*
X1583298Y1454102D1*
X1576616Y1448395D1*
X1568921Y1443710D1*
X1576616Y1439005D1*
X1583298Y1433298D1*
X1589005Y1426616D1*
X1593596Y1419123D1*
X1596959Y1411005D1*
X1599011Y1402460D1*
X1599700Y1393700D1*
X1599011Y1384940D1*
X1596959Y1376395D1*
X1593596Y1368277D1*
X1589005Y1360784D1*
X1583298Y1354102D1*
X1576616Y1348395D1*
X1568921Y1343710D1*
X1576616Y1339005D1*
X1583298Y1333298D1*
X1589005Y1326616D1*
X1593596Y1319123D1*
X1596959Y1311005D1*
X1599011Y1302460D1*
X1599700Y1293700D1*
X1599011Y1284940D1*
X1596959Y1276395D1*
X1593596Y1268277D1*
X1589005Y1260784D1*
X1583298Y1254102D1*
X1576616Y1248395D1*
X1568921Y1243710D1*
X1576616Y1239005D1*
X1583298Y1233298D1*
X1589005Y1226616D1*
X1593596Y1219123D1*
X1596959Y1211005D1*
X1599011Y1202460D1*
X1599700Y1193700D1*
X1599011Y1184940D1*
X1596959Y1176395D1*
X1593596Y1168277D1*
X1589005Y1160784D1*
X1583298Y1154102D1*
X1576616Y1148395D1*
X1569123Y1143804D1*
X1561005Y1140441D1*
X1552460Y1138389D1*
X1543700Y1137700D1*
X1534940Y1138389D1*
X1526395Y1140441D1*
X1518277Y1143804D1*
X1510784Y1148395D1*
X1504102Y1154102D1*
X1498395Y1160784D1*
X1493804Y1168277D1*
X1490441Y1176395D1*
X1488701Y1183373D1*
X1488700Y1044698D1*
X1502144Y1031218D1*
X1507331Y1036283D1*
X1514440Y1041448D1*
X1522270Y1045437D1*
X1530627Y1048153D1*
X1539306Y1049527D1*
X1548094D1*
X1556773Y1048153D1*
X1565130Y1045437D1*
X1572960Y1041448D1*
X1580069Y1036283D1*
X1586283Y1030069D1*
X1591448Y1022960D1*
X1595437Y1015130D1*
X1598153Y1006773D1*
X1599527Y998094D1*
Y989306D1*
X1598153Y980627D1*
X1595437Y972270D1*
X1591448Y964440D1*
X1586283Y957331D1*
X1580069Y951117D1*
X1572960Y945952D1*
X1569123Y943596D1*
X1576616Y939005D1*
X1583298Y933298D1*
X1589005Y926616D1*
X1593596Y919123D1*
X1596959Y911005D1*
X1599011Y902460D1*
X1599700Y893700D1*
X1599011Y884940D1*
X1596959Y876395D1*
X1593596Y868277D1*
X1589005Y860784D1*
X1583298Y854102D1*
X1576616Y848395D1*
X1569123Y843804D1*
X1561005Y840441D1*
X1552460Y838389D1*
X1543700Y837700D1*
X1534940Y838389D1*
X1526395Y840441D1*
X1518277Y843804D1*
X1510784Y848395D1*
X1504102Y854102D1*
X1498118Y861198D1*
X1491150Y861300D1*
X1486113Y862098D1*
X1481263Y863674D1*
X1476719Y865989D1*
X1472593Y868987D1*
X1425249Y916189D1*
X1393987Y947593D1*
X1390989Y951719D1*
X1388674Y956263D1*
X1387098Y961113D1*
X1386300Y966150D1*
X1386200Y1033004D1*
Y1224805D1*
X1383348Y1219404D1*
X1379059Y1213501D1*
X1373899Y1208341D1*
X1367996Y1204052D1*
X1361495Y1200740D1*
X1354555Y1198485D1*
X1347348Y1197343D1*
X1340052D1*
X1332845Y1198485D1*
X1325905Y1200740D1*
X1324675Y1201307D1*
X1325200Y1193700D1*
X1324505Y1184861D1*
X1322435Y1176240D1*
X1319042Y1168049D1*
X1314410Y1160490D1*
X1308652Y1153748D1*
X1301910Y1147990D1*
X1294970Y1143705D1*
X1301910Y1139409D1*
X1308652Y1133652D1*
X1314409Y1126910D1*
X1319042Y1119350D1*
X1322435Y1111159D1*
X1324504Y1102539D1*
X1325200Y1093700D1*
X1324504Y1084861D1*
X1322435Y1076241D1*
X1319042Y1068050D1*
X1314409Y1060490D1*
X1308652Y1053748D1*
X1296954Y1042051D1*
X1301616Y1039005D1*
X1308298Y1033298D1*
X1314005Y1026616D1*
X1318596Y1019123D1*
X1321959Y1011005D1*
X1324011Y1002460D1*
X1324700Y993700D1*
X1324011Y984940D1*
X1321959Y976395D1*
X1318596Y968277D1*
X1314005Y960784D1*
X1308298Y954102D1*
X1301616Y948395D1*
X1294123Y943804D1*
X1286005Y940441D1*
X1277460Y938389D1*
X1268700Y937700D1*
X1259940Y938389D1*
X1251395Y940441D1*
X1250186Y940887D1*
X1250200Y644894D1*
X1260095Y638680D1*
X1265428Y634475D1*
X1270416Y629865D1*
X1275026Y624877D1*
X1279231Y619543D1*
X1283005Y613896D1*
X1286323Y607970D1*
X1289167Y601802D1*
X1291518Y595430D1*
X1293361Y588893D1*
X1294686Y582232D1*
X1295485Y575487D1*
X1295751Y568700D1*
X1295485Y561913D1*
X1294686Y555168D1*
X1293361Y548507D1*
X1291518Y541970D1*
X1289167Y535598D1*
X1286323Y529430D1*
X1283005Y523504D1*
X1279231Y517857D1*
X1275026Y512523D1*
X1270416Y507535D1*
X1265428Y502925D1*
X1260095Y498720D1*
X1254447Y494947D1*
X1248521Y491628D1*
X1242353Y488784D1*
X1235981Y486434D1*
X1229444Y484590D1*
X1222783Y483265D1*
X1216038Y482467D1*
X1209251Y482200D1*
X1202464Y482467D1*
X1195720Y483265D1*
X1189058Y484590D1*
X1182521Y486434D1*
X1176149Y488784D1*
X1169981Y491628D1*
X1164055Y494947D1*
X1158408Y498720D1*
X1153074Y502925D1*
X1148086Y507535D1*
X1143476Y512523D1*
X1139271Y517857D1*
X1135498Y523504D1*
X1132179Y529430D1*
X1129336Y535598D1*
X1126985Y541970D1*
X1125141Y548507D1*
X1123816Y555168D1*
X1123018Y561913D1*
X1122751Y568700D1*
X1123018Y575487D1*
X1123816Y582232D1*
X1125141Y588893D1*
X1126985Y595430D1*
X1129336Y601802D1*
X1132944Y609336D1*
X1098677Y575073D1*
X1098901Y568700D1*
X1098634Y561913D1*
X1097836Y555168D1*
X1096511Y548507D1*
X1094667Y541970D1*
X1092316Y535598D1*
X1089473Y529430D1*
X1086154Y523504D1*
X1082381Y517857D1*
X1078176Y512523D1*
X1073566Y507535D1*
X1068578Y502925D1*
X1063244Y498720D1*
X1057597Y494947D1*
X1051671Y491628D1*
X1045503Y488784D1*
X1039131Y486434D1*
X1032594Y484590D1*
X1025932Y483265D1*
X1019187Y482467D1*
X1012401Y482200D1*
X1005614Y482467D1*
X998869Y483265D1*
X992208Y484590D1*
X985671Y486434D1*
X979299Y488784D1*
X973131Y491628D1*
X967205Y494947D1*
X961557Y498720D1*
X956224Y502925D1*
X951236Y507535D1*
X946626Y512523D1*
X942421Y517857D1*
X938647Y523504D1*
X935329Y529430D1*
X932485Y535598D1*
X930134Y541970D1*
X928291Y548507D1*
X926966Y555168D1*
X926167Y561913D1*
X925901Y568700D1*
X926167Y575487D1*
X926966Y582232D1*
X928291Y588893D1*
X930134Y595430D1*
X932485Y601802D1*
X936094Y609336D1*
X901815Y575062D1*
X902050Y568700D1*
X901784Y561913D1*
X900985Y555168D1*
X899660Y548507D1*
X897817Y541970D1*
X895466Y535598D1*
X892622Y529430D1*
X889304Y523504D1*
X885530Y517857D1*
X881326Y512523D1*
X876715Y507535D1*
X871728Y502925D1*
X866394Y498720D1*
X860747Y494947D1*
X854821Y491628D1*
X848653Y488784D1*
X842280Y486434D1*
X835743Y484590D1*
X829082Y483265D1*
X822337Y482467D1*
X815550Y482200D1*
X808764Y482467D1*
X802019Y483265D1*
X795357Y484590D1*
X788820Y486434D1*
X782448Y488784D1*
X776280Y491628D1*
X770354Y494947D1*
X764707Y498720D1*
X759373Y502925D1*
X754386Y507535D1*
X749775Y512523D1*
X745570Y517857D1*
X741797Y523504D1*
X738478Y529430D1*
X735635Y535598D1*
X733284Y541970D1*
X731440Y548507D1*
X730115Y555168D1*
X729317Y561913D1*
X729050Y568700D1*
X729272Y574347D1*
X705207Y550304D1*
X705200Y482200D1*
X532200D1*
Y655200D1*
X650295D1*
X874717Y879620D1*
X874700Y1156200D1*
X875395Y1165039D1*
X877465Y1173660D1*
X880858Y1181851D1*
X885490Y1189410D1*
X891261Y1196163D1*
X1132006Y1436663D1*
X1139179Y1441874D1*
X1147078Y1445899D1*
X1155510Y1448639D1*
X1164267Y1450026D1*
X1187073Y1450200D1*
X1273133Y1450026D1*
X1281890Y1448639D1*
X1290322Y1445899D1*
X1298221Y1441874D1*
X1305394Y1436663D1*
X1311204Y1430890D1*
X1311200Y1460476D1*
X1306081Y1466368D1*
X1302268Y1472589D1*
X1299476Y1479331D1*
X1297772Y1486426D1*
X1297200Y1493700D1*
X1297772Y1500974D1*
X1299476Y1508069D1*
X1302268Y1514811D1*
X1306081Y1521032D1*
X1310820Y1526580D1*
X1316368Y1531319D1*
X1322589Y1535132D1*
X1329331Y1537924D1*
X1336426Y1539628D1*
X1343700Y1540200D1*
X1350974Y1539628D1*
X1358069Y1537924D1*
X1364811Y1535132D1*
X1371032Y1531319D1*
X1376580Y1526580D1*
X1381319Y1521032D1*
X1385132Y1514811D1*
X1386201Y1512492D1*
X1386200Y1617737D1*
X1268987Y1735093D1*
X1265989Y1739219D1*
X1263674Y1743763D1*
X1262098Y1748613D1*
X1261300Y1753650D1*
X1261200Y1820504D1*
Y1915203D1*
X1113701Y1767739D1*
X1113600Y1603650D1*
X1112802Y1598613D1*
X1111226Y1593763D1*
X1108911Y1589219D1*
X1105913Y1585093D1*
X1058711Y1537749D1*
X823926Y1302964D1*
X824700Y1293700D1*
X824011Y1284940D1*
X821959Y1276395D1*
X818596Y1268277D1*
X814005Y1260784D1*
X808298Y1254102D1*
X801616Y1248395D1*
X793921Y1243710D1*
X801616Y1239005D1*
X808298Y1233298D1*
X814005Y1226616D1*
X818596Y1219123D1*
X821959Y1211005D1*
X824011Y1202460D1*
X824700Y1193700D1*
X824011Y1184940D1*
X821959Y1176395D1*
X818596Y1168277D1*
X814005Y1160784D1*
X808298Y1154102D1*
X801616Y1148395D1*
X794123Y1143804D1*
X786005Y1140441D1*
X777460Y1138389D1*
X768700Y1137700D1*
X759940Y1138389D1*
X751395Y1140441D1*
X743277Y1143804D1*
X735784Y1148395D1*
X729102Y1154102D1*
X723395Y1160784D1*
X718804Y1168277D1*
X715441Y1176395D1*
X713389Y1184940D1*
X712700Y1193700D1*
X713389Y1202460D1*
X715441Y1211005D1*
X718804Y1219123D1*
X723395Y1226616D1*
X729102Y1233298D1*
X735784Y1239005D1*
X743479Y1243690D1*
X735784Y1248395D1*
X729102Y1254102D1*
X723395Y1260784D1*
X718804Y1268277D1*
X715441Y1276395D1*
X713389Y1284940D1*
X712700Y1293700D1*
X713389Y1302460D1*
X715441Y1311005D1*
X718804Y1319123D1*
X723395Y1326616D1*
X729102Y1333298D1*
X735784Y1339005D1*
X743479Y1343690D1*
X735784Y1348395D1*
X729102Y1354102D1*
X723395Y1360784D1*
X718804Y1368277D1*
X715441Y1376395D1*
X713389Y1384940D1*
X712700Y1393700D1*
X713389Y1402460D1*
X715441Y1411005D1*
X718804Y1419123D1*
X723395Y1426616D1*
X729102Y1433298D1*
X735784Y1439005D1*
X743479Y1443690D1*
X735784Y1448395D1*
X729102Y1454102D1*
X723395Y1460784D1*
X718804Y1468277D1*
X715441Y1476395D1*
X713389Y1484940D1*
X712700Y1493700D1*
X713389Y1502460D1*
X715441Y1511005D1*
X718804Y1519123D1*
X723395Y1526616D1*
X729102Y1533298D1*
X735784Y1539005D1*
X743277Y1543596D1*
X751395Y1546959D1*
X759940Y1549011D1*
X768700Y1549700D1*
X777460Y1549011D1*
X786005Y1546959D1*
X794123Y1543596D1*
X801616Y1539005D1*
X808298Y1533298D1*
X814005Y1526616D1*
X818596Y1519123D1*
X821959Y1511005D1*
X824011Y1502460D1*
X824700Y1493700D1*
X824011Y1484940D1*
X821959Y1476395D1*
X818596Y1468277D1*
X814005Y1460784D1*
X808298Y1454102D1*
X801616Y1448395D1*
X793921Y1443710D1*
X801616Y1439005D1*
X808298Y1433298D1*
X814005Y1426616D1*
X818596Y1419123D1*
X821959Y1411005D1*
X824011Y1402460D1*
X824626Y1395571D1*
X966751Y1537714D1*
X959940Y1538389D1*
X951395Y1540441D1*
X943277Y1543804D1*
X935784Y1548395D1*
X929102Y1554102D1*
X923395Y1560784D1*
X918710Y1568479D1*
X914005Y1560784D1*
X908298Y1554102D1*
X901616Y1548395D1*
X894123Y1543804D1*
X886005Y1540441D1*
X877460Y1538389D1*
X868700Y1537700D1*
X859940Y1538389D1*
X851395Y1540441D1*
X843277Y1543804D1*
X835784Y1548395D1*
X829102Y1554102D1*
X823395Y1560784D1*
X818804Y1568277D1*
X815441Y1576395D1*
X813389Y1584940D1*
X812700Y1593700D1*
X813389Y1602460D1*
X815441Y1611005D1*
X818804Y1619123D1*
X823395Y1626616D1*
X829102Y1633298D1*
X835784Y1639005D1*
X843277Y1643596D1*
X851395Y1646959D1*
X859940Y1649011D1*
X868700Y1649700D1*
X877460Y1649011D1*
X886005Y1646959D1*
X894123Y1643596D1*
X901616Y1639005D1*
X908298Y1633298D1*
X914005Y1626616D1*
X918690Y1618921D1*
X923395Y1626616D1*
X929102Y1633298D1*
X935784Y1639005D1*
X943277Y1643596D1*
X951395Y1646959D1*
X959940Y1649011D1*
X968700Y1649700D1*
X977460Y1649011D1*
X986005Y1646959D1*
X994123Y1643596D1*
X1001616Y1639005D1*
X1008298Y1633298D1*
X1014005Y1626616D1*
X1018596Y1619123D1*
X1021959Y1611005D1*
X1024011Y1602460D1*
X1024626Y1595571D1*
X1048709Y1619671D1*
X1048800Y1783750D1*
X1049598Y1788787D1*
X1051174Y1793637D1*
X1053489Y1798181D1*
X1056487Y1802307D1*
X1103689Y1849651D1*
X1211199Y1957161D1*
X1211200Y2225642D1*
X1204555Y2223485D1*
X1197348Y2222343D1*
X1190052D1*
X1182845Y2223485D1*
X1175905Y2225740D1*
X1169404Y2229052D1*
X1163501Y2233341D1*
X1158341Y2238501D1*
X1154052Y2244404D1*
X1150740Y2250905D1*
X1148485Y2257845D1*
X1147343Y2265052D1*
Y2272348D1*
X1148485Y2279555D1*
X1150740Y2286495D1*
X1151534Y2288217D1*
X1143700Y2287672D1*
X1134935Y2288362D1*
X1126209Y2290480D1*
X1126200Y2226922D1*
X1131319Y2221032D1*
X1135132Y2214811D1*
X1137924Y2208069D1*
X1139628Y2200974D1*
X1140200Y2193700D1*
X1139628Y2186426D1*
X1137924Y2179331D1*
X1135132Y2172589D1*
X1131319Y2166368D1*
X1126580Y2160820D1*
X1121032Y2156081D1*
X1114811Y2152268D1*
X1108069Y2149476D1*
X1100974Y2147772D1*
X1093700Y2147200D1*
X1086426Y2147772D1*
X1079331Y2149476D1*
X1072589Y2152268D1*
X1066368Y2156081D1*
X1060820Y2160820D1*
X1056081Y2166368D1*
X1052268Y2172589D1*
X1049476Y2179331D1*
X1047772Y2186426D1*
X1047200Y2193700D1*
X1047772Y2200974D1*
X1049476Y2208069D1*
X1052268Y2214811D1*
X1056081Y2221032D1*
X1061207Y2226939D1*
X1061013Y2290415D1*
X1052465Y2288362D1*
X1043700Y2287672D1*
X1034935Y2288362D1*
X1026209Y2290480D1*
X1026200Y2194296D1*
X1030913Y2189807D1*
X1033911Y2185681D1*
X1036226Y2181137D1*
X1037802Y2176287D1*
X1038600Y2171250D1*
X1038700Y2104396D1*
Y2026922D1*
X1043819Y2021032D1*
X1047632Y2014811D1*
X1050424Y2008069D1*
X1052128Y2000974D1*
X1052700Y1993700D1*
X1052128Y1986426D1*
X1050424Y1979331D1*
X1047632Y1972589D1*
X1043819Y1966368D1*
X1039080Y1960820D1*
X1033532Y1956081D1*
X1027311Y1952268D1*
X1020569Y1949476D1*
X1013474Y1947772D1*
X1006200Y1947200D1*
X998926Y1947772D1*
X991831Y1949476D1*
X985089Y1952268D1*
X978868Y1956081D1*
X973320Y1960820D1*
X968581Y1966368D1*
X964768Y1972589D1*
X961976Y1979331D1*
X960272Y1986426D1*
X959700Y1993700D1*
X960272Y2000974D1*
X961976Y2008069D1*
X964768Y2014811D1*
X968581Y2021032D1*
X973707Y2026939D1*
X973700Y2130598D1*
X968987Y2135093D1*
X965989Y2139219D1*
X963674Y2143763D1*
X962098Y2148613D1*
X961300Y2153650D1*
X961200Y2220504D1*
X961013Y2290415D1*
X952465Y2288362D1*
X943700Y2287672D1*
X934935Y2288362D1*
X926387Y2290415D1*
X918264Y2293779D1*
X910768Y2298373D1*
X904083Y2304083D1*
X898373Y2310768D1*
X893700Y2318436D1*
X889027Y2310768D1*
X883317Y2304083D1*
X876632Y2298373D1*
X876200Y2297768D1*
Y2264432D1*
X881319Y2258532D1*
X885132Y2252311D1*
X887924Y2245569D1*
X889628Y2238474D1*
X890200Y2231200D1*
X889628Y2223926D1*
X887924Y2216831D1*
X885132Y2210089D1*
X881319Y2203868D1*
X876580Y2198320D1*
X871032Y2193581D1*
X864811Y2189768D1*
X858069Y2186976D1*
X850974Y2185272D1*
X843700Y2184700D1*
X836426Y2185272D1*
X829331Y2186976D1*
X822589Y2189768D1*
X816368Y2193581D1*
X810820Y2198320D1*
X806081Y2203868D1*
X802268Y2210089D1*
X799476Y2216831D1*
X797772Y2223926D1*
X797200Y2231200D1*
X797772Y2238474D1*
X799476Y2245569D1*
X802268Y2252311D1*
X806081Y2258532D1*
X811207Y2264439D1*
X811200Y2298052D1*
X804083Y2304083D1*
X798373Y2310768D1*
X793700Y2318436D1*
X789027Y2310768D1*
X783317Y2304083D1*
X776632Y2298373D1*
X776200Y2297768D1*
Y2189434D1*
X781319Y2183532D1*
X785132Y2177311D1*
X787924Y2170569D1*
X789628Y2163474D1*
X790200Y2156200D1*
X789628Y2148926D1*
X787924Y2141831D1*
X785132Y2135089D1*
X781319Y2128868D1*
X776580Y2123320D1*
X771032Y2118581D1*
X764811Y2114768D1*
X758069Y2111976D1*
X750974Y2110272D1*
X743700Y2109700D1*
X736426Y2110272D1*
X729331Y2111976D1*
X722589Y2114768D1*
X716368Y2118581D1*
X710820Y2123320D1*
X706081Y2128868D1*
X702268Y2135089D1*
X699476Y2141831D1*
X697772Y2148926D1*
X697200Y2156200D1*
X697772Y2163474D1*
X699476Y2170569D1*
X702268Y2177311D1*
X706081Y2183532D1*
X711207Y2189439D1*
X711200Y2298050D1*
X704083Y2304083D1*
X698373Y2310768D1*
X693700Y2318436D1*
X689027Y2310768D1*
X683317Y2304083D1*
X676632Y2298373D1*
X669136Y2293779D1*
X661013Y2290415D1*
X652465Y2288362D1*
X643700Y2287672D1*
X634935Y2288362D1*
X626387Y2290415D1*
X618264Y2293779D1*
X610768Y2298373D1*
X604083Y2304083D1*
X598373Y2310768D1*
X593700Y2318436D1*
X589027Y2310768D1*
X583317Y2304083D1*
X576632Y2298373D1*
X569136Y2293779D1*
X561013Y2290415D1*
X552465Y2288362D1*
X543700Y2287672D1*
X534935Y2288362D1*
X526387Y2290415D1*
X518264Y2293779D1*
X510768Y2298373D1*
X504083Y2304083D1*
X499724Y2309054D1*
X499728Y2287672D1*
X456200D1*
Y456168D1*
X3845703Y455416D1*
X3845008Y557406D1*
X3843361Y548507D1*
X3841518Y541970D1*
X3839167Y535598D1*
X3836323Y529430D1*
X3833005Y523504D1*
X3829231Y517857D1*
X3825026Y512523D1*
X3820416Y507535D1*
X3815428Y502925D1*
X3810095Y498720D1*
X3804447Y494947D1*
X3798521Y491628D1*
X3792353Y488784D1*
X3785981Y486434D1*
X3779444Y484590D1*
X3772783Y483265D1*
X3766038Y482467D1*
X3759251Y482200D1*
X3752464Y482467D1*
X3745720Y483265D1*
X3739058Y484590D1*
X3732521Y486434D1*
X3726149Y488784D1*
X3719981Y491628D1*
X3714055Y494947D1*
X3708408Y498720D1*
X3703074Y502925D1*
X3698086Y507535D1*
X3693476Y512523D1*
X3689271Y517857D1*
X3685498Y523504D1*
X3682179Y529430D1*
X3679336Y535598D1*
X3676985Y541970D1*
X3675141Y548507D1*
X3673816Y555168D1*
X3673018Y561913D1*
X3672886Y572120D1*
X3641674Y603322D1*
X3644667Y595430D1*
X3646511Y588893D1*
X3647836Y582232D1*
X3648634Y575487D1*
X3648901Y568700D1*
X3648634Y561913D1*
X3647836Y555168D1*
X3646511Y548507D1*
X3644667Y541970D1*
X3642316Y535598D1*
X3639473Y529430D1*
X3636154Y523504D1*
X3632381Y517857D1*
X3628176Y512523D1*
X3623566Y507535D1*
X3618578Y502925D1*
X3613244Y498720D1*
X3607597Y494947D1*
X3601671Y491628D1*
X3595503Y488784D1*
X3589131Y486434D1*
X3582594Y484590D1*
X3575932Y483265D1*
X3569187Y482467D1*
X3562401Y482200D1*
X3555614Y482467D1*
X3548869Y483265D1*
X3542208Y484590D1*
X3535671Y486434D1*
X3529299Y488784D1*
X3523131Y491628D1*
X3517205Y494947D1*
X3511557Y498720D1*
X3506224Y502925D1*
X3501236Y507535D1*
X3496626Y512523D1*
X3492421Y517857D1*
X3488647Y523504D1*
X3485329Y529430D1*
X3482485Y535598D1*
X3480134Y541970D1*
X3478291Y548507D1*
X3476966Y555168D1*
X3476167Y561913D1*
X3475901Y568700D1*
X3476167Y575487D1*
X3476966Y582232D1*
X3478291Y588893D1*
X3480134Y595430D1*
X3482485Y601802D1*
X3485329Y607970D1*
X3488647Y613896D1*
X3492421Y619543D1*
X3495952Y624023D1*
X3475737Y644506D1*
X3470526Y651679D1*
X3466501Y659578D1*
X3463761Y668010D1*
X3462374Y676767D1*
X3462200Y699573D1*
Y732263D1*
X3422053Y692150D1*
X3422050Y634201D1*
X3426715Y629865D1*
X3431326Y624877D1*
X3435530Y619543D1*
X3439304Y613896D1*
X3442622Y607970D1*
X3445466Y601802D1*
X3447817Y595430D1*
X3449660Y588893D1*
X3450985Y582232D1*
X3451784Y575487D1*
X3452050Y568700D1*
X3451784Y561913D1*
X3450985Y555168D1*
X3449660Y548507D1*
X3447817Y541970D1*
X3445466Y535598D1*
X3442622Y529430D1*
X3439304Y523504D1*
X3435530Y517857D1*
X3431326Y512523D1*
X3426715Y507535D1*
X3421728Y502925D1*
X3416394Y498720D1*
X3410747Y494947D1*
X3404821Y491628D1*
X3398653Y488784D1*
X3392280Y486434D1*
X3385743Y484590D1*
X3379082Y483265D1*
X3372337Y482467D1*
X3365550Y482200D1*
X3358764Y482467D1*
X3352019Y483265D1*
X3345357Y484590D1*
X3338820Y486434D1*
X3332448Y488784D1*
X3326280Y491628D1*
X3320354Y494947D1*
X3314707Y498720D1*
X3309373Y502925D1*
X3304386Y507535D1*
X3299775Y512523D1*
X3295570Y517857D1*
X3291797Y523504D1*
X3288478Y529430D1*
X3285635Y535598D1*
X3283284Y541970D1*
X3281440Y548507D1*
X3280115Y555168D1*
X3279317Y561913D1*
X3279050Y568700D1*
X3279317Y575487D1*
X3280115Y582232D1*
X3281440Y588893D1*
X3283284Y595430D1*
X3285635Y601802D1*
X3288478Y607970D1*
X3291797Y613896D1*
X3295570Y619543D1*
X3299775Y624877D1*
X3304386Y629865D1*
X3309042Y634169D1*
X3309051Y715568D1*
X3305703Y713300D1*
X3247622Y655219D1*
X3255200Y655200D1*
Y482200D1*
X3082200D1*
Y655200D1*
X3112235D1*
X3112374Y660633D1*
X3113761Y669390D1*
X3116501Y677822D1*
X3120526Y685721D1*
X3125737Y692894D1*
X3141740Y709143D1*
X3287209Y854612D1*
X3287200Y1101013D1*
X3279555Y1098485D1*
X3272348Y1097343D1*
X3265052D1*
X3257845Y1098485D1*
X3250905Y1100740D1*
X3244404Y1104052D1*
X3238501Y1108341D1*
X3233341Y1113501D1*
X3229052Y1119404D1*
X3225740Y1125905D1*
X3223485Y1132845D1*
X3222343Y1140052D1*
X3222272Y1145538D1*
X3215130Y1141963D1*
X3206773Y1139247D1*
X3198094Y1137873D1*
X3189306D1*
X3180627Y1139247D1*
X3172270Y1141963D1*
X3164440Y1145952D1*
X3157331Y1151117D1*
X3151117Y1157331D1*
X3145952Y1164440D1*
X3141963Y1172270D1*
X3139247Y1180627D1*
X3138701Y1183373D1*
X3138700Y1032152D1*
X3144685Y1026178D1*
X3148395Y1026616D1*
X3154102Y1033298D1*
X3160784Y1039005D1*
X3168277Y1043596D1*
X3176395Y1046959D1*
X3184940Y1049011D1*
X3193700Y1049700D1*
X3202460Y1049011D1*
X3211005Y1046959D1*
X3219123Y1043596D1*
X3226616Y1039005D1*
X3233298Y1033298D1*
X3239005Y1026616D1*
X3243596Y1019123D1*
X3246959Y1011005D1*
X3249011Y1002460D1*
X3249700Y993700D1*
X3249011Y984940D1*
X3246959Y976395D1*
X3243596Y968277D1*
X3239005Y960784D1*
X3233298Y954102D1*
X3226616Y948395D1*
X3218921Y943710D1*
X3226616Y939005D1*
X3233298Y933298D1*
X3239005Y926616D1*
X3243596Y919123D1*
X3246959Y911005D1*
X3249011Y902460D1*
X3249700Y893700D1*
X3249011Y884940D1*
X3246959Y876395D1*
X3243596Y868277D1*
X3239005Y860784D1*
X3233298Y854102D1*
X3226616Y848395D1*
X3219123Y843804D1*
X3211005Y840441D1*
X3202460Y838389D1*
X3193700Y837700D1*
X3184940Y838389D1*
X3176395Y840441D1*
X3168277Y843804D1*
X3160784Y848395D1*
X3154102Y854102D1*
X3148118Y861198D1*
X3103650Y861300D1*
X3098613Y862098D1*
X3093763Y863674D1*
X3089219Y865989D1*
X3085093Y868987D1*
X3037749Y916189D1*
X3031487Y922593D1*
X3028489Y926719D1*
X3026174Y931263D1*
X3024598Y936113D1*
X3023800Y941150D1*
X3023700Y1008004D1*
Y1087703D1*
X2952733Y1087672D1*
X2952595Y1066032D1*
X2951761Y1060763D1*
X2950112Y1055689D1*
X2947690Y1050935D1*
X2944554Y1046619D1*
X2903767Y1005684D1*
X2899225Y1001142D1*
X2899700Y993700D1*
X2899011Y984940D1*
X2896959Y976395D1*
X2893596Y968277D1*
X2889005Y960784D1*
X2883298Y954102D1*
X2876616Y948395D1*
X2869123Y943804D1*
X2861005Y940441D1*
X2852460Y938389D1*
X2843700Y937700D1*
X2834940Y938389D1*
X2826395Y940441D1*
X2818277Y943804D1*
X2812712Y947107D1*
X2812700Y767128D1*
X2926295Y653509D1*
X2935981Y650966D1*
X2942353Y648616D1*
X2948521Y645772D1*
X2954447Y642453D1*
X2960095Y638680D1*
X2965428Y634475D1*
X2970416Y629865D1*
X2975026Y624877D1*
X2979231Y619543D1*
X2983005Y613896D1*
X2986323Y607970D1*
X2989167Y601802D1*
X2991518Y595430D1*
X2993361Y588893D1*
X2994686Y582232D1*
X2995485Y575487D1*
X2995751Y568700D1*
X2995485Y561913D1*
X2994686Y555168D1*
X2993361Y548507D1*
X2991518Y541970D1*
X2989167Y535598D1*
X2986323Y529430D1*
X2983005Y523504D1*
X2979231Y517857D1*
X2975026Y512523D1*
X2970416Y507535D1*
X2965428Y502925D1*
X2960095Y498720D1*
X2954447Y494947D1*
X2948521Y491628D1*
X2942353Y488784D1*
X2935981Y486434D1*
X2929444Y484590D1*
X2922783Y483265D1*
X2916038Y482467D1*
X2909251Y482200D1*
X2902464Y482467D1*
X2895720Y483265D1*
X2889058Y484590D1*
X2882521Y486434D1*
X2876149Y488784D1*
X2869981Y491628D1*
X2864055Y494947D1*
X2858408Y498720D1*
X2853074Y502925D1*
X2848086Y507535D1*
X2843476Y512523D1*
X2839271Y517857D1*
X2835498Y523504D1*
X2832179Y529430D1*
X2829336Y535598D1*
X2826985Y541970D1*
X2825141Y548507D1*
X2823816Y555168D1*
X2823018Y561913D1*
X2822751Y568700D1*
X2823018Y575487D1*
X2823816Y582232D1*
X2826459Y593566D1*
X2766611Y653386D1*
X2768205Y646338D1*
X2768900Y637482D1*
X2773566Y629865D1*
X2778176Y624877D1*
X2782381Y619543D1*
X2786154Y613896D1*
X2789473Y607970D1*
X2792316Y601802D1*
X2794667Y595430D1*
X2796511Y588893D1*
X2797836Y582232D1*
X2798634Y575487D1*
X2798901Y568700D1*
X2798634Y561913D1*
X2797836Y555168D1*
X2796511Y548507D1*
X2794667Y541970D1*
X2792316Y535598D1*
X2789473Y529430D1*
X2786154Y523504D1*
X2782381Y517857D1*
X2778176Y512523D1*
X2773566Y507535D1*
X2768578Y502925D1*
X2763244Y498720D1*
X2757597Y494947D1*
X2751671Y491628D1*
X2745503Y488784D1*
X2739131Y486434D1*
X2732594Y484590D1*
X2725932Y483265D1*
X2719187Y482467D1*
X2712401Y482200D1*
X2705614Y482467D1*
X2698869Y483265D1*
X2692208Y484590D1*
X2685671Y486434D1*
X2679299Y488784D1*
X2673131Y491628D1*
X2667205Y494947D1*
X2661557Y498720D1*
X2656224Y502925D1*
X2651236Y507535D1*
X2646626Y512523D1*
X2642421Y517857D1*
X2638647Y523504D1*
X2635329Y529430D1*
X2632485Y535598D1*
X2630134Y541970D1*
X2628291Y548507D1*
X2626966Y555168D1*
X2626167Y561913D1*
X2625901Y568700D1*
X2626167Y575487D1*
X2626966Y582232D1*
X2628291Y588893D1*
X2630134Y595430D1*
X2632485Y601802D1*
X2635329Y607970D1*
X2638647Y613896D1*
X2642421Y619543D1*
X2645952Y624023D1*
X2625737Y644506D1*
X2620526Y651679D1*
X2616501Y659578D1*
X2613761Y668010D1*
X2612374Y676767D1*
X2612200Y682312D1*
X2572053Y642150D1*
X2572050Y634223D1*
X2576715Y629865D1*
X2581326Y624877D1*
X2585530Y619543D1*
X2589304Y613896D1*
X2592622Y607970D1*
X2595466Y601802D1*
X2597817Y595430D1*
X2599660Y588893D1*
X2600985Y582232D1*
X2601784Y575487D1*
X2602050Y568700D1*
X2601784Y561913D1*
X2600985Y555168D1*
X2599660Y548507D1*
X2597817Y541970D1*
X2595466Y535598D1*
X2592622Y529430D1*
X2589304Y523504D1*
X2585530Y517857D1*
X2581326Y512523D1*
X2576715Y507535D1*
X2571728Y502925D1*
X2566394Y498720D1*
X2560747Y494947D1*
X2554821Y491628D1*
X2548653Y488784D1*
X2542280Y486434D1*
X2535743Y484590D1*
X2529082Y483265D1*
X2522337Y482467D1*
X2515550Y482200D1*
X2508764Y482467D1*
X2502019Y483265D1*
X2495357Y484590D1*
X2488820Y486434D1*
X2482448Y488784D1*
X2476280Y491628D1*
X2470354Y494947D1*
X2464707Y498720D1*
X2459373Y502925D1*
X2454386Y507535D1*
X2449775Y512523D1*
X2445570Y517857D1*
X2441797Y523504D1*
X2438478Y529430D1*
X2435635Y535598D1*
X2433284Y541970D1*
X2431440Y548507D1*
X2430115Y555168D1*
X2429317Y561913D1*
X2429050Y568700D1*
X2429317Y575487D1*
X2430115Y582232D1*
X2431440Y588893D1*
X2433284Y595430D1*
X2435635Y601802D1*
X2438478Y607970D1*
X2441797Y613896D1*
X2445570Y619543D1*
X2449775Y624877D1*
X2454386Y629865D1*
X2459042Y634169D1*
X2459224Y669983D1*
X2460611Y678740D1*
X2463351Y687172D1*
X2467376Y695072D1*
X2472587Y702244D1*
X2488590Y718493D1*
X2524697Y754601D1*
X2520660Y753257D1*
X2405183Y637780D1*
X2405200Y482200D1*
X2232200D1*
Y655200D1*
X2267546D1*
X2270526Y660721D1*
X2275737Y667894D1*
X2291740Y684143D1*
X2437209Y829612D1*
X2437374Y1173133D1*
X2438761Y1181890D1*
X2441501Y1190322D1*
X2445526Y1198221D1*
X2450737Y1205394D1*
X2466740Y1221643D1*
X2682006Y1436663D1*
X2689179Y1441874D1*
X2697078Y1445899D1*
X2705510Y1448639D1*
X2714267Y1450026D1*
X2737073Y1450200D1*
X2788633Y1450026D1*
X2793386Y1449700D1*
X2848094Y1449527D1*
X2856773Y1448153D1*
X2865130Y1445437D1*
X2872960Y1441448D1*
X2880069Y1436283D1*
X2883310Y1433285D1*
X2884700Y1436154D1*
Y1555541D1*
X2880069Y1551117D1*
X2872960Y1545952D1*
X2865130Y1541963D1*
X2856773Y1539247D1*
X2848094Y1537873D1*
X2839306D1*
X2830627Y1539247D1*
X2822270Y1541963D1*
X2814440Y1545952D1*
X2807331Y1551117D1*
X2801117Y1557331D1*
X2795952Y1564440D1*
X2791963Y1572270D1*
X2789247Y1580627D1*
X2787873Y1589306D1*
Y1598094D1*
X2789247Y1606773D1*
X2791963Y1615130D1*
X2795952Y1622960D1*
X2801117Y1630069D1*
X2807331Y1636283D1*
X2814440Y1641448D1*
X2822270Y1645437D1*
X2830627Y1648153D1*
X2839306Y1649527D1*
X2848094D1*
X2856773Y1648153D1*
X2865130Y1645437D1*
X2872960Y1641448D1*
X2880069Y1636283D1*
X2884709Y1631772D1*
X2884700Y1679628D1*
X2792846Y1771619D1*
X2789710Y1775935D1*
X2787288Y1780689D1*
X2785639Y1785763D1*
X2784805Y1791032D1*
X2784700Y1848818D1*
Y3054634D1*
X2755346Y3084119D1*
X2752210Y3088435D1*
X2749788Y3093189D1*
X2748139Y3098263D1*
X2747305Y3103532D1*
X2747200Y3161318D1*
Y3274461D1*
X2743581Y3278868D1*
X2739768Y3285089D1*
X2736976Y3291831D1*
X2735272Y3298926D1*
X2734700Y3306200D1*
X2735272Y3313474D1*
X2736976Y3320569D1*
X2739768Y3327311D1*
X2743581Y3333532D1*
X2748320Y3339080D1*
X2753868Y3343819D1*
X2760089Y3347632D1*
X2766831Y3350424D1*
X2773926Y3352128D1*
X2781200Y3352700D1*
X2788474Y3352128D1*
X2795569Y3350424D1*
X2802311Y3347632D1*
X2808532Y3343819D1*
X2814080Y3339080D1*
X2818819Y3333532D1*
X2822632Y3327311D1*
X2825424Y3320569D1*
X2827128Y3313474D1*
X2827700Y3306200D1*
X2827128Y3298926D1*
X2825424Y3291831D1*
X2822632Y3285089D1*
X2818819Y3278868D1*
X2815194Y3274524D1*
X2815200Y3120284D1*
X2844554Y3090781D1*
X2847690Y3086465D1*
X2850112Y3081711D1*
X2851761Y3076637D1*
X2852595Y3071368D1*
X2852700Y3013582D1*
Y1807766D1*
X2944554Y1715781D1*
X2947690Y1711465D1*
X2950112Y1706711D1*
X2951761Y1701637D1*
X2952595Y1696368D1*
X2952700Y1638582D1*
Y1281857D1*
X2957313Y1286304D1*
X2964426Y1291471D1*
X2972259Y1295463D1*
X2980621Y1298180D1*
X2989304Y1299555D1*
X2998096D1*
X3006779Y1298180D1*
X3015141Y1295463D1*
X3022974Y1291471D1*
X3023703Y1290984D1*
X3023700Y1705270D1*
X2968987Y1760093D1*
X2965989Y1764219D1*
X2963674Y1768763D1*
X2962098Y1773613D1*
X2961300Y1778650D1*
X2961200Y1845504D1*
Y2635423D1*
X2956081Y2641368D1*
X2952268Y2647589D1*
X2949476Y2654331D1*
X2947772Y2661426D1*
X2947200Y2668700D1*
X2947772Y2675974D1*
X2949476Y2683069D1*
X2952268Y2689811D1*
X2956081Y2696032D1*
X2960820Y2701580D1*
X2966368Y2706319D1*
X2972589Y2710132D1*
X2979331Y2712924D1*
X2986426Y2714628D1*
X2993700Y2715200D1*
X3000974Y2714628D1*
X3008069Y2712924D1*
X3014811Y2710132D1*
X3021032Y2706319D1*
X3026580Y2701580D1*
X3031319Y2696032D1*
X3035132Y2689811D1*
X3036201Y2687492D1*
X3036200Y2797978D1*
X3031081Y2803868D1*
X3027268Y2810089D1*
X3024476Y2816831D1*
X3022772Y2823926D1*
X3022200Y2831200D1*
X3022772Y2838474D1*
X3024476Y2845569D1*
X3027268Y2852311D1*
X3031081Y2858532D1*
X3035820Y2864080D1*
X3041368Y2868819D1*
X3047589Y2872632D1*
X3054331Y2875424D1*
X3061426Y2877128D1*
X3068700Y2877700D1*
X3075974Y2877128D1*
X3077023Y2876919D1*
X2856487Y3097593D1*
X2853489Y3101719D1*
X2851174Y3106263D1*
X2849598Y3111113D1*
X2848800Y3116150D1*
X2848700Y3183004D1*
Y3442770D1*
X2818987Y3472593D1*
X2815989Y3476719D1*
X2813674Y3481263D1*
X2812788Y3483667D1*
X2783736Y3483735D1*
Y3603664D1*
X2903665D1*
Y3588342D1*
X2908454Y3592212D1*
X2916477Y3597129D1*
X2925170Y3600730D1*
X2934319Y3602926D1*
X2943700Y3603665D1*
X2953081Y3602926D1*
X2962230Y3600730D1*
X2970923Y3597129D1*
X2978946Y3592212D1*
X2986101Y3586101D1*
X2992212Y3578946D1*
X2997129Y3570923D1*
X3000730Y3562230D1*
X3002926Y3553081D1*
X3003665Y3543700D1*
X3002926Y3534319D1*
X3000730Y3525170D1*
X2997129Y3516477D1*
X2992212Y3508454D1*
X2986101Y3501299D1*
X2978946Y3495188D1*
X2970923Y3490271D1*
X2962230Y3486670D1*
X2953081Y3484474D1*
X2943700Y3483735D1*
X2934319Y3484474D1*
X2925170Y3486670D1*
X2916477Y3490271D1*
X2908454Y3495188D1*
X2903662Y3499114D1*
X2903665Y3483735D1*
X2899610D1*
X2905913Y3477307D1*
X2908911Y3473181D1*
X2911226Y3468637D1*
X2912802Y3463787D1*
X2913600Y3458750D1*
X2913700Y3391896D1*
Y3132130D1*
X3205913Y2839807D1*
X3208911Y2835681D1*
X3211226Y2831137D1*
X3212802Y2826287D1*
X3213600Y2821250D1*
X3213700Y2754396D1*
Y2701969D1*
X3218819Y2696032D1*
X3222632Y2689811D1*
X3225424Y2683069D1*
X3227128Y2675974D1*
X3227700Y2668700D1*
X3227128Y2661426D1*
X3225424Y2654331D1*
X3222632Y2647589D1*
X3218819Y2641368D1*
X3214080Y2635820D1*
X3208532Y2631081D1*
X3202311Y2627268D1*
X3195569Y2624476D1*
X3188474Y2622772D1*
X3181200Y2622200D1*
X3173926Y2622772D1*
X3166831Y2624476D1*
X3160089Y2627268D1*
X3153868Y2631081D1*
X3148320Y2635820D1*
X3143581Y2641368D1*
X3139768Y2647589D1*
X3136976Y2654331D1*
X3135272Y2661426D1*
X3134700Y2668700D1*
X3135272Y2675974D1*
X3136976Y2683069D1*
X3139768Y2689811D1*
X3143581Y2696032D1*
X3148707Y2701939D1*
X3148700Y2805239D1*
X3114449Y2839489D1*
X3115057Y2834848D1*
Y2827552D1*
X3113915Y2820345D1*
X3111660Y2813405D1*
X3108348Y2806904D1*
X3104059Y2801001D1*
X3101193Y2797961D1*
X3101200Y2575095D1*
X3104052Y2580496D1*
X3108341Y2586399D1*
X3113501Y2591559D1*
X3119404Y2595848D1*
X3125905Y2599160D1*
X3132845Y2601415D1*
X3140052Y2602557D1*
X3147348D1*
X3154555Y2601415D1*
X3161495Y2599160D1*
X3167996Y2595848D1*
X3173899Y2591559D1*
X3179059Y2586399D1*
X3183348Y2580496D1*
X3186660Y2573995D1*
X3188915Y2567055D1*
X3190057Y2559848D1*
Y2552552D1*
X3188915Y2545345D1*
X3186660Y2538405D1*
X3183348Y2531904D1*
X3179059Y2526001D1*
X3176193Y2522961D1*
X3176100Y2466150D1*
X3175302Y2461113D1*
X3173726Y2456263D1*
X3171411Y2451719D1*
X3168413Y2447593D1*
X3126210Y2405247D1*
X3126200Y1807198D1*
X3155913Y1777307D1*
X3158911Y1773181D1*
X3161226Y1768637D1*
X3162802Y1763787D1*
X3163600Y1758750D1*
X3163700Y1691896D1*
Y1541003D1*
X3172270Y1545437D1*
X3180627Y1548153D1*
X3189306Y1549527D1*
X3198094D1*
X3206773Y1548153D1*
X3215130Y1545437D1*
X3222960Y1541448D1*
X3230069Y1536283D1*
X3236283Y1530069D1*
X3237654Y1528329D1*
X3244404Y1533348D1*
X3250905Y1536660D1*
X3257845Y1538915D1*
X3265052Y1540057D1*
X3272348D1*
X3279555Y1538915D1*
X3286495Y1536660D1*
X3292996Y1533348D1*
X3298899Y1529059D1*
X3304059Y1523899D1*
X3308348Y1517996D1*
X3311660Y1511495D1*
X3313915Y1504555D1*
X3315057Y1497348D1*
Y1490052D1*
X3313915Y1482845D1*
X3311660Y1475905D1*
X3308348Y1469404D1*
X3304059Y1463501D1*
X3301193Y1460461D1*
X3301200Y1318406D1*
X3323236Y1340639D1*
X3419506Y1436663D1*
X3426679Y1441874D1*
X3434578Y1445899D1*
X3443010Y1448639D1*
X3451767Y1450026D1*
X3474573Y1450200D1*
X3638633Y1450026D1*
X3643386Y1449700D1*
X3698094Y1449527D1*
X3706773Y1448153D1*
X3715130Y1445437D1*
X3722960Y1441448D1*
X3730069Y1436283D1*
X3736283Y1430069D1*
X3741448Y1422960D1*
X3745437Y1415130D1*
X3748153Y1406773D1*
X3749527Y1398094D1*
Y1389306D1*
X3748153Y1380627D1*
X3745437Y1372270D1*
X3741448Y1364440D1*
X3736283Y1357331D1*
X3730069Y1351117D1*
X3722960Y1345952D1*
X3719123Y1343596D1*
X3726616Y1339005D1*
X3733298Y1333298D1*
X3739005Y1326616D1*
X3743596Y1319123D1*
X3746959Y1311005D1*
X3749011Y1302460D1*
X3749700Y1293700D1*
X3749011Y1284940D1*
X3746959Y1276395D1*
X3743596Y1268277D1*
X3739005Y1260784D1*
X3733298Y1254102D1*
X3726616Y1248395D1*
X3719108Y1243796D1*
X3722960Y1241448D1*
X3730069Y1236283D1*
X3736283Y1230069D1*
X3741448Y1222960D1*
X3745437Y1215130D1*
X3748153Y1206773D1*
X3749527Y1198094D1*
Y1189306D1*
X3748153Y1180627D1*
X3745437Y1172270D1*
X3741448Y1164440D1*
X3736283Y1157331D1*
X3730069Y1151117D1*
X3722960Y1145952D1*
X3719124Y1143596D1*
X3726616Y1139005D1*
X3733298Y1133298D1*
X3739005Y1126616D1*
X3743596Y1119124D1*
X3746959Y1111005D1*
X3749011Y1102460D1*
X3749700Y1093700D1*
X3749011Y1084940D1*
X3746959Y1076395D1*
X3743596Y1068276D1*
X3739005Y1060784D1*
X3733298Y1054102D1*
X3721499Y1042303D1*
X3726616Y1039005D1*
X3733298Y1033298D1*
X3739005Y1026616D1*
X3743596Y1019123D1*
X3746959Y1011005D1*
X3749011Y1002460D1*
X3749700Y993700D1*
X3749011Y984940D1*
X3746959Y976395D1*
X3743596Y968277D1*
X3739005Y960784D1*
X3733298Y954102D1*
X3726616Y948395D1*
X3719123Y943804D1*
X3711005Y940441D1*
X3702460Y938389D1*
X3693700Y937700D1*
X3684940Y938389D1*
X3676395Y940441D1*
X3668277Y943804D1*
X3662712Y947107D1*
X3662700Y742128D1*
X3750109Y654695D1*
X3759251Y655200D1*
X3766038Y654933D1*
X3772783Y654135D1*
X3779444Y652810D1*
X3785981Y650966D1*
X3792353Y648616D1*
X3798521Y645772D1*
X3804447Y642453D1*
X3810095Y638680D1*
X3815428Y634475D1*
X3820416Y629865D1*
X3825026Y624877D1*
X3829231Y619543D1*
X3833005Y613896D1*
X3836323Y607970D1*
X3839167Y601802D1*
X3841518Y595430D1*
X3843361Y588893D1*
X3844851Y580835D1*
X3836066Y1931007D1*
X3836844Y1933840D1*
X3838263Y1936413D1*
X3840244Y1938584D1*
X3842676Y1940233D1*
X3845426Y1941268D1*
X3848345Y1941633D1*
X4832569Y1945179D1*
X4831210Y3656195D1*
X2598319Y3656200D1*
X2599555Y3648096D1*
Y3639304D1*
X2598180Y3630621D1*
X2595463Y3622259D1*
X2591471Y3614426D1*
X2586304Y3607313D1*
X2580087Y3601096D1*
X2578346Y3599724D1*
X2599728Y3599728D1*
Y3487672D1*
X2576223D1*
X2576200Y3244677D1*
X2699463Y3121399D1*
X2707273Y3120828D1*
X2714369Y3119125D1*
X2721110Y3116333D1*
X2727331Y3112520D1*
X2732880Y3107781D1*
X2737619Y3102233D1*
X2741431Y3096011D1*
X2744223Y3089270D1*
X2745927Y3082175D1*
X2746499Y3074901D1*
X2745927Y3067627D1*
X2744223Y3060531D1*
X2741431Y3053790D1*
X2737619Y3047569D1*
X2732880Y3042020D1*
X2727331Y3037281D1*
X2721110Y3033469D1*
X2714369Y3030677D1*
X2707273Y3028973D1*
X2699999Y3028401D1*
X2692725Y3028973D1*
X2685630Y3030677D1*
X2678889Y3033469D1*
X2672667Y3037281D1*
X2667119Y3042020D1*
X2662380Y3047569D1*
X2658567Y3053790D1*
X2655775Y3060531D1*
X2654072Y3067627D1*
X2653520Y3075428D1*
X2639439Y3089499D1*
X2640057Y3084848D1*
Y3077552D1*
X2638915Y3070345D1*
X2636660Y3063405D1*
X2633348Y3056904D1*
X2629059Y3051001D1*
X2623899Y3045841D1*
X2617996Y3041552D1*
X2611495Y3038240D1*
X2604555Y3035985D1*
X2597348Y3034843D1*
X2590052D1*
X2582845Y3035985D1*
X2575905Y3038240D1*
X2569404Y3041552D1*
X2563501Y3045841D1*
X2558341Y3051001D1*
X2554052Y3056904D1*
X2550740Y3063405D1*
X2548485Y3070345D1*
X2547343Y3077552D1*
X2547221Y3081727D1*
X2468987Y3160093D1*
X2465989Y3164219D1*
X2463674Y3168763D1*
X2462098Y3173613D1*
X2461300Y3178650D1*
X2461200Y3235421D1*
X2456081Y3241368D1*
X2452268Y3247589D1*
X2449476Y3254331D1*
X2447772Y3261426D1*
X2447200Y3268700D1*
X2447772Y3275974D1*
X2449476Y3283069D1*
X2452268Y3289811D1*
X2456081Y3296032D1*
X2460820Y3301580D1*
X2466368Y3306319D1*
X2472589Y3310132D1*
X2479331Y3312924D1*
X2486426Y3314628D1*
X2493700Y3315200D1*
X2500974Y3314628D1*
X2508069Y3312924D1*
X2511187Y3311774D1*
X2511200Y3487664D1*
X2487672Y3487672D1*
Y3508952D1*
X2483317Y3504083D1*
X2476632Y3498373D1*
X2469136Y3493779D1*
X2461013Y3490415D1*
X2452465Y3488362D1*
X2443700Y3487672D1*
X2434935Y3488362D1*
X2426387Y3490415D1*
X2418264Y3493779D1*
X2410768Y3498373D1*
X2404083Y3504083D1*
X2398373Y3510768D1*
X2393779Y3518264D1*
X2390415Y3526387D1*
X2388362Y3534935D1*
X2387672Y3543700D1*
X2388362Y3552465D1*
X2390415Y3561013D1*
X2393779Y3569136D1*
X2398373Y3576632D1*
X2404083Y3583317D1*
X2410768Y3589027D1*
X2418264Y3593621D1*
X2426387Y3596985D1*
X2434935Y3599038D1*
X2443700Y3599728D1*
X2452465Y3599038D1*
X2461013Y3596985D1*
X2469136Y3593621D1*
X2476632Y3589027D1*
X2483317Y3583317D1*
X2487676Y3578346D1*
X2487672Y3599728D1*
X2496859D1*
X3234359Y3224728D2*
X3246452D1*
X3241583Y3229083D1*
X3235873Y3235768D1*
X3231279Y3243264D1*
X3227915Y3251387D1*
X3225862Y3259935D1*
X3225172Y3268700D1*
X3225862Y3277465D1*
X3227915Y3286013D1*
X3231279Y3294136D1*
X3235873Y3301632D1*
X3241583Y3308317D1*
X3248268Y3314027D1*
X3255764Y3318621D1*
X3263887Y3321985D1*
X3272435Y3324038D1*
X3281200Y3324728D1*
X3289965Y3324038D1*
X3298513Y3321985D1*
X3306636Y3318621D1*
X3314132Y3314027D1*
X3320817Y3308317D1*
X3326527Y3301632D1*
X3331121Y3294136D1*
X3334485Y3286013D1*
X3336538Y3277465D1*
X3337228Y3268700D1*
X3336538Y3259935D1*
X3334485Y3251387D1*
X3331121Y3243264D1*
X3326527Y3235768D1*
X3320817Y3229083D1*
X3315846Y3224724D1*
X3337228Y3224728D1*
Y3112672D1*
X3225172D1*
Y3224728D1*
X3234359D1*
X479213Y2399728D2*
X499728D1*
Y2378448D1*
X504083Y2383317D1*
X510768Y2389027D1*
X517919Y2393428D1*
X510490Y2397991D1*
X503748Y2403748D1*
X497991Y2410490D1*
X493705Y2417430D1*
X489409Y2410490D1*
X483652Y2403748D1*
X479101Y2399718D1*
X1552987Y3588466D2*
X1548096Y3587845D1*
X1539304D1*
X1530621Y3589220D1*
X1522259Y3591937D1*
X1514426Y3595929D1*
X1507313Y3601096D1*
X1501096Y3607313D1*
X1495929Y3614426D1*
X1491937Y3622259D1*
X1489220Y3630621D1*
X1487845Y3639304D1*
Y3648096D1*
X1489103Y3656189D1*
X456176Y3656200D1*
X456200Y3398815D1*
X465322Y3395899D1*
X473221Y3391874D1*
X480394Y3386663D1*
X486663Y3380394D1*
X491874Y3373221D1*
X493695Y3369970D1*
X497991Y3376910D1*
X503748Y3383652D1*
X510490Y3389409D1*
X518050Y3394042D1*
X526241Y3397435D1*
X534861Y3399504D1*
X543700Y3400200D1*
X552539Y3399504D1*
X561159Y3397435D1*
X569350Y3394042D1*
X576910Y3389409D1*
X583652Y3383652D1*
X589409Y3376910D1*
X593695Y3369970D1*
X597991Y3376910D1*
X603748Y3383652D1*
X610490Y3389409D1*
X618050Y3394042D1*
X626241Y3397435D1*
X634861Y3399504D1*
X643700Y3400200D1*
X652539Y3399504D1*
X661159Y3397435D1*
X669350Y3394042D1*
X676910Y3389409D1*
X683652Y3383652D1*
X689409Y3376910D1*
X693695Y3369970D1*
X697991Y3376910D1*
X703748Y3383652D1*
X710490Y3389409D1*
X718050Y3394042D1*
X726241Y3397435D1*
X734861Y3399504D1*
X743700Y3400200D1*
X752539Y3399504D1*
X761159Y3397435D1*
X769350Y3394042D1*
X776910Y3389409D1*
X783652Y3383652D1*
X789409Y3376910D1*
X793695Y3369970D1*
X797991Y3376910D1*
X803748Y3383652D1*
X810490Y3389409D1*
X818050Y3394042D1*
X826241Y3397435D1*
X834861Y3399504D1*
X843700Y3400200D1*
X852539Y3399504D1*
X861159Y3397435D1*
X869350Y3394042D1*
X876910Y3389409D1*
X883652Y3383652D1*
X889409Y3376910D1*
X893695Y3369970D1*
X897991Y3376910D1*
X903748Y3383652D1*
X910490Y3389409D1*
X918050Y3394042D1*
X926241Y3397435D1*
X934861Y3399504D1*
X943700Y3400200D1*
X952539Y3399504D1*
X961159Y3397435D1*
X969350Y3394042D1*
X976910Y3389409D1*
X983652Y3383652D1*
X989409Y3376910D1*
X993695Y3369970D1*
X997991Y3376910D1*
X1003748Y3383652D1*
X1010490Y3389409D1*
X1018050Y3394042D1*
X1026241Y3397435D1*
X1034861Y3399504D1*
X1043700Y3400200D1*
X1052539Y3399504D1*
X1061159Y3397435D1*
X1069350Y3394042D1*
X1076910Y3389409D1*
X1083652Y3383652D1*
X1089409Y3376910D1*
X1093695Y3369970D1*
X1097991Y3376910D1*
X1103748Y3383652D1*
X1110490Y3389409D1*
X1118050Y3394042D1*
X1126241Y3397435D1*
X1134861Y3399504D1*
X1143700Y3400200D1*
X1152539Y3399504D1*
X1161159Y3397435D1*
X1169350Y3394042D1*
X1176910Y3389409D1*
X1183652Y3383652D1*
X1189409Y3376910D1*
X1193695Y3369970D1*
X1197991Y3376910D1*
X1203748Y3383652D1*
X1210490Y3389409D1*
X1218050Y3394042D1*
X1226241Y3397435D1*
X1234861Y3399504D1*
X1243700Y3400200D1*
X1252539Y3399504D1*
X1261159Y3397435D1*
X1269350Y3394042D1*
X1276910Y3389409D1*
X1283652Y3383652D1*
X1289409Y3376910D1*
X1293695Y3369970D1*
X1297991Y3376910D1*
X1303748Y3383652D1*
X1310490Y3389409D1*
X1318050Y3394042D1*
X1326241Y3397435D1*
X1334861Y3399504D1*
X1343700Y3400200D1*
X1352539Y3399504D1*
X1361159Y3397435D1*
X1369350Y3394042D1*
X1376910Y3389409D1*
X1383652Y3383652D1*
X1389409Y3376910D1*
X1393695Y3369970D1*
X1397991Y3376910D1*
X1403748Y3383652D1*
X1410490Y3389409D1*
X1418050Y3394042D1*
X1426241Y3397435D1*
X1434861Y3399504D1*
X1443700Y3400200D1*
X1452539Y3399504D1*
X1461159Y3397435D1*
X1469350Y3394042D1*
X1476910Y3389409D1*
X1483652Y3383652D1*
X1489409Y3376910D1*
X1493695Y3369970D1*
X1497991Y3376910D1*
X1503748Y3383652D1*
X1510490Y3389409D1*
X1518050Y3394042D1*
X1526241Y3397435D1*
X1534861Y3399504D1*
X1543700Y3400200D1*
X1552539Y3399504D1*
X1561208Y3397417D1*
X1561200Y3580264D1*
X1552983Y3588455D1*
X4146859Y2224727D2*
X4249728D1*
Y2112672D1*
X4137673D1*
Y2133952D1*
X4133317Y2129083D1*
X4126632Y2123373D1*
X4119136Y2118779D1*
X4111013Y2115415D1*
X4102465Y2113362D1*
X4093700Y2112672D1*
X4084935Y2113362D1*
X4076387Y2115415D1*
X4068264Y2118779D1*
X4060768Y2123373D1*
X4054083Y2129083D1*
X4048373Y2135768D1*
X4043779Y2143264D1*
X4040415Y2151387D1*
X4038362Y2159935D1*
X4037672Y2168700D1*
X4038362Y2177465D1*
X4040415Y2186013D1*
X4043779Y2194136D1*
X4048373Y2201632D1*
X4054083Y2208317D1*
X4060768Y2214027D1*
X4061200Y2214632D1*
Y2547960D1*
X4056081Y2553868D1*
X4052268Y2560089D1*
X4049476Y2566831D1*
X4047772Y2573926D1*
X4047200Y2581200D1*
X4047772Y2588474D1*
X4049476Y2595569D1*
X4052268Y2602311D1*
X4056081Y2608532D1*
X4060820Y2614080D1*
X4066368Y2618819D1*
X4072589Y2622632D1*
X4079331Y2625424D1*
X4086426Y2627128D1*
X4093700Y2627700D1*
X4100974Y2627128D1*
X4108069Y2625424D1*
X4114811Y2622632D1*
X4121032Y2618819D1*
X4126580Y2614080D1*
X4131319Y2608532D1*
X4135132Y2602311D1*
X4137924Y2595569D1*
X4139628Y2588474D1*
X4140200Y2581200D1*
X4139628Y2573926D1*
X4137924Y2566831D1*
X4135132Y2560089D1*
X4131319Y2553868D1*
X4126193Y2547961D1*
X4126200Y2214356D1*
X4133317Y2208317D1*
X4137676Y2203346D1*
X4137673Y2224727D1*
X4146859D1*
X564439Y3068754D2*
X563162Y3060694D1*
X560641Y3052934D1*
X556936Y3045663D1*
X552140Y3039062D1*
X546370Y3033292D1*
X539768Y3028495D1*
X532498Y3024791D1*
X524737Y3022269D1*
X516678Y3020993D1*
X508518D1*
X500458Y3022269D1*
X492698Y3024791D1*
X485427Y3028495D1*
X478825Y3033292D1*
X473056Y3039062D1*
X468259Y3045663D1*
X464555Y3052934D1*
X462033Y3060694D1*
X460757Y3068754D1*
Y3076914D1*
X462033Y3084973D1*
X464555Y3092734D1*
X468259Y3100004D1*
X473056Y3106606D1*
X478825Y3112376D1*
X485427Y3117172D1*
X492698Y3120877D1*
X500458Y3123398D1*
X508518Y3124675D1*
X516678D1*
X524737Y3123398D1*
X532498Y3120877D1*
X539768Y3117172D1*
X546370Y3112376D1*
X552140Y3106606D1*
X556936Y3100004D1*
X560641Y3092734D1*
X563162Y3084973D1*
X564439Y3076914D1*
Y3068754D1*
Y2753793D2*
X563162Y2745734D1*
X560641Y2737973D1*
X556936Y2730703D1*
X552140Y2724101D1*
X546370Y2718331D1*
X539768Y2713535D1*
X532498Y2709830D1*
X524737Y2707309D1*
X516678Y2706032D1*
X508518D1*
X500458Y2707309D1*
X492698Y2709830D1*
X485427Y2713535D1*
X478825Y2718331D1*
X473056Y2724101D1*
X468259Y2730703D1*
X464555Y2737973D1*
X462033Y2745734D1*
X460757Y2753793D1*
Y2761953D1*
X462033Y2770013D1*
X464555Y2777773D1*
X468259Y2785044D1*
X473056Y2791645D1*
X478825Y2797415D1*
X485427Y2802212D1*
X492698Y2805916D1*
X500458Y2808438D1*
X508518Y2809714D1*
X516678D1*
X524737Y2808438D1*
X532498Y2805916D1*
X539768Y2802212D1*
X546370Y2797415D1*
X552140Y2791645D1*
X556936Y2785044D1*
X560641Y2777773D1*
X563162Y2770013D1*
X564439Y2761953D1*
Y2753793D1*
X4628887Y2492700D2*
X4792700D1*
Y2319700D1*
X4619700D1*
Y2492700D1*
X4628887D1*
X1391387Y655200D2*
X1475320D1*
X1649679Y829583D1*
X1649700Y1143700D1*
X1650396Y1152539D1*
X1652465Y1161159D1*
X1655858Y1169350D1*
X1660491Y1176910D1*
X1666248Y1183652D1*
X1919506Y1436663D1*
X1926679Y1441874D1*
X1934578Y1445899D1*
X1943010Y1448639D1*
X1951767Y1450026D1*
X1974573Y1450200D1*
X2048133Y1450026D1*
X2056890Y1448639D1*
X2065322Y1445899D1*
X2073221Y1441874D1*
X2080394Y1436663D1*
X2086204Y1430890D1*
X2086200Y1460476D1*
X2081081Y1466368D1*
X2077268Y1472589D1*
X2074476Y1479331D1*
X2072772Y1486426D1*
X2072200Y1493700D1*
X2072772Y1500974D1*
X2074476Y1508069D1*
X2077268Y1514811D1*
X2081081Y1521032D1*
X2085820Y1526580D1*
X2091368Y1531319D1*
X2097589Y1535132D1*
X2104331Y1537924D1*
X2111426Y1539628D1*
X2118700Y1540200D1*
X2125974Y1539628D1*
X2133069Y1537924D1*
X2139811Y1535132D1*
X2146032Y1531319D1*
X2151580Y1526580D1*
X2156319Y1521032D1*
X2160132Y1514811D1*
X2162924Y1508069D1*
X2164628Y1500974D1*
X2165200Y1493700D1*
X2164628Y1486426D1*
X2162924Y1479331D1*
X2160132Y1472589D1*
X2156319Y1466368D1*
X2151193Y1460461D1*
X2151200Y1276924D1*
X2156319Y1271032D1*
X2160132Y1264811D1*
X2162924Y1258069D1*
X2164628Y1250974D1*
X2165200Y1243700D1*
X2164628Y1236426D1*
X2162924Y1229331D1*
X2160132Y1222589D1*
X2156319Y1216368D1*
X2151580Y1210820D1*
X2146032Y1206081D1*
X2139811Y1202268D1*
X2133069Y1199476D1*
X2125974Y1197772D1*
X2118700Y1197200D1*
X2111426Y1197772D1*
X2104331Y1199476D1*
X2099675Y1201307D1*
X2100200Y1193700D1*
X2099504Y1184861D1*
X2097435Y1176241D1*
X2094042Y1168050D1*
X2089409Y1160490D1*
X2083652Y1153748D1*
X2076910Y1147991D1*
X2069970Y1143705D1*
X2076910Y1139410D1*
X2083652Y1133652D1*
X2089410Y1126910D1*
X2094042Y1119350D1*
X2097435Y1111159D1*
X2099504Y1102539D1*
X2100200Y1093700D1*
X2099504Y1084861D1*
X2097435Y1076241D1*
X2094042Y1068050D1*
X2089410Y1060490D1*
X2083652Y1053748D1*
X2071954Y1042051D1*
X2076616Y1039005D1*
X2083298Y1033298D1*
X2089005Y1026616D1*
X2093596Y1019123D1*
X2096959Y1011005D1*
X2099011Y1002460D1*
X2099700Y993700D1*
X2099011Y984940D1*
X2096959Y976395D1*
X2093596Y968277D1*
X2089005Y960784D1*
X2083298Y954102D1*
X2076616Y948395D1*
X2069123Y943804D1*
X2061005Y940441D1*
X2052460Y938389D1*
X2043700Y937700D1*
X2034940Y938389D1*
X2026395Y940441D1*
X2025186Y940887D1*
X2025200Y742069D1*
X2102214Y664843D1*
X2107425Y657670D1*
X2111450Y649770D1*
X2114190Y641338D1*
X2115428Y634475D1*
X2120416Y629865D1*
X2125026Y624877D1*
X2129231Y619543D1*
X2133005Y613896D1*
X2136323Y607970D1*
X2139167Y601802D1*
X2141518Y595430D1*
X2143361Y588893D1*
X2144686Y582232D1*
X2145485Y575487D1*
X2145751Y568700D1*
X2145485Y561913D1*
X2144686Y555168D1*
X2143361Y548507D1*
X2141518Y541970D1*
X2139167Y535598D1*
X2136323Y529430D1*
X2133005Y523504D1*
X2129231Y517857D1*
X2125026Y512523D1*
X2120416Y507535D1*
X2115428Y502925D1*
X2110095Y498720D1*
X2104447Y494947D1*
X2098521Y491628D1*
X2092353Y488784D1*
X2085981Y486434D1*
X2079444Y484590D1*
X2072783Y483265D1*
X2066038Y482467D1*
X2059251Y482200D1*
X2052464Y482467D1*
X2045720Y483265D1*
X2039058Y484590D1*
X2032521Y486434D1*
X2026149Y488784D1*
X2019981Y491628D1*
X2014055Y494947D1*
X2008408Y498720D1*
X2003074Y502925D1*
X1998086Y507535D1*
X1993476Y512523D1*
X1989271Y517857D1*
X1985498Y523504D1*
X1982179Y529430D1*
X1979336Y535598D1*
X1976985Y541970D1*
X1975141Y548507D1*
X1973816Y555168D1*
X1973018Y561913D1*
X1972751Y568700D1*
X1973018Y575487D1*
X1973816Y582232D1*
X1975141Y588893D1*
X1976985Y595430D1*
X1979336Y601802D1*
X1982179Y607970D1*
X1985498Y613896D1*
X1988755Y618771D1*
X1937722Y669775D1*
X1937700Y611284D1*
X1942316Y601802D1*
X1944667Y595430D1*
X1946511Y588893D1*
X1947836Y582232D1*
X1948634Y575487D1*
X1948901Y568700D1*
X1948634Y561913D1*
X1947836Y555168D1*
X1946511Y548507D1*
X1944667Y541970D1*
X1942316Y535598D1*
X1939473Y529430D1*
X1936154Y523504D1*
X1932381Y517857D1*
X1928176Y512523D1*
X1923566Y507535D1*
X1918578Y502925D1*
X1913244Y498720D1*
X1907597Y494947D1*
X1901671Y491628D1*
X1895503Y488784D1*
X1889131Y486434D1*
X1882594Y484590D1*
X1875932Y483265D1*
X1869187Y482467D1*
X1862401Y482200D1*
X1855614Y482467D1*
X1848869Y483265D1*
X1842208Y484590D1*
X1835671Y486434D1*
X1829299Y488784D1*
X1823131Y491628D1*
X1817205Y494947D1*
X1811557Y498720D1*
X1806224Y502925D1*
X1801236Y507535D1*
X1796626Y512523D1*
X1792421Y517857D1*
X1788647Y523504D1*
X1785329Y529430D1*
X1782485Y535598D1*
X1780134Y541970D1*
X1778291Y548507D1*
X1776966Y555168D1*
X1776167Y561913D1*
X1775901Y568700D1*
X1776167Y575487D1*
X1776966Y582232D1*
X1778291Y588893D1*
X1780134Y595430D1*
X1782485Y601802D1*
X1785329Y607970D1*
X1788647Y613896D1*
X1792421Y619543D1*
X1796626Y624877D1*
X1801236Y629865D1*
X1806224Y634475D1*
X1811557Y638680D1*
X1817205Y642453D1*
X1824697Y646494D1*
X1824700Y669786D1*
X1748421Y593517D1*
X1750985Y582232D1*
X1751784Y575487D1*
X1752050Y568700D1*
X1751784Y561913D1*
X1750985Y555168D1*
X1749660Y548507D1*
X1747817Y541970D1*
X1745466Y535598D1*
X1742622Y529430D1*
X1739304Y523504D1*
X1735530Y517857D1*
X1731326Y512523D1*
X1726715Y507535D1*
X1721728Y502925D1*
X1716394Y498720D1*
X1710747Y494947D1*
X1704821Y491628D1*
X1698653Y488784D1*
X1692280Y486434D1*
X1685743Y484590D1*
X1679082Y483265D1*
X1672337Y482467D1*
X1665550Y482200D1*
X1658764Y482467D1*
X1652019Y483265D1*
X1645357Y484590D1*
X1638820Y486434D1*
X1632448Y488784D1*
X1626280Y491628D1*
X1620354Y494947D1*
X1614707Y498720D1*
X1609373Y502925D1*
X1604386Y507535D1*
X1599775Y512523D1*
X1595570Y517857D1*
X1591797Y523504D1*
X1588478Y529430D1*
X1585635Y535598D1*
X1583284Y541970D1*
X1581440Y548507D1*
X1580115Y555168D1*
X1579317Y561913D1*
X1579050Y568700D1*
X1579317Y575487D1*
X1580115Y582232D1*
X1581440Y588893D1*
X1583284Y595430D1*
X1585635Y601802D1*
X1589243Y609336D1*
X1555213Y575309D1*
X1555200Y482200D1*
X1382200D1*
Y655200D1*
X1391387D1*
X493695Y3317430D2*
X489409Y3310490D1*
X483652Y3303748D1*
X476910Y3297991D1*
X469350Y3293358D1*
X461159Y3289965D1*
X456193Y3288622D1*
X456200Y2498768D1*
X461159Y2497435D1*
X469350Y2494042D1*
X476910Y2489409D1*
X483652Y2483652D1*
X489409Y2476910D1*
X493695Y2469970D1*
X497991Y2476910D1*
X503748Y2483652D1*
X510490Y2489409D1*
X518050Y2494042D1*
X526241Y2497435D1*
X534861Y2499504D1*
X543700Y2500200D1*
X552539Y2499504D1*
X561159Y2497435D1*
X569350Y2494042D1*
X576910Y2489409D1*
X583652Y2483652D1*
X589409Y2476910D1*
X593695Y2469970D1*
X597991Y2476910D1*
X603748Y2483652D1*
X610490Y2489409D1*
X618050Y2494042D1*
X626241Y2497435D1*
X634861Y2499504D1*
X643700Y2500200D1*
X652539Y2499504D1*
X661159Y2497435D1*
X669350Y2494042D1*
X676910Y2489409D1*
X683652Y2483652D1*
X689409Y2476910D1*
X693695Y2469970D1*
X697991Y2476910D1*
X703748Y2483652D1*
X710490Y2489409D1*
X718050Y2494042D1*
X726241Y2497435D1*
X734861Y2499504D1*
X743700Y2500200D1*
X752539Y2499504D1*
X761159Y2497435D1*
X769350Y2494042D1*
X776910Y2489409D1*
X783652Y2483652D1*
X789409Y2476910D1*
X793695Y2469970D1*
X797991Y2476910D1*
X803748Y2483652D1*
X810490Y2489409D1*
X818050Y2494042D1*
X826241Y2497435D1*
X834861Y2499504D1*
X843700Y2500200D1*
X852539Y2499504D1*
X861159Y2497435D1*
X869350Y2494042D1*
X876910Y2489409D1*
X883652Y2483652D1*
X889409Y2476910D1*
X893695Y2469970D1*
X897991Y2476910D1*
X903748Y2483652D1*
X910490Y2489409D1*
X918050Y2494042D1*
X926241Y2497435D1*
X934861Y2499504D1*
X943700Y2500200D1*
X952539Y2499504D1*
X961208Y2497417D1*
X961300Y2546250D1*
X962098Y2551287D1*
X963674Y2556137D1*
X965989Y2560681D1*
X968987Y2564807D1*
X1011190Y2607152D1*
X1011200Y2672968D1*
X1006081Y2678868D1*
X1002268Y2685089D1*
X999476Y2691831D1*
X997772Y2698926D1*
X997200Y2706200D1*
X997772Y2713474D1*
X999476Y2720569D1*
X1002268Y2727311D1*
X1006081Y2733532D1*
X1010820Y2739080D1*
X1016368Y2743819D1*
X1022589Y2747632D1*
X1029331Y2750424D1*
X1036426Y2752128D1*
X1043700Y2752700D1*
X1050974Y2752128D1*
X1058069Y2750424D1*
X1061187Y2749274D1*
X1061200Y2792715D1*
X1018987Y2835093D1*
X1015989Y2839219D1*
X1013674Y2843763D1*
X1012098Y2848613D1*
X1011300Y2853650D1*
X1011200Y2920504D1*
Y3297468D1*
X1003748Y3303748D1*
X997991Y3310490D1*
X993705Y3317430D1*
X989409Y3310490D1*
X983652Y3303748D1*
X976910Y3297991D1*
X969350Y3293358D1*
X961159Y3289965D1*
X952539Y3287896D1*
X943700Y3287200D1*
X934861Y3287896D1*
X926241Y3289965D1*
X918050Y3293358D1*
X910490Y3297991D1*
X903748Y3303748D1*
X897991Y3310490D1*
X893705Y3317430D1*
X889409Y3310490D1*
X883652Y3303748D1*
X876910Y3297991D1*
X869350Y3293358D1*
X861159Y3289965D1*
X852539Y3287896D1*
X843700Y3287200D1*
X834861Y3287896D1*
X826241Y3289965D1*
X818050Y3293358D1*
X810490Y3297991D1*
X803748Y3303748D1*
X797991Y3310490D1*
X793705Y3317430D1*
X789409Y3310490D1*
X783652Y3303748D1*
X776910Y3297991D1*
X769350Y3293358D1*
X761159Y3289965D1*
X752539Y3287896D1*
X743700Y3287200D1*
X734861Y3287896D1*
X726241Y3289965D1*
X718050Y3293358D1*
X710490Y3297991D1*
X703748Y3303748D1*
X697991Y3310490D1*
X693705Y3317430D1*
X689409Y3310490D1*
X683652Y3303748D1*
X676910Y3297991D1*
X669350Y3293358D1*
X661159Y3289965D1*
X652539Y3287896D1*
X643700Y3287200D1*
X634861Y3287896D1*
X626241Y3289965D1*
X618050Y3293358D1*
X610490Y3297991D1*
X603748Y3303748D1*
X597991Y3310490D1*
X593705Y3317430D1*
X589409Y3310490D1*
X583652Y3303748D1*
X576910Y3297991D1*
X569350Y3293358D1*
X561159Y3289965D1*
X552539Y3287896D1*
X543700Y3287200D1*
X534861Y3287896D1*
X526241Y3289965D1*
X518050Y3293358D1*
X510490Y3297991D1*
X503748Y3303748D1*
X497991Y3310490D1*
X493705Y3317430D1*
X824527Y989306D2*
X823153Y980627D1*
X820437Y972270D1*
X816448Y964440D1*
X811283Y957331D1*
X805069Y951117D1*
X797960Y945952D1*
X794123Y943596D1*
X801616Y939005D1*
X808298Y933298D1*
X814005Y926616D1*
X818596Y919123D1*
X821959Y911005D1*
X824011Y902460D1*
X824700Y893700D1*
X824011Y884940D1*
X821959Y876395D1*
X818596Y868277D1*
X814005Y860784D1*
X808298Y854102D1*
X801616Y848395D1*
X794123Y843804D1*
X786005Y840441D1*
X777460Y838389D1*
X768700Y837700D1*
X759940Y838389D1*
X751395Y840441D1*
X743277Y843804D1*
X735784Y848395D1*
X729102Y854102D1*
X723395Y860784D1*
X718804Y868277D1*
X715441Y876395D1*
X713389Y884940D1*
X712700Y893700D1*
X713389Y902460D1*
X715441Y911005D1*
X718804Y919123D1*
X723395Y926616D1*
X729102Y933298D1*
X735784Y939005D1*
X743479Y943690D1*
X735784Y948395D1*
X729102Y954102D1*
X723395Y960784D1*
X718804Y968277D1*
X715441Y976395D1*
X713389Y984940D1*
X712700Y993700D1*
X713389Y1002460D1*
X715441Y1011005D1*
X718804Y1019123D1*
X723395Y1026616D1*
X729102Y1033298D1*
X735784Y1039005D1*
X743277Y1043596D1*
X751395Y1046959D1*
X759940Y1049011D1*
X768700Y1049700D1*
X777460Y1049011D1*
X786005Y1046959D1*
X794123Y1043596D1*
X801616Y1039005D1*
X808298Y1033298D1*
X814005Y1026616D1*
X818596Y1019123D1*
X821959Y1011005D1*
X824011Y1002460D1*
X824700Y993700D1*
X824527Y989306D1*
X1324527Y1589306D2*
X1323153Y1580627D1*
X1320437Y1572270D1*
X1316448Y1564440D1*
X1311283Y1557331D1*
X1305069Y1551117D1*
X1297960Y1545952D1*
X1290130Y1541963D1*
X1281773Y1539247D1*
X1273094Y1537873D1*
X1264306D1*
X1255627Y1539247D1*
X1247270Y1541963D1*
X1239440Y1545952D1*
X1232331Y1551117D1*
X1226117Y1557331D1*
X1220952Y1564440D1*
X1216963Y1572270D1*
X1214247Y1580627D1*
X1212873Y1589306D1*
Y1598094D1*
X1214247Y1606773D1*
X1216963Y1615130D1*
X1220952Y1622960D1*
X1226117Y1630069D1*
X1232331Y1636283D1*
X1239440Y1641448D1*
X1247270Y1645437D1*
X1255627Y1648153D1*
X1264306Y1649527D1*
X1273094D1*
X1281773Y1648153D1*
X1290130Y1645437D1*
X1297960Y1641448D1*
X1305069Y1636283D1*
X1311283Y1630069D1*
X1316448Y1622960D1*
X1320437Y1615130D1*
X1323153Y1606773D1*
X1324527Y1598094D1*
Y1589306D1*
X1518479Y1443710D2*
X1510784Y1448395D1*
X1504102Y1454102D1*
X1498395Y1460784D1*
X1493804Y1468277D1*
X1490441Y1476395D1*
X1488701Y1483373D1*
X1488700Y1404257D1*
X1490441Y1411005D1*
X1493804Y1419123D1*
X1498395Y1426616D1*
X1504102Y1433298D1*
X1510784Y1439005D1*
X1518479Y1443690D1*
Y1343710D2*
X1510784Y1348395D1*
X1504102Y1354102D1*
X1498395Y1360784D1*
X1493804Y1368277D1*
X1490441Y1376395D1*
X1488701Y1383373D1*
X1488700Y1304212D1*
X1490441Y1311005D1*
X1493804Y1319123D1*
X1498395Y1326616D1*
X1504102Y1333298D1*
X1510784Y1339005D1*
X1518479Y1343690D1*
Y1243710D2*
X1510784Y1248395D1*
X1504102Y1254102D1*
X1498395Y1260784D1*
X1493804Y1268277D1*
X1490441Y1276395D1*
X1488701Y1283373D1*
X1488700Y1204239D1*
X1490441Y1211005D1*
X1493804Y1219123D1*
X1498395Y1226616D1*
X1504102Y1233298D1*
X1510784Y1239005D1*
X1518479Y1243690D1*
X2099527Y1589306D2*
X2098153Y1580627D1*
X2095437Y1572270D1*
X2091448Y1564440D1*
X2086283Y1557331D1*
X2080069Y1551117D1*
X2072960Y1545952D1*
X2065130Y1541963D1*
X2056773Y1539247D1*
X2048094Y1537873D1*
X2039306D1*
X2030627Y1539247D1*
X2022270Y1541963D1*
X2014440Y1545952D1*
X2007331Y1551117D1*
X2001117Y1557331D1*
X1995952Y1564440D1*
X1991963Y1572270D1*
X1989247Y1580627D1*
X1987873Y1589306D1*
Y1598094D1*
X1989247Y1606773D1*
X1991963Y1615130D1*
X1995952Y1622960D1*
X2001117Y1630069D1*
X2007331Y1636283D1*
X2014440Y1641448D1*
X2022270Y1645437D1*
X2030627Y1648153D1*
X2039306Y1649527D1*
X2048094D1*
X2056773Y1648153D1*
X2065130Y1645437D1*
X2072960Y1641448D1*
X2080069Y1636283D1*
X2086283Y1630069D1*
X2091448Y1622960D1*
X2095437Y1615130D1*
X2098153Y1606773D1*
X2099527Y1598094D1*
Y1589306D1*
X2318479Y1343710D2*
X2310784Y1348395D1*
X2304102Y1354102D1*
X2298395Y1360784D1*
X2293804Y1368277D1*
X2290441Y1376395D1*
X2288701Y1383373D1*
X2288700Y1304249D1*
X2290441Y1311005D1*
X2293804Y1319123D1*
X2298395Y1326616D1*
X2304102Y1333298D1*
X2310784Y1339005D1*
X2318479Y1343690D1*
Y1243710D2*
X2310784Y1248395D1*
X2304102Y1254102D1*
X2298395Y1260784D1*
X2293804Y1268277D1*
X2290441Y1276395D1*
X2288701Y1283373D1*
X2288700Y1204204D1*
X2290441Y1211005D1*
X2293804Y1219123D1*
X2298395Y1226616D1*
X2304102Y1233298D1*
X2310784Y1239005D1*
X2318479Y1243690D1*
X2493690Y1568479D2*
X2489005Y1560784D1*
X2483298Y1554102D1*
X2476616Y1548395D1*
X2469123Y1543804D1*
X2461005Y1540441D1*
X2452460Y1538389D1*
X2443700Y1537700D1*
X2434940Y1538389D1*
X2426395Y1540441D1*
X2418277Y1543804D1*
X2410784Y1548395D1*
X2404102Y1554102D1*
X2398395Y1560784D1*
X2393804Y1568277D1*
X2390441Y1576395D1*
X2388389Y1584940D1*
X2387700Y1593700D1*
X2388389Y1602460D1*
X2390441Y1611005D1*
X2393804Y1619123D1*
X2398395Y1626616D1*
X2404102Y1633298D1*
X2410784Y1639005D1*
X2418277Y1643596D1*
X2426395Y1646959D1*
X2434940Y1649011D1*
X2443700Y1649700D1*
X2452460Y1649011D1*
X2461005Y1646959D1*
X2469123Y1643596D1*
X2476616Y1639005D1*
X2483298Y1633298D1*
X2489005Y1626616D1*
X2493690Y1618921D1*
X2498395Y1626616D1*
X2504102Y1633298D1*
X2511198Y1639282D1*
X2511200Y2168529D1*
X2483821Y2168629D1*
X2478784Y2169427D1*
X2473933Y2171003D1*
X2469389Y2173319D1*
X2465263Y2176316D1*
X2417919Y2223518D1*
X2331487Y2310093D1*
X2328489Y2314219D1*
X2326174Y2318763D1*
X2324598Y2323613D1*
X2323800Y2328650D1*
X2323700Y2395504D1*
Y2722948D1*
X2318581Y2728868D1*
X2314768Y2735089D1*
X2311976Y2741831D1*
X2310272Y2748926D1*
X2309700Y2756200D1*
X2310272Y2763474D1*
X2311976Y2770569D1*
X2314768Y2777311D1*
X2318581Y2783532D1*
X2323320Y2789080D1*
X2328868Y2793819D1*
X2335089Y2797632D1*
X2341831Y2800424D1*
X2348926Y2802128D1*
X2356200Y2802700D1*
X2363474Y2802128D1*
X2370569Y2800424D1*
X2377311Y2797632D1*
X2383532Y2793819D1*
X2389080Y2789080D1*
X2393819Y2783532D1*
X2397632Y2777311D1*
X2400424Y2770569D1*
X2402128Y2763474D1*
X2402700Y2756200D1*
X2402128Y2748926D1*
X2400424Y2741831D1*
X2397632Y2735089D1*
X2393819Y2728868D1*
X2388693Y2722961D1*
X2388700Y2344644D1*
X2499834Y2233528D1*
X2546250Y2233429D1*
X2551287Y2232632D1*
X2556137Y2231056D1*
X2560681Y2228740D1*
X2564807Y2225743D1*
X2568413Y2222137D1*
X2571411Y2218011D1*
X2573726Y2213467D1*
X2575302Y2208616D1*
X2576100Y2203579D1*
X2576200Y2136725D1*
Y1639334D1*
X2583298Y1633298D1*
X2589005Y1626616D1*
X2593596Y1619123D1*
X2596959Y1611005D1*
X2599011Y1602460D1*
X2599700Y1593700D1*
X2599011Y1584940D1*
X2596959Y1576395D1*
X2593596Y1568277D1*
X2589005Y1560784D1*
X2583298Y1554102D1*
X2576616Y1548395D1*
X2569123Y1543804D1*
X2561005Y1540441D1*
X2552460Y1538389D1*
X2543700Y1537700D1*
X2534940Y1538389D1*
X2526395Y1540441D1*
X2518277Y1543804D1*
X2510784Y1548395D1*
X2504102Y1554102D1*
X2498395Y1560784D1*
X2493710Y1568479D1*
X3749527Y1589306D2*
X3748153Y1580627D1*
X3745437Y1572270D1*
X3741448Y1564440D1*
X3736283Y1557331D1*
X3730069Y1551117D1*
X3722960Y1545952D1*
X3715130Y1541963D1*
X3706773Y1539247D1*
X3698094Y1537873D1*
X3689306D1*
X3680627Y1539247D1*
X3672270Y1541963D1*
X3664440Y1545952D1*
X3657331Y1551117D1*
X3651117Y1557331D1*
X3645952Y1564440D1*
X3641963Y1572270D1*
X3639247Y1580627D1*
X3637873Y1589306D1*
Y1598094D1*
X3639247Y1606773D1*
X3641963Y1615130D1*
X3645952Y1622960D1*
X3651117Y1630069D1*
X3657331Y1636283D1*
X3664440Y1641448D1*
X3672270Y1645437D1*
X3680627Y1648153D1*
X3689306Y1649527D1*
X3698094D1*
X3706773Y1648153D1*
X3715130Y1645437D1*
X3722960Y1641448D1*
X3730069Y1636283D1*
X3736283Y1630069D1*
X3741448Y1622960D1*
X3745437Y1615130D1*
X3748153Y1606773D1*
X3749527Y1598094D1*
Y1589306D1*
X3343690Y1568479D2*
X3339005Y1560784D1*
X3333298Y1554102D1*
X3326616Y1548395D1*
X3319123Y1543804D1*
X3311005Y1540441D1*
X3302460Y1538389D1*
X3293700Y1537700D1*
X3284940Y1538389D1*
X3276395Y1540441D1*
X3268277Y1543804D1*
X3260784Y1548395D1*
X3254102Y1554102D1*
X3248395Y1560784D1*
X3243804Y1568277D1*
X3240441Y1576395D1*
X3238389Y1584940D1*
X3237700Y1593700D1*
X3238389Y1602460D1*
X3240441Y1611005D1*
X3243804Y1619123D1*
X3248395Y1626616D1*
X3254102Y1633298D1*
X3260784Y1639005D1*
X3268277Y1643596D1*
X3276395Y1646959D1*
X3284940Y1649011D1*
X3293700Y1649700D1*
X3302460Y1649011D1*
X3311005Y1646959D1*
X3319123Y1643596D1*
X3326616Y1639005D1*
X3333298Y1633298D1*
X3339005Y1626616D1*
X3343690Y1618921D1*
X3348395Y1626616D1*
X3354102Y1633298D1*
X3361198Y1639282D1*
X3361200Y2760474D1*
X3356081Y2766368D1*
X3352268Y2772589D1*
X3349476Y2779331D1*
X3347772Y2786426D1*
X3347200Y2793700D1*
X3347772Y2800974D1*
X3349476Y2808069D1*
X3352268Y2814811D1*
X3356081Y2821032D1*
X3360820Y2826580D1*
X3366368Y2831319D1*
X3372589Y2835132D1*
X3379331Y2837924D1*
X3386426Y2839628D1*
X3393700Y2840200D1*
X3400974Y2839628D1*
X3408069Y2837924D1*
X3414811Y2835132D1*
X3421032Y2831319D1*
X3426580Y2826580D1*
X3431319Y2821032D1*
X3435132Y2814811D1*
X3437924Y2808069D1*
X3439628Y2800974D1*
X3440200Y2793700D1*
X3439628Y2786426D1*
X3437924Y2779331D1*
X3435132Y2772589D1*
X3431319Y2766368D1*
X3426193Y2760461D1*
X3426200Y1639270D1*
X3430069Y1636283D1*
X3436283Y1630069D1*
X3441448Y1622960D1*
X3445437Y1615130D1*
X3448153Y1606773D1*
X3449527Y1598094D1*
Y1589306D1*
X3448153Y1580627D1*
X3445437Y1572270D1*
X3441448Y1564440D1*
X3436283Y1557331D1*
X3430069Y1551117D1*
X3422960Y1545952D1*
X3415130Y1541963D1*
X3406773Y1539247D1*
X3398094Y1537873D1*
X3389306D1*
X3380627Y1539247D1*
X3372270Y1541963D1*
X3364440Y1545952D1*
X3357331Y1551117D1*
X3351117Y1557331D1*
X3345952Y1564440D1*
X3343710Y1568479D1*
X3928057Y2788052D2*
X3926915Y2780845D1*
X3924660Y2773905D1*
X3921348Y2767404D1*
X3917059Y2761501D1*
X3911899Y2756341D1*
X3905996Y2752052D1*
X3899495Y2748740D1*
X3892555Y2746485D1*
X3885348Y2745343D1*
X3878052D1*
X3870845Y2746485D1*
X3863905Y2748740D1*
X3857404Y2752052D1*
X3851501Y2756341D1*
X3846341Y2761501D1*
X3842052Y2767404D1*
X3838740Y2773905D1*
X3837530Y2777184D1*
X3733143Y2881748D1*
X3729315Y2887016D1*
X3726359Y2892819D1*
X3724346Y2899012D1*
X3723328Y2905444D1*
X3723200Y2945445D1*
Y3509652D1*
X3719373Y3513111D1*
X3714635Y3518659D1*
X3710822Y3524881D1*
X3708030Y3531622D1*
X3706326Y3538717D1*
X3705754Y3545991D1*
X3706326Y3553266D1*
X3708030Y3560361D1*
X3710822Y3567102D1*
X3714635Y3573323D1*
X3719373Y3578872D1*
X3724922Y3583611D1*
X3731143Y3587423D1*
X3737885Y3590215D1*
X3744980Y3591919D1*
X3752254Y3592491D1*
X3759528Y3591919D1*
X3766623Y3590215D1*
X3773364Y3587423D1*
X3779586Y3583611D1*
X3785134Y3578872D1*
X3789873Y3573323D1*
X3793686Y3567102D1*
X3796528Y3560182D1*
X3800085Y3555229D1*
X3803041Y3549427D1*
X3805053Y3543233D1*
X3806072Y3536801D1*
X3806200Y3496800D1*
Y2925918D1*
X3896226Y2835864D1*
X3902811Y2833132D1*
X3909032Y2829319D1*
X3914580Y2824580D1*
X3919319Y2819032D1*
X3923132Y2812811D1*
X3925924Y2806069D1*
X3927628Y2798974D1*
X3928200Y2791700D1*
X3928057Y2788052D1*
X1589934Y2551518D2*
X1588915Y2545345D1*
X1586660Y2538405D1*
X1583348Y2531904D1*
X1579059Y2526001D1*
X1576193Y2522961D1*
D31*
X2543700Y3543700D3*
D32*
X2443700D3*
X2543700Y3643700D3*
X2443700D3*
D31*
X3281200Y3168700D3*
D32*
X3181200D3*
X3281200Y3268700D3*
X3181200D3*
D31*
X443700Y2343700D3*
D32*
X543700D3*
X643700D3*
X743700D3*
X843700D3*
X943700D3*
X1043700D3*
X1143700D3*
X1243700D3*
X1343700D3*
X1443700D3*
X1543700D3*
X1643700D3*
X1743700D3*
X1843700D3*
X1943700D3*
X2043700D3*
X2143700D3*
X2243700D3*
D31*
X2043700Y3643700D3*
D32*
Y3543700D3*
X1943700Y3643700D3*
Y3543700D3*
X1843700Y3643700D3*
Y3543700D3*
X1743700Y3643700D3*
Y3543700D3*
X1643700Y3643700D3*
Y3543700D3*
X1543700Y3643700D3*
Y3543700D3*
D33*
X2843700D3*
D34*
X2943700D3*
X3043700D3*
D31*
X2043700Y2993700D3*
D32*
Y2893700D3*
D31*
X1943700Y2993700D3*
D32*
Y2893700D3*
D31*
X1843700Y2993700D3*
D32*
Y2893700D3*
D31*
X1743700Y2993700D3*
D32*
Y2893700D3*
D31*
X4193700Y2168700D3*
D32*
X4093700D3*
D31*
X2993700Y1143700D3*
D32*
Y1243700D3*
D35*
X4251968Y1574802D3*
D36*
X4015747Y1496062D3*
D35*
X4488188D3*
X4015747Y1015747D3*
X4488188D3*
D38*
X531495Y944881D3*
X4744094Y3562991D3*
X531495D3*
X4744094Y944881D3*
D45*
X4706200Y2406200D3*
D46*
Y2603050D3*
D45*
X4168700Y568700D3*
D46*
X4365550D3*
D45*
X618700D3*
D46*
X815550D3*
X1012401D3*
X1209251D3*
D45*
X1468700D3*
D46*
X1665550D3*
X1862401D3*
X2059251D3*
D45*
X2318700D3*
D46*
X2515550D3*
X2712401D3*
X2909251D3*
D45*
X3168700D3*
D46*
X3365550D3*
X3562401D3*
X3759251D3*
D19*
X443700Y3343700D3*
X543700D3*
X643700D3*
X743700D3*
X843700D3*
X943700D3*
X1043700D3*
X1143700D3*
X1243700D3*
X1343700D3*
X1443700D3*
X1543700D3*
X1643700D3*
X1743700D3*
X1843700D3*
X1943700D3*
X2043700D3*
X2143700D3*
X2243700D3*
X443700Y2443700D3*
X543700D3*
X643700D3*
X743700D3*
X843700D3*
X943700D3*
X1043700D3*
X1143700D3*
X1243700D3*
X1343700D3*
X1443700D3*
X1543700D3*
X1643700D3*
X1743700D3*
X1843700D3*
X1943700D3*
X2043700D3*
X2143700D3*
X2243700D3*
D47*
X768700Y1593700D3*
D48*
Y1493700D3*
Y1393700D3*
Y1293700D3*
Y1193700D3*
Y1093700D3*
Y993700D3*
Y893700D3*
X1268700D3*
Y993700D3*
Y1093700D3*
Y1193700D3*
Y1293700D3*
Y1393700D3*
Y1493700D3*
Y1593700D3*
X868700D3*
X968700D3*
D47*
X1543700D3*
D48*
Y1493700D3*
Y1393700D3*
Y1293700D3*
Y1193700D3*
Y1093700D3*
Y993700D3*
Y893700D3*
X2043700D3*
Y993700D3*
Y1093700D3*
Y1193700D3*
Y1293700D3*
Y1393700D3*
Y1493700D3*
Y1593700D3*
X1643700D3*
X1743700D3*
D47*
X2343700D3*
D48*
Y1493700D3*
Y1393700D3*
Y1293700D3*
Y1193700D3*
Y1093700D3*
Y993700D3*
Y893700D3*
X2843700D3*
Y993700D3*
Y1093700D3*
Y1193700D3*
Y1293700D3*
Y1393700D3*
Y1493700D3*
Y1593700D3*
X2443700D3*
X2543700D3*
D47*
X3193700D3*
D48*
Y1493700D3*
Y1393700D3*
Y1293700D3*
Y1193700D3*
Y1093700D3*
Y993700D3*
Y893700D3*
X3693700D3*
Y993700D3*
Y1093700D3*
Y1193700D3*
Y1293700D3*
Y1393700D3*
Y1493700D3*
Y1593700D3*
X3293700D3*
X3393700D3*
M02*
