M48
INCH
T01C0.013
T02C0.0191
T03C0.035
T04C0.0354
T05C0.0394
T06C0.0433
T07C0.0512
T08C0.063
T09C0.14
%
T01
X+039597Y+030907
X+039857Y+030907
X+040117Y+030907
X+040117Y+030517
X+039857Y+030517
X+039597Y+030517
X+039597Y+030127
X+039857Y+030127
X+040117Y+030127
X+042073Y+034030
X+042073Y+034420
T02
X+006062Y+031812
X+005937Y+032812
X+004937Y+032812
X+009062Y+032312
X+008937Y+030062
X+010437Y+027062
X+008562Y+026062
X+005937Y+026062
X+005937Y+025062
X+004937Y+025062
X+004937Y+022687
X+005937Y+022687
X+007437Y+021562
X+008437Y+022312
X+010937Y+021937
X+011937Y+022687
X+010062Y+019937
X+006937Y+019437
X+006937Y+018937
X+006937Y+018437
X+013437Y+014937
X+013437Y+012437
X+014687Y+018437
X+014687Y+018937
X+014687Y+019437
X+015437Y+025562
X+016437Y+026687
X+017437Y+027937
X+018437Y+027562
X+017437Y+025187
X+015437Y+028312
X+014419Y+029669
X+014937Y+030535
X+013937Y+031562
X+012437Y+031562
X+012428Y+028803
X+013379Y+028370
X+012437Y+026312
X+017437Y+030937
X+018437Y+030937
X+019437Y+030937
X+020437Y+030937
X+020437Y+032185
X+019437Y+032185
X+018437Y+032185
X+017437Y+032185
X+021437Y+035437
X+024687Y+033437
X+024937Y+032687
X+024062Y+031062
X+022437Y+030312
X+023562Y+027562
X+022437Y+025937
X+021437Y+026312
X+021187Y+027062
X+022312Y+022687
X+021937Y+021562
X+021437Y+021187
X+021062Y+022312
X+023187Y+019437
X+023187Y+018937
X+023187Y+018437
X+021187Y+014937
X+021187Y+012437
X+032687Y+011437
X+032687Y+014937
X+031687Y+018437
X+031687Y+018937
X+031687Y+019437
X+031437Y+025562
X+031812Y+026687
X+029937Y+026687
X+030687Y+028312
X+033937Y+027937
X+038817Y+027917
X+040937Y+025812
X+040937Y+020562
X+037523Y+035460
X+027812Y+033062
X+027000Y+030749
X+025937Y+030812
T03
X+004437Y+033437
X+005437Y+033437
X+006437Y+033437
X+007437Y+033437
X+008437Y+033437
X+009437Y+033437
X+010437Y+033437
X+011437Y+033437
X+012437Y+033437
X+013437Y+033437
X+014437Y+033437
X+015437Y+033437
X+016437Y+033437
X+017437Y+033437
X+018437Y+033437
X+019437Y+033437
X+020437Y+033437
X+021437Y+033437
X+022437Y+033437
X+022437Y+024437
X+021437Y+024437
X+020437Y+024437
X+019437Y+024437
X+018437Y+024437
X+017437Y+024437
X+016437Y+024437
X+015437Y+024437
X+014437Y+024437
X+013437Y+024437
X+012437Y+024437
X+011437Y+024437
X+010437Y+024437
X+009437Y+024437
X+008437Y+024437
X+007437Y+024437
X+006437Y+024437
X+005437Y+024437
X+004437Y+024437
X+007687Y+015937
X+007687Y+014937
X+007687Y+013937
X+007687Y+012937
X+007687Y+011937
X+007687Y+010937
X+007687Y+009937
X+007687Y+008937
X+012687Y+008937
X+012687Y+009937
X+012687Y+010937
X+012687Y+011937
X+012687Y+012937
X+012687Y+013937
X+012687Y+014937
X+012687Y+015937
X+015437Y+015937
X+015437Y+014937
X+015437Y+013937
X+015437Y+012937
X+015437Y+011937
X+015437Y+010937
X+015437Y+009937
X+015437Y+008937
X+020437Y+008937
X+020437Y+009937
X+020437Y+010937
X+020437Y+011937
X+020437Y+012937
X+020437Y+013937
X+020437Y+014937
X+020437Y+015937
X+017437Y+015937
X+016437Y+015937
X+009687Y+015937
X+008687Y+015937
X+023437Y+015937
X+023437Y+014937
X+023437Y+013937
X+023437Y+012937
X+023437Y+011937
X+023437Y+010937
X+023437Y+009937
X+023437Y+008937
X+028437Y+008937
X+028437Y+009937
X+028437Y+010937
X+028437Y+011937
X+028437Y+012937
X+028437Y+013937
X+028437Y+014937
X+028437Y+015937
X+025437Y+015937
X+024437Y+015937
X+031937Y+015937
X+031937Y+014937
X+031937Y+013937
X+031937Y+012937
X+031937Y+011937
X+031937Y+010937
X+031937Y+009937
X+031937Y+008937
X+036937Y+008937
X+036937Y+009937
X+036937Y+010937
X+036937Y+011937
X+036937Y+012937
X+036937Y+013937
X+036937Y+014937
X+036937Y+015937
X+033937Y+015937
X+032937Y+015937
T04
X+025437Y+035437
X+024437Y+035437
X+024437Y+036437
X+025437Y+036437
X+020437Y+036437
X+020437Y+035437
X+019437Y+035437
X+019437Y+036437
X+018437Y+036437
X+018437Y+035437
X+017437Y+035437
X+017437Y+036437
X+016437Y+036437
X+016437Y+035437
X+015437Y+035437
X+015437Y+036437
X+017437Y+029937
X+017437Y+028937
X+018437Y+028937
X+019437Y+028937
X+020437Y+028937
X+020437Y+029937
X+019437Y+029937
X+018437Y+029937
X+018437Y+023437
X+019437Y+023437
X+020437Y+023437
X+021437Y+023437
X+022437Y+023437
X+017437Y+023437
X+016437Y+023437
X+015437Y+023437
X+014437Y+023437
X+013437Y+023437
X+012437Y+023437
X+011437Y+023437
X+010437Y+023437
X+009437Y+023437
X+008437Y+023437
X+007437Y+023437
X+006437Y+023437
X+005437Y+023437
X+004437Y+023437
X+029937Y+012437
X+029937Y+011437
X+040937Y+021687
X+041937Y+021687
X+032812Y+031687
X+032812Y+032687
X+031812Y+032687
X+031812Y+031687
T05
X+005126Y+030728
X+005126Y+027579
T06
X+028437Y+035437
X+029437Y+035437
X+030437Y+035437
T07
X+042520Y+015748
X+040157Y+014961
X+044882Y+014961
X+044882Y+010157
X+040157Y+010157
T08
X+047062Y+024062
X+047062Y+026031
X+043656Y+005687
X+041687Y+005687
X+037593Y+005687
X+035624Y+005687
X+033656Y+005687
X+031687Y+005687
X+029093Y+005687
X+027124Y+005687
X+025156Y+005687
X+023187Y+005687
X+020593Y+005687
X+018624Y+005687
X+016656Y+005687
X+014687Y+005687
X+012093Y+005687
X+010124Y+005687
X+008156Y+005687
X+006187Y+005687
T09
X+005315Y+009449
X+005315Y+035630
X+047441Y+035630
X+047441Y+009449
T00
M30
