G04 DipTrace 3.3.1.3*
G04 TopSilk.gbr*
%MOIN*%
G04 #@! TF.FileFunction,Legend,Top*
G04 #@! TF.Part,Single*
%ADD10C,0.009843*%
%ADD22C,0.008*%
%ADD23C,0.01*%
%ADD24C,0.0151*%
%ADD25C,0.031465*%
%ADD29C,0.019695*%
%ADD49C,0.019705*%
%ADD52C,0.015395*%
%ADD124C,0.006176*%
%ADD125C,0.00772*%
%ADD126C,0.004632*%
%ADD128C,0.010807*%
%FSLAX26Y26*%
G04*
G70*
G90*
G75*
G01*
G04 TopSilk*
%LPD*%
X801170Y1687007D2*
D10*
Y1830720D1*
Y1687007D2*
X1141753D1*
X801170Y1948806D2*
Y2092519D1*
X1141753D1*
X1206702Y1751970D2*
Y1830720D1*
Y1948806D2*
Y2027556D1*
Y1751970D2*
X1141753Y1687007D1*
X1206702Y2027556D2*
X1141753Y2092519D1*
D25*
X1240133Y1818900D3*
X1563769Y1690944D2*
D10*
Y1834657D1*
Y1690944D2*
X1904352D1*
X1563769Y1952743D2*
Y2096456D1*
X1904352D1*
X1969300Y1755907D2*
Y1834657D1*
Y1952743D2*
Y2031493D1*
Y1755907D2*
X1904352Y1690944D1*
X1969300Y2031493D2*
X1904352Y2096456D1*
D25*
X2002731Y1822837D3*
X2413769Y1690944D2*
D10*
Y1834657D1*
Y1690944D2*
X2754352D1*
X2413769Y1952743D2*
Y2096456D1*
X2754352D1*
X2819300Y1755907D2*
Y1834657D1*
Y1952743D2*
Y2031493D1*
Y1755907D2*
X2754352Y1690944D1*
X2819300Y2031493D2*
X2754352Y2096456D1*
D25*
X2852731Y1822837D3*
X3263769Y1690944D2*
D10*
Y1834657D1*
Y1690944D2*
X3604352D1*
X3263769Y1952743D2*
Y2096456D1*
X3604352D1*
X3669300Y1755907D2*
Y1834657D1*
Y1952743D2*
Y2031493D1*
Y1755907D2*
X3604352Y1690944D1*
X3669300Y2031493D2*
X3604352Y2096456D1*
D25*
X3702731Y1822837D3*
X3977340Y3176129D2*
D10*
Y3227271D1*
X4149235Y3143913D2*
X4212165D1*
X4149235Y3151361D2*
X4212165D1*
X4149235D2*
Y3127802D1*
X4212165Y3151361D2*
Y3127802D1*
X4178931Y3478508D2*
X4116002D1*
X4178931Y3471060D2*
X4116002D1*
X4178931D2*
Y3494619D1*
X4116002Y3471060D2*
Y3494619D1*
X3845060Y3051271D2*
Y3000129D1*
X779321Y3533066D2*
Y3552755D1*
X1015545D1*
Y3533066D1*
X779321Y3454334D2*
Y3434645D1*
X1015545D1*
Y3454334D1*
X877767Y3533066D2*
Y3454334D1*
D29*
X749807Y3493700D3*
X3979321Y3358066D2*
D10*
Y3377755D1*
X4215545D1*
Y3358066D1*
X3979321Y3279334D2*
Y3259645D1*
X4215545D1*
Y3279334D1*
X4077767Y3358066D2*
Y3279334D1*
D29*
X3949807Y3318700D3*
X4370579Y1841834D2*
D10*
Y1822145D1*
X4134355D1*
Y1841834D1*
X4370579Y1920566D2*
Y1940255D1*
X4134355D1*
Y1920566D1*
X4272133Y1841834D2*
Y1920566D1*
D29*
X4400093Y1881200D3*
X2393700Y3493700D2*
D10*
Y3693700D1*
X2593700Y3493700D2*
X2393700D1*
X2593700Y3693700D2*
X2393700D1*
X2593700Y3493700D2*
Y3693700D1*
X3131200Y3118700D2*
Y3318700D1*
X3331200Y3118700D2*
X3131200D1*
X3331200Y3318700D2*
X3131200D1*
X3331200Y3118700D2*
Y3318700D1*
X1919400Y2393700D2*
X1927000D1*
X467800D2*
X2293700D1*
X393700D2*
X467800D1*
X393700Y2293700D2*
Y2393700D1*
Y2293700D2*
X2293700D1*
Y2393700D1*
X2093700Y3693700D2*
X1493700D1*
Y3493700D1*
X2093700D2*
X1493700D1*
X2093700Y3693700D2*
Y3493700D1*
X2793719Y3593705D2*
X3093681D1*
Y3493700D1*
X2793719D1*
Y3593705D1*
X1993700Y2843700D2*
X2093700D1*
X1993700Y3043700D2*
Y2843700D1*
Y3043700D2*
X2093700D1*
Y2843700D1*
X1893700D2*
X1993700D1*
X1893700Y3043700D2*
Y2843700D1*
Y3043700D2*
X1993700D1*
Y2843700D1*
X1793700D2*
X1893700D1*
X1793700Y3043700D2*
Y2843700D1*
Y3043700D2*
X1893700D1*
Y2843700D1*
X1693700D2*
X1793700D1*
X1693700Y3043700D2*
Y2843700D1*
Y3043700D2*
X1793700D1*
Y2843700D1*
X4043700Y2218700D2*
Y2118700D1*
X4243700Y2218700D2*
X4043700D1*
X4243700D2*
Y2118700D1*
X4043700D1*
X3043700Y1293700D2*
X2943700D1*
X3043700Y1093700D2*
Y1293700D1*
Y1093700D2*
X2943700D1*
Y1293700D1*
X3964955Y803149D2*
G02X3940944Y827180I3J24014D01*
G01*
Y1637385D1*
G02X3964955Y1661417I24014J18D01*
G01*
X4538980D1*
G02X4562991Y1637385I-3J-24014D01*
G01*
Y827180D1*
G02X4538980Y803149I-24014J-18D01*
G01*
X3964955D1*
X3712518Y3194610D2*
X3653459D1*
Y3509577D1*
X3712518D1*
X3869990D2*
X3929049D1*
Y3194610D1*
X3869990D1*
X4232481Y2001085D2*
X4134059D1*
Y2032574D1*
X4232481D1*
Y2001085D1*
X394291Y3183446D2*
X419311Y3158471D1*
X394291Y3233464D2*
X994291D1*
Y2558464D1*
X394291D1*
Y3233464D1*
X419311Y3158471D2*
Y2633456D1*
X394291Y2608481D1*
X419311Y2908451D2*
X594271D1*
X569311Y2958469D1*
X594271Y2908451D2*
X569311Y2858434D1*
X4509350Y2307775D2*
X4863680D1*
Y2701476D1*
X4509350D1*
Y2307775D1*
X4814464Y2347145D2*
X4863680D1*
Y2465255D1*
X4814464D1*
Y2347145D1*
Y2543995D2*
X4863680D1*
Y2662106D1*
X4814464D1*
Y2543995D1*
X4070275Y765550D2*
X4463976D1*
Y411220D1*
X4070275D1*
Y765550D1*
X4109645Y460436D2*
X4227755D1*
Y411220D1*
X4109645D1*
Y460436D1*
X4306495D2*
X4424606D1*
Y411220D1*
X4306495D1*
Y460436D1*
X520275Y765550D2*
X1307676D1*
Y411220D1*
X520275D1*
Y765550D1*
X559645Y460436D2*
X677755D1*
Y411220D1*
X559645D1*
Y460436D1*
X756495D2*
X874606D1*
Y411220D1*
X756495D1*
Y460436D1*
X953346D2*
X1071456D1*
Y411220D1*
X953346D1*
Y460436D1*
X1150196D2*
X1268306D1*
Y411220D1*
X1150196D1*
Y460436D1*
X1370275Y765550D2*
X2157676D1*
Y411220D1*
X1370275D1*
Y765550D1*
X1409645Y460436D2*
X1527755D1*
Y411220D1*
X1409645D1*
Y460436D1*
X1606495D2*
X1724606D1*
Y411220D1*
X1606495D1*
Y460436D1*
X1803346D2*
X1921456D1*
Y411220D1*
X1803346D1*
Y460436D1*
X2000196D2*
X2118306D1*
Y411220D1*
X2000196D1*
Y460436D1*
X2220275Y765550D2*
X3007676D1*
Y411220D1*
X2220275D1*
Y765550D1*
X2259645Y460436D2*
X2377755D1*
Y411220D1*
X2259645D1*
Y460436D1*
X2456495D2*
X2574606D1*
Y411220D1*
X2456495D1*
Y460436D1*
X2653346D2*
X2771456D1*
Y411220D1*
X2653346D1*
Y460436D1*
X2850196D2*
X2968306D1*
Y411220D1*
X2850196D1*
Y460436D1*
X3070275Y765550D2*
X3857676D1*
Y411220D1*
X3070275D1*
Y765550D1*
X3109645Y460436D2*
X3227755D1*
Y411220D1*
X3109645D1*
Y460436D1*
X3306495D2*
X3424606D1*
Y411220D1*
X3306495D1*
Y460436D1*
X3503346D2*
X3621456D1*
Y411220D1*
X3503346D1*
Y460436D1*
X3700196D2*
X3818306D1*
Y411220D1*
X3700196D1*
Y460436D1*
X2293717Y3393700D2*
X393700D1*
Y2393700D1*
X2293717D1*
Y3393700D1*
Y3293700D2*
X393700D1*
X2293717Y2493700D2*
X393700D1*
X2294145Y3209800D2*
D3*
X543600Y3043700D2*
X393700D1*
Y2743700D1*
X543600D1*
Y3043700D1*
X718700Y1643700D2*
X818720D1*
Y843700D1*
X718700D1*
Y1643700D1*
X1218680D2*
X1318700D1*
Y843700D1*
X1218680D1*
Y1643700D1*
X818720D2*
X1218680D1*
Y843700D1*
X818720D1*
Y1643700D1*
X1493700D2*
X1593720D1*
Y843700D1*
X1493700D1*
Y1643700D1*
X1993680D2*
X2093700D1*
Y843700D1*
X1993680D1*
Y1643700D1*
X1593720D2*
X1993680D1*
Y843700D1*
X1593720D1*
Y1643700D1*
X2293700D2*
X2393720D1*
Y843700D1*
X2293700D1*
Y1643700D1*
X2793680D2*
X2893700D1*
Y843700D1*
X2793680D1*
Y1643700D1*
X2393720D2*
X2793680D1*
Y843700D1*
X2393720D1*
Y1643700D1*
X3143700D2*
X3243720D1*
Y843700D1*
X3143700D1*
Y1643700D1*
X3643680D2*
X3743700D1*
Y843700D1*
X3643680D1*
Y1643700D1*
X3243720D2*
X3643680D1*
Y843700D1*
X3243720D1*
Y1643700D1*
X4046060Y3147438D2*
X3918103D1*
Y2960430D1*
X4046060D1*
Y3147438D1*
D49*
X3927955Y3137592D3*
G36*
X4006705Y3147438D2*
X3957485D1*
Y3127746D1*
X4006705D1*
Y3147438D1*
G37*
D52*
X2577075Y3220614D3*
X2631140Y3215351D2*
D10*
Y3097243D1*
X2662631Y3215351D2*
Y3097243D1*
X2631140D2*
X2662631D1*
X2631140Y3215351D2*
X2662631D1*
X2417913Y3437665D2*
Y3374735D1*
X2425361Y3437665D2*
Y3374735D1*
Y3437665D2*
X2401802D1*
X2425361Y3374735D2*
X2401802D1*
X1693700Y2843700D2*
D22*
X1793700D1*
Y2531200D1*
X1693700D1*
Y2843700D1*
X1793700D2*
X1893700D1*
Y2531200D1*
X1793700D1*
Y2843700D1*
X1893700D2*
X1993700D1*
Y2531200D1*
X1893700D1*
Y2843700D1*
X1993700D2*
X2093700D1*
Y2531200D1*
X1993700D1*
Y2843700D1*
X2598424Y3690944D2*
D23*
X2687007D1*
Y3494094D1*
X2598424D1*
Y3690944D1*
X2194881D2*
X2391731D1*
Y3494094D1*
X2194881D1*
Y3690944D1*
X3779527Y2706692D2*
D24*
X4507873D1*
Y2303149D1*
X3779527D1*
Y2706692D1*
X2342519Y2618109D2*
X3700787D1*
Y2135826D1*
X2342519D1*
Y2618109D1*
X2086613Y3494094D2*
D10*
Y3464566D1*
X1318897D1*
Y3592519D1*
X1486220D1*
X1692913Y3041338D2*
X1249999D1*
Y2844487D1*
X1692913D1*
Y2854330D1*
X1223847Y2092334D2*
D124*
X1221945Y2096137D1*
X1218098Y2099983D1*
X1214296Y2101885D1*
X1206647D1*
X1202800Y2099983D1*
X1198997Y2096137D1*
X1197052Y2092334D1*
X1195151Y2086586D1*
Y2076991D1*
X1197052Y2071288D1*
X1198997Y2067441D1*
X1202800Y2063638D1*
X1206647Y2061693D1*
X1214296D1*
X1218098Y2063638D1*
X1221945Y2067441D1*
X1223847Y2071288D1*
X1236198Y2094191D2*
X1240045Y2096137D1*
X1245793Y2101841D1*
Y2061693D1*
X2007373Y2096271D2*
X2005471Y2100074D1*
X2001625Y2103920D1*
X1997822Y2105822D1*
X1990173D1*
X1986326Y2103920D1*
X1982523Y2100074D1*
X1980578Y2096271D1*
X1978677Y2090523D1*
Y2080928D1*
X1980578Y2075225D1*
X1982523Y2071378D1*
X1986326Y2067575D1*
X1990173Y2065630D1*
X1997822D1*
X2001625Y2067575D1*
X2005471Y2071378D1*
X2007373Y2075225D1*
X2021669Y2096227D2*
Y2098128D1*
X2023571Y2101975D1*
X2025472Y2103876D1*
X2029319Y2105778D1*
X2036968D1*
X2040771Y2103876D1*
X2042672Y2101975D1*
X2044617Y2098128D1*
Y2094326D1*
X2042672Y2090479D1*
X2038869Y2084775D1*
X2019724Y2065630D1*
X2046519D1*
X2847530Y2096271D2*
X2845629Y2100074D1*
X2841782Y2103920D1*
X2837979Y2105822D1*
X2830330D1*
X2826483Y2103920D1*
X2822681Y2100074D1*
X2820735Y2096271D1*
X2818834Y2090523D1*
Y2080928D1*
X2820735Y2075225D1*
X2822681Y2071378D1*
X2826483Y2067575D1*
X2830330Y2065630D1*
X2837979D1*
X2841782Y2067575D1*
X2845629Y2071378D1*
X2847530Y2075225D1*
X2863728Y2105778D2*
X2884731D1*
X2873279Y2090479D1*
X2879027D1*
X2882829Y2088578D1*
X2884731Y2086676D1*
X2886676Y2080928D1*
Y2077126D1*
X2884731Y2071378D1*
X2880928Y2067531D1*
X2875180Y2065630D1*
X2869432D1*
X2863728Y2067531D1*
X2861827Y2069477D1*
X2859881Y2073279D1*
X3687688Y2096271D2*
X3685786Y2100074D1*
X3681940Y2103920D1*
X3678137Y2105822D1*
X3670488D1*
X3666641Y2103920D1*
X3662838Y2100074D1*
X3660893Y2096271D1*
X3658992Y2090523D1*
Y2080928D1*
X3660893Y2075225D1*
X3662838Y2071378D1*
X3666641Y2067575D1*
X3670488Y2065630D1*
X3678137D1*
X3681940Y2067575D1*
X3685786Y2071378D1*
X3687688Y2075225D1*
X3722987Y2105778D2*
X3703886D1*
X3701984Y2088578D1*
X3703886Y2090479D1*
X3709634Y2092424D1*
X3715338D1*
X3721086Y2090479D1*
X3724932Y2086676D1*
X3726834Y2080928D1*
Y2077126D1*
X3724932Y2071378D1*
X3721086Y2067531D1*
X3715338Y2065630D1*
X3709634D1*
X3703886Y2067531D1*
X3701984Y2069477D1*
X3700039Y2073279D1*
X3925832Y3208700D2*
X3923931Y3212503D1*
X3920084Y3216350D1*
X3916282Y3218251D1*
X3908633D1*
X3904786Y3216350D1*
X3900983Y3212503D1*
X3899038Y3208700D1*
X3897136Y3202952D1*
Y3193358D1*
X3899038Y3187654D1*
X3900983Y3183807D1*
X3904786Y3180004D1*
X3908633Y3178059D1*
X3916282D1*
X3920084Y3180004D1*
X3923931Y3183807D1*
X3925832Y3187654D1*
X3963077Y3204854D2*
X3961132Y3199106D1*
X3957329Y3195259D1*
X3951581Y3193358D1*
X3949680D1*
X3943932Y3195259D1*
X3940129Y3199106D1*
X3938184Y3204854D1*
Y3206755D1*
X3940129Y3212503D1*
X3943932Y3216305D1*
X3949680Y3218207D1*
X3951581D1*
X3957329Y3216305D1*
X3961132Y3212503D1*
X3963077Y3204854D1*
Y3195259D1*
X3961132Y3185708D1*
X3957329Y3179960D1*
X3951581Y3178059D1*
X3947779D1*
X3942031Y3179960D1*
X3940129Y3183807D1*
X4257239Y3121884D2*
X4253437Y3119983D1*
X4249590Y3116136D1*
X4247689Y3112333D1*
X4247688Y3104684D1*
X4249590Y3100837D1*
X4253437Y3097035D1*
X4257239Y3095089D1*
X4262987Y3093188D1*
X4272582D1*
X4278286Y3095089D1*
X4282132Y3097035D1*
X4285935Y3100837D1*
X4287881Y3104684D1*
Y3112333D1*
X4285935Y3116136D1*
X4282133Y3119983D1*
X4278286Y3121884D1*
X4255382Y3134235D2*
X4253437Y3138082D1*
X4247733Y3143830D1*
X4287881D1*
X4247733Y3167677D2*
X4249634Y3161929D1*
X4255382Y3158083D1*
X4264933Y3156181D1*
X4270681D1*
X4280231Y3158083D1*
X4285979Y3161929D1*
X4287880Y3167677D1*
Y3171480D1*
X4285979Y3177228D1*
X4280231Y3181031D1*
X4270681Y3182976D1*
X4264933D1*
X4255382Y3181031D1*
X4249634Y3177228D1*
X4247733Y3171480D1*
Y3167677D1*
X4255382Y3181031D2*
X4280231Y3158083D1*
X4206756Y3475241D2*
X4202954Y3473340D1*
X4199107Y3469493D1*
X4197206Y3465690D1*
Y3458041D1*
X4199107Y3454194D1*
X4202954Y3450392D1*
X4206756Y3448446D1*
X4212504Y3446545D1*
X4222099D1*
X4227803Y3448446D1*
X4231650Y3450392D1*
X4235452Y3454194D1*
X4237398Y3458041D1*
Y3465690D1*
X4235452Y3469493D1*
X4231650Y3473340D1*
X4227803Y3475241D1*
X4204899Y3487592D2*
X4202954Y3491439D1*
X4197250Y3497187D1*
X4237398D1*
X4204899Y3509539D2*
X4202954Y3513385D1*
X4197250Y3519133D1*
X4237398D1*
X3607485Y3034269D2*
X3605584Y3038071D1*
X3601737Y3041918D1*
X3597934Y3043819D1*
X3590285D1*
X3586438Y3041918D1*
X3582636Y3038071D1*
X3580690Y3034269D1*
X3578789Y3028521D1*
Y3018926D1*
X3580690Y3013222D1*
X3582636Y3009375D1*
X3586438Y3005573D1*
X3590285Y3003627D1*
X3597934D1*
X3601737Y3005573D1*
X3605584Y3009375D1*
X3607485Y3013222D1*
X3619836Y3036126D2*
X3623683Y3038071D1*
X3629431Y3043775D1*
Y3003627D1*
X3643728Y3034224D2*
Y3036126D1*
X3645629Y3039972D1*
X3647530Y3041874D1*
X3651377Y3043775D1*
X3659026D1*
X3662829Y3041874D1*
X3664730Y3039972D1*
X3666676Y3036126D1*
Y3032323D1*
X3664730Y3028476D1*
X3660928Y3022773D1*
X3641782Y3003627D1*
X3668577D1*
X858306Y3611334D2*
Y3571142D1*
X871703D1*
X877451Y3573087D1*
X881298Y3576890D1*
X883199Y3580736D1*
X885101Y3586440D1*
Y3596035D1*
X883199Y3601783D1*
X881298Y3605586D1*
X877451Y3609432D1*
X871703Y3611334D1*
X858306D1*
X897452Y3603640D2*
X901299Y3605586D1*
X907047Y3611289D1*
Y3571142D1*
X3966547Y3439843D2*
Y3399651D1*
X3979945D1*
X3985693Y3401596D1*
X3989539Y3405399D1*
X3991441Y3409246D1*
X3993342Y3414949D1*
Y3424544D1*
X3991441Y3430292D1*
X3989539Y3434095D1*
X3985693Y3437941D1*
X3979945Y3439843D1*
X3966547D1*
X4007639Y3430248D2*
Y3432149D1*
X4009540Y3435996D1*
X4011441Y3437897D1*
X4015288Y3439799D1*
X4022937D1*
X4026740Y3437897D1*
X4028641Y3435996D1*
X4030587Y3432149D1*
Y3428347D1*
X4028641Y3424500D1*
X4024839Y3418796D1*
X4005693Y3399651D1*
X4032488D1*
X4434253Y1898834D2*
Y1858642D1*
X4447651D1*
X4453399Y1860587D1*
X4457245Y1864390D1*
X4459147Y1868236D1*
X4461048Y1873940D1*
Y1883535D1*
X4459147Y1889283D1*
X4457245Y1893086D1*
X4453399Y1896932D1*
X4447651Y1898834D1*
X4434253D1*
X4477246Y1898789D2*
X4498249D1*
X4486797Y1883491D1*
X4492545D1*
X4496347Y1881589D1*
X4498249Y1879688D1*
X4500194Y1873940D1*
Y1870138D1*
X4498249Y1864390D1*
X4494446Y1860543D1*
X4488698Y1858642D1*
X4482950D1*
X4477246Y1860543D1*
X4475345Y1862488D1*
X4473399Y1866291D1*
X3221200Y3389778D2*
Y3359181D1*
X3219298Y3353433D1*
X3217353Y3351532D1*
X3213550Y3349586D1*
X3209704D1*
X3205901Y3351532D1*
X3204000Y3353433D1*
X3202054Y3359181D1*
Y3362984D1*
X3237398Y3389734D2*
X3258400D1*
X3246948Y3374436D1*
X3252696D1*
X3256499Y3372534D1*
X3258400Y3370633D1*
X3260346Y3364885D1*
Y3361083D1*
X3258400Y3355334D1*
X3254598Y3351488D1*
X3248850Y3349586D1*
X3243102D1*
X3237398Y3351488D1*
X3235497Y3353433D1*
X3233551Y3357236D1*
X1420083Y3667824D2*
Y3637227D1*
X1418182Y3631479D1*
X1416236Y3629578D1*
X1412434Y3627632D1*
X1408587D1*
X1404784Y3629578D1*
X1402883Y3631479D1*
X1400937Y3637227D1*
Y3641030D1*
X1440084Y3627632D2*
X1459229Y3667780D1*
X1432434D1*
X4114127Y2277278D2*
Y2246681D1*
X4112225Y2240933D1*
X4110280Y2239032D1*
X4106477Y2237086D1*
X4102631D1*
X4098828Y2239032D1*
X4096927Y2240933D1*
X4094981Y2246681D1*
Y2250484D1*
X4126478Y2256232D2*
X4143722D1*
X4149426Y2258133D1*
X4151371Y2260079D1*
X4153273Y2263881D1*
Y2269629D1*
X4151371Y2273432D1*
X4149426Y2275377D1*
X4143722Y2277278D1*
X4126478D1*
Y2237086D1*
X4188572Y2277234D2*
X4169471D1*
X4167570Y2260034D1*
X4169471Y2261936D1*
X4175219Y2263881D1*
X4180923D1*
X4186671Y2261936D1*
X4190517Y2258133D1*
X4192419Y2252385D1*
Y2248583D1*
X4190517Y2242834D1*
X4186671Y2238988D1*
X4180923Y2237086D1*
X4175219D1*
X4169471Y2238988D1*
X4167570Y2240933D1*
X4165624Y2244736D1*
X4590097Y1632495D2*
Y1592303D1*
X4616892Y1632495D2*
X4590097Y1605700D1*
X4599648Y1615295D2*
X4616892Y1592303D1*
X4629243Y1624801D2*
X4633090Y1626747D1*
X4638838Y1632451D1*
Y1592303D1*
X3581307Y3377019D2*
Y3336827D1*
X3604255D1*
X3616606Y3369325D2*
X3620453Y3371271D1*
X3626201Y3376974D1*
Y3336827D1*
X4264138Y2036038D2*
X4260336Y2034181D1*
X4256489Y2030334D1*
X4254588Y2026488D1*
X4252642Y2020740D1*
Y2011189D1*
X4254588Y2005441D1*
X4256489Y2001639D1*
X4260336Y1997792D1*
X4264138Y1995891D1*
X4271788D1*
X4275635Y1997792D1*
X4279437Y2001639D1*
X4281338Y2005441D1*
X4283284Y2011189D1*
Y2020740D1*
X4281338Y2026488D1*
X4279437Y2030334D1*
X4275635Y2034181D1*
X4271788Y2036038D1*
X4264138D1*
X4269887Y2003540D2*
X4281338Y1992044D1*
X4295635Y2028345D2*
X4299482Y2030290D1*
X4305230Y2035994D1*
Y1995846D1*
X2364802Y3045732D2*
X2382002D1*
X2387750Y3047677D1*
X2389695Y3049578D1*
X2391597Y3053381D1*
Y3057228D1*
X2389695Y3061030D1*
X2387750Y3062976D1*
X2382002Y3064877D1*
X2364802D1*
Y3024685D1*
X2378199Y3045732D2*
X2391597Y3024685D1*
X2403948Y3057183D2*
X2407795Y3059129D1*
X2413543Y3064833D1*
Y3024685D1*
X2099739Y3148131D2*
Y3165331D1*
X2097794Y3171079D1*
X2095893Y3173025D1*
X2092090Y3174926D1*
X2088243D1*
X2084441Y3173025D1*
X2082495Y3171079D1*
X2080594Y3165331D1*
Y3148131D1*
X2120786D1*
X2099739Y3161529D2*
X2120786Y3174926D1*
X2090189Y3189223D2*
X2088288D1*
X2084441Y3191124D1*
X2082540Y3193025D1*
X2080638Y3196872D1*
Y3204521D1*
X2082540Y3208324D1*
X2084441Y3210225D1*
X2088288Y3212171D1*
X2092090D1*
X2095937Y3210225D1*
X2101641Y3206423D1*
X2120786Y3187277D1*
Y3214072D1*
X1906202Y3270535D2*
X1923402D1*
X1929150Y3272480D1*
X1931095Y3274381D1*
X1932997Y3278184D1*
Y3282031D1*
X1931095Y3285833D1*
X1929150Y3287779D1*
X1923402Y3289680D1*
X1906202D1*
Y3249488D1*
X1919599Y3270535D2*
X1932997Y3249488D1*
X1949195Y3289636D2*
X1970197D1*
X1958745Y3274337D1*
X1964494D1*
X1968296Y3272436D1*
X1970197Y3270535D1*
X1972143Y3264787D1*
Y3260984D1*
X1970197Y3255236D1*
X1966395Y3251389D1*
X1960647Y3249488D1*
X1954899D1*
X1949195Y3251389D1*
X1947294Y3253335D1*
X1945348Y3257137D1*
X1805251Y3270535D2*
X1822451D1*
X1828199Y3272480D1*
X1830145Y3274381D1*
X1832046Y3278184D1*
Y3282031D1*
X1830145Y3285833D1*
X1828199Y3287779D1*
X1822451Y3289680D1*
X1805251D1*
Y3249488D1*
X1818649Y3270535D2*
X1832046Y3249488D1*
X1863543D2*
Y3289636D1*
X1844398Y3262885D1*
X1873093D1*
X1674739Y3148131D2*
Y3165331D1*
X1672794Y3171079D1*
X1670893Y3173025D1*
X1667090Y3174926D1*
X1663243D1*
X1659441Y3173025D1*
X1657495Y3171079D1*
X1655594Y3165331D1*
Y3148131D1*
X1695786D1*
X1674739Y3161529D2*
X1695786Y3174926D1*
X1655638Y3210225D2*
Y3191124D1*
X1672838Y3189223D1*
X1670937Y3191124D1*
X1668991Y3196872D1*
Y3202576D1*
X1670937Y3208324D1*
X1674739Y3212171D1*
X1680487Y3214072D1*
X1684290D1*
X1690038Y3212171D1*
X1693885Y3208324D1*
X1695786Y3202576D1*
Y3196872D1*
X1693885Y3191124D1*
X1691939Y3189223D1*
X1688137Y3187277D1*
X4324104Y2237661D2*
X4341304D1*
X4347052Y2239606D1*
X4348997Y2241507D1*
X4350899Y2245310D1*
Y2249157D1*
X4348997Y2252959D1*
X4347052Y2254905D1*
X4341304Y2256806D1*
X4324104D1*
Y2216614D1*
X4337501Y2237661D2*
X4350899Y2216614D1*
X4386198Y2251058D2*
X4384297Y2254861D1*
X4378549Y2256762D1*
X4374746D1*
X4368998Y2254861D1*
X4365151Y2249113D1*
X4363250Y2239562D1*
Y2230011D1*
X4365151Y2222362D1*
X4368998Y2218515D1*
X4374746Y2216614D1*
X4376647D1*
X4382351Y2218515D1*
X4386198Y2222362D1*
X4388099Y2228110D1*
Y2230011D1*
X4386198Y2235759D1*
X4382351Y2239562D1*
X4376647Y2241463D1*
X4374746D1*
X4368998Y2239562D1*
X4365151Y2235759D1*
X4363250Y2230011D1*
X3943239Y2812158D2*
Y2829358D1*
X3941294Y2835106D1*
X3939393Y2837052D1*
X3935590Y2838953D1*
X3931743D1*
X3927941Y2837052D1*
X3925995Y2835106D1*
X3924094Y2829358D1*
Y2812158D1*
X3964286D1*
X3943239Y2825556D2*
X3964286Y2838953D1*
X3931788Y2851304D2*
X3929842Y2855151D1*
X3924138Y2860899D1*
X3964286D1*
X3924138Y2877097D2*
Y2898100D1*
X3939437Y2886648D1*
Y2892396D1*
X3941338Y2896198D1*
X3943239Y2898100D1*
X3948987Y2900045D1*
X3952790D1*
X3958538Y2898100D1*
X3962385Y2894297D1*
X3964286Y2888549D1*
Y2882801D1*
X3962385Y2877097D1*
X3960439Y2875196D1*
X3956637Y2873250D1*
X3599457Y2845161D2*
X3616657D1*
X3622405Y2847106D1*
X3624350Y2849007D1*
X3626251Y2852810D1*
Y2856657D1*
X3624350Y2860459D1*
X3622405Y2862405D1*
X3616657Y2864306D1*
X3599457D1*
Y2824114D1*
X3612854Y2845161D2*
X3626251Y2824114D1*
X3638603Y2856613D2*
X3642450Y2858558D1*
X3648198Y2864262D1*
Y2824114D1*
X3679694D2*
Y2864262D1*
X3660549Y2837511D1*
X3689245D1*
X4245489Y2923658D2*
Y2940858D1*
X4243543Y2946606D1*
X4241642Y2948552D1*
X4237839Y2950453D1*
X4233993D1*
X4230190Y2948552D1*
X4228245Y2946606D1*
X4226343Y2940858D1*
Y2923658D1*
X4266535D1*
X4245489Y2937056D2*
X4266535Y2950453D1*
X4234037Y2962804D2*
X4232091Y2966651D1*
X4226388Y2972399D1*
X4266535D1*
X4226388Y3007698D2*
Y2988597D1*
X4243587Y2986696D1*
X4241686Y2988597D1*
X4239741Y2994345D1*
Y3000049D1*
X4241686Y3005797D1*
X4245489Y3009644D1*
X4251237Y3011545D1*
X4255039D1*
X4260787Y3009644D1*
X4264634Y3005797D1*
X4266535Y3000049D1*
Y2994345D1*
X4264634Y2988597D1*
X4262689Y2986696D1*
X4258886Y2984750D1*
X3593828Y2940161D2*
X3611028D1*
X3616776Y2942106D1*
X3618721Y2944007D1*
X3620622Y2947810D1*
Y2951657D1*
X3618721Y2955459D1*
X3616776Y2957405D1*
X3611028Y2959306D1*
X3593828D1*
Y2919114D1*
X3607225Y2940161D2*
X3620622Y2919114D1*
X3632974Y2951613D2*
X3636821Y2953558D1*
X3642569Y2959262D1*
Y2919114D1*
X3677868Y2953558D2*
X3675967Y2957361D1*
X3670219Y2959262D1*
X3666416D1*
X3660668Y2957361D1*
X3656821Y2951613D1*
X3654920Y2942062D1*
Y2932511D1*
X3656821Y2924862D1*
X3660668Y2921015D1*
X3666416Y2919114D1*
X3668317D1*
X3674021Y2921015D1*
X3677868Y2924862D1*
X3679769Y2930610D1*
Y2932511D1*
X3677868Y2938259D1*
X3674021Y2942062D1*
X3668317Y2943963D1*
X3666416D1*
X3660668Y2942062D1*
X3656821Y2938259D1*
X3654920Y2932511D1*
X714642Y2948794D2*
X710839Y2952641D1*
X705091Y2954542D1*
X697442D1*
X691694Y2952641D1*
X687847Y2948794D1*
Y2944992D1*
X689793Y2941145D1*
X691694Y2939244D1*
X695496Y2937342D1*
X706992Y2933496D1*
X710839Y2931594D1*
X712740Y2929649D1*
X714642Y2925846D1*
Y2920098D1*
X710839Y2916296D1*
X705091Y2914350D1*
X697442D1*
X691694Y2916296D1*
X687847Y2920098D1*
X726993Y2954542D2*
Y2914350D1*
X740390D1*
X746139Y2916296D1*
X749985Y2920098D1*
X751887Y2923945D1*
X753788Y2929649D1*
Y2939244D1*
X751887Y2944992D1*
X749985Y2948794D1*
X746139Y2952641D1*
X740390Y2954542D1*
X726993D1*
X766139Y2946849D2*
X769986Y2948794D1*
X775734Y2954498D1*
Y2914350D1*
X874830Y824129D2*
Y783937D1*
X861432Y824129D2*
X888227D1*
X900578D2*
Y783937D1*
X917822D1*
X923570Y785882D1*
X925472Y787784D1*
X927373Y791586D1*
Y797334D1*
X925472Y801181D1*
X923570Y803082D1*
X917822Y804983D1*
X923570Y806929D1*
X925472Y808830D1*
X927373Y812633D1*
Y816480D1*
X925472Y820282D1*
X923570Y822228D1*
X917822Y824129D1*
X900578D1*
Y804983D2*
X917822D1*
X943571Y824085D2*
X964574D1*
X953122Y808786D1*
X958870D1*
X962672Y806885D1*
X964574Y804983D1*
X966519Y799235D1*
Y795433D1*
X964574Y789685D1*
X960771Y785838D1*
X955023Y783937D1*
X949275D1*
X943571Y785838D1*
X941670Y787784D1*
X939724Y791586D1*
X1723879Y824129D2*
Y783937D1*
X1710482Y824129D2*
X1737276D1*
X1749628D2*
Y783937D1*
X1766872D1*
X1772620Y785882D1*
X1774521Y787784D1*
X1776422Y791586D1*
Y797334D1*
X1774521Y801181D1*
X1772620Y803082D1*
X1766872Y804983D1*
X1772620Y806929D1*
X1774521Y808830D1*
X1776422Y812633D1*
Y816480D1*
X1774521Y820282D1*
X1772620Y822228D1*
X1766872Y824129D1*
X1749628D1*
Y804983D2*
X1766872D1*
X1807919Y783937D2*
Y824085D1*
X1788774Y797334D1*
X1817470D1*
X2574830Y824129D2*
Y783937D1*
X2561432Y824129D2*
X2588227D1*
X2600578D2*
Y783937D1*
X2617822D1*
X2623570Y785882D1*
X2625472Y787784D1*
X2627373Y791586D1*
Y797334D1*
X2625472Y801181D1*
X2623570Y803082D1*
X2617822Y804983D1*
X2623570Y806929D1*
X2625472Y808830D1*
X2627373Y812633D1*
Y816480D1*
X2625472Y820282D1*
X2623570Y822228D1*
X2617822Y824129D1*
X2600578D1*
Y804983D2*
X2617822D1*
X2662672Y824085D2*
X2643571D1*
X2641670Y806885D1*
X2643571Y808786D1*
X2649319Y810732D1*
X2655023D1*
X2660771Y808786D1*
X2664618Y804983D1*
X2666519Y799235D1*
Y795433D1*
X2664618Y789685D1*
X2660771Y785838D1*
X2655023Y783937D1*
X2649319D1*
X2643571Y785838D1*
X2641670Y787784D1*
X2639724Y791586D1*
X3425802Y824129D2*
Y783937D1*
X3412405Y824129D2*
X3439200D1*
X3451551D2*
Y783937D1*
X3468795D1*
X3474543Y785882D1*
X3476444Y787784D1*
X3478346Y791586D1*
Y797334D1*
X3476444Y801181D1*
X3474543Y803082D1*
X3468795Y804983D1*
X3474543Y806929D1*
X3476444Y808830D1*
X3478346Y812633D1*
Y816480D1*
X3476444Y820282D1*
X3474543Y822228D1*
X3468795Y824129D1*
X3451551D1*
Y804983D2*
X3468795D1*
X3513645Y818381D2*
X3511744Y822183D1*
X3505996Y824085D1*
X3502193D1*
X3496445Y822183D1*
X3492598Y816435D1*
X3490697Y806885D1*
Y797334D1*
X3492598Y789685D1*
X3496445Y785838D1*
X3502193Y783937D1*
X3504094D1*
X3509798Y785838D1*
X3513645Y789685D1*
X3515546Y795433D1*
Y797334D1*
X3513645Y803082D1*
X3509798Y806885D1*
X3504094Y808786D1*
X3502193D1*
X3496445Y806885D1*
X3492598Y803082D1*
X3490697Y797334D1*
X2316574Y2927278D2*
Y2898583D1*
X2318475Y2892834D1*
X2322322Y2889032D1*
X2328070Y2887086D1*
X2331872D1*
X2337620Y2889032D1*
X2341467Y2892834D1*
X2343368Y2898583D1*
Y2927278D1*
X2355720Y2919585D2*
X2359566Y2921530D1*
X2365315Y2927234D1*
Y2887086D1*
X985730Y1314778D2*
Y1286083D1*
X987631Y1280334D1*
X991478Y1276532D1*
X997226Y1274586D1*
X1001028D1*
X1006776Y1276532D1*
X1010623Y1280334D1*
X1012524Y1286083D1*
Y1314778D1*
X1026821Y1305184D2*
Y1307085D1*
X1028722Y1310932D1*
X1030624Y1312833D1*
X1034470Y1314734D1*
X1042120D1*
X1045922Y1312833D1*
X1047824Y1310932D1*
X1049769Y1307085D1*
Y1303282D1*
X1047824Y1299436D1*
X1044021Y1293732D1*
X1024876Y1274586D1*
X1051670D1*
X1773230Y1314778D2*
Y1286083D1*
X1775131Y1280334D1*
X1778978Y1276532D1*
X1784726Y1274586D1*
X1788528D1*
X1794276Y1276532D1*
X1798123Y1280334D1*
X1800024Y1286083D1*
Y1314778D1*
X1816222Y1314734D2*
X1837225D1*
X1825773Y1299436D1*
X1831521D1*
X1835324Y1297534D1*
X1837225Y1295633D1*
X1839170Y1289885D1*
Y1286083D1*
X1837225Y1280334D1*
X1833422Y1276488D1*
X1827674Y1274586D1*
X1821926D1*
X1816222Y1276488D1*
X1814321Y1278433D1*
X1812376Y1282236D1*
X2572279Y1314778D2*
Y1286083D1*
X2574180Y1280334D1*
X2578027Y1276532D1*
X2583775Y1274586D1*
X2587578D1*
X2593326Y1276532D1*
X2597172Y1280334D1*
X2599074Y1286083D1*
Y1314778D1*
X2630570Y1274586D2*
Y1314734D1*
X2611425Y1287984D1*
X2640121D1*
X3423230Y1302278D2*
Y1273583D1*
X3425131Y1267834D1*
X3428978Y1264032D1*
X3434726Y1262086D1*
X3438528D1*
X3444276Y1264032D1*
X3448123Y1267834D1*
X3450024Y1273583D1*
Y1302278D1*
X3485324Y1302234D2*
X3466222D1*
X3464321Y1285034D1*
X3466222Y1286936D1*
X3471970Y1288881D1*
X3477674D1*
X3483422Y1286936D1*
X3487269Y1283133D1*
X3489170Y1277385D1*
Y1273583D1*
X3487269Y1267834D1*
X3483422Y1263988D1*
X3477674Y1262086D1*
X3471970D1*
X3466222Y1263988D1*
X3464321Y1265933D1*
X3462376Y1269736D1*
X3997561Y2935789D2*
Y2907093D1*
X3999462Y2901345D1*
X4003309Y2897542D1*
X4009057Y2895597D1*
X4012859D1*
X4018607Y2897542D1*
X4022454Y2901345D1*
X4024355Y2907093D1*
Y2935789D1*
X4059655Y2930041D2*
X4057753Y2933843D1*
X4052005Y2935745D1*
X4048203D1*
X4042455Y2933843D1*
X4038608Y2928095D1*
X4036707Y2918545D1*
Y2908994D1*
X4038608Y2901345D1*
X4042455Y2897498D1*
X4048203Y2895597D1*
X4050104D1*
X4055808Y2897498D1*
X4059655Y2901345D1*
X4061556Y2907093D1*
Y2908994D1*
X4059655Y2914742D1*
X4055808Y2918545D1*
X4050104Y2920446D1*
X4048203D1*
X4042455Y2918545D1*
X4038608Y2914742D1*
X4036707Y2908994D1*
X2612567Y3274393D2*
Y3245697D1*
X2614468Y3239949D1*
X2618315Y3236146D1*
X2624063Y3234201D1*
X2627865D1*
X2633613Y3236146D1*
X2637460Y3239949D1*
X2639361Y3245697D1*
Y3274393D1*
X2661263Y3274348D2*
X2655560Y3272447D1*
X2653614Y3268645D1*
Y3264798D1*
X2655560Y3260995D1*
X2659362Y3259050D1*
X2667011Y3257149D1*
X2672759Y3255247D1*
X2676562Y3251401D1*
X2678463Y3247598D1*
Y3241850D1*
X2676562Y3238047D1*
X2674661Y3236102D1*
X2668913Y3234201D1*
X2661263D1*
X2655560Y3236102D1*
X2653614Y3238047D1*
X2651713Y3241850D1*
Y3247598D1*
X2653614Y3251401D1*
X2657461Y3255247D1*
X2663165Y3257149D1*
X2670814Y3259050D1*
X2674661Y3260995D1*
X2676562Y3264798D1*
Y3268645D1*
X2674661Y3272447D1*
X2668913Y3274348D1*
X2661263D1*
X2544906Y3415661D2*
X2543005Y3419464D1*
X2539158Y3423310D1*
X2535356Y3425212D1*
X2527706D1*
X2523860Y3423310D1*
X2520057Y3419464D1*
X2518112Y3415661D1*
X2516210Y3409913D1*
Y3400318D1*
X2518112Y3394614D1*
X2520057Y3390768D1*
X2523860Y3386965D1*
X2527706Y3385020D1*
X2535356D1*
X2539158Y3386965D1*
X2543005Y3390768D1*
X2544906Y3394614D1*
X2576403Y3385020D2*
Y3425167D1*
X2557258Y3398417D1*
X2585954D1*
X3393526Y3296905D2*
D125*
X3369649D1*
X3367273Y3275405D1*
X3369649Y3277782D1*
X3376834Y3280214D1*
X3383964D1*
X3391149Y3277782D1*
X3395957Y3273029D1*
X3398334Y3265844D1*
Y3261091D1*
X3395957Y3253906D1*
X3391149Y3249097D1*
X3383964Y3246720D1*
X3376834D1*
X3369649Y3249097D1*
X3367273Y3251529D1*
X3364841Y3256282D1*
X3413773Y3280214D2*
X3428143Y3246720D1*
X3442458Y3280214D1*
X3364841Y3196960D2*
X3383964Y3146720D1*
X3403087Y3196960D1*
X3456773Y3146720D2*
Y3196960D1*
X3437650Y3146720D1*
X3418526Y3196960D1*
Y3146720D1*
X3484150Y3180214D2*
X3479397Y3177837D1*
X3474589Y3173029D1*
X3472212Y3165844D1*
Y3161091D1*
X3474589Y3153906D1*
X3479397Y3149152D1*
X3484150Y3146720D1*
X3491335D1*
X3496144Y3149152D1*
X3500897Y3153906D1*
X3503329Y3161091D1*
Y3165844D1*
X3500897Y3173029D1*
X3496144Y3177837D1*
X3491335Y3180214D1*
X3484150D1*
X3525953Y3196960D2*
Y3156282D1*
X3528330Y3149152D1*
X3533138Y3146720D1*
X3537891D1*
X3518768Y3180214D2*
X3535515D1*
X3799585Y2412118D2*
X3818708Y2361878D1*
X3837831Y2412118D1*
X3891517Y2361878D2*
Y2412118D1*
X3872394Y2361878D1*
X3853271Y2412118D1*
Y2361878D1*
X3918894Y2395371D2*
X3914141Y2392995D1*
X3909333Y2388186D1*
X3906956Y2381001D1*
Y2376248D1*
X3909333Y2369063D1*
X3914141Y2364310D1*
X3918894Y2361878D1*
X3926080D1*
X3930888Y2364310D1*
X3935641Y2369063D1*
X3938073Y2376248D1*
Y2381001D1*
X3935641Y2388186D1*
X3930888Y2392995D1*
X3926080Y2395371D1*
X3918894D1*
X3960697Y2412118D2*
Y2371440D1*
X3963074Y2364310D1*
X3967882Y2361878D1*
X3972636D1*
X3953512Y2395371D2*
X3970259D1*
X4053422Y2425217D2*
X4048614Y2420464D1*
X4043861Y2413279D1*
X4039052Y2403717D1*
X4036676Y2391723D1*
Y2382162D1*
X4039052Y2370224D1*
X4043861Y2360662D1*
X4048614Y2353477D1*
X4053422Y2348724D1*
X4068862Y2402501D2*
X4073670Y2404933D1*
X4080855Y2412063D1*
Y2361878D1*
X4098726Y2400124D2*
Y2402501D1*
X4101103Y2407309D1*
X4103479Y2409686D1*
X4108288Y2412063D1*
X4117850D1*
X4122603Y2409686D1*
X4124979Y2407309D1*
X4127411Y2402501D1*
Y2397748D1*
X4124979Y2392939D1*
X4120226Y2385810D1*
X4096294Y2361878D1*
X4129788D1*
X4145227Y2386970D2*
X4172862D1*
X4193109Y2412063D2*
X4219362D1*
X4205048Y2392939D1*
X4212233D1*
X4216986Y2390563D1*
X4219362Y2388186D1*
X4221794Y2381001D1*
Y2376248D1*
X4219362Y2369063D1*
X4214609Y2364255D1*
X4207424Y2361878D1*
X4200239D1*
X4193109Y2364255D1*
X4190733Y2366686D1*
X4188301Y2371440D1*
X4265918Y2404933D2*
X4263542Y2409686D1*
X4256357Y2412063D1*
X4251604D1*
X4244419Y2409686D1*
X4239610Y2402501D1*
X4237234Y2390563D1*
Y2378625D1*
X4239610Y2369063D1*
X4244419Y2364255D1*
X4251604Y2361878D1*
X4253980D1*
X4261110Y2364255D1*
X4265918Y2369063D1*
X4268295Y2376248D1*
Y2378625D1*
X4265918Y2385810D1*
X4261110Y2390563D1*
X4253980Y2392939D1*
X4251604D1*
X4244419Y2390563D1*
X4239610Y2385810D1*
X4237234Y2378625D1*
X4283734Y2412118D2*
X4302858Y2361878D1*
X4321981Y2412118D1*
X4337420D2*
Y2361878D1*
X4354167D1*
X4361352Y2364310D1*
X4366160Y2369063D1*
X4368537Y2373871D1*
X4370913Y2381001D1*
Y2392995D1*
X4368537Y2400180D1*
X4366160Y2404933D1*
X4361352Y2409741D1*
X4354167Y2412118D1*
X4337420D1*
X4422223Y2400180D2*
X4419846Y2404933D1*
X4415038Y2409741D1*
X4410284Y2412118D1*
X4400723D1*
X4395914Y2409741D1*
X4391161Y2404933D1*
X4388729Y2400180D1*
X4386353Y2392995D1*
Y2381001D1*
X4388729Y2373871D1*
X4391161Y2369063D1*
X4395914Y2364310D1*
X4400723Y2361878D1*
X4410284D1*
X4415038Y2364310D1*
X4419846Y2369063D1*
X4422223Y2373871D1*
X4437662Y2425217D2*
X4442470Y2420464D1*
X4447223Y2413279D1*
X4452032Y2403717D1*
X4454408Y2391723D1*
Y2382162D1*
X4452032Y2370224D1*
X4447223Y2360662D1*
X4442470Y2353477D1*
X4437662Y2348724D1*
X4325711Y2610022D2*
X4323334Y2614775D1*
X4318526Y2619584D1*
X4313772Y2621960D1*
X4304211D1*
X4299402Y2619584D1*
X4294649Y2614775D1*
X4292217Y2610022D1*
X4289841Y2602837D1*
Y2590844D1*
X4292217Y2583714D1*
X4294649Y2578906D1*
X4299402Y2574152D1*
X4304211Y2571720D1*
X4313772D1*
X4318526Y2574152D1*
X4323334Y2578906D1*
X4325711Y2583714D1*
Y2590844D1*
X4313772D1*
X4341150Y2605214D2*
Y2571720D1*
Y2595652D2*
X4348335Y2602837D1*
X4353143Y2605214D1*
X4360273D1*
X4365082Y2602837D1*
X4367458Y2595652D1*
Y2571720D1*
X4411582Y2621960D2*
Y2571720D1*
Y2598029D2*
X4406829Y2602837D1*
X4402021Y2605214D1*
X4394836D1*
X4390082Y2602837D1*
X4385274Y2598029D1*
X4382897Y2590844D1*
Y2586091D1*
X4385274Y2578906D1*
X4390082Y2574152D1*
X4394836Y2571720D1*
X4402021D1*
X4406829Y2574152D1*
X4411582Y2578906D1*
X2910789Y3423488D2*
Y3399611D1*
X2932289Y3397235D1*
X2929912Y3399611D1*
X2927480Y3406796D1*
Y3413926D1*
X2929912Y3421111D1*
X2934665Y3425919D1*
X2941850Y3428296D1*
X2946603D1*
X2953789Y3425919D1*
X2958597Y3421111D1*
X2960974Y3413926D1*
Y3406796D1*
X2958597Y3399611D1*
X2956165Y3397235D1*
X2951412Y3394803D1*
X2927480Y3443735D2*
X2960974Y3458105D1*
X2927480Y3472420D1*
X3034517Y3381327D2*
X3029764Y3378951D1*
X3024955Y3374142D1*
X3022579Y3369389D1*
Y3359828D1*
X3024955Y3355019D1*
X3029764Y3350266D1*
X3034517Y3347834D1*
X3041702Y3345458D1*
X3053695D1*
X3060825Y3347834D1*
X3065634Y3350266D1*
X3070387Y3355019D1*
X3072819Y3359828D1*
Y3369389D1*
X3070387Y3374142D1*
X3065634Y3378951D1*
X3060825Y3381327D1*
X3053695D1*
Y3369389D1*
X3039325Y3396767D2*
X3072819D1*
X3048887D2*
X3041702Y3403952D1*
X3039325Y3408760D1*
Y3415890D1*
X3041702Y3420698D1*
X3048887Y3423075D1*
X3072819D1*
X3022579Y3467199D2*
X3072819D1*
X3046510D2*
X3041702Y3462446D1*
X3039325Y3457637D1*
Y3450452D1*
X3041702Y3445699D1*
X3046510Y3440891D1*
X3053695Y3438514D1*
X3058449D1*
X3065634Y3440891D1*
X3070387Y3445699D1*
X3072819Y3450452D1*
Y3457637D1*
X3070387Y3462446D1*
X3065634Y3467199D1*
X2842264Y3439582D2*
Y3461137D1*
X2839887Y3468267D1*
X2837455Y3470699D1*
X2832702Y3473076D1*
X2825517D1*
X2820764Y3470699D1*
X2818332Y3468267D1*
X2815955Y3461137D1*
Y3439582D1*
X2866195D1*
X2010733Y2632303D2*
X2060974Y2665796D1*
X2010734D2*
X2060974Y2632303D1*
X2010734Y2681235D2*
X2060974D1*
Y2709920D1*
X2010734Y2725359D2*
X2013110Y2727736D1*
X2010734Y2730168D1*
X2008302Y2727736D1*
X2010734Y2725359D1*
X2027480Y2727736D2*
X2060974D1*
X2027480Y2745607D2*
X2060974D1*
X2037042D2*
X2029857Y2752792D1*
X2027480Y2757601D1*
Y2764730D1*
X2029857Y2769539D1*
X2037042Y2771915D1*
X2060974D1*
X2037042D2*
X2029857Y2779100D1*
X2027480Y2783909D1*
Y2791039D1*
X2029857Y2795847D1*
X2037042Y2798279D1*
X2060974D1*
X1910733Y2619803D2*
X1934665Y2638926D1*
X1960974D1*
X1910734Y2658049D2*
X1934665Y2638926D1*
X1910734Y2673488D2*
X1960974D1*
Y2702173D1*
X1910734Y2717613D2*
X1913110Y2719989D1*
X1910734Y2722421D1*
X1908302Y2719989D1*
X1910734Y2717613D1*
X1927480Y2719989D2*
X1960974D1*
X1927480Y2737860D2*
X1960974D1*
X1937042D2*
X1929857Y2745045D1*
X1927480Y2749854D1*
Y2756983D1*
X1929857Y2761792D1*
X1937042Y2764168D1*
X1960974D1*
X1937042D2*
X1929857Y2771354D1*
X1927480Y2776162D1*
Y2783292D1*
X1929857Y2788100D1*
X1937042Y2790532D1*
X1960974D1*
X1810733Y2557303D2*
X1810734Y2590796D1*
X1860974Y2557303D1*
Y2590796D1*
X1810734Y2606235D2*
X1860974D1*
Y2634920D1*
X1810734Y2650359D2*
X1813110Y2652736D1*
X1810734Y2655168D1*
X1808302Y2652736D1*
X1810734Y2650359D1*
X1827480Y2652736D2*
X1860974D1*
X1827480Y2670607D2*
X1860974D1*
X1837042D2*
X1829857Y2677792D1*
X1827480Y2682601D1*
Y2689730D1*
X1829857Y2694539D1*
X1837042Y2696915D1*
X1860974D1*
X1837042D2*
X1829857Y2704100D1*
X1827480Y2708909D1*
Y2716039D1*
X1829857Y2720847D1*
X1837042Y2723279D1*
X1860974D1*
X1760974Y2595604D2*
X1710734Y2576426D1*
X1760974Y2557303D1*
X1744227Y2564488D2*
Y2588419D1*
X1710734Y2611044D2*
X1760974D1*
Y2639729D1*
X1710734Y2655168D2*
X1713110Y2657544D1*
X1710734Y2659976D1*
X1708302Y2657544D1*
X1710734Y2655168D1*
X1727480Y2657544D2*
X1760974D1*
X1727480Y2675415D2*
X1760974D1*
X1737042D2*
X1729857Y2682601D1*
X1727480Y2687409D1*
Y2694539D1*
X1729857Y2699347D1*
X1737042Y2701724D1*
X1760974D1*
X1737042D2*
X1729857Y2708909D1*
X1727480Y2713717D1*
Y2720847D1*
X1729857Y2725655D1*
X1737042Y2728087D1*
X1760974D1*
X2413772Y2446720D2*
Y2496905D1*
X2389841Y2463467D1*
X2425711D1*
X2528053Y2446720D2*
X2508874Y2496960D1*
X2489751Y2446720D1*
X2496936Y2463467D2*
X2520868D1*
X2543492Y2480214D2*
X2569800Y2446720D1*
Y2480214D2*
X2543492Y2446720D1*
X2585239Y2496960D2*
X2587616Y2494584D1*
X2590048Y2496960D1*
X2587616Y2499392D1*
X2585239Y2496960D1*
X2587616Y2480214D2*
Y2446720D1*
X2631795Y2473029D2*
X2629419Y2477837D1*
X2622234Y2480214D1*
X2615049D1*
X2607864Y2477837D1*
X2605487Y2473029D1*
X2607864Y2468276D1*
X2612672Y2465844D1*
X2624610Y2463467D1*
X2629419Y2461091D1*
X2631795Y2456282D1*
Y2453906D1*
X2629419Y2449152D1*
X2622234Y2446720D1*
X2615049D1*
X2607864Y2449152D1*
X2605487Y2453906D1*
X2712582Y2510059D2*
X2707774Y2505306D1*
X2703021Y2498121D1*
X2698212Y2488559D1*
X2695836Y2476566D1*
Y2467004D1*
X2698212Y2455066D1*
X2703021Y2445505D1*
X2707774Y2438319D1*
X2712582Y2433566D1*
X2761515Y2489775D2*
X2756762Y2494584D1*
X2749577Y2496960D1*
X2740015D1*
X2732830Y2494584D1*
X2728021Y2489775D1*
Y2485022D1*
X2730453Y2480214D1*
X2732830Y2477837D1*
X2737583Y2475461D1*
X2751953Y2470652D1*
X2756762Y2468276D1*
X2759138Y2465844D1*
X2761515Y2461091D1*
Y2453906D1*
X2756762Y2449152D1*
X2749577Y2446720D1*
X2740015D1*
X2732830Y2449152D1*
X2728021Y2453906D1*
X2776954Y2470652D2*
X2798509D1*
X2805639Y2473029D1*
X2808071Y2475461D1*
X2810447Y2480214D1*
Y2487399D1*
X2808071Y2492152D1*
X2805639Y2494584D1*
X2798509Y2496960D1*
X2776954D1*
Y2446720D1*
X2825887Y2496960D2*
Y2446720D1*
X2841326Y2510059D2*
X2846134Y2505306D1*
X2850888Y2498121D1*
X2855696Y2488559D1*
X2858073Y2476566D1*
Y2467004D1*
X2855696Y2455066D1*
X2850888Y2445505D1*
X2846134Y2438319D1*
X2841326Y2433566D1*
X2957983Y2485022D2*
X2955606Y2489775D1*
X2950798Y2494584D1*
X2946044Y2496960D1*
X2936483D1*
X2931674Y2494584D1*
X2926921Y2489775D1*
X2924489Y2485022D1*
X2922113Y2477837D1*
Y2465844D1*
X2924489Y2458714D1*
X2926921Y2453906D1*
X2931674Y2449152D1*
X2936483Y2446720D1*
X2946044D1*
X2950798Y2449152D1*
X2955606Y2453906D1*
X2957983Y2458714D1*
X3006915Y2496960D2*
Y2446720D1*
X2973422Y2496960D1*
Y2446720D1*
X3058224Y2485022D2*
X3055848Y2489775D1*
X3051039Y2494584D1*
X3046286Y2496960D1*
X3036725D1*
X3031916Y2494584D1*
X3027163Y2489775D1*
X3024731Y2485022D1*
X3022355Y2477837D1*
Y2465844D1*
X3024731Y2458714D1*
X3027163Y2453906D1*
X3031916Y2449152D1*
X3036725Y2446720D1*
X3046286D1*
X3051039Y2449152D1*
X3055848Y2453906D1*
X3058224Y2458714D1*
X3158135Y2485022D2*
X3155758Y2489775D1*
X3150950Y2494584D1*
X3146196Y2496960D1*
X3136635D1*
X3131826Y2494584D1*
X3127073Y2489775D1*
X3124641Y2485022D1*
X3122265Y2477837D1*
Y2465844D1*
X3124641Y2458714D1*
X3127073Y2453906D1*
X3131826Y2449152D1*
X3136635Y2446720D1*
X3146196D1*
X3150950Y2449152D1*
X3155758Y2453906D1*
X3158135Y2458714D1*
X3185512Y2480214D2*
X3180759Y2477837D1*
X3175950Y2473029D1*
X3173574Y2465844D1*
Y2461091D1*
X3175950Y2453906D1*
X3180759Y2449152D1*
X3185512Y2446720D1*
X3192697D1*
X3197506Y2449152D1*
X3202259Y2453906D1*
X3204691Y2461091D1*
Y2465844D1*
X3202259Y2473029D1*
X3197506Y2477837D1*
X3192697Y2480214D1*
X3185512D1*
X3220130D2*
Y2446720D1*
Y2470652D2*
X3227315Y2477837D1*
X3232123Y2480214D1*
X3239253D1*
X3244062Y2477837D1*
X3246438Y2470652D1*
Y2446720D1*
X3269062Y2496960D2*
Y2456282D1*
X3271439Y2449152D1*
X3276247Y2446720D1*
X3281001D1*
X3261877Y2480214D2*
X3278624D1*
X3296440D2*
Y2446720D1*
Y2465844D2*
X3298872Y2473029D1*
X3303625Y2477837D1*
X3308433Y2480214D1*
X3315618D1*
X3342996D2*
X3338243Y2477837D1*
X3333434Y2473029D1*
X3331058Y2465844D1*
Y2461091D1*
X3333434Y2453906D1*
X3338243Y2449152D1*
X3342996Y2446720D1*
X3350181D1*
X3354989Y2449152D1*
X3359743Y2453906D1*
X3362174Y2461091D1*
Y2465844D1*
X3359743Y2473029D1*
X3354989Y2477837D1*
X3350181Y2480214D1*
X3342996D1*
X3377614Y2496960D2*
Y2446720D1*
X3393053Y2496960D2*
Y2446720D1*
X3408492Y2465844D2*
X3437177D1*
Y2470652D1*
X3434800Y2475461D1*
X3432424Y2477837D1*
X3427615Y2480214D1*
X3420430D1*
X3415677Y2477837D1*
X3410869Y2473029D1*
X3408492Y2465844D1*
Y2461091D1*
X3410869Y2453906D1*
X3415677Y2449152D1*
X3420430Y2446720D1*
X3427615D1*
X3432424Y2449152D1*
X3437177Y2453906D1*
X3452616Y2480214D2*
Y2446720D1*
Y2465844D2*
X3455048Y2473029D1*
X3459801Y2477837D1*
X3464610Y2480214D1*
X3471795D1*
X3535835Y2496960D2*
X3554958Y2446720D1*
X3574082Y2496960D1*
X3589521Y2487344D2*
X3594329Y2489775D1*
X3601514Y2496905D1*
Y2446720D1*
X3619330Y2451529D2*
X3616954Y2449097D1*
X3619330Y2446720D1*
X3621762Y2449097D1*
X3619330Y2451529D1*
X3639633Y2484967D2*
Y2487344D1*
X3642010Y2492152D1*
X3644386Y2494529D1*
X3649195Y2496905D1*
X3658756D1*
X3663510Y2494529D1*
X3665886Y2492152D1*
X3668318Y2487344D1*
Y2482590D1*
X3665886Y2477782D1*
X3661133Y2470652D1*
X3637201Y2446720D1*
X3670695D1*
X2416149Y2397467D2*
X2408964D1*
X2404211Y2395090D1*
X2401779Y2392714D1*
X2399402Y2387905D1*
Y2378344D1*
X2401779Y2375967D1*
X2406587D1*
X2416149Y2378344D1*
X2418526Y2373591D1*
X2420902D1*
X2425711Y2378344D1*
X2428087Y2390282D1*
X2425711Y2397467D1*
X2423334Y2402275D1*
X2418526Y2407029D1*
X2413772Y2409405D1*
X2404211D1*
X2399402Y2407029D1*
X2394649Y2402275D1*
X2392217Y2397467D1*
X2389841Y2390282D1*
Y2378344D1*
X2392217Y2371159D1*
X2394649Y2366406D1*
X2399402Y2361597D1*
X2404211Y2359220D1*
X2413772D1*
X2418526Y2361597D1*
X2423334Y2366406D1*
X2416149Y2399844D2*
Y2378344D1*
X2443526Y2409460D2*
Y2359220D1*
Y2385529D2*
X2448335Y2390337D1*
X2453088Y2392714D1*
X2460273D1*
X2465026Y2390337D1*
X2469835Y2385529D1*
X2472211Y2378344D1*
Y2373591D1*
X2469835Y2366406D1*
X2465026Y2361652D1*
X2460273Y2359220D1*
X2453088D1*
X2448335Y2361652D1*
X2443526Y2366406D1*
X2487651Y2392714D2*
Y2368782D1*
X2490027Y2361652D1*
X2494836Y2359220D1*
X2502021D1*
X2506774Y2361652D1*
X2513959Y2368782D1*
Y2392714D2*
Y2359220D1*
X2529398Y2409460D2*
X2531775Y2407084D1*
X2534207Y2409460D1*
X2531775Y2411892D1*
X2529398Y2409460D1*
X2531775Y2392714D2*
Y2359220D1*
X2549646Y2409460D2*
Y2359220D1*
X2593770Y2409460D2*
Y2359220D1*
Y2385529D2*
X2589017Y2390337D1*
X2584208Y2392714D1*
X2577023D1*
X2572270Y2390337D1*
X2567462Y2385529D1*
X2565085Y2378344D1*
Y2373591D1*
X2567462Y2366406D1*
X2572270Y2361652D1*
X2577023Y2359220D1*
X2584208D1*
X2589017Y2361652D1*
X2593770Y2366406D1*
X2609209Y2409460D2*
Y2359220D1*
X2636587Y2392714D2*
X2631833Y2390337D1*
X2627025Y2385529D1*
X2624648Y2378344D1*
Y2373591D1*
X2627025Y2366406D1*
X2631833Y2361652D1*
X2636587Y2359220D1*
X2643772D1*
X2648580Y2361652D1*
X2653333Y2366406D1*
X2655765Y2373591D1*
Y2378344D1*
X2653333Y2385529D1*
X2648580Y2390337D1*
X2643772Y2392714D1*
X2636587D1*
X2699889Y2390337D2*
Y2352035D1*
X2697513Y2344906D1*
X2695136Y2342474D1*
X2690328Y2340097D1*
X2683143D1*
X2678389Y2342474D1*
X2699889Y2383152D2*
X2695136Y2387905D1*
X2690328Y2390337D1*
X2683143D1*
X2678389Y2387905D1*
X2673581Y2383152D1*
X2671204Y2375967D1*
Y2371159D1*
X2673581Y2364029D1*
X2678389Y2359220D1*
X2683143Y2356844D1*
X2690328D1*
X2695136Y2359220D1*
X2699889Y2364029D1*
X2425711Y2310022D2*
X2423334Y2314775D1*
X2418526Y2319584D1*
X2413772Y2321960D1*
X2404211D1*
X2399402Y2319584D1*
X2394649Y2314775D1*
X2392217Y2310022D1*
X2389841Y2302837D1*
Y2290844D1*
X2392217Y2283714D1*
X2394649Y2278906D1*
X2399402Y2274152D1*
X2404211Y2271720D1*
X2413772D1*
X2418526Y2274152D1*
X2423334Y2278906D1*
X2425711Y2283714D1*
X2453088Y2305214D2*
X2448335Y2302837D1*
X2443526Y2298029D1*
X2441150Y2290844D1*
Y2286091D1*
X2443526Y2278906D1*
X2448335Y2274152D1*
X2453088Y2271720D1*
X2460273D1*
X2465082Y2274152D1*
X2469835Y2278906D1*
X2472267Y2286091D1*
Y2290844D1*
X2469835Y2298029D1*
X2465082Y2302837D1*
X2460273Y2305214D1*
X2453088D1*
X2487706D2*
Y2254974D1*
Y2298029D2*
X2492514Y2302782D1*
X2497267Y2305214D1*
X2504452D1*
X2509261Y2302782D1*
X2514014Y2298029D1*
X2516446Y2290844D1*
Y2286035D1*
X2514014Y2278906D1*
X2509261Y2274097D1*
X2504452Y2271720D1*
X2497267D1*
X2492514Y2274097D1*
X2487706Y2278906D1*
X2534317Y2305214D2*
X2548632Y2271720D1*
X2543879Y2262159D1*
X2539070Y2257350D1*
X2534317Y2254974D1*
X2531885D1*
X2563002Y2305214D2*
X2548632Y2271720D1*
X2578441Y2305214D2*
Y2271720D1*
Y2290844D2*
X2580873Y2298029D1*
X2585626Y2302837D1*
X2590435Y2305214D1*
X2597620D1*
X2613059Y2321960D2*
X2615436Y2319584D1*
X2617867Y2321960D1*
X2615436Y2324392D1*
X2613059Y2321960D1*
X2615436Y2305214D2*
Y2271720D1*
X2661992Y2302837D2*
Y2264535D1*
X2659615Y2257406D1*
X2657238Y2254974D1*
X2652430Y2252597D1*
X2645245D1*
X2640492Y2254974D1*
X2661992Y2295652D2*
X2657238Y2300405D1*
X2652430Y2302837D1*
X2645245D1*
X2640492Y2300405D1*
X2635683Y2295652D1*
X2633307Y2288467D1*
Y2283659D1*
X2635683Y2276529D1*
X2640492Y2271720D1*
X2645245Y2269344D1*
X2652430D1*
X2657238Y2271720D1*
X2661992Y2276529D1*
X2677431Y2321960D2*
Y2271720D1*
Y2295652D2*
X2684616Y2302837D1*
X2689424Y2305214D1*
X2696609D1*
X2701363Y2302837D1*
X2703739Y2295652D1*
Y2271720D1*
X2726363Y2321960D2*
Y2281282D1*
X2728740Y2274152D1*
X2733548Y2271720D1*
X2738302D1*
X2719178Y2305214D2*
X2735925D1*
X2831027Y2314775D2*
X2828650Y2319529D1*
X2821465Y2321905D1*
X2816712D1*
X2809527Y2319529D1*
X2804718Y2312344D1*
X2802342Y2300405D1*
Y2288467D1*
X2804718Y2278906D1*
X2809527Y2274097D1*
X2816712Y2271720D1*
X2819089D1*
X2826218Y2274097D1*
X2831027Y2278906D1*
X2833403Y2286091D1*
Y2288467D1*
X2831027Y2295652D1*
X2826218Y2300405D1*
X2819089Y2302782D1*
X2816712D1*
X2809527Y2300405D1*
X2804718Y2295652D1*
X2802342Y2288467D1*
X2848843Y2271720D2*
X2882336Y2321905D1*
X2900207Y2309967D2*
Y2312344D1*
X2902584Y2317152D1*
X2904960Y2319529D1*
X2909769Y2321905D1*
X2919330D1*
X2924083Y2319529D1*
X2926460Y2317152D1*
X2928892Y2312344D1*
Y2307590D1*
X2926460Y2302782D1*
X2921707Y2295652D1*
X2897775Y2271720D1*
X2931268D1*
X2961078Y2321905D2*
X2953893Y2319529D1*
X2949084Y2312344D1*
X2946708Y2300405D1*
Y2293220D1*
X2949084Y2281282D1*
X2953893Y2274097D1*
X2961078Y2271720D1*
X2965831D1*
X2973016Y2274097D1*
X2977769Y2281282D1*
X2980201Y2293220D1*
Y2300405D1*
X2977769Y2312344D1*
X2973016Y2319529D1*
X2965831Y2321905D1*
X2961078D1*
X2977769Y2312344D2*
X2949084Y2281282D1*
X2995640Y2312344D2*
X3000449Y2314775D1*
X3007634Y2321905D1*
Y2271720D1*
X3054190Y2305214D2*
X3051758Y2298029D1*
X3047005Y2293220D1*
X3039820Y2290844D1*
X3037443D1*
X3030258Y2293220D1*
X3025505Y2298029D1*
X3023073Y2305214D1*
Y2307590D1*
X3025505Y2314775D1*
X3030258Y2319529D1*
X3037443Y2321905D1*
X3039820D1*
X3047005Y2319529D1*
X3051758Y2314775D1*
X3054190Y2305214D1*
Y2293220D1*
X3051758Y2281282D1*
X3047005Y2274097D1*
X3039820Y2271720D1*
X3035067D1*
X3027882Y2274097D1*
X3025505Y2278906D1*
X2404211Y2234460D2*
X2399402Y2232084D1*
X2394649Y2227275D1*
X2392217Y2222522D1*
X2389841Y2215337D1*
Y2203344D1*
X2392217Y2196214D1*
X2394649Y2191406D1*
X2399402Y2186652D1*
X2404211Y2184220D1*
X2413772D1*
X2418526Y2186652D1*
X2423334Y2191406D1*
X2425711Y2196214D1*
X2428087Y2203344D1*
Y2215337D1*
X2425711Y2222522D1*
X2423334Y2227275D1*
X2418526Y2232084D1*
X2413772Y2234460D1*
X2404211D1*
X2443526Y2217714D2*
Y2167474D1*
Y2210529D2*
X2448335Y2215282D1*
X2453088Y2217714D1*
X2460273D1*
X2465082Y2215282D1*
X2469835Y2210529D1*
X2472267Y2203344D1*
Y2198535D1*
X2469835Y2191406D1*
X2465082Y2186597D1*
X2460273Y2184220D1*
X2453088D1*
X2448335Y2186597D1*
X2443526Y2191406D1*
X2487706Y2203344D2*
X2516391D1*
Y2208152D1*
X2514014Y2212961D1*
X2511638Y2215337D1*
X2506829Y2217714D1*
X2499644D1*
X2494891Y2215337D1*
X2490082Y2210529D1*
X2487706Y2203344D1*
Y2198591D1*
X2490082Y2191406D1*
X2494891Y2186652D1*
X2499644Y2184220D1*
X2506829D1*
X2511638Y2186652D1*
X2516391Y2191406D1*
X2531830Y2217714D2*
Y2184220D1*
Y2208152D2*
X2539015Y2215337D1*
X2543823Y2217714D1*
X2550953D1*
X2555762Y2215337D1*
X2558138Y2208152D1*
Y2184220D1*
X2655672Y2227275D2*
X2650919Y2232084D1*
X2643734Y2234460D1*
X2634172D1*
X2626987Y2232084D1*
X2622178Y2227275D1*
Y2222522D1*
X2624610Y2217714D1*
X2626987Y2215337D1*
X2631740Y2212961D1*
X2646110Y2208152D1*
X2650919Y2205776D1*
X2653295Y2203344D1*
X2655672Y2198591D1*
Y2191406D1*
X2650919Y2186652D1*
X2643734Y2184220D1*
X2634172D1*
X2626987Y2186652D1*
X2622178Y2191406D1*
X2683049Y2217714D2*
X2678296Y2215337D1*
X2673488Y2210529D1*
X2671111Y2203344D1*
Y2198591D1*
X2673488Y2191406D1*
X2678296Y2186652D1*
X2683049Y2184220D1*
X2690234D1*
X2695043Y2186652D1*
X2699796Y2191406D1*
X2702228Y2198591D1*
Y2203344D1*
X2699796Y2210529D1*
X2695043Y2215337D1*
X2690234Y2217714D1*
X2683049D1*
X2717667D2*
Y2193782D1*
X2720044Y2186652D1*
X2724852Y2184220D1*
X2732037D1*
X2736790Y2186652D1*
X2743975Y2193782D1*
Y2217714D2*
Y2184220D1*
X2759415Y2217714D2*
Y2184220D1*
Y2203344D2*
X2761846Y2210529D1*
X2766600Y2215337D1*
X2771408Y2217714D1*
X2778593D1*
X2822773Y2210529D2*
X2817964Y2215337D1*
X2813156Y2217714D1*
X2806026D1*
X2801217Y2215337D1*
X2796464Y2210529D1*
X2794032Y2203344D1*
Y2198591D1*
X2796464Y2191406D1*
X2801217Y2186652D1*
X2806026Y2184220D1*
X2813156D1*
X2817964Y2186652D1*
X2822773Y2191406D1*
X2838212Y2203344D2*
X2866897D1*
Y2208152D1*
X2864520Y2212961D1*
X2862143Y2215337D1*
X2857335Y2217714D1*
X2850150D1*
X2845397Y2215337D1*
X2840588Y2210529D1*
X2838212Y2203344D1*
Y2198591D1*
X2840588Y2191406D1*
X2845397Y2186652D1*
X2850150Y2184220D1*
X2857335D1*
X2862143Y2186652D1*
X2866897Y2191406D1*
X2966807Y2222522D2*
X2964430Y2227275D1*
X2959622Y2232084D1*
X2954869Y2234460D1*
X2945307D1*
X2940498Y2232084D1*
X2935745Y2227275D1*
X2933313Y2222522D1*
X2930937Y2215337D1*
Y2203344D1*
X2933313Y2196214D1*
X2935745Y2191406D1*
X2940498Y2186652D1*
X2945307Y2184220D1*
X2954869D1*
X2959622Y2186652D1*
X2964430Y2191406D1*
X2966807Y2196214D1*
X3018116Y2222522D2*
X3015739Y2227275D1*
X3010931Y2232084D1*
X3006178Y2234460D1*
X2996616D1*
X2991808Y2232084D1*
X2987054Y2227275D1*
X2984623Y2222522D1*
X2982246Y2215337D1*
Y2203344D1*
X2984623Y2196214D1*
X2987054Y2191406D1*
X2991808Y2186652D1*
X2996616Y2184220D1*
X3006178D1*
X3010931Y2186652D1*
X3015739Y2191406D1*
X3018116Y2196214D1*
X3057487Y2184220D2*
Y2234405D1*
X3033555Y2200967D1*
X3069425D1*
X3087241Y2189029D2*
X3084864Y2186597D1*
X3087241Y2184220D1*
X3089673Y2186597D1*
X3087241Y2189029D1*
X3119482Y2234405D2*
X3112297Y2232029D1*
X3107489Y2224844D1*
X3105112Y2212905D1*
Y2205720D1*
X3107489Y2193782D1*
X3112297Y2186597D1*
X3119482Y2184220D1*
X3124235D1*
X3131420Y2186597D1*
X3136174Y2193782D1*
X3138605Y2205720D1*
Y2212905D1*
X3136174Y2224844D1*
X3131420Y2232029D1*
X3124235Y2234405D1*
X3119482D1*
X3136174Y2224844D2*
X3107489Y2193782D1*
X3240947Y2184220D2*
X3221769Y2234460D1*
X3202646Y2184220D1*
X3209831Y2200967D2*
X3233762D1*
X3263572Y2234460D2*
Y2193782D1*
X3265948Y2186652D1*
X3270757Y2184220D1*
X3275510D1*
X3256387Y2217714D2*
X3273133D1*
X3298134Y2234460D2*
Y2193782D1*
X3300511Y2186652D1*
X3305319Y2184220D1*
X3310072D1*
X3290949Y2217714D2*
X3307696D1*
X3325512D2*
Y2184220D1*
Y2203344D2*
X3327944Y2210529D1*
X3332697Y2215337D1*
X3337505Y2217714D1*
X3344690D1*
X3360129Y2234460D2*
X3362506Y2232084D1*
X3364938Y2234460D1*
X3362506Y2236892D1*
X3360129Y2234460D1*
X3362506Y2217714D2*
Y2184220D1*
X3380377Y2234460D2*
Y2184220D1*
Y2210529D2*
X3385186Y2215337D1*
X3389939Y2217714D1*
X3397124D1*
X3401877Y2215337D1*
X3406685Y2210529D1*
X3409062Y2203344D1*
Y2198591D1*
X3406685Y2191406D1*
X3401877Y2186652D1*
X3397124Y2184220D1*
X3389939D1*
X3385186Y2186652D1*
X3380377Y2191406D1*
X3424501Y2184220D2*
X3457995Y2234405D1*
X3506927Y2227275D2*
X3502174Y2232084D1*
X3494989Y2234460D1*
X3485427D1*
X3478242Y2232084D1*
X3473434Y2227275D1*
Y2222522D1*
X3475866Y2217714D1*
X3478242Y2215337D1*
X3482995Y2212961D1*
X3497366Y2208152D1*
X3502174Y2205776D1*
X3504551Y2203344D1*
X3506927Y2198591D1*
Y2191406D1*
X3502174Y2186652D1*
X3494989Y2184220D1*
X3485427D1*
X3478242Y2186652D1*
X3473434Y2191406D1*
X3522366Y2234460D2*
Y2184220D1*
Y2208152D2*
X3529551Y2215337D1*
X3534360Y2217714D1*
X3541545D1*
X3546298Y2215337D1*
X3548675Y2208152D1*
Y2184220D1*
X3592799Y2217714D2*
Y2184220D1*
Y2210529D2*
X3588046Y2215337D1*
X3583237Y2217714D1*
X3576107D1*
X3571299Y2215337D1*
X3566546Y2210529D1*
X3564114Y2203344D1*
Y2198591D1*
X3566546Y2191406D1*
X3571299Y2186652D1*
X3576107Y2184220D1*
X3583237D1*
X3588046Y2186652D1*
X3592799Y2191406D1*
X3608238Y2217714D2*
Y2184220D1*
Y2203344D2*
X3610670Y2210529D1*
X3615423Y2215337D1*
X3620232Y2217714D1*
X3627417D1*
X3642856Y2203344D2*
X3671541D1*
Y2208152D1*
X3669164Y2212961D1*
X3666788Y2215337D1*
X3661979Y2217714D1*
X3654794D1*
X3650041Y2215337D1*
X3645232Y2210529D1*
X3642856Y2203344D1*
Y2198591D1*
X3645232Y2191406D1*
X3650041Y2186652D1*
X3654794Y2184220D1*
X3661979D1*
X3666788Y2186652D1*
X3671541Y2191406D1*
X3987933Y505399D2*
X4038173D1*
Y534083D1*
X3987933Y549523D2*
X3990310Y551899D1*
X3987933Y554331D1*
X3985501Y551899D1*
X3987933Y549523D1*
X4004680Y551899D2*
X4038173D1*
X4004680Y569770D2*
X4038173D1*
X4014241D2*
X4007056Y576955D1*
X4004680Y581764D1*
Y588894D1*
X4007056Y593702D1*
X4014241Y596079D1*
X4038173D1*
X4019050Y611518D2*
Y640203D1*
X4014241D1*
X4009433Y637826D1*
X4007056Y635449D1*
X4004680Y630641D1*
Y623456D1*
X4007056Y618703D1*
X4011865Y613894D1*
X4019050Y611518D1*
X4023803D1*
X4030988Y613894D1*
X4035741Y618703D1*
X4038173Y623456D1*
Y630641D1*
X4035741Y635449D1*
X4030988Y640203D1*
X4503873Y495393D2*
X4554113D1*
X4503873Y461900D1*
X4554113D1*
X4534989Y510832D2*
Y539517D1*
X4530181D1*
X4525373Y537141D1*
X4522996Y534764D1*
X4520619Y529956D1*
Y522771D1*
X4522996Y518017D1*
X4527804Y513209D1*
X4534989Y510832D1*
X4539743D1*
X4546928Y513209D1*
X4551681Y518017D1*
X4554113Y522771D1*
Y529956D1*
X4551681Y534764D1*
X4546928Y539517D1*
X4520619Y554956D2*
X4544551D1*
X4551681Y557333D1*
X4554113Y562141D1*
Y569327D1*
X4551681Y574080D1*
X4544551Y581265D1*
X4520619D2*
X4554113D1*
X4503873Y603889D2*
X4544551D1*
X4551681Y606266D1*
X4554113Y611074D1*
Y615827D1*
X4520619Y596704D2*
Y613451D1*
Y631266D2*
X4554113D1*
X4534989D2*
X4527804Y633698D1*
X4522996Y638452D1*
X4520619Y643260D1*
Y650445D1*
Y694569D2*
X4554113D1*
X4527804D2*
X4522996Y689816D1*
X4520619Y685008D1*
Y677878D1*
X4522996Y673069D1*
X4527804Y668316D1*
X4534989Y665884D1*
X4539743D1*
X4546928Y668316D1*
X4551681Y673069D1*
X4554113Y677878D1*
Y685008D1*
X4551681Y689816D1*
X4546928Y694569D1*
X4503873Y710008D2*
X4554113D1*
X2615858Y3531017D2*
X2666098D1*
X2632605Y3546456D2*
X2666098D1*
X2642167D2*
X2634981Y3553641D1*
X2632605Y3558449D1*
Y3565579D1*
X2634981Y3570388D1*
X2642167Y3572764D1*
X2666098D1*
X2615858Y3595388D2*
X2656537D1*
X2663666Y3597765D1*
X2666098Y3602573D1*
Y3607327D1*
X2632605Y3588203D2*
Y3604950D1*
X2615858Y3622766D2*
X2666098D1*
X2615858Y3638205D2*
X2666098D1*
X2632605Y3662137D2*
X2656537Y3638205D1*
X2646975Y3647767D2*
X2666098Y3664513D1*
X2278466Y3663172D2*
X2276090Y3667925D1*
X2271281Y3672733D1*
X2266528Y3675110D1*
X2256967D1*
X2252158Y3672733D1*
X2247405Y3667925D1*
X2244973Y3663172D1*
X2242597Y3655987D1*
Y3643993D1*
X2244973Y3636864D1*
X2247405Y3632055D1*
X2252158Y3627302D1*
X2256967Y3624870D1*
X2266528D1*
X2271281Y3627302D1*
X2276090Y3632055D1*
X2278466Y3636864D1*
Y3643993D1*
X2266528D1*
X2293906Y3658363D2*
Y3624870D1*
Y3648802D2*
X2301091Y3655987D1*
X2305899Y3658363D1*
X2313029D1*
X2317837Y3655987D1*
X2320214Y3648802D1*
Y3624870D1*
X2364338Y3675110D2*
Y3624870D1*
Y3651178D2*
X2359585Y3655987D1*
X2354777Y3658363D1*
X2347591D1*
X2342838Y3655987D1*
X2338030Y3651178D1*
X2335653Y3643993D1*
Y3639240D1*
X2338030Y3632055D1*
X2342838Y3627302D1*
X2347591Y3624870D1*
X2354777D1*
X2359585Y3627302D1*
X2364338Y3632055D1*
X2213069Y3540534D2*
X2234624D1*
X2241754Y3542911D1*
X2244186Y3545343D1*
X2246562Y3550096D1*
Y3557281D1*
X2244186Y3562034D1*
X2241754Y3564466D1*
X2234624Y3566842D1*
X2213069D1*
Y3516602D1*
X2262002Y3566842D2*
X2273995Y3516602D1*
X2285933Y3566842D1*
X2297872Y3516602D1*
X2309865Y3566842D1*
X2363551Y3516602D2*
Y3566842D1*
X2344428Y3516602D1*
X2325304Y3566842D1*
Y3516602D1*
X2426104Y2580495D2*
X2423728Y2585248D1*
X2418919Y2590056D1*
X2414166Y2592433D1*
X2404604D1*
X2399796Y2590056D1*
X2395043Y2585248D1*
X2392611Y2580495D1*
X2390234Y2573310D1*
Y2561316D1*
X2392611Y2554186D1*
X2395043Y2549378D1*
X2399796Y2544625D1*
X2404604Y2542193D1*
X2414166D1*
X2418919Y2544625D1*
X2423728Y2549378D1*
X2426104Y2554186D1*
Y2561316D1*
X2414166D1*
X2441544Y2575686D2*
Y2542193D1*
Y2561316D2*
X2443975Y2568501D1*
X2448729Y2573310D1*
X2453537Y2575686D1*
X2460722D1*
X2476161Y2592433D2*
Y2542193D1*
Y2568501D2*
X2480970Y2573310D1*
X2485723Y2575686D1*
X2492908D1*
X2497661Y2573310D1*
X2502470Y2568501D1*
X2504846Y2561316D1*
Y2556563D1*
X2502470Y2549378D1*
X2497661Y2544625D1*
X2492908Y2542193D1*
X2485723D1*
X2480970Y2544625D1*
X2476161Y2549378D1*
X2520285Y2592433D2*
Y2542193D1*
X2535725Y2533902D2*
X2581156D1*
X2627657Y2592433D2*
X2596595D1*
Y2542193D1*
X2627657D1*
X2596595Y2568501D2*
X2615719D1*
X2676590Y2585248D2*
X2671836Y2590056D1*
X2664651Y2592433D1*
X2655090D1*
X2647905Y2590056D1*
X2643096Y2585248D1*
Y2580495D1*
X2645528Y2575686D1*
X2647905Y2573310D1*
X2652658Y2570933D1*
X2667028Y2566125D1*
X2671836Y2563748D1*
X2674213Y2561316D1*
X2676590Y2556563D1*
Y2549378D1*
X2671836Y2544625D1*
X2664651Y2542193D1*
X2655090D1*
X2647905Y2544625D1*
X2643096Y2549378D1*
X2692029Y2566125D2*
X2713584D1*
X2720714Y2568501D1*
X2723146Y2570933D1*
X2725522Y2575686D1*
Y2582871D1*
X2723146Y2587624D1*
X2720714Y2590056D1*
X2713584Y2592433D1*
X2692029D1*
Y2542193D1*
X2745770Y2592378D2*
X2772023D1*
X2757708Y2573254D1*
X2764893D1*
X2769646Y2570878D1*
X2772023Y2568501D1*
X2774455Y2561316D1*
Y2556563D1*
X2772023Y2549378D1*
X2767270Y2544569D1*
X2760085Y2542193D1*
X2752900D1*
X2745770Y2544569D1*
X2743393Y2547001D1*
X2740961Y2551755D1*
X2792326Y2580439D2*
Y2582816D1*
X2794702Y2587624D1*
X2797079Y2590001D1*
X2801887Y2592378D1*
X2811449D1*
X2816202Y2590001D1*
X2818579Y2587624D1*
X2821011Y2582816D1*
Y2578063D1*
X2818579Y2573254D1*
X2813826Y2566125D1*
X2789894Y2542193D1*
X2823387D1*
X1378833Y3539184D2*
X1376456Y3543937D1*
X1371648Y3548745D1*
X1366894Y3551122D1*
X1357333D1*
X1352524Y3548745D1*
X1347771Y3543937D1*
X1345339Y3539184D1*
X1342963Y3531999D1*
Y3520005D1*
X1345339Y3512875D1*
X1347771Y3508067D1*
X1352524Y3503314D1*
X1357333Y3500882D1*
X1366894D1*
X1371648Y3503314D1*
X1376456Y3508067D1*
X1378833Y3512875D1*
Y3520005D1*
X1366894D1*
X1394272Y3534375D2*
Y3500882D1*
Y3524814D2*
X1401457Y3531999D1*
X1406265Y3534375D1*
X1413395D1*
X1418204Y3531999D1*
X1420580Y3524814D1*
Y3500882D1*
X1464704Y3551122D2*
Y3500882D1*
Y3527190D2*
X1459951Y3531999D1*
X1455143Y3534375D1*
X1447958D1*
X1443204Y3531999D1*
X1438396Y3527190D1*
X1436019Y3520005D1*
Y3515252D1*
X1438396Y3508067D1*
X1443204Y3503314D1*
X1447958Y3500882D1*
X1455143D1*
X1459951Y3503314D1*
X1464704Y3508067D1*
X1337202Y3028550D2*
D124*
Y2997953D1*
X1335301Y2992205D1*
X1333355Y2990304D1*
X1329553Y2988358D1*
X1325706D1*
X1321904Y2990304D1*
X1320002Y2992205D1*
X1318057Y2997953D1*
Y3001756D1*
X1349554Y3015153D2*
Y2996008D1*
X1351455Y2990304D1*
X1355302Y2988358D1*
X1361050D1*
X1364852Y2990304D1*
X1370600Y2996008D1*
Y3015153D2*
Y2988358D1*
X1382952Y3015153D2*
Y2988358D1*
Y3007504D2*
X1388700Y3013252D1*
X1392546Y3015153D1*
X1398250D1*
X1402097Y3013252D1*
X1403998Y3007504D1*
Y2988358D1*
Y3007504D2*
X1409746Y3013252D1*
X1413593Y3015153D1*
X1419297D1*
X1423144Y3013252D1*
X1425089Y3007504D1*
Y2988358D1*
X1437441Y3015153D2*
Y2974961D1*
Y3009405D2*
X1441287Y3013208D1*
X1445090Y3015153D1*
X1450838D1*
X1454685Y3013208D1*
X1458487Y3009405D1*
X1460433Y3003657D1*
Y2999810D1*
X1458487Y2994106D1*
X1454685Y2990260D1*
X1450838Y2988358D1*
X1445090D1*
X1441287Y2990260D1*
X1437441Y2994106D1*
X1472784Y3003657D2*
X1495732D1*
Y3007504D1*
X1493831Y3011350D1*
X1491929Y3013252D1*
X1488083Y3015153D1*
X1482335D1*
X1478532Y3013252D1*
X1474685Y3009405D1*
X1472784Y3003657D1*
Y2999854D1*
X1474685Y2994106D1*
X1478532Y2990304D1*
X1482335Y2988358D1*
X1488083D1*
X1491929Y2990304D1*
X1495732Y2994106D1*
X1508083Y3015153D2*
Y2988358D1*
Y3003657D2*
X1510029Y3009405D1*
X1513831Y3013252D1*
X1517678Y3015153D1*
X1523426D1*
X1580406Y3028550D2*
Y2996008D1*
X1582308Y2990304D1*
X1586154Y2988358D1*
X1589957D1*
X1574658Y3015153D2*
X1588056D1*
X1611859D2*
X1608056Y3013252D1*
X1604210Y3009405D1*
X1602308Y3003657D1*
Y2999854D1*
X1604210Y2994106D1*
X1608056Y2990304D1*
X1611859Y2988358D1*
X1617607D1*
X1621454Y2990304D1*
X1625256Y2994106D1*
X1627202Y2999854D1*
Y3003657D1*
X1625256Y3009405D1*
X1621454Y3013252D1*
X1617607Y3015153D1*
X1611859D1*
X1367269Y2946255D2*
Y2927110D1*
X1369171Y2921406D1*
X1373018Y2919461D1*
X1378766D1*
X1382568Y2921406D1*
X1388316Y2927110D1*
Y2946255D2*
Y2919461D1*
X1421714Y2940507D2*
X1419813Y2944354D1*
X1414065Y2946255D1*
X1408317D1*
X1402569Y2944354D1*
X1400668Y2940507D1*
X1402569Y2936705D1*
X1406416Y2934759D1*
X1415966Y2932858D1*
X1419813Y2930957D1*
X1421714Y2927110D1*
Y2925209D1*
X1419813Y2921406D1*
X1414065Y2919461D1*
X1408317D1*
X1402569Y2921406D1*
X1400668Y2925209D1*
X1434066Y2934759D2*
X1457013D1*
Y2938606D1*
X1455112Y2942453D1*
X1453211Y2944354D1*
X1449364Y2946255D1*
X1443616D1*
X1439814Y2944354D1*
X1435967Y2940507D1*
X1434066Y2934759D1*
Y2930957D1*
X1435967Y2925209D1*
X1439814Y2921406D1*
X1443616Y2919461D1*
X1449364D1*
X1453211Y2921406D1*
X1457013Y2925209D1*
X1529292Y2940507D2*
X1527391Y2944354D1*
X1521643Y2946255D1*
X1515895D1*
X1510147Y2944354D1*
X1508246Y2940507D1*
X1510147Y2936705D1*
X1513994Y2934759D1*
X1523544Y2932858D1*
X1527391Y2930957D1*
X1529292Y2927110D1*
Y2925209D1*
X1527391Y2921406D1*
X1521643Y2919461D1*
X1515895D1*
X1510147Y2921406D1*
X1508246Y2925209D1*
X1547392Y2959653D2*
Y2927110D1*
X1549293Y2921406D1*
X1553140Y2919461D1*
X1556942D1*
X1541644Y2946255D2*
X1555041D1*
X1592242D2*
Y2919461D1*
Y2940507D2*
X1588439Y2944354D1*
X1584592Y2946255D1*
X1578888D1*
X1575042Y2944354D1*
X1571239Y2940507D1*
X1569294Y2934759D1*
Y2930957D1*
X1571239Y2925209D1*
X1575042Y2921406D1*
X1578888Y2919461D1*
X1584592D1*
X1588439Y2921406D1*
X1592242Y2925209D1*
X1604593Y2959653D2*
Y2919461D1*
X1616944Y2959653D2*
Y2919461D1*
X1360690Y2900598D2*
Y2860406D1*
Y2881452D2*
X1356887Y2885299D1*
X1353041Y2887200D1*
X1347292D1*
X1343490Y2885299D1*
X1339643Y2881452D1*
X1337742Y2875704D1*
Y2871902D1*
X1339643Y2866154D1*
X1343490Y2862351D1*
X1347292Y2860406D1*
X1353041D1*
X1356887Y2862351D1*
X1360690Y2866154D1*
X1373041Y2875704D2*
X1395989D1*
Y2879551D1*
X1394088Y2883398D1*
X1392187Y2885299D1*
X1388340Y2887200D1*
X1382592D1*
X1378789Y2885299D1*
X1374942Y2881452D1*
X1373041Y2875704D1*
Y2871902D1*
X1374942Y2866154D1*
X1378789Y2862351D1*
X1382592Y2860406D1*
X1388340D1*
X1392187Y2862351D1*
X1395989Y2866154D1*
X1414089Y2900598D2*
Y2868055D1*
X1415990Y2862351D1*
X1419837Y2860406D1*
X1423639D1*
X1408341Y2887200D2*
X1421738D1*
X1435991Y2875704D2*
X1458938D1*
Y2879551D1*
X1457037Y2883398D1*
X1455136Y2885299D1*
X1451289Y2887200D1*
X1445541D1*
X1441739Y2885299D1*
X1437892Y2881452D1*
X1435991Y2875704D1*
Y2871902D1*
X1437892Y2866154D1*
X1441739Y2862351D1*
X1445541Y2860406D1*
X1451289D1*
X1455136Y2862351D1*
X1458938Y2866154D1*
X1494282Y2881452D2*
X1490435Y2885299D1*
X1486588Y2887200D1*
X1480885D1*
X1477038Y2885299D1*
X1473235Y2881452D1*
X1471290Y2875704D1*
Y2871902D1*
X1473235Y2866154D1*
X1477038Y2862351D1*
X1480885Y2860406D1*
X1486588D1*
X1490435Y2862351D1*
X1494282Y2866154D1*
X1512381Y2900598D2*
Y2868055D1*
X1514283Y2862351D1*
X1518129Y2860406D1*
X1521932D1*
X1506633Y2887200D2*
X1520031D1*
X1534283Y2900598D2*
X1536185Y2898696D1*
X1538130Y2900598D1*
X1536185Y2902543D1*
X1534283Y2900598D1*
X1536185Y2887200D2*
Y2860406D1*
X1560032Y2887200D2*
X1556230Y2885299D1*
X1552383Y2881452D1*
X1550482Y2875704D1*
Y2871902D1*
X1552383Y2866154D1*
X1556230Y2862351D1*
X1560032Y2860406D1*
X1565780D1*
X1569627Y2862351D1*
X1573429Y2866154D1*
X1575375Y2871902D1*
Y2875704D1*
X1573429Y2881452D1*
X1569627Y2885299D1*
X1565780Y2887200D1*
X1560032D1*
X1587726D2*
Y2860406D1*
Y2879551D2*
X1593474Y2885299D1*
X1597321Y2887200D1*
X1603025D1*
X1606872Y2885299D1*
X1608773Y2879551D1*
Y2860406D1*
X3016655Y3180888D2*
D125*
X3014279Y3185642D1*
X3009470Y3190450D1*
X3004717Y3192827D1*
X2995156D1*
X2990347Y3190450D1*
X2985594Y3185642D1*
X2983162Y3180888D1*
X2980786Y3173703D1*
Y3161710D1*
X2983162Y3154580D1*
X2985594Y3149772D1*
X2990347Y3145018D1*
X2995156Y3142587D1*
X3004717D1*
X3009470Y3145018D1*
X3014279Y3149772D1*
X3016655Y3154580D1*
Y3161710D1*
X3004717D1*
X3032095Y3176080D2*
Y3142587D1*
Y3166518D2*
X3039280Y3173703D1*
X3044088Y3176080D1*
X3051218D1*
X3056026Y3173703D1*
X3058403Y3166518D1*
Y3142587D1*
X3102527Y3192827D2*
Y3142587D1*
Y3168895D2*
X3097774Y3173703D1*
X3092966Y3176080D1*
X3085780D1*
X3081027Y3173703D1*
X3076219Y3168895D1*
X3073842Y3161710D1*
Y3156957D1*
X3076219Y3149772D1*
X3081027Y3145018D1*
X3085780Y3142587D1*
X3092966D1*
X3097774Y3145018D1*
X3102527Y3149772D1*
X3016655Y3289156D2*
X3014279Y3293909D1*
X3009470Y3298718D1*
X3004717Y3301094D1*
X2995156D1*
X2990347Y3298718D1*
X2985594Y3293909D1*
X2983162Y3289156D1*
X2980786Y3281971D1*
Y3269978D1*
X2983162Y3262848D1*
X2985594Y3258039D1*
X2990347Y3253286D1*
X2995156Y3250854D1*
X3004717D1*
X3009470Y3253286D1*
X3014279Y3258039D1*
X3016655Y3262848D1*
Y3269978D1*
X3004717D1*
X3032095Y3284348D2*
Y3250854D1*
Y3274786D2*
X3039280Y3281971D1*
X3044088Y3284348D1*
X3051218D1*
X3056026Y3281971D1*
X3058403Y3274786D1*
Y3250854D1*
X3102527Y3301094D2*
Y3250854D1*
Y3277163D2*
X3097774Y3281971D1*
X3092966Y3284348D1*
X3085780D1*
X3081027Y3281971D1*
X3076219Y3277163D1*
X3073842Y3269978D1*
Y3265224D1*
X3076219Y3258039D1*
X3081027Y3253286D1*
X3085780Y3250854D1*
X3092966D1*
X3097774Y3253286D1*
X3102527Y3258039D1*
X1333179Y1001480D2*
D126*
X1344653Y971336D1*
X1356127Y1001480D1*
X1382601D2*
Y971336D1*
Y987121D2*
X1379749Y990006D1*
X1376864Y991432D1*
X1372553D1*
X1369701Y990006D1*
X1366816Y987121D1*
X1365390Y982810D1*
Y979958D1*
X1366816Y975647D1*
X1369701Y972795D1*
X1372553Y971336D1*
X1376864D1*
X1379749Y972795D1*
X1382601Y975647D1*
X1409075Y1001480D2*
Y971336D1*
Y987121D2*
X1406224Y990006D1*
X1403339Y991432D1*
X1399027D1*
X1396176Y990006D1*
X1393291Y987121D1*
X1391865Y982810D1*
Y979958D1*
X1393291Y975647D1*
X1396176Y972795D1*
X1399027Y971336D1*
X1403339D1*
X1406224Y972795D1*
X1409075Y975647D1*
X2110738Y1001480D2*
X2122212Y971336D1*
X2133686Y1001480D1*
X2160160D2*
Y971336D1*
Y987121D2*
X2157308Y990006D1*
X2154423Y991432D1*
X2150112D1*
X2147260Y990006D1*
X2144375Y987121D1*
X2142949Y982810D1*
Y979958D1*
X2144375Y975647D1*
X2147260Y972795D1*
X2150112Y971336D1*
X2154423D1*
X2157308Y972795D1*
X2160160Y975647D1*
X2186635Y1001480D2*
Y971336D1*
Y987121D2*
X2183783Y990006D1*
X2180898Y991432D1*
X2176587D1*
X2173735Y990006D1*
X2170850Y987121D1*
X2169424Y982810D1*
Y979958D1*
X2170850Y975647D1*
X2173735Y972795D1*
X2176587Y971336D1*
X2180898D1*
X2183783Y972795D1*
X2186635Y975647D1*
X2917824Y1001480D2*
X2929298Y971336D1*
X2940772Y1001480D1*
X2967247D2*
Y971336D1*
Y987121D2*
X2964395Y990006D1*
X2961510Y991432D1*
X2957199D1*
X2954347Y990006D1*
X2951462Y987121D1*
X2950036Y982810D1*
Y979958D1*
X2951462Y975647D1*
X2954347Y972795D1*
X2957199Y971336D1*
X2961510D1*
X2964395Y972795D1*
X2967247Y975647D1*
X2993721Y1001480D2*
Y971336D1*
Y987121D2*
X2990869Y990006D1*
X2987984Y991432D1*
X2983673D1*
X2980821Y990006D1*
X2977936Y987121D1*
X2976510Y982810D1*
Y979958D1*
X2977936Y975647D1*
X2980821Y972795D1*
X2983673Y971336D1*
X2987984D1*
X2990869Y972795D1*
X2993721Y975647D1*
X3764281Y1001480D2*
X3775755Y971336D1*
X3787229Y1001480D1*
X3813703D2*
Y971336D1*
Y987121D2*
X3810851Y990006D1*
X3807966Y991432D1*
X3803655D1*
X3800803Y990006D1*
X3797918Y987121D1*
X3796492Y982810D1*
Y979958D1*
X3797918Y975647D1*
X3800803Y972795D1*
X3803655Y971336D1*
X3807966D1*
X3810851Y972795D1*
X3813703Y975647D1*
X3840178Y1001480D2*
Y971336D1*
Y987121D2*
X3837326Y990006D1*
X3834441Y991432D1*
X3830130D1*
X3827278Y990006D1*
X3824393Y987121D1*
X3822967Y982810D1*
Y979958D1*
X3824393Y975647D1*
X3827278Y972795D1*
X3830130Y971336D1*
X3834441D1*
X3837326Y972795D1*
X3840178Y975647D1*
X1354701Y895892D2*
X1353275Y898744D1*
X1350390Y901629D1*
X1347538Y903055D1*
X1341801D1*
X1338916Y901629D1*
X1336064Y898744D1*
X1334605Y895892D1*
X1333179Y891581D1*
Y884385D1*
X1334605Y880107D1*
X1336064Y877222D1*
X1338916Y874370D1*
X1341801Y872911D1*
X1347538D1*
X1350390Y874370D1*
X1353275Y877222D1*
X1354701Y880107D1*
Y884385D1*
X1347538D1*
X1363964Y893007D2*
Y872911D1*
Y887270D2*
X1368275Y891581D1*
X1371160Y893007D1*
X1375438D1*
X1378323Y891581D1*
X1379749Y887270D1*
Y872911D1*
X1406224Y903055D2*
Y872911D1*
Y888696D2*
X1403372Y891581D1*
X1400487Y893007D1*
X1396176D1*
X1393324Y891581D1*
X1390439Y888696D1*
X1389013Y884385D1*
Y881533D1*
X1390439Y877222D1*
X1393324Y874370D1*
X1396176Y872911D1*
X1400487D1*
X1403372Y874370D1*
X1406224Y877222D1*
X683983Y1007012D2*
X681131Y1009897D1*
X676820Y1011323D1*
X671083D1*
X666772Y1009897D1*
X663887Y1007012D1*
Y1004160D1*
X665346Y1001275D1*
X666772Y999849D1*
X669624Y998423D1*
X678246Y995538D1*
X681131Y994112D1*
X682557Y992653D1*
X683983Y989801D1*
Y985490D1*
X681131Y982638D1*
X676820Y981179D1*
X671083D1*
X666772Y982638D1*
X663887Y985490D1*
X697558Y1011323D2*
Y986916D1*
X698984Y982638D1*
X701869Y981179D1*
X704721D1*
X693247Y1001275D2*
X703295D1*
X663887Y912897D2*
Y882753D1*
X673935D1*
X678246Y884213D1*
X681131Y887065D1*
X682557Y889950D1*
X683983Y894227D1*
Y901424D1*
X682557Y905735D1*
X681131Y908586D1*
X678246Y911472D1*
X673935Y912897D1*
X663887D1*
X693247Y902849D2*
Y882753D1*
Y894227D2*
X694706Y898538D1*
X697558Y901424D1*
X700443Y902849D1*
X704754D1*
X685409Y1102585D2*
X683983Y1105437D1*
X681098Y1108322D1*
X678246Y1109748D1*
X672509D1*
X669624Y1108322D1*
X666772Y1105437D1*
X665313Y1102585D1*
X663887Y1098274D1*
Y1091078D1*
X665313Y1086800D1*
X666772Y1083915D1*
X669624Y1081063D1*
X672509Y1079604D1*
X678246D1*
X681098Y1081063D1*
X683983Y1083915D1*
X685409Y1086800D1*
X694673Y1109748D2*
Y1079604D1*
X709032Y1099700D2*
X694673Y1085341D1*
X700410Y1091078D2*
X710458Y1079604D1*
X644613Y1203862D2*
X641761Y1206747D1*
X637450Y1208173D1*
X631713D1*
X627402Y1206747D1*
X624517Y1203862D1*
Y1201010D1*
X625976Y1198125D1*
X627402Y1196699D1*
X630254Y1195273D1*
X638876Y1192388D1*
X641761Y1190962D1*
X643187Y1189503D1*
X644613Y1186651D1*
Y1182340D1*
X641761Y1179488D1*
X637450Y1178029D1*
X631713D1*
X627402Y1179488D1*
X624517Y1182340D1*
X653877Y1208173D2*
Y1178029D1*
X663925D1*
X668236Y1179488D1*
X671121Y1182340D1*
X672547Y1185225D1*
X673973Y1189503D1*
Y1196699D1*
X672547Y1201010D1*
X671121Y1203862D1*
X668236Y1206747D1*
X663925Y1208173D1*
X653877D1*
X691858D2*
X688973Y1206747D1*
X686121Y1203862D1*
X684662Y1201010D1*
X683236Y1196699D1*
Y1189503D1*
X684662Y1185225D1*
X686121Y1182340D1*
X688973Y1179488D1*
X691858Y1178029D1*
X697595D1*
X700447Y1179488D1*
X703332Y1182340D1*
X704758Y1185225D1*
X706184Y1189503D1*
Y1196699D1*
X704758Y1201010D1*
X703332Y1203862D1*
X700447Y1206747D1*
X697595Y1208173D1*
X691858D1*
X674141Y1302287D2*
X671289Y1305172D1*
X666978Y1306598D1*
X661241D1*
X656930Y1305172D1*
X654045Y1302287D1*
Y1299435D1*
X655504Y1296550D1*
X656930Y1295124D1*
X659782Y1293698D1*
X668404Y1290813D1*
X671289Y1289387D1*
X672715Y1287928D1*
X674141Y1285076D1*
Y1280765D1*
X671289Y1277913D1*
X666978Y1276454D1*
X661241D1*
X656930Y1277913D1*
X654045Y1280765D1*
X704926Y1299435D2*
X703500Y1302287D1*
X700615Y1305172D1*
X697763Y1306598D1*
X692026D1*
X689141Y1305172D1*
X686289Y1302287D1*
X684830Y1299435D1*
X683404Y1295124D1*
Y1287928D1*
X684830Y1283650D1*
X686289Y1280765D1*
X689141Y1277913D1*
X692026Y1276454D1*
X697763D1*
X700615Y1277913D1*
X703500Y1280765D1*
X704926Y1283650D1*
X644613Y1400712D2*
X641761Y1403598D1*
X637450Y1405023D1*
X631713D1*
X627402Y1403598D1*
X624517Y1400712D1*
Y1397861D1*
X625976Y1394975D1*
X627402Y1393550D1*
X630254Y1392124D1*
X638876Y1389238D1*
X641761Y1387813D1*
X643187Y1386353D1*
X644613Y1383502D1*
Y1379190D1*
X641761Y1376339D1*
X637450Y1374879D1*
X631713D1*
X627402Y1376339D1*
X624517Y1379190D1*
X675399Y1397861D2*
X673973Y1400712D1*
X671088Y1403598D1*
X668236Y1405023D1*
X662499D1*
X659614Y1403598D1*
X656762Y1400712D1*
X655303Y1397861D1*
X653877Y1393550D1*
Y1386353D1*
X655303Y1382076D1*
X656762Y1379190D1*
X659614Y1376339D1*
X662499Y1374879D1*
X668236D1*
X671088Y1376339D1*
X673973Y1379190D1*
X675399Y1382076D1*
X684662Y1405023D2*
Y1374879D1*
X704758Y1405023D2*
X684662Y1384927D1*
X691825Y1392124D2*
X704758Y1374879D1*
X664298Y1508980D2*
X661446Y1511865D1*
X657135Y1513291D1*
X651398D1*
X647087Y1511865D1*
X644202Y1508980D1*
Y1506128D1*
X645661Y1503243D1*
X647087Y1501817D1*
X649939Y1500391D1*
X658561Y1497506D1*
X661446Y1496080D1*
X662872Y1494621D1*
X664298Y1491769D1*
Y1487458D1*
X661446Y1484606D1*
X657135Y1483147D1*
X651398D1*
X647087Y1484606D1*
X644202Y1487458D1*
X673562Y1513291D2*
Y1483147D1*
X683610D1*
X687921Y1484606D1*
X690806Y1487458D1*
X692232Y1490343D1*
X693658Y1494621D1*
Y1501817D1*
X692232Y1506128D1*
X690806Y1508980D1*
X687921Y1511865D1*
X683610Y1513291D1*
X673562D1*
X702921D2*
Y1483147D1*
X672682Y1611716D2*
X654045D1*
Y1581572D1*
X672682D1*
X654045Y1597357D2*
X665519D1*
X681945Y1601668D2*
Y1581572D1*
Y1595931D2*
X686256Y1600242D1*
X689141Y1601668D1*
X693419D1*
X696304Y1600242D1*
X697730Y1595931D1*
Y1581572D1*
X1461542Y1007012D2*
X1458690Y1009897D1*
X1454379Y1011323D1*
X1448642D1*
X1444331Y1009897D1*
X1441446Y1007012D1*
Y1004160D1*
X1442905Y1001275D1*
X1444331Y999849D1*
X1447183Y998423D1*
X1455805Y995538D1*
X1458690Y994112D1*
X1460116Y992653D1*
X1461542Y989801D1*
Y985490D1*
X1458690Y982638D1*
X1454379Y981179D1*
X1448642D1*
X1444331Y982638D1*
X1441446Y985490D1*
X1475117Y1011323D2*
Y986916D1*
X1476543Y982638D1*
X1479428Y981179D1*
X1482280D1*
X1470806Y1001275D2*
X1480854D1*
X1462968Y1102585D2*
X1461542Y1105437D1*
X1458657Y1108322D1*
X1455805Y1109748D1*
X1450068D1*
X1447183Y1108322D1*
X1444331Y1105437D1*
X1442872Y1102585D1*
X1441446Y1098274D1*
Y1091078D1*
X1442872Y1086800D1*
X1444331Y1083915D1*
X1447183Y1081063D1*
X1450068Y1079604D1*
X1455805D1*
X1458657Y1081063D1*
X1461542Y1083915D1*
X1462968Y1086800D1*
X1472232Y1109748D2*
Y1079604D1*
X1486591Y1099700D2*
X1472232Y1085341D1*
X1477969Y1091078D2*
X1488017Y1079604D1*
X1422172Y1203862D2*
X1419320Y1206747D1*
X1415009Y1208173D1*
X1409272D1*
X1404961Y1206747D1*
X1402076Y1203862D1*
Y1201010D1*
X1403535Y1198125D1*
X1404961Y1196699D1*
X1407813Y1195273D1*
X1416435Y1192388D1*
X1419320Y1190962D1*
X1420746Y1189503D1*
X1422172Y1186651D1*
Y1182340D1*
X1419320Y1179488D1*
X1415009Y1178029D1*
X1409272D1*
X1404961Y1179488D1*
X1402076Y1182340D1*
X1431436Y1208173D2*
Y1178029D1*
X1441484D1*
X1445795Y1179488D1*
X1448680Y1182340D1*
X1450106Y1185225D1*
X1451532Y1189503D1*
Y1196699D1*
X1450106Y1201010D1*
X1448680Y1203862D1*
X1445795Y1206747D1*
X1441484Y1208173D1*
X1431436D1*
X1469417D2*
X1466532Y1206747D1*
X1463680Y1203862D1*
X1462221Y1201010D1*
X1460795Y1196699D1*
Y1189503D1*
X1462221Y1185225D1*
X1463680Y1182340D1*
X1466532Y1179488D1*
X1469417Y1178029D1*
X1475154D1*
X1478006Y1179488D1*
X1480891Y1182340D1*
X1482317Y1185225D1*
X1483743Y1189503D1*
Y1196699D1*
X1482317Y1201010D1*
X1480891Y1203862D1*
X1478006Y1206747D1*
X1475154Y1208173D1*
X1469417D1*
X1451700Y1302287D2*
X1448848Y1305172D1*
X1444537Y1306598D1*
X1438800D1*
X1434489Y1305172D1*
X1431604Y1302287D1*
Y1299435D1*
X1433063Y1296550D1*
X1434489Y1295124D1*
X1437341Y1293698D1*
X1445963Y1290813D1*
X1448848Y1289387D1*
X1450274Y1287928D1*
X1451700Y1285076D1*
Y1280765D1*
X1448848Y1277913D1*
X1444537Y1276454D1*
X1438800D1*
X1434489Y1277913D1*
X1431604Y1280765D1*
X1482485Y1299435D2*
X1481059Y1302287D1*
X1478174Y1305172D1*
X1475322Y1306598D1*
X1469585D1*
X1466700Y1305172D1*
X1463848Y1302287D1*
X1462389Y1299435D1*
X1460963Y1295124D1*
Y1287928D1*
X1462389Y1283650D1*
X1463848Y1280765D1*
X1466700Y1277913D1*
X1469585Y1276454D1*
X1475322D1*
X1478174Y1277913D1*
X1481059Y1280765D1*
X1482485Y1283650D1*
X1422172Y1400712D2*
X1419320Y1403598D1*
X1415009Y1405023D1*
X1409272D1*
X1404961Y1403598D1*
X1402076Y1400712D1*
Y1397861D1*
X1403535Y1394975D1*
X1404961Y1393550D1*
X1407813Y1392124D1*
X1416435Y1389238D1*
X1419320Y1387813D1*
X1420746Y1386353D1*
X1422172Y1383502D1*
Y1379190D1*
X1419320Y1376339D1*
X1415009Y1374879D1*
X1409272D1*
X1404961Y1376339D1*
X1402076Y1379190D1*
X1452958Y1397861D2*
X1451532Y1400712D1*
X1448647Y1403598D1*
X1445795Y1405023D1*
X1440058D1*
X1437173Y1403598D1*
X1434321Y1400712D1*
X1432862Y1397861D1*
X1431436Y1393550D1*
Y1386353D1*
X1432862Y1382076D1*
X1434321Y1379190D1*
X1437173Y1376339D1*
X1440058Y1374879D1*
X1445795D1*
X1448647Y1376339D1*
X1451532Y1379190D1*
X1452958Y1382076D1*
X1462221Y1405023D2*
Y1374879D1*
X1482317Y1405023D2*
X1462221Y1384927D1*
X1469384Y1392124D2*
X1482317Y1374879D1*
X1441857Y1508980D2*
X1439005Y1511865D1*
X1434694Y1513291D1*
X1428957D1*
X1424646Y1511865D1*
X1421761Y1508980D1*
Y1506128D1*
X1423220Y1503243D1*
X1424646Y1501817D1*
X1427498Y1500391D1*
X1436120Y1497506D1*
X1439005Y1496080D1*
X1440431Y1494621D1*
X1441857Y1491769D1*
Y1487458D1*
X1439005Y1484606D1*
X1434694Y1483147D1*
X1428957D1*
X1424646Y1484606D1*
X1421761Y1487458D1*
X1451121Y1513291D2*
Y1483147D1*
X1461169D1*
X1465480Y1484606D1*
X1468365Y1487458D1*
X1469791Y1490343D1*
X1471217Y1494621D1*
Y1501817D1*
X1469791Y1506128D1*
X1468365Y1508980D1*
X1465480Y1511865D1*
X1461169Y1513291D1*
X1451121D1*
X1480480D2*
Y1483147D1*
X1450241Y1611716D2*
X1431604D1*
Y1581572D1*
X1450241D1*
X1431604Y1597357D2*
X1443078D1*
X1459504Y1601668D2*
Y1581572D1*
Y1595931D2*
X1463815Y1600242D1*
X1466700Y1601668D1*
X1470978D1*
X1473863Y1600242D1*
X1475289Y1595931D1*
Y1581572D1*
X2258786Y1007012D2*
X2255935Y1009897D1*
X2251623Y1011323D1*
X2245887D1*
X2241575Y1009897D1*
X2238690Y1007012D1*
Y1004160D1*
X2240150Y1001275D1*
X2241575Y999849D1*
X2244427Y998423D1*
X2253049Y995538D1*
X2255935Y994112D1*
X2257360Y992653D1*
X2258786Y989801D1*
Y985490D1*
X2255935Y982638D1*
X2251623Y981179D1*
X2245887D1*
X2241575Y982638D1*
X2238690Y985490D1*
X2272361Y1011323D2*
Y986916D1*
X2273787Y982638D1*
X2276672Y981179D1*
X2279524D1*
X2268050Y1001275D2*
X2278098D1*
X2260212Y1102585D2*
X2258786Y1105437D1*
X2255901Y1108322D1*
X2253049Y1109748D1*
X2247312D1*
X2244427Y1108322D1*
X2241575Y1105437D1*
X2240116Y1102585D1*
X2238690Y1098274D1*
Y1091078D1*
X2240116Y1086800D1*
X2241575Y1083915D1*
X2244427Y1081063D1*
X2247312Y1079604D1*
X2253049D1*
X2255901Y1081063D1*
X2258786Y1083915D1*
X2260212Y1086800D1*
X2269476Y1109748D2*
Y1079604D1*
X2283835Y1099700D2*
X2269476Y1085341D1*
X2275213Y1091078D2*
X2285261Y1079604D1*
X2219416Y1203862D2*
X2216564Y1206747D1*
X2212253Y1208173D1*
X2206516D1*
X2202205Y1206747D1*
X2199320Y1203862D1*
Y1201010D1*
X2200779Y1198125D1*
X2202205Y1196699D1*
X2205057Y1195273D1*
X2213679Y1192388D1*
X2216564Y1190962D1*
X2217990Y1189503D1*
X2219416Y1186651D1*
Y1182340D1*
X2216564Y1179488D1*
X2212253Y1178029D1*
X2206516D1*
X2202205Y1179488D1*
X2199320Y1182340D1*
X2228680Y1208173D2*
Y1178029D1*
X2238728D1*
X2243039Y1179488D1*
X2245924Y1182340D1*
X2247350Y1185225D1*
X2248776Y1189503D1*
Y1196699D1*
X2247350Y1201010D1*
X2245924Y1203862D1*
X2243039Y1206747D1*
X2238728Y1208173D1*
X2228680D1*
X2266661D2*
X2263776Y1206747D1*
X2260925Y1203862D1*
X2259465Y1201010D1*
X2258039Y1196699D1*
Y1189503D1*
X2259465Y1185225D1*
X2260925Y1182340D1*
X2263776Y1179488D1*
X2266661Y1178029D1*
X2272398D1*
X2275250Y1179488D1*
X2278135Y1182340D1*
X2279561Y1185225D1*
X2280987Y1189503D1*
Y1196699D1*
X2279561Y1201010D1*
X2278135Y1203862D1*
X2275250Y1206747D1*
X2272398Y1208173D1*
X2266661D1*
X2248944Y1302287D2*
X2246092Y1305172D1*
X2241781Y1306598D1*
X2236044D1*
X2231733Y1305172D1*
X2228848Y1302287D1*
Y1299435D1*
X2230307Y1296550D1*
X2231733Y1295124D1*
X2234585Y1293698D1*
X2243207Y1290813D1*
X2246092Y1289387D1*
X2247518Y1287928D1*
X2248944Y1285076D1*
Y1280765D1*
X2246092Y1277913D1*
X2241781Y1276454D1*
X2236044D1*
X2231733Y1277913D1*
X2228848Y1280765D1*
X2279729Y1299435D2*
X2278303Y1302287D1*
X2275418Y1305172D1*
X2272566Y1306598D1*
X2266830D1*
X2263944Y1305172D1*
X2261093Y1302287D1*
X2259633Y1299435D1*
X2258207Y1295124D1*
Y1287928D1*
X2259633Y1283650D1*
X2261093Y1280765D1*
X2263944Y1277913D1*
X2266830Y1276454D1*
X2272566D1*
X2275418Y1277913D1*
X2278303Y1280765D1*
X2279729Y1283650D1*
X2219416Y1400712D2*
X2216564Y1403598D1*
X2212253Y1405023D1*
X2206516D1*
X2202205Y1403598D1*
X2199320Y1400712D1*
Y1397861D1*
X2200779Y1394975D1*
X2202205Y1393550D1*
X2205057Y1392124D1*
X2213679Y1389238D1*
X2216564Y1387813D1*
X2217990Y1386353D1*
X2219416Y1383502D1*
Y1379190D1*
X2216564Y1376339D1*
X2212253Y1374879D1*
X2206516D1*
X2202205Y1376339D1*
X2199320Y1379190D1*
X2250202Y1397861D2*
X2248776Y1400712D1*
X2245891Y1403598D1*
X2243039Y1405023D1*
X2237302D1*
X2234417Y1403598D1*
X2231565Y1400712D1*
X2230106Y1397861D1*
X2228680Y1393550D1*
Y1386353D1*
X2230106Y1382076D1*
X2231565Y1379190D1*
X2234417Y1376339D1*
X2237302Y1374879D1*
X2243039D1*
X2245891Y1376339D1*
X2248776Y1379190D1*
X2250202Y1382076D1*
X2259465Y1405023D2*
Y1374879D1*
X2279561Y1405023D2*
X2259465Y1384927D1*
X2266628Y1392124D2*
X2279561Y1374879D1*
X2239101Y1508980D2*
X2236249Y1511865D1*
X2231938Y1513291D1*
X2226201D1*
X2221890Y1511865D1*
X2219005Y1508980D1*
Y1506128D1*
X2220465Y1503243D1*
X2221890Y1501817D1*
X2224742Y1500391D1*
X2233364Y1497506D1*
X2236249Y1496080D1*
X2237675Y1494621D1*
X2239101Y1491769D1*
Y1487458D1*
X2236249Y1484606D1*
X2231938Y1483147D1*
X2226201D1*
X2221890Y1484606D1*
X2219005Y1487458D1*
X2248365Y1513291D2*
Y1483147D1*
X2258413D1*
X2262724Y1484606D1*
X2265609Y1487458D1*
X2267035Y1490343D1*
X2268461Y1494621D1*
Y1501817D1*
X2267035Y1506128D1*
X2265609Y1508980D1*
X2262724Y1511865D1*
X2258413Y1513291D1*
X2248365D1*
X2277724D2*
Y1483147D1*
X2247485Y1611716D2*
X2228848D1*
Y1581572D1*
X2247485D1*
X2228848Y1597357D2*
X2240322D1*
X2256748Y1601668D2*
Y1581572D1*
Y1595931D2*
X2261059Y1600242D1*
X2263944Y1601668D1*
X2268222D1*
X2271107Y1600242D1*
X2272533Y1595931D1*
Y1581572D1*
X3105243Y1007012D2*
X3102391Y1009897D1*
X3098080Y1011323D1*
X3092343D1*
X3088032Y1009897D1*
X3085147Y1007012D1*
Y1004160D1*
X3086606Y1001275D1*
X3088032Y999849D1*
X3090884Y998423D1*
X3099506Y995538D1*
X3102391Y994112D1*
X3103817Y992653D1*
X3105243Y989801D1*
Y985490D1*
X3102391Y982638D1*
X3098080Y981179D1*
X3092343D1*
X3088032Y982638D1*
X3085147Y985490D1*
X3118818Y1011323D2*
Y986916D1*
X3120244Y982638D1*
X3123129Y981179D1*
X3125981D1*
X3114507Y1001275D2*
X3124555D1*
X3106669Y1102585D2*
X3105243Y1105437D1*
X3102358Y1108322D1*
X3099506Y1109748D1*
X3093769D1*
X3090884Y1108322D1*
X3088032Y1105437D1*
X3086573Y1102585D1*
X3085147Y1098274D1*
Y1091078D1*
X3086573Y1086800D1*
X3088032Y1083915D1*
X3090884Y1081063D1*
X3093769Y1079604D1*
X3099506D1*
X3102358Y1081063D1*
X3105243Y1083915D1*
X3106669Y1086800D1*
X3115933Y1109748D2*
Y1079604D1*
X3130292Y1099700D2*
X3115933Y1085341D1*
X3121670Y1091078D2*
X3131718Y1079604D1*
X3065873Y1203862D2*
X3063021Y1206747D1*
X3058710Y1208173D1*
X3052973D1*
X3048662Y1206747D1*
X3045777Y1203862D1*
Y1201010D1*
X3047236Y1198125D1*
X3048662Y1196699D1*
X3051514Y1195273D1*
X3060136Y1192388D1*
X3063021Y1190962D1*
X3064447Y1189503D1*
X3065873Y1186651D1*
Y1182340D1*
X3063021Y1179488D1*
X3058710Y1178029D1*
X3052973D1*
X3048662Y1179488D1*
X3045777Y1182340D1*
X3075137Y1208173D2*
Y1178029D1*
X3085185D1*
X3089496Y1179488D1*
X3092381Y1182340D1*
X3093807Y1185225D1*
X3095233Y1189503D1*
Y1196699D1*
X3093807Y1201010D1*
X3092381Y1203862D1*
X3089496Y1206747D1*
X3085185Y1208173D1*
X3075137D1*
X3113118D2*
X3110233Y1206747D1*
X3107381Y1203862D1*
X3105922Y1201010D1*
X3104496Y1196699D1*
Y1189503D1*
X3105922Y1185225D1*
X3107381Y1182340D1*
X3110233Y1179488D1*
X3113118Y1178029D1*
X3118855D1*
X3121707Y1179488D1*
X3124592Y1182340D1*
X3126018Y1185225D1*
X3127444Y1189503D1*
Y1196699D1*
X3126018Y1201010D1*
X3124592Y1203862D1*
X3121707Y1206747D1*
X3118855Y1208173D1*
X3113118D1*
X3095401Y1302287D2*
X3092549Y1305172D1*
X3088238Y1306598D1*
X3082501D1*
X3078190Y1305172D1*
X3075305Y1302287D1*
Y1299435D1*
X3076764Y1296550D1*
X3078190Y1295124D1*
X3081042Y1293698D1*
X3089664Y1290813D1*
X3092549Y1289387D1*
X3093975Y1287928D1*
X3095401Y1285076D1*
Y1280765D1*
X3092549Y1277913D1*
X3088238Y1276454D1*
X3082501D1*
X3078190Y1277913D1*
X3075305Y1280765D1*
X3126186Y1299435D2*
X3124760Y1302287D1*
X3121875Y1305172D1*
X3119023Y1306598D1*
X3113286D1*
X3110401Y1305172D1*
X3107549Y1302287D1*
X3106090Y1299435D1*
X3104664Y1295124D1*
Y1287928D1*
X3106090Y1283650D1*
X3107549Y1280765D1*
X3110401Y1277913D1*
X3113286Y1276454D1*
X3119023D1*
X3121875Y1277913D1*
X3124760Y1280765D1*
X3126186Y1283650D1*
X3065873Y1400712D2*
X3063021Y1403598D1*
X3058710Y1405023D1*
X3052973D1*
X3048662Y1403598D1*
X3045777Y1400712D1*
Y1397861D1*
X3047236Y1394975D1*
X3048662Y1393550D1*
X3051514Y1392124D1*
X3060136Y1389238D1*
X3063021Y1387813D1*
X3064447Y1386353D1*
X3065873Y1383502D1*
Y1379190D1*
X3063021Y1376339D1*
X3058710Y1374879D1*
X3052973D1*
X3048662Y1376339D1*
X3045777Y1379190D1*
X3096659Y1397861D2*
X3095233Y1400712D1*
X3092348Y1403598D1*
X3089496Y1405023D1*
X3083759D1*
X3080874Y1403598D1*
X3078022Y1400712D1*
X3076563Y1397861D1*
X3075137Y1393550D1*
Y1386353D1*
X3076563Y1382076D1*
X3078022Y1379190D1*
X3080874Y1376339D1*
X3083759Y1374879D1*
X3089496D1*
X3092348Y1376339D1*
X3095233Y1379190D1*
X3096659Y1382076D1*
X3105922Y1405023D2*
Y1374879D1*
X3126018Y1405023D2*
X3105922Y1384927D1*
X3113085Y1392124D2*
X3126018Y1374879D1*
X3085558Y1508980D2*
X3082706Y1511865D1*
X3078395Y1513291D1*
X3072658D1*
X3068347Y1511865D1*
X3065462Y1508980D1*
Y1506128D1*
X3066921Y1503243D1*
X3068347Y1501817D1*
X3071199Y1500391D1*
X3079821Y1497506D1*
X3082706Y1496080D1*
X3084132Y1494621D1*
X3085558Y1491769D1*
Y1487458D1*
X3082706Y1484606D1*
X3078395Y1483147D1*
X3072658D1*
X3068347Y1484606D1*
X3065462Y1487458D1*
X3094822Y1513291D2*
Y1483147D1*
X3104870D1*
X3109181Y1484606D1*
X3112066Y1487458D1*
X3113492Y1490343D1*
X3114918Y1494621D1*
Y1501817D1*
X3113492Y1506128D1*
X3112066Y1508980D1*
X3109181Y1511865D1*
X3104870Y1513291D1*
X3094822D1*
X3124181D2*
Y1483147D1*
X3093941Y1611716D2*
X3075305D1*
Y1581572D1*
X3093941D1*
X3075305Y1597357D2*
X3086779D1*
X3103205Y1601668D2*
Y1581572D1*
Y1595931D2*
X3107516Y1600242D1*
X3110401Y1601668D1*
X3114679D1*
X3117564Y1600242D1*
X3118990Y1595931D1*
Y1581572D1*
X1331055Y1611716D2*
X1342529Y1581572D1*
X1354003Y1611716D1*
X1386215Y1581572D2*
Y1611716D1*
X1374741Y1581572D1*
X1363267Y1611716D1*
Y1581572D1*
X2132260Y895892D2*
X2130834Y898744D1*
X2127949Y901629D1*
X2125097Y903055D1*
X2119360D1*
X2116475Y901629D1*
X2113623Y898744D1*
X2112164Y895892D1*
X2110738Y891581D1*
Y884385D1*
X2112164Y880107D1*
X2113623Y877222D1*
X2116475Y874370D1*
X2119360Y872911D1*
X2125097D1*
X2127949Y874370D1*
X2130834Y877222D1*
X2132260Y880107D1*
Y884385D1*
X2125097D1*
X2141523Y893007D2*
Y872911D1*
Y887270D2*
X2145834Y891581D1*
X2148719Y893007D1*
X2152997D1*
X2155882Y891581D1*
X2157308Y887270D1*
Y872911D1*
X2183783Y903055D2*
Y872911D1*
Y888696D2*
X2180931Y891581D1*
X2178046Y893007D1*
X2173735D1*
X2170883Y891581D1*
X2167998Y888696D1*
X2166572Y884385D1*
Y881533D1*
X2167998Y877222D1*
X2170883Y874370D1*
X2173735Y872911D1*
X2178046D1*
X2180931Y874370D1*
X2183783Y877222D1*
X2108614Y1611716D2*
X2120088Y1581572D1*
X2131562Y1611716D1*
X2163774Y1581572D2*
Y1611716D1*
X2152300Y1581572D1*
X2140826Y1611716D1*
Y1581572D1*
X2939346Y895892D2*
X2937920Y898744D1*
X2935035Y901629D1*
X2932183Y903055D1*
X2926446D1*
X2923561Y901629D1*
X2920709Y898744D1*
X2919250Y895892D1*
X2917824Y891581D1*
Y884385D1*
X2919250Y880107D1*
X2920709Y877222D1*
X2923561Y874370D1*
X2926446Y872911D1*
X2932183D1*
X2935035Y874370D1*
X2937920Y877222D1*
X2939346Y880107D1*
Y884385D1*
X2932183D1*
X2948610Y893007D2*
Y872911D1*
Y887270D2*
X2952921Y891581D1*
X2955806Y893007D1*
X2960084D1*
X2962969Y891581D1*
X2964395Y887270D1*
Y872911D1*
X2990869Y903055D2*
Y872911D1*
Y888696D2*
X2988017Y891581D1*
X2985132Y893007D1*
X2980821D1*
X2977969Y891581D1*
X2975084Y888696D1*
X2973658Y884385D1*
Y881533D1*
X2975084Y877222D1*
X2977969Y874370D1*
X2980821Y872911D1*
X2985132D1*
X2988017Y874370D1*
X2990869Y877222D1*
X2915701Y1611716D2*
X2927175Y1581572D1*
X2938649Y1611716D1*
X2970860Y1581572D2*
Y1611716D1*
X2959386Y1581572D1*
X2947912Y1611716D1*
Y1581572D1*
X3785803Y895892D2*
X3784377Y898744D1*
X3781492Y901629D1*
X3778640Y903055D1*
X3772903D1*
X3770018Y901629D1*
X3767166Y898744D1*
X3765707Y895892D1*
X3764281Y891581D1*
Y884385D1*
X3765707Y880107D1*
X3767166Y877222D1*
X3770018Y874370D1*
X3772903Y872911D1*
X3778640D1*
X3781492Y874370D1*
X3784377Y877222D1*
X3785803Y880107D1*
Y884385D1*
X3778640D1*
X3795066Y893007D2*
Y872911D1*
Y887270D2*
X3799378Y891581D1*
X3802263Y893007D1*
X3806540D1*
X3809426Y891581D1*
X3810851Y887270D1*
Y872911D1*
X3837326Y903055D2*
Y872911D1*
Y888696D2*
X3834474Y891581D1*
X3831589Y893007D1*
X3827278D1*
X3824426Y891581D1*
X3821541Y888696D1*
X3820115Y884385D1*
Y881533D1*
X3821541Y877222D1*
X3824426Y874370D1*
X3827278Y872911D1*
X3831589D1*
X3834474Y874370D1*
X3837326Y877222D1*
X3762158Y1611716D2*
X3773632Y1581572D1*
X3785106Y1611716D1*
X3817317Y1581572D2*
Y1611716D1*
X3805843Y1581572D1*
X3794369Y1611716D1*
Y1581572D1*
X2618411Y3427465D2*
D124*
X2614564Y3423663D1*
X2610762Y3417915D1*
X2606915Y3410265D1*
X2605014Y3400670D1*
Y3393021D1*
X2606915Y3383471D1*
X2610762Y3375821D1*
X2614564Y3370073D1*
X2618411Y3366271D1*
X2630762Y3416986D2*
Y3376794D1*
X2644160D1*
X2649908Y3378740D1*
X2653754Y3382542D1*
X2655656Y3386389D1*
X2657557Y3392093D1*
Y3401687D1*
X2655656Y3407435D1*
X2653754Y3411238D1*
X2649908Y3415085D1*
X2644160Y3416986D1*
X2630762D1*
X2696703D2*
Y3376794D1*
X2669908Y3416986D1*
Y3376794D1*
X2709054Y3395939D2*
X2726299D1*
X2732002Y3397841D1*
X2733948Y3399786D1*
X2735849Y3403589D1*
Y3409337D1*
X2733948Y3413139D1*
X2732002Y3415085D1*
X2726299Y3416986D1*
X2709054D1*
Y3376794D1*
X2748201Y3427465D2*
X2752047Y3423663D1*
X2755850Y3417915D1*
X2759697Y3410265D1*
X2761598Y3400670D1*
Y3393021D1*
X2759697Y3383471D1*
X2755850Y3375821D1*
X2752047Y3370073D1*
X2748201Y3366271D1*
X2967450Y1336333D2*
X3007642D1*
X2967450Y1309539D1*
X3007642D1*
X2980847Y1358235D2*
X2982748Y1354433D1*
X2986595Y1350586D1*
X2992343Y1348685D1*
X2996146D1*
X3001894Y1350586D1*
X3005696Y1354433D1*
X3007642Y1358235D1*
Y1363983D1*
X3005696Y1367830D1*
X3001894Y1371633D1*
X2996146Y1373578D1*
X2992343D1*
X2986595Y1371633D1*
X2982748Y1367830D1*
X2980847Y1363983D1*
Y1358235D1*
X3007642Y1443956D2*
X2967494D1*
X2994244Y1424810D1*
Y1453506D1*
X2967450Y1471606D2*
X2999992D1*
X3005696Y1473507D1*
X3007642Y1477354D1*
Y1481156D1*
X2980847Y1465858D2*
Y1479255D1*
X2967450Y1493508D2*
X3007642D1*
X2988496D2*
X2982748Y1499256D1*
X2980847Y1503102D1*
Y1508850D1*
X2982748Y1512653D1*
X2988496Y1514554D1*
X3007642D1*
X507420Y2981896D2*
D128*
X457202D1*
X447143Y2978569D1*
X440488Y2971837D1*
X437083Y2961778D1*
Y2955124D1*
X440488Y2945065D1*
X447143Y2938333D1*
X457202Y2935006D1*
X507419Y2935005D1*
X497360Y2866500D2*
X504092Y2873154D1*
X507419Y2883213D1*
Y2896600D1*
X504092Y2906659D1*
X497360Y2913391D1*
X490706D1*
X483974Y2909986D1*
X480647Y2906659D1*
X477320Y2900004D1*
X470588Y2879886D1*
X467261Y2873154D1*
X463856Y2869827D1*
X457202Y2866500D1*
X447143D1*
X440488Y2873154D1*
X437083Y2883213D1*
Y2896600D1*
X440488Y2906659D1*
X447143Y2913391D1*
X507419Y2844885D2*
X437083D1*
Y2814708D1*
X440488Y2804649D1*
X443815Y2801322D1*
X450470Y2797994D1*
X460529D1*
X467261Y2801322D1*
X470588Y2804649D1*
X473915Y2814708D1*
X477320Y2804649D1*
X480647Y2801322D1*
X487301Y2797994D1*
X494033D1*
X500688Y2801322D1*
X504092Y2804649D1*
X507419Y2814708D1*
Y2844885D1*
X473915D2*
Y2814708D1*
X1046808Y1617653D2*
D124*
X1062106Y1577461D1*
X1077405Y1617653D1*
X1120354Y1577461D2*
Y1617653D1*
X1105055Y1577461D1*
X1089756Y1617653D1*
Y1577461D1*
X1142256Y1604256D2*
X1138453Y1602354D1*
X1134606Y1598508D1*
X1132705Y1592760D1*
Y1588957D1*
X1134606Y1583209D1*
X1138453Y1579407D1*
X1142256Y1577461D1*
X1148004D1*
X1151850Y1579407D1*
X1155653Y1583209D1*
X1157598Y1588957D1*
Y1592760D1*
X1155653Y1598508D1*
X1151850Y1602354D1*
X1148004Y1604256D1*
X1142256D1*
X1175698Y1617653D2*
Y1585110D1*
X1177599Y1579407D1*
X1181446Y1577461D1*
X1185248D1*
X1169950Y1604256D2*
X1183347D1*
X1125484Y908102D2*
X1123583Y911905D1*
X1119736Y915752D1*
X1115933Y917653D1*
X1108284D1*
X1104437Y915752D1*
X1100635Y911905D1*
X1098689Y908102D1*
X1096788Y902354D1*
Y892760D1*
X1098689Y887056D1*
X1100635Y883209D1*
X1104437Y879407D1*
X1108284Y877461D1*
X1115933D1*
X1119736Y879407D1*
X1123583Y883209D1*
X1125484Y887056D1*
Y892760D1*
X1115933D1*
X1137835Y904256D2*
Y877461D1*
Y896606D2*
X1143583Y902354D1*
X1147430Y904256D1*
X1153134D1*
X1156981Y902354D1*
X1158882Y896606D1*
Y877461D1*
X1194181Y917653D2*
Y877461D1*
Y898508D2*
X1190379Y902354D1*
X1186532Y904256D1*
X1180784D1*
X1176981Y902354D1*
X1173134Y898508D1*
X1171233Y892760D1*
Y888957D1*
X1173134Y883209D1*
X1176981Y879407D1*
X1180784Y877461D1*
X1186532D1*
X1190379Y879407D1*
X1194181Y883209D1*
X957715Y1507536D2*
D126*
X987859D1*
Y1517584D1*
X986400Y1521895D1*
X983548Y1524780D1*
X980663Y1526206D1*
X976385Y1527632D1*
X969189D1*
X964878Y1526206D1*
X962026Y1524780D1*
X959141Y1521895D1*
X957715Y1517584D1*
Y1507536D1*
X963485Y1536896D2*
X962026Y1539781D1*
X957748Y1544092D1*
X987859D1*
X846768Y917653D2*
D124*
Y877461D1*
X860165D1*
X865913Y879407D1*
X869760Y883209D1*
X871661Y887056D1*
X873563Y892760D1*
Y902354D1*
X871661Y908102D1*
X869760Y911905D1*
X865913Y915752D1*
X860165Y917653D1*
X846768D1*
X885914D2*
X887815Y915752D1*
X889761Y917653D1*
X887815Y919599D1*
X885914Y917653D1*
X887815Y904256D2*
Y877461D1*
X902112Y904256D2*
Y877461D1*
Y892760D2*
X904058Y898508D1*
X907860Y902354D1*
X911707Y904256D1*
X917455D1*
X845215Y1507456D2*
D126*
X875359D1*
Y1517504D1*
X873900Y1521815D1*
X871048Y1524700D1*
X868163Y1526126D1*
X863885Y1527552D1*
X856689D1*
X852378Y1526126D1*
X849526Y1524700D1*
X846641Y1521815D1*
X845215Y1517504D1*
Y1507456D1*
X845248Y1545438D2*
X846674Y1541127D1*
X850985Y1538241D1*
X858148Y1536816D1*
X862459Y1536815D1*
X869622Y1538241D1*
X873933Y1541126D1*
X875359Y1545437D1*
Y1548289D1*
X873933Y1552600D1*
X869622Y1555452D1*
X862459Y1556911D1*
X858148D1*
X850985Y1555452D1*
X846674Y1552600D1*
X845248Y1548289D1*
Y1545438D1*
X850985Y1555452D2*
X869622Y1538241D1*
X1821808Y1617653D2*
D124*
X1837106Y1577461D1*
X1852405Y1617653D1*
X1895354Y1577461D2*
Y1617653D1*
X1880055Y1577461D1*
X1864756Y1617653D1*
Y1577461D1*
X1917256Y1604256D2*
X1913453Y1602354D1*
X1909606Y1598508D1*
X1907705Y1592760D1*
Y1588957D1*
X1909606Y1583209D1*
X1913453Y1579407D1*
X1917256Y1577461D1*
X1923004D1*
X1926850Y1579407D1*
X1930653Y1583209D1*
X1932598Y1588957D1*
Y1592760D1*
X1930653Y1598508D1*
X1926850Y1602354D1*
X1923004Y1604256D1*
X1917256D1*
X1950698Y1617653D2*
Y1585110D1*
X1952599Y1579407D1*
X1956446Y1577461D1*
X1960248D1*
X1944950Y1604256D2*
X1958347D1*
X1900484Y908102D2*
X1898583Y911905D1*
X1894736Y915752D1*
X1890933Y917653D1*
X1883284D1*
X1879437Y915752D1*
X1875635Y911905D1*
X1873689Y908102D1*
X1871788Y902354D1*
Y892760D1*
X1873689Y887056D1*
X1875635Y883209D1*
X1879437Y879407D1*
X1883284Y877461D1*
X1890933D1*
X1894736Y879407D1*
X1898583Y883209D1*
X1900484Y887056D1*
Y892760D1*
X1890933D1*
X1912835Y904256D2*
Y877461D1*
Y896606D2*
X1918583Y902354D1*
X1922430Y904256D1*
X1928134D1*
X1931981Y902354D1*
X1933882Y896606D1*
Y877461D1*
X1969181Y917653D2*
Y877461D1*
Y898508D2*
X1965379Y902354D1*
X1961532Y904256D1*
X1955784D1*
X1951981Y902354D1*
X1948134Y898508D1*
X1946233Y892760D1*
Y888957D1*
X1948134Y883209D1*
X1951981Y879407D1*
X1955784Y877461D1*
X1961532D1*
X1965379Y879407D1*
X1969181Y883209D1*
X1732715Y1507536D2*
D126*
X1762859D1*
Y1517584D1*
X1761400Y1521895D1*
X1758548Y1524780D1*
X1755663Y1526206D1*
X1751385Y1527632D1*
X1744189D1*
X1739878Y1526206D1*
X1737026Y1524780D1*
X1734141Y1521895D1*
X1732715Y1517584D1*
Y1507536D1*
X1738485Y1536896D2*
X1737026Y1539781D1*
X1732748Y1544092D1*
X1762859D1*
X1621768Y917653D2*
D124*
Y877461D1*
X1635165D1*
X1640913Y879407D1*
X1644760Y883209D1*
X1646661Y887056D1*
X1648563Y892760D1*
Y902354D1*
X1646661Y908102D1*
X1644760Y911905D1*
X1640913Y915752D1*
X1635165Y917653D1*
X1621768D1*
X1660914D2*
X1662815Y915752D1*
X1664761Y917653D1*
X1662815Y919599D1*
X1660914Y917653D1*
X1662815Y904256D2*
Y877461D1*
X1677112Y904256D2*
Y877461D1*
Y892760D2*
X1679058Y898508D1*
X1682860Y902354D1*
X1686707Y904256D1*
X1692455D1*
X1620215Y1507456D2*
D126*
X1650359D1*
Y1517504D1*
X1648900Y1521815D1*
X1646048Y1524700D1*
X1643163Y1526126D1*
X1638885Y1527552D1*
X1631689D1*
X1627378Y1526126D1*
X1624526Y1524700D1*
X1621641Y1521815D1*
X1620215Y1517504D1*
Y1507456D1*
X1620248Y1545438D2*
X1621674Y1541127D1*
X1625985Y1538241D1*
X1633148Y1536816D1*
X1637459Y1536815D1*
X1644622Y1538241D1*
X1648933Y1541126D1*
X1650359Y1545437D1*
Y1548289D1*
X1648933Y1552600D1*
X1644622Y1555452D1*
X1637459Y1556911D1*
X1633148D1*
X1625985Y1555452D1*
X1621674Y1552600D1*
X1620248Y1548289D1*
Y1545438D1*
X1625985Y1555452D2*
X1644622Y1538241D1*
X2621808Y1617653D2*
D124*
X2637106Y1577461D1*
X2652405Y1617653D1*
X2695354Y1577461D2*
Y1617653D1*
X2680055Y1577461D1*
X2664756Y1617653D1*
Y1577461D1*
X2717256Y1604256D2*
X2713453Y1602354D1*
X2709606Y1598508D1*
X2707705Y1592760D1*
Y1588957D1*
X2709606Y1583209D1*
X2713453Y1579407D1*
X2717256Y1577461D1*
X2723004D1*
X2726850Y1579407D1*
X2730653Y1583209D1*
X2732598Y1588957D1*
Y1592760D1*
X2730653Y1598508D1*
X2726850Y1602354D1*
X2723004Y1604256D1*
X2717256D1*
X2750698Y1617653D2*
Y1585110D1*
X2752599Y1579407D1*
X2756446Y1577461D1*
X2760248D1*
X2744950Y1604256D2*
X2758347D1*
X2700484Y908102D2*
X2698583Y911905D1*
X2694736Y915752D1*
X2690933Y917653D1*
X2683284D1*
X2679437Y915752D1*
X2675635Y911905D1*
X2673689Y908102D1*
X2671788Y902354D1*
Y892760D1*
X2673689Y887056D1*
X2675635Y883209D1*
X2679437Y879407D1*
X2683284Y877461D1*
X2690933D1*
X2694736Y879407D1*
X2698583Y883209D1*
X2700484Y887056D1*
Y892760D1*
X2690933D1*
X2712835Y904256D2*
Y877461D1*
Y896606D2*
X2718583Y902354D1*
X2722430Y904256D1*
X2728134D1*
X2731981Y902354D1*
X2733882Y896606D1*
Y877461D1*
X2769181Y917653D2*
Y877461D1*
Y898508D2*
X2765379Y902354D1*
X2761532Y904256D1*
X2755784D1*
X2751981Y902354D1*
X2748134Y898508D1*
X2746233Y892760D1*
Y888957D1*
X2748134Y883209D1*
X2751981Y879407D1*
X2755784Y877461D1*
X2761532D1*
X2765379Y879407D1*
X2769181Y883209D1*
X2532715Y1507536D2*
D126*
X2562859D1*
Y1517584D1*
X2561400Y1521895D1*
X2558548Y1524780D1*
X2555663Y1526206D1*
X2551385Y1527632D1*
X2544189D1*
X2539878Y1526206D1*
X2537026Y1524780D1*
X2534141Y1521895D1*
X2532715Y1517584D1*
Y1507536D1*
X2538485Y1536896D2*
X2537026Y1539781D1*
X2532748Y1544092D1*
X2562859D1*
X2421768Y917653D2*
D124*
Y877461D1*
X2435165D1*
X2440913Y879407D1*
X2444760Y883209D1*
X2446661Y887056D1*
X2448563Y892760D1*
Y902354D1*
X2446661Y908102D1*
X2444760Y911905D1*
X2440913Y915752D1*
X2435165Y917653D1*
X2421768D1*
X2460914D2*
X2462815Y915752D1*
X2464761Y917653D1*
X2462815Y919599D1*
X2460914Y917653D1*
X2462815Y904256D2*
Y877461D1*
X2477112Y904256D2*
Y877461D1*
Y892760D2*
X2479058Y898508D1*
X2482860Y902354D1*
X2486707Y904256D1*
X2492455D1*
X2420215Y1507456D2*
D126*
X2450359D1*
Y1517504D1*
X2448900Y1521815D1*
X2446048Y1524700D1*
X2443163Y1526126D1*
X2438885Y1527552D1*
X2431689D1*
X2427378Y1526126D1*
X2424526Y1524700D1*
X2421641Y1521815D1*
X2420215Y1517504D1*
Y1507456D1*
X2420248Y1545438D2*
X2421674Y1541127D1*
X2425985Y1538241D1*
X2433148Y1536816D1*
X2437459Y1536815D1*
X2444622Y1538241D1*
X2448933Y1541126D1*
X2450359Y1545437D1*
Y1548289D1*
X2448933Y1552600D1*
X2444622Y1555452D1*
X2437459Y1556911D1*
X2433148D1*
X2425985Y1555452D1*
X2421674Y1552600D1*
X2420248Y1548289D1*
Y1545438D1*
X2425985Y1555452D2*
X2444622Y1538241D1*
X3471808Y1617653D2*
D124*
X3487106Y1577461D1*
X3502405Y1617653D1*
X3545354Y1577461D2*
Y1617653D1*
X3530055Y1577461D1*
X3514756Y1617653D1*
Y1577461D1*
X3567256Y1604256D2*
X3563453Y1602354D1*
X3559606Y1598508D1*
X3557705Y1592760D1*
Y1588957D1*
X3559606Y1583209D1*
X3563453Y1579407D1*
X3567256Y1577461D1*
X3573004D1*
X3576850Y1579407D1*
X3580653Y1583209D1*
X3582598Y1588957D1*
Y1592760D1*
X3580653Y1598508D1*
X3576850Y1602354D1*
X3573004Y1604256D1*
X3567256D1*
X3600698Y1617653D2*
Y1585110D1*
X3602599Y1579407D1*
X3606446Y1577461D1*
X3610248D1*
X3594950Y1604256D2*
X3608347D1*
X3550484Y908102D2*
X3548583Y911905D1*
X3544736Y915752D1*
X3540933Y917653D1*
X3533284D1*
X3529437Y915752D1*
X3525635Y911905D1*
X3523689Y908102D1*
X3521788Y902354D1*
Y892760D1*
X3523689Y887056D1*
X3525635Y883209D1*
X3529437Y879407D1*
X3533284Y877461D1*
X3540933D1*
X3544736Y879407D1*
X3548583Y883209D1*
X3550484Y887056D1*
Y892760D1*
X3540933D1*
X3562835Y904256D2*
Y877461D1*
Y896606D2*
X3568583Y902354D1*
X3572430Y904256D1*
X3578134D1*
X3581981Y902354D1*
X3583882Y896606D1*
Y877461D1*
X3619181Y917653D2*
Y877461D1*
Y898508D2*
X3615379Y902354D1*
X3611532Y904256D1*
X3605784D1*
X3601981Y902354D1*
X3598134Y898508D1*
X3596233Y892760D1*
Y888957D1*
X3598134Y883209D1*
X3601981Y879407D1*
X3605784Y877461D1*
X3611532D1*
X3615379Y879407D1*
X3619181Y883209D1*
X3382715Y1507536D2*
D126*
X3412859D1*
Y1517584D1*
X3411400Y1521895D1*
X3408548Y1524780D1*
X3405663Y1526206D1*
X3401385Y1527632D1*
X3394189D1*
X3389878Y1526206D1*
X3387026Y1524780D1*
X3384141Y1521895D1*
X3382715Y1517584D1*
Y1507536D1*
X3388485Y1536896D2*
X3387026Y1539781D1*
X3382748Y1544092D1*
X3412859D1*
X3271768Y917653D2*
D124*
Y877461D1*
X3285165D1*
X3290913Y879407D1*
X3294760Y883209D1*
X3296661Y887056D1*
X3298563Y892760D1*
Y902354D1*
X3296661Y908102D1*
X3294760Y911905D1*
X3290913Y915752D1*
X3285165Y917653D1*
X3271768D1*
X3310914D2*
X3312815Y915752D1*
X3314761Y917653D1*
X3312815Y919599D1*
X3310914Y917653D1*
X3312815Y904256D2*
Y877461D1*
X3327112Y904256D2*
Y877461D1*
Y892760D2*
X3329058Y898508D1*
X3332860Y902354D1*
X3336707Y904256D1*
X3342455D1*
X3270215Y1507456D2*
D126*
X3300359D1*
Y1517504D1*
X3298900Y1521815D1*
X3296048Y1524700D1*
X3293163Y1526126D1*
X3288885Y1527552D1*
X3281689D1*
X3277378Y1526126D1*
X3274526Y1524700D1*
X3271641Y1521815D1*
X3270215Y1517504D1*
Y1507456D1*
X3270248Y1545438D2*
X3271674Y1541127D1*
X3275985Y1538241D1*
X3283148Y1536816D1*
X3287459Y1536815D1*
X3294622Y1538241D1*
X3298933Y1541126D1*
X3300359Y1545437D1*
Y1548289D1*
X3298933Y1552600D1*
X3294622Y1555452D1*
X3287459Y1556911D1*
X3283148D1*
X3275985Y1555452D1*
X3271674Y1552600D1*
X3270248Y1548289D1*
Y1545438D1*
X3275985Y1555452D2*
X3294622Y1538241D1*
M02*
