G04 DipTrace 3.3.1.3*
G04 Top.gbr*
%MOIN*%
G04 #@! TF.FileFunction,Copper,L1,Top*
G04 #@! TF.Part,Single*
G04 #@! TA.AperFunction,Conductor*
%ADD14C,0.018*%
%ADD15C,0.015*%
%ADD16C,0.012*%
G04 #@! TA.AperFunction,ViaPad*
%ADD17C,0.03*%
G04 #@! TA.AperFunction,CopperBalancing*
%ADD18C,0.025*%
G04 #@! TA.AperFunction,ComponentPad*
%ADD19C,0.06*%
%ADD26R,0.177165X0.082677*%
%ADD27R,0.051181X0.059055*%
%ADD28R,0.070866X0.062992*%
%ADD30R,0.098425X0.066929*%
G04 #@! TA.AperFunction,ComponentPad*
%ADD31R,0.12X0.12*%
%ADD32C,0.12*%
%ADD33R,0.059055X0.059055*%
%ADD34C,0.059055*%
%ADD35R,0.066929X0.066929*%
%ADD36C,0.066929*%
%ADD37R,0.051181X0.027559*%
%ADD38R,0.07874X0.047244*%
%ADD39R,0.055118X0.047244*%
%ADD40R,0.055118X0.031496*%
G04 #@! TA.AperFunction,ComponentPad*
%ADD41C,0.076772*%
%ADD42R,0.076772X0.076772*%
%ADD43R,0.137795X0.09252*%
G04 #@! TA.AperFunction,ComponentPad*
%ADD44C,0.2*%
%ADD45R,0.031496X0.035433*%
%ADD46R,0.059055X0.051181*%
G04 #@! TA.AperFunction,ComponentPad*
%ADD47R,0.059X0.059*%
%ADD48C,0.059*%
%ADD50R,0.062992X0.024016*%
%ADD51R,0.10315X0.138189*%
%ADD53R,0.043307X0.023622*%
G04 #@! TA.AperFunction,ViaPad*
%ADD54C,0.04*%
%FSLAX26Y26*%
G04*
G70*
G90*
G75*
G01*
G04 Top*
%LPD*%
X1743701Y3143701D2*
D14*
Y3093701D1*
X1843701Y3143701D2*
Y3093701D1*
X1943701Y3143701D2*
Y3093701D1*
X2043701Y3143701D2*
Y3093701D1*
X1268701Y993701D2*
D15*
X1318701Y1043701D1*
X1993701D1*
X2043701Y993701D1*
X2093701Y1043701D1*
X2793701D1*
X2843701Y993701D1*
X2893701Y1043701D1*
X3643701D1*
X3693701Y993701D1*
X2818701Y3356201D2*
X2593701D1*
X2256201D1*
X2243701Y3343701D1*
X943701Y2923622D2*
D16*
X1586122D1*
X1743701Y3081201D1*
Y3093701D1*
X2593701Y3193701D2*
Y3356201D1*
X3881701Y2791701D2*
D17*
Y2843701D1*
X4488189Y1496063D2*
D14*
Y1849213D1*
X4456201Y1881201D1*
X4331201D1*
X4488189Y1496063D2*
D18*
X4583563D1*
X4806201Y1718701D1*
Y3031201D1*
X4299444Y3537958D1*
X4147467D1*
X976181Y3493701D2*
X1106201D1*
X1156201Y3443701D1*
X2943701D1*
X3281201D1*
X3518701D1*
X3547181Y3472181D1*
X3791255D1*
X2943701Y3543701D2*
Y3443701D1*
X3281201Y3268701D2*
Y3443701D1*
X2700000Y3193701D2*
D16*
X2893701D1*
X2943701Y3243701D1*
Y3543701D1*
X3725701Y2843701D2*
Y2856701D1*
X3803701Y2934701D1*
X4147467Y3427722D2*
X4192984D1*
X4207255Y3441992D1*
X4147467Y3427722D2*
X4182525D1*
X4207255Y3402992D1*
X1643701Y2343701D2*
D14*
Y2443701D1*
X2243701Y2343701D2*
Y2443701D1*
X2456201Y3106201D2*
D16*
Y3131201D1*
X2481299Y3156299D1*
X2593701D1*
X528346Y3183465D2*
X603937D1*
X606201Y3181201D1*
X910236Y3183465D2*
Y3227165D1*
X906201Y3231201D1*
X910236Y2605512D2*
X856890D1*
X856201Y2606201D1*
X528346Y2605512D2*
X593012D1*
X593701Y2606201D1*
X2456201Y3106201D2*
X2406201D1*
X943701Y3010236D2*
X897736D1*
X893701Y3006201D1*
X4143898Y2056201D2*
X4093701D1*
X606201Y3181201D2*
X907972D1*
X910236Y3183465D1*
X593701Y2606201D2*
X856201D1*
X1543701Y3543701D2*
X1643701D1*
X1743701D1*
X1843701D1*
X1943701D1*
X2043701D1*
X2143701D1*
X1093701Y2193701D2*
X631201D1*
X543701Y2106201D1*
Y1193701D1*
X743701Y993701D1*
X768701D1*
X1193701Y2268701D2*
X656201D1*
X506201Y2118701D1*
Y1181201D1*
X668701Y1018701D1*
Y943701D1*
X718701Y893701D1*
X768701D1*
X2143701Y2343701D2*
D14*
Y2443701D1*
X768701Y1493701D2*
D16*
X706201D1*
X581201Y1618701D1*
Y2093701D1*
X606201Y2118701D1*
X2143701D1*
X943701Y2880315D2*
X1242815D1*
X1243701Y2631201D2*
X2143701D1*
X2043701Y3218504D2*
D14*
D3*
Y2993701D2*
Y3018701D1*
X2093701Y3068701D1*
Y3193701D1*
X2068898Y3218504D1*
X2043701D1*
X1943701D2*
D3*
Y2993701D2*
Y3018701D1*
X1993701Y3068701D1*
Y3193701D1*
X1968701Y3218701D1*
X1968504Y3218504D1*
X1943701D1*
Y2343701D2*
Y2443701D1*
X1743701Y2343701D2*
Y2443701D1*
X1343701Y2343701D2*
Y2443701D1*
X943701Y2837008D2*
D16*
X1337894D1*
X1143701Y2343701D2*
D14*
Y2443701D1*
X1443701Y2343701D2*
Y2443701D1*
X768701Y1393701D2*
D16*
X818701Y1443701D1*
X1493701D1*
X1543701Y1393701D1*
X2343701D2*
X2293701Y1443701D1*
X1581201D1*
X1531201Y1393701D1*
X1543701D1*
X2343701D2*
X2393701Y1443701D1*
X3143701D1*
X3193701Y1393701D1*
X2231201Y2268701D2*
X1518701D1*
X1443701Y2343701D1*
X943701Y2966929D2*
X1441929D1*
X1243701Y2343701D2*
D14*
Y2443701D1*
X768701Y1293701D2*
D16*
X818701Y1343701D1*
X1493701D1*
X1543701Y1293701D1*
X1593701Y1343701D1*
X2293701D1*
X2343701Y1293701D1*
X2393701Y1343701D1*
X3143701D1*
X3193701Y1293701D1*
X1393701Y3156201D2*
X1243701D1*
X743701Y2343701D2*
D14*
Y2443701D1*
X2193701Y2156201D2*
D16*
X743701D1*
X2993701Y2668701D2*
X1643701D1*
X1843701Y3218504D2*
D14*
D3*
Y2993701D2*
Y3018701D1*
X1893701Y3068701D1*
Y3193701D1*
X1868701Y3218701D1*
X1843898D1*
X1543701Y2343701D2*
Y2443701D1*
X3143701Y2556201D2*
D16*
X1543701D1*
X943701Y3053543D2*
X1493701D1*
X443701Y3343701D2*
D18*
Y3368701D1*
X481201Y3406201D1*
X631201D1*
X718701Y3493701D1*
X818701D1*
X2700000Y3118898D2*
D16*
Y3074902D1*
X4093701Y2581201D2*
X3268701D1*
X3181201Y2668701D1*
X2443701Y3543701D2*
X2543701Y3643701D1*
X2743701D1*
X2843701Y3543701D1*
X1743701Y3218504D2*
D14*
D3*
Y2993701D2*
Y3018701D1*
X1793701Y3068701D1*
Y3193701D1*
X1768898Y3218504D1*
X1743701D1*
X4218701Y2056201D2*
X4381201D1*
X4393504Y2068504D1*
Y2168701D1*
X4181299Y1977461D2*
Y1906299D1*
X4173720Y1898720D1*
Y1881201D1*
X4043701D1*
X4015748Y1853248D1*
Y1496063D1*
X2343701Y1193701D2*
D16*
X2393701Y1243701D1*
X3268701D1*
Y1493701D2*
X3193701D1*
X1443701Y3343701D2*
Y3306201D1*
X1481201Y3268701D1*
X2493701D1*
X2593701Y3081201D2*
Y3118898D1*
X2043701Y2343701D2*
D14*
Y2443701D1*
X1743701Y2518701D2*
D16*
X1968701D1*
X2043701Y2443701D1*
X1843701Y2343701D2*
D14*
Y2443701D1*
X4318701Y2168701D2*
X4193701D1*
X768701Y1193701D2*
D16*
X818701Y1243701D1*
X1343701D1*
Y1493701D2*
X1543701D1*
Y1193701D2*
X1593701Y1243701D1*
X2118701D1*
Y1493701D2*
X2343701D1*
X943701Y2343701D2*
D14*
Y2443701D1*
X843701Y2343701D2*
Y2443701D1*
X2106201Y2231201D2*
D16*
X843701D1*
X643701Y2343701D2*
D14*
Y2443701D1*
X543701Y2343701D2*
Y2443701D1*
X443701Y2343701D2*
Y2443701D1*
X4091344Y3027753D2*
D16*
X4126648D1*
X4141701Y3012701D1*
X4177504D1*
X4180701Y3009504D1*
X1043701Y2343701D2*
D14*
Y2443701D1*
D16*
Y2506201D1*
X1131201Y2593701D1*
X2243701D1*
Y3031201D2*
X2456004D1*
X2456201Y3031398D1*
X2731398D1*
X2768701Y3068701D1*
Y3131201D1*
X2743602Y3156299D1*
X2700000D1*
X918701Y1543701D2*
Y1706201D1*
X1006201Y1793701D1*
Y1993701D1*
X1043701Y2706201D2*
X2118701D1*
X1693701Y1543701D2*
X1718701Y1518701D1*
X1893701D1*
X2356201Y2756201D2*
X1843701D1*
X3343701Y2793701D2*
X1743701D1*
X3068701Y2831201D2*
X1543701D1*
X3803701Y3025701D2*
X3876693D1*
X3878745Y3027753D1*
X3728898Y2934701D2*
Y3025701D1*
X3878745Y2977753D2*
Y2921459D1*
X3881701Y2918504D1*
X3875307D1*
X3800504Y2843701D1*
X1543701Y1593701D2*
X1656201Y1481201D1*
X1931201D1*
X1993701Y1543701D1*
X2293701D1*
X2343701Y1593701D1*
X2456201Y1481201D1*
X2731201D1*
X2793701Y1543701D1*
X3143701D1*
X3193701Y1593701D1*
X768701D2*
X881201Y1481201D1*
X1081201D1*
X1143701Y1543701D1*
X1493701D1*
X1543701Y1593701D1*
X631201Y1981201D2*
Y1731201D1*
X768701Y1593701D1*
X4091344Y3077753D2*
X4173990D1*
X4180701Y3084465D1*
X3281201Y3168701D2*
D18*
Y3031201D1*
X3643701Y2668701D1*
X4218701D1*
X4481201Y2406201D1*
X4549459D1*
X4706201D1*
X4180701Y3084465D2*
D17*
X4340437D1*
X4481201Y2943701D1*
Y2474459D1*
X4549459Y2406201D1*
D54*
X2818701Y3356201D3*
X1093701Y2193701D3*
X1193701Y2268701D3*
X2143701Y2118701D3*
X1242815Y2880315D3*
X1243701Y2631201D3*
X2143701D3*
X2043701Y3218504D3*
X1943701D3*
X1337894Y2837008D3*
X2231201Y2268701D3*
X1441929Y2966929D3*
X1393701Y3156201D3*
X1243701D3*
X2193701Y2156201D3*
X743701D3*
X2993701Y2668701D3*
X1643701D3*
X1843701Y3218504D3*
X3143701Y2556201D3*
X1543701D3*
X1493701Y3053543D3*
X1543701Y2556201D3*
X2700000Y3074902D3*
X4093701Y2581201D3*
X3181201Y2668701D3*
X1743701Y3218504D3*
X3268701Y1243701D3*
Y1493701D3*
X2493701Y3268701D3*
X2593701Y3081201D3*
X1743701Y2518701D3*
X1343701Y1243701D3*
Y1493701D3*
X2118701Y1243701D3*
Y1493701D3*
X2106201Y2231201D3*
X843701D3*
X2243701Y2593701D3*
Y3031201D3*
X1006201Y1993701D3*
X1043701Y2706201D3*
X2118701D3*
X1893701Y1518701D3*
X2356201Y2756201D3*
X1843701D3*
X3343701Y2793701D3*
X1743701D3*
X3068701Y2831201D3*
X1543701D3*
X631201Y1981201D3*
X606201Y3181201D3*
X593701Y2606201D3*
X856201D3*
X906201Y3231201D3*
X2406201Y3106201D3*
X893701Y3006201D3*
X4093701Y2056201D3*
X2143701Y3543701D3*
X493701Y2506201D3*
Y2268701D3*
X593701D3*
Y2506201D3*
X493701Y3281201D3*
X593701D3*
D17*
X3959701Y3090701D3*
X3985701D3*
X4011701D3*
X3959701Y3051701D3*
X3985701D3*
X4011701D3*
X3959701Y3012701D3*
X3985701D3*
X4011701D3*
X4207255Y3441992D3*
Y3402992D3*
D54*
X3881701Y2791701D3*
X3752255Y3545992D3*
X1468701Y1943701D3*
Y1893701D3*
Y1843701D3*
X2318701Y1893701D3*
Y1943701D3*
Y1843701D3*
X693701Y1893701D3*
Y1943701D3*
Y1843701D3*
X3168701Y1893701D3*
Y1943701D3*
Y1843701D3*
X1743701Y3093701D3*
X1843701D3*
X1943701D3*
X2043701D3*
X3728273Y3534623D2*
D18*
X4179253D1*
X3728273Y3509755D2*
X4179253D1*
X3728273Y3484886D2*
X3985585D1*
X3728273Y3460017D2*
X3964378D1*
X3728273Y3435148D2*
X3943207D1*
X3725755Y3559469D2*
Y3415501D1*
X3928755Y3415231D1*
X4004126Y3503488D1*
X4006567Y3505123D1*
X4009323Y3506143D1*
X4012244Y3506492D1*
X4181736D1*
X4181755Y3559480D1*
X3725786Y3559492D1*
X3943411Y3327860D2*
X4057475D1*
X3913592Y3302991D2*
X4057475D1*
X3712533Y3278122D2*
X4057475D1*
X3712533Y3253253D2*
X4034079D1*
X3712533Y3228385D2*
X4019976D1*
X3712533Y3203516D2*
X4019976D1*
X3848031Y3178647D2*
X4019976D1*
X3850005Y3153778D2*
X3894633D1*
X3850005Y3128909D2*
X3876870D1*
X3891209Y3290235D2*
X3709993D1*
X3710014Y3196482D1*
X3824457Y3196344D1*
X3827285Y3195546D1*
X3829849Y3194110D1*
X3836340Y3187837D1*
X3845113Y3178846D1*
X3846549Y3176282D1*
X3847346Y3173454D1*
X3847500Y3162312D1*
Y3127756D1*
X3878528Y3127755D1*
X3907332Y3167768D1*
X3909625Y3169605D1*
X3912283Y3170857D1*
X3915160Y3171453D1*
X4022495Y3171500D1*
X4022633Y3235948D1*
X4023430Y3238776D1*
X4024866Y3241340D1*
X4032636Y3249327D1*
X4059971Y3276661D1*
X4059975Y3352694D1*
X3970756Y3352728D1*
X3897646Y3291999D1*
X3894962Y3290801D1*
X3892070Y3290262D1*
X4118344Y3417623D2*
X4218269D1*
X4118416Y3392755D2*
X4218269D1*
X4118488Y3367886D2*
X4218269D1*
X4118559Y3343017D2*
X4218269D1*
X4118631Y3318148D2*
X4218269D1*
X4118667Y3293280D2*
X4218269D1*
X4130689Y3268411D2*
X4218269D1*
X4152004Y3243542D2*
X4218269D1*
X4156453Y3218673D2*
X4218269D1*
X4156848Y3193804D2*
X4218269D1*
X4137332Y3257728D2*
X4145594D1*
Y3248076D1*
X4151770Y3240693D1*
X4153043Y3238043D1*
X4153663Y3235172D1*
X4154556Y3181484D1*
X4220734Y3181492D1*
X4220755Y3442466D1*
X4115806Y3442492D1*
X4116210Y3282387D1*
X4137336Y3257728D1*
X3955538Y3077886D2*
X4013730D1*
X3955035Y3053017D2*
X4013730D1*
X3954568Y3028148D2*
X4013730D1*
X3954102Y3003280D2*
X4013730D1*
X3953600Y2978411D2*
X4013730D1*
X3953134Y2953542D2*
X4140472D1*
X3952667Y2928673D2*
X4191715D1*
X3952164Y2903804D2*
X4191715D1*
X3951698Y2878936D2*
X4191715D1*
X3714719Y2854067D2*
X3726245D1*
X3951231D2*
X4191715D1*
X3714719Y2829198D2*
X3726245D1*
X3950730D2*
X4191715D1*
X3714719Y2804329D2*
X3726245D1*
X3950262D2*
X4191715D1*
X3714719Y2779461D2*
X3732505D1*
X3943731D2*
X4191715D1*
X3714719Y2754592D2*
X3851175D1*
X3912226D2*
X4191715D1*
X4135213Y2957413D2*
X4124673D1*
Y2962688D1*
X4113283Y2965269D1*
X4026774Y2965423D1*
X4023946Y2966220D1*
X4021382Y2967656D1*
X4019224Y2969651D1*
X4017592Y2972094D1*
X4016575Y2974850D1*
X4016230Y2977769D1*
Y3102753D1*
X3953480Y3102755D1*
X3947336Y2788333D1*
X3946538Y2785505D1*
X3945102Y2782941D1*
X3943108Y2780783D1*
X3940664Y2779151D1*
X3937908Y2778134D1*
X3934990Y2777789D1*
X3926054D1*
X3923133Y2770591D1*
X3919320Y2764369D1*
X3914581Y2758820D1*
X3909033Y2754081D1*
X3902811Y2750269D1*
X3896070Y2747476D1*
X3888975Y2745773D1*
X3881701Y2745201D1*
X3874427Y2745773D1*
X3867332Y2747476D1*
X3860591Y2750269D1*
X3854369Y2754081D1*
X3848820Y2758820D1*
X3844081Y2764369D1*
X3840269Y2770591D1*
X3837349Y2777785D1*
X3739304Y2777942D1*
X3736476Y2778740D1*
X3733912Y2780176D1*
X3731755Y2782171D1*
X3730122Y2784614D1*
X3729105Y2787370D1*
X3728760Y2790289D1*
Y2858433D1*
X3712234Y2857740D1*
X3712201Y2739190D1*
X4194220Y2739201D1*
X4194201Y2949147D1*
X4144568Y2953112D1*
X4142698Y2953717D1*
X4081238Y3196623D2*
X4101214D1*
X4081238Y3171755D2*
X4101214D1*
X4074995Y3146886D2*
X4107458D1*
X4072476Y3147547D2*
Y3127739D1*
X4109963Y3127755D1*
X4109882Y3147661D1*
X4106108Y3151652D1*
X4104672Y3154217D1*
X4103874Y3157045D1*
X4103720Y3166499D1*
Y3221486D1*
X4078722Y3221492D1*
X4078572Y3157045D1*
X4077774Y3154217D1*
X4076339Y3151652D1*
X4072472Y3147568D1*
X3739747Y2506332D2*
X4548386D1*
X3715562Y2481463D2*
X4573253D1*
X3691340Y2456594D2*
X4752710D1*
X3667118Y2431726D2*
X4752710D1*
X3642896Y2406857D2*
X4752710D1*
X3618675Y2381988D2*
X4752710D1*
X3594488Y2357119D2*
X4752710D1*
X3570266Y2332251D2*
X4752710D1*
X3546045Y2307382D2*
X4752710D1*
X3521823Y2282513D2*
X3992862D1*
X3497636Y2257644D2*
X3975100D1*
X3473415Y2232776D2*
X3957337D1*
X3449193Y2207907D2*
X3939575D1*
X3424971Y2183038D2*
X3921811D1*
X3400749Y2158169D2*
X3904049D1*
X3376563Y2133301D2*
X3886251D1*
X3352341Y2108432D2*
X3868488D1*
X3328119Y2083563D2*
X3850724D1*
X3303898Y2058694D2*
X3832962D1*
X1108719Y2033825D2*
X3815199D1*
X1108719Y2008957D2*
X3797437D1*
X1108719Y1984088D2*
X1405899D1*
X1535274D2*
X2255924D1*
X2397751D2*
X3105913D1*
X3235252D2*
X3779675D1*
X1108719Y1959219D2*
X1402706D1*
X1731417D2*
X2252694D1*
X2568954D2*
X3102684D1*
X3418942D2*
X3761912D1*
X1108719Y1934350D2*
X1402706D1*
X1734718D2*
X2252694D1*
X2572184D2*
X3102684D1*
X3422209D2*
X3753694D1*
X1108719Y1909482D2*
X1402706D1*
X1734718D2*
X2252694D1*
X2572184D2*
X3102684D1*
X3422209D2*
X3753694D1*
X1108719Y1884613D2*
X1402706D1*
X1734718D2*
X2252694D1*
X2572184D2*
X3102684D1*
X3422209D2*
X3753694D1*
X1108719Y1859744D2*
X1402706D1*
X1734718D2*
X2252694D1*
X2572184D2*
X3102684D1*
X3422209D2*
X3753694D1*
X1108719Y1834875D2*
X1402706D1*
X1733677D2*
X2252694D1*
X2571178D2*
X3102684D1*
X3421168D2*
X3753694D1*
X1108719Y1810007D2*
X1403710D1*
X1714839D2*
X2253699D1*
X2552340D2*
X3103688D1*
X3402328D2*
X3753694D1*
X1108719Y1785138D2*
X1422335D1*
X1515071D2*
X2272323D1*
X2377547D2*
X3122348D1*
X3215049D2*
X3753694D1*
X1108719Y1760269D2*
X3753694D1*
X1108719Y1735400D2*
X3753694D1*
X1108719Y1710531D2*
X3753694D1*
X1108719Y1685663D2*
X3753694D1*
X1108719Y1660794D2*
X1391403D1*
X1860205D2*
X2140629D1*
X2701080D2*
X2990617D1*
X3551104D2*
X3753694D1*
X1108719Y1635925D2*
X1366283D1*
X1888554D2*
X2115760D1*
X2732192D2*
X2965749D1*
X3582180D2*
X3753694D1*
X1108719Y1611056D2*
X1341201D1*
X1916903D2*
X2090892D1*
X2763266D2*
X2940882D1*
X3613256D2*
X3753694D1*
X1108719Y1586188D2*
X1127976D1*
X1945215D2*
X1977965D1*
X3644367D2*
X3753694D1*
X2555546Y1973539D2*
X2566453D1*
Y1959150D1*
X2568636Y1952689D1*
X2569583Y1946722D1*
X2569701Y1897769D1*
X2569583Y1840680D1*
X2568636Y1834713D1*
X2566765Y1828957D1*
X2566453Y1826558D1*
Y1813862D1*
X2555508D1*
X2551318Y1810874D1*
X2545934Y1808131D1*
X2540189Y1806265D1*
X2534222Y1805319D1*
X2485269Y1805201D1*
X2397173D1*
X2381205Y1789425D1*
X2376318Y1785874D1*
X2370934Y1783131D1*
X2365189Y1781265D1*
X2359222Y1780319D1*
X2310269Y1780201D1*
X2290680Y1780319D1*
X2284713Y1781265D1*
X2278967Y1783131D1*
X2273584Y1785874D1*
X2268697Y1789425D1*
X2264425Y1793697D1*
X2260874Y1798584D1*
X2258131Y1803967D1*
X2256265Y1809713D1*
X2255319Y1815680D1*
X2255201Y1864633D1*
X2255319Y1971722D1*
X2256265Y1977689D1*
X2258131Y1983434D1*
X2260874Y1988818D1*
X2264425Y1993705D1*
X2268697Y1997976D1*
X2273584Y2001528D1*
X2278967Y2004270D1*
X2284713Y2006136D1*
X2290680Y2007083D1*
X2339633Y2007201D1*
X2359222Y2007083D1*
X2365189Y2006136D1*
X2370934Y2004270D1*
X2376318Y2001528D1*
X2381205Y1997976D1*
X2397152Y1982197D1*
X2534222Y1982083D1*
X2540189Y1981136D1*
X2545934Y1979270D1*
X2551318Y1976528D1*
X2553840Y1974841D1*
X3405546Y1973539D2*
X3416453D1*
Y1959150D1*
X3418638Y1952689D1*
X3419583Y1946722D1*
X3419701Y1897769D1*
X3419583Y1840680D1*
X3418638Y1834713D1*
X3416765Y1828957D1*
X3416453Y1826558D1*
Y1813862D1*
X3405508D1*
X3401318Y1810874D1*
X3395934Y1808131D1*
X3390189Y1806264D1*
X3384222Y1805319D1*
X3335269Y1805201D1*
X3234614D1*
X3218705Y1789425D1*
X3213818Y1785874D1*
X3208434Y1783131D1*
X3202689Y1781264D1*
X3196722Y1780319D1*
X3147769Y1780201D1*
X3140680Y1780319D1*
X3134713Y1781264D1*
X3128967Y1783131D1*
X3123584Y1785874D1*
X3118697Y1789425D1*
X3114425Y1793697D1*
X3110874Y1798584D1*
X3108131Y1803967D1*
X3106264Y1809713D1*
X3105319Y1815680D1*
X3105201Y1864633D1*
X3105319Y1971722D1*
X3106264Y1977689D1*
X3108131Y1983434D1*
X3110874Y1988818D1*
X3114425Y1993705D1*
X3118697Y1997976D1*
X3123584Y2001528D1*
X3128967Y2004270D1*
X3134713Y2006138D1*
X3140680Y2007083D1*
X3189633Y2007201D1*
X3196722Y2007083D1*
X3202689Y2006136D1*
X3208434Y2004270D1*
X3213818Y2001528D1*
X3218705Y1997976D1*
X3234652Y1982197D1*
X3384222Y1982083D1*
X3390189Y1981138D1*
X3395934Y1979270D1*
X3401318Y1976528D1*
X3403840Y1974841D1*
X1452887Y2007201D2*
X1496722Y2007083D1*
X1502689Y2006138D1*
X1508434Y2004270D1*
X1513818Y2001528D1*
X1518705Y1997976D1*
X1534652Y1982197D1*
X1696722Y1982083D1*
X1702689Y1981138D1*
X1708434Y1979270D1*
X1713818Y1976528D1*
X1718705Y1972976D1*
X1722976Y1968705D1*
X1726528Y1963818D1*
X1729270Y1958434D1*
X1731138Y1952689D1*
X1732083Y1946722D1*
X1732201Y1897769D1*
X1732083Y1840680D1*
X1731138Y1834713D1*
X1729270Y1828967D1*
X1726528Y1823584D1*
X1722976Y1818697D1*
X1718705Y1814425D1*
X1713818Y1810874D1*
X1708434Y1808131D1*
X1702689Y1806264D1*
X1696722Y1805319D1*
X1647769Y1805201D1*
X1534626D1*
X1518705Y1789425D1*
X1513818Y1785874D1*
X1508434Y1783131D1*
X1502689Y1781265D1*
X1496722Y1780319D1*
X1447769Y1780201D1*
X1440680Y1780319D1*
X1434713Y1781265D1*
X1428967Y1783131D1*
X1423584Y1785874D1*
X1418697Y1789425D1*
X1414425Y1793697D1*
X1410874Y1798584D1*
X1408131Y1803967D1*
X1406265Y1809713D1*
X1405319Y1815680D1*
X1405201Y1864633D1*
X1405319Y1971722D1*
X1406264Y1977689D1*
X1408131Y1983434D1*
X1410874Y1988818D1*
X1414425Y1993705D1*
X1418697Y1997976D1*
X1423584Y2001528D1*
X1428967Y2004270D1*
X1434713Y2006138D1*
X1440680Y2007083D1*
X1452887Y2007201D1*
X4755201Y2306232D2*
Y2468717D1*
X4591745Y2468854D1*
X4588917Y2469652D1*
X4586353Y2471088D1*
X4578366Y2478858D1*
X4526038Y2531186D1*
X3761449Y2531201D1*
X3301945Y2059304D1*
X3299524Y2057640D1*
X3296781Y2056587D1*
X3293864Y2056202D1*
X1106236Y2056201D1*
X1106201Y1581214D1*
X1119717Y1581201D1*
X1126672Y1584814D1*
X1133312Y1586971D1*
X1140210Y1588064D1*
X1180446Y1588201D1*
X1320646D1*
X1412080Y1678584D1*
X1414650Y1680008D1*
X1417482Y1680793D1*
X1446955Y1680899D1*
X1832690Y1680206D1*
X1835517Y1679404D1*
X1838079Y1677965D1*
X1948434Y1581178D1*
X1969717Y1581201D1*
X1976672Y1584814D1*
X1983312Y1586971D1*
X1990210Y1588064D1*
X2030446Y1588201D1*
X2070529D1*
X2161353Y1678814D1*
X2163917Y1680249D1*
X2166745Y1681047D1*
X2177887Y1681201D1*
X2670656Y1681047D1*
X2673484Y1680249D1*
X2676051Y1678811D1*
X2789573Y1588010D1*
X2802887Y1588201D1*
X2920551D1*
X3011353Y1678814D1*
X3013917Y1680249D1*
X3016745Y1681047D1*
X3027887Y1681201D1*
X3520656Y1681047D1*
X3523484Y1680249D1*
X3526051Y1678811D1*
X3648092Y1581196D1*
X3756198Y1581201D1*
X3756354Y1945656D1*
X3757152Y1948484D1*
X3758045Y1950235D1*
X4009130Y2301741D1*
X4011272Y2303755D1*
X4013824Y2305210D1*
X4016646Y2306030D1*
X4027887Y2306201D1*
X4755223D1*
X683719Y1931332D2*
X735882D1*
X683719Y1906463D2*
X903713D1*
X683719Y1881594D2*
X903713D1*
X683719Y1856726D2*
X903713D1*
X683719Y1831857D2*
X711697D1*
X713497Y1956201D2*
X681202D1*
X681201Y1831228D1*
X713520Y1831201D1*
X736353Y1853814D1*
X738917Y1855249D1*
X741745Y1856047D1*
X752887Y1856201D1*
X906220D1*
X906201Y1931222D1*
X741745Y1931354D1*
X738917Y1932152D1*
X736353Y1933588D1*
X728366Y1941358D1*
X713545Y1956180D1*
X1458719Y1931332D2*
X1510882D1*
X1458719Y1906463D2*
X1678713D1*
X1458719Y1881594D2*
X1678713D1*
X1458719Y1856726D2*
X1678713D1*
X1458719Y1831857D2*
X1486697D1*
X1488497Y1956201D2*
X1456202D1*
X1456201Y1831228D1*
X1488520Y1831201D1*
X1511353Y1853814D1*
X1513917Y1855249D1*
X1516745Y1856047D1*
X1527887Y1856201D1*
X1681220D1*
X1681201Y1931222D1*
X1516745Y1931354D1*
X1513917Y1932152D1*
X1511353Y1933588D1*
X1503366Y1941358D1*
X1488545Y1956180D1*
X2308719Y1931332D2*
X2373406D1*
X2308719Y1906463D2*
X2516189D1*
X2308719Y1881594D2*
X2516189D1*
X2308719Y1856726D2*
X2516189D1*
X2308719Y1831857D2*
X2349184D1*
X2350997Y1956201D2*
X2306214D1*
X2306201Y1831228D1*
X2351039Y1831201D1*
X2373853Y1853814D1*
X2376417Y1855249D1*
X2379245Y1856047D1*
X2390387Y1856201D1*
X2518673D1*
X2518701Y1931222D1*
X2379245Y1931354D1*
X2376417Y1932152D1*
X2373853Y1933588D1*
X2365866Y1941358D1*
X2351045Y1956180D1*
X3158719Y1931332D2*
X3210882D1*
X3158719Y1906463D2*
X3366189D1*
X3158719Y1881594D2*
X3366189D1*
X3158719Y1856726D2*
X3366189D1*
X3158719Y1831857D2*
X3186697D1*
X3188497Y1956201D2*
X3156202D1*
X3156201Y1831228D1*
X3188520Y1831201D1*
X3211353Y1853814D1*
X3213917Y1855249D1*
X3216745Y1856047D1*
X3227887Y1856201D1*
X3368732D1*
X3368701Y1931222D1*
X3216745Y1931354D1*
X3213917Y1932152D1*
X3211353Y1933588D1*
X3203366Y1941358D1*
X3188545Y1956180D1*
D26*
X1181102Y1889764D3*
X826772D3*
X1943701Y1893701D3*
X1589370D3*
X2793701D3*
X2439370D3*
X3643701D3*
X3289370D3*
D27*
X4018701Y3201701D3*
X4093504D3*
D28*
X4180701Y3194701D3*
Y3084465D3*
X4147467Y3427722D3*
Y3537958D3*
D27*
X3803701Y3025701D3*
X3728898D3*
D30*
X818701Y3493701D3*
X976181D3*
X4018701Y3318701D3*
X4176181D3*
X4331201Y1881201D3*
X4173720D3*
D31*
X4706201Y2406201D3*
D32*
Y2603051D3*
D33*
X2543701Y3543701D3*
D34*
X2443701D3*
X2543701Y3643701D3*
X2443701D3*
D33*
X443701Y2343701D3*
D34*
X543701D3*
X643701D3*
X743701D3*
X843701D3*
X943701D3*
X1043701D3*
X1143701D3*
X1243701D3*
X1343701D3*
X1443701D3*
X1543701D3*
X1643701D3*
X1743701D3*
X1843701D3*
X1943701D3*
X2043701D3*
X2143701D3*
X2243701D3*
D33*
X2043701Y3643701D3*
D34*
Y3543701D3*
X1943701Y3643701D3*
Y3543701D3*
X1843701Y3643701D3*
Y3543701D3*
X1743701Y3643701D3*
Y3543701D3*
X1643701Y3643701D3*
Y3543701D3*
X1543701Y3643701D3*
Y3543701D3*
D35*
X2843701D3*
D36*
X2943701D3*
X3043701D3*
D37*
X943701Y2793701D3*
Y2837008D3*
Y2880315D3*
Y2923622D3*
Y2966929D3*
Y3010236D3*
Y3053543D3*
Y3096850D3*
Y3140157D3*
D38*
X528346Y2605512D3*
D39*
X910236D3*
D40*
Y3183465D3*
D38*
X528346D3*
D33*
X2043701Y2993701D3*
D34*
Y2893701D3*
D33*
X1943701Y2993701D3*
D34*
Y2893701D3*
D33*
X1843701Y2993701D3*
D34*
Y2893701D3*
D33*
X1743701Y2993701D3*
D34*
Y2893701D3*
D33*
X4193701Y2168701D3*
D34*
X4093701D3*
D41*
X4251969Y1574803D3*
D42*
X4015748Y1496063D3*
D41*
X4488189D3*
X4015748Y1015748D3*
X4488189D3*
D43*
X3791255Y3233992D3*
Y3472181D3*
D44*
X531496Y944882D3*
X4744094Y3562992D3*
X531496D3*
X4744094Y944882D3*
D45*
X4218701Y2056201D3*
X4143898D3*
X4181299Y1977461D3*
D46*
X2456201Y3106201D3*
Y3031398D3*
X2043701Y3143701D3*
Y3218504D3*
X1943701Y3143701D3*
Y3218504D3*
X1843701Y3143701D3*
Y3218504D3*
D27*
X4318701Y2168701D3*
X4393504D3*
D46*
X1743701Y3143701D3*
Y3218504D3*
X3881701Y2843701D3*
Y2918504D3*
D27*
X3725701Y2843701D3*
X3800504D3*
D46*
X4180701Y2934701D3*
Y3009504D3*
D27*
X3803701Y2934701D3*
X3728898D3*
D31*
X4168701Y568701D3*
D32*
X4365551D3*
D31*
X618701D3*
D32*
X815551D3*
X1012402D3*
X1209252D3*
D31*
X1468701D3*
D32*
X1665551D3*
X1862402D3*
X2059252D3*
D31*
X2318701D3*
D32*
X2515551D3*
X2712402D3*
X2909252D3*
D31*
X3168701D3*
D32*
X3365551D3*
X3562402D3*
X3759252D3*
D19*
X443701Y3343701D3*
X543701D3*
X643701D3*
X743701D3*
X843701D3*
X943701D3*
X1043701D3*
X1143701D3*
X1243701D3*
X1343701D3*
X1443701D3*
X1543701D3*
X1643701D3*
X1743701D3*
X1843701D3*
X1943701D3*
X2043701D3*
X2143701D3*
X2243701D3*
X443701Y2443701D3*
X543701D3*
X643701D3*
X743701D3*
X843701D3*
X943701D3*
X1043701D3*
X1143701D3*
X1243701D3*
X1343701D3*
X1443701D3*
X1543701D3*
X1643701D3*
X1743701D3*
X1843701D3*
X1943701D3*
X2043701D3*
X2143701D3*
X2243701D3*
D47*
X768701Y1593701D3*
D48*
Y1493701D3*
Y1393701D3*
Y1293701D3*
Y1193701D3*
Y1093701D3*
Y993701D3*
Y893701D3*
X1268701D3*
Y993701D3*
Y1093701D3*
Y1193701D3*
Y1293701D3*
Y1393701D3*
Y1493701D3*
Y1593701D3*
X868701D3*
X918701Y1543701D3*
X968701Y1593701D3*
D47*
X1543701D3*
D48*
Y1493701D3*
Y1393701D3*
Y1293701D3*
Y1193701D3*
Y1093701D3*
Y993701D3*
Y893701D3*
X2043701D3*
Y993701D3*
Y1093701D3*
Y1193701D3*
Y1293701D3*
Y1393701D3*
Y1493701D3*
Y1593701D3*
X1643701D3*
X1693701Y1543701D3*
X1743701Y1593701D3*
D47*
X2343701D3*
D48*
Y1493701D3*
Y1393701D3*
Y1293701D3*
Y1193701D3*
Y1093701D3*
Y993701D3*
Y893701D3*
X2843701D3*
Y993701D3*
Y1093701D3*
Y1193701D3*
Y1293701D3*
Y1393701D3*
Y1493701D3*
Y1593701D3*
X2443701D3*
X2493701Y1543701D3*
X2543701Y1593701D3*
D47*
X3193701D3*
D48*
Y1493701D3*
Y1393701D3*
Y1293701D3*
Y1193701D3*
Y1093701D3*
Y993701D3*
Y893701D3*
X3693701D3*
Y993701D3*
Y1093701D3*
Y1193701D3*
Y1293701D3*
Y1393701D3*
Y1493701D3*
Y1593701D3*
X3293701D3*
X3343701Y1543701D3*
X3393701Y1593701D3*
D50*
X3878745Y3127753D3*
Y3077753D3*
Y3027753D3*
Y2977753D3*
X4091344D3*
Y3027753D3*
Y3077753D3*
Y3127753D3*
D51*
X3985045Y3052753D3*
D53*
X2593701Y3193701D3*
Y3156299D3*
Y3118898D3*
X2700000D3*
Y3156299D3*
Y3193701D3*
D33*
X3281201Y3168701D3*
D34*
X3181201D3*
X3281201Y3268701D3*
X3181201D3*
M02*
